<svg xmlns="http://www.w3.org/2000/svg" viewBox="0 0 24 24" width="24" height="24"><path fill="currentColor" d="M21.275 17.175L9.05 12.725l2.4-6.575l12.225 4.45zm-8.625-8.45l-1.025 2.8zM20.25 20l-18.8-6.85l.675-1.875l18.8 6.85zM4.2 10.675Q3.325 9.8 3.325 8.55T4.2 6.425t2.125-.875t2.125.875t.875 2.125t-.875 2.125t-2.125.875t-2.125-.875m2.837-1.412q.288-.288.288-.713t-.288-.712t-.712-.288t-.712.288t-.288.712t.288.713t.712.287t.713-.288m4.587 2.263l8.45 3.1l1.05-2.85l-8.475-3.05zm-5.3-2.95"/></svg>