<svg xmlns="http://www.w3.org/2000/svg" viewBox="0 0 24 24" width="24" height="24"><path fill="currentColor" d="M8.513 21.288q-1.638-.713-2.863-1.938t-1.937-2.863T3 13h2q0 2.9 2.05 4.95T12 20t4.95-2.05T19 13h2q0 1.85-.712 3.488T18.35 19.35t-2.863 1.938T12 22t-3.488-.712M3 13q0-1.85.713-3.488T5.65 6.65t2.863-1.937T12 4q1.55 0 2.975.5t2.675 1.45l1.4-1.4l1.4 1.4l-1.4 1.4Q20 8.6 20.5 10.025T21 13h-2q0-2.9-2.05-4.95T12 6T7.05 8.05T5 13zM9 3V1h6v2zM7.4 7.725Q5.45 9.45 5.075 12h3.55l1.3 2.4L14 7.25L16.6 12h2.325Q18.55 9.45 16.6 7.725T12 6T7.4 7.725m9.2 10.55Q18.55 16.55 18.925 14h-3.55l-1.3-2.4L10 18.75L7.4 14H5.075q.375 2.55 2.325 4.275T12 20t4.6-1.725m-9.55-.325Q5 15.9 5 13t2.05-4.95T12 6t4.95 2.05T19 13t-2.05 4.95T12 20t-4.95-2.05M12 13"/></svg>