<svg xmlns="http://www.w3.org/2000/svg" viewBox="0 0 24 24" width="24" height="24"><path fill="currentColor" d="M9.713 17.713Q10 17.425 10 17t-.288-.712T9 16t-.712.288T8 17t.288.713T9 18t.713-.288m3 0Q13 17.426 13 17t-.288-.712T12 16t-.712.288T11 17t.288.713T12 18t.713-.288m3 0Q16 17.426 16 17t-.288-.712T15 16t-.712.288T14 17t.288.713T15 18t.713-.288m-6-3Q10 14.425 10 14t-.288-.712T9 13t-.712.288T8 14t.288.713T9 15t.713-.288m3 0Q13 14.426 13 14t-.288-.712T12 13t-.712.288T11 14t.288.713T12 15t.713-.288m3 0Q16 14.426 16 14t-.288-.712T15 13t-.712.288T14 14t.288.713T15 15t.713-.288M7 12h10v-1q0-2.075-1.463-3.537T12 6T8.463 7.463T7 11zm1.55-1.5q.2-1.275 1.163-2.137T12 7.5t2.288.863T15.45 10.5zM2 22V2h20v20zm2-2h16V4H4zm0 0V4z"/></svg>