<svg xmlns="http://www.w3.org/2000/svg" viewBox="0 0 24 24" width="24" height="24"><path fill="currentColor" d="M5 22v-2H3V5h2V3h8.375q-.125.35-.213.725t-.137.775H7V6h6.075q.1.475.275.975T13.8 8H5v4h12.1l1.9 1.625l2-1.7V20h-2v2h-3v-2H8v2zM18.288 5.712Q18 5.425 18 5t.288-.712T19 4t.713.288T20 5t-.288.713T19 6t-.712-.288m2.487-2.45q.725.763.725 1.838q0 .8-.612 1.763T19.025 9q-1.275-1.2-1.9-2.15T16.5 5.1q0-1.075.725-1.838T19 2.5t1.775.762M19 11q2.025-1.725 3.013-3.187T23 5.1q0-1.7-1.162-2.9T19 1t-2.837 1.2T15 5.1q0 1.25.988 2.713T19 11M5 14v4h14v-4zm1 3h4v-2H6zm8 0h4v-2h-4zm-9 1v-4z"/></svg>