<svg xmlns="http://www.w3.org/2000/svg" viewBox="0 0 24 24" width="24" height="24"><path fill="currentColor" d="M6.5 20q-1.025 0-1.875-.537T3.35 18H0v-8h3l2-5.5h10l1.425 2.375l-1.375 1.6L13.875 6.5H6.4l-2 5.5H2v4h3v.5q0 .625.438 1.063T6.5 18t1.063-.437T8 16.5V16h8v.5q0 .625.438 1.063T17.5 18t1.063-.437T19 16.5V16h3v-4.15l-3.65-.325l1.6-1.85L24 10v8h-3.35q-.425.925-1.275 1.463T17.5 20t-1.875-.537T14.35 18h-4.7q-.425.925-1.275 1.463T6.5 20m3.5-5.5l1.05-1.05l-.675-.7h4.95L21.55 5.5l-1.125-1l-5.775 6.75h-4.275l.675-.7L10 9.5L7.5 12z"/></svg>