<svg xmlns="http://www.w3.org/2000/svg" viewBox="0 0 24 24"><path fill="currentColor" d="M5 17v-5zm2.5-1q.625 0 1.063-.437T9 14.5t-.437-1.062T7.5 13t-1.062.438T6 14.5t.438 1.063T7.5 16m9 0q.625 0 1.063-.437T18 14.5t-.437-1.062T16.5 13t-1.062.438T15 14.5t.438 1.063T16.5 16M3 21v-9l2.45-7h6.575q-.05.5-.012 1t.162 1H6.85L5.8 10h8.025q.925.95 2.125 1.475T18.5 12H5v5h14v-5.025q.525-.05 1.013-.162T21 11.5V21h-3v-2H6v2zm15.5-11q-.15 0-.2-.15q-.4-1.525-1.513-2.637T14.15 5.7Q14 5.65 14 5.5t.15-.2q1.525-.375 2.638-1.5T18.3 1.15q.05-.15.2-.15t.2.15q.4 1.525 1.513 2.638T22.85 5.3q.15.025.15.2q0 .15-.15.2q-1.525.4-2.637 1.513T18.7 9.85q-.025.15-.2.15"/></svg>