<svg xmlns="http://www.w3.org/2000/svg" viewBox="0 0 24 24" width="24" height="24"><path fill="currentColor" d="m17 21.25l-4.5-2.625V13.4l4.5-2.625l4.5 2.625v5.2zm-2.35-7.4L17 15.225l2.35-1.375L17 12.5zm3.1 5.2l2.25-1.3V15l-2.25 1.325zM14 17.75l2.25 1.325V16.35L14 15.025zm-6.825-6.925Q6 9.65 6 8t1.175-2.825T10 4t2.825 1.175T14 8t-1.175 2.825T10 12t-2.825-1.175M2 20v-2.8q0-.825.425-1.55t1.175-1.1q1.275-.65 2.875-1.1T10 13h.35q.15 0 .3.05q-.2.45-.337.938T10.1 15H10q-1.775 0-3.187.45t-2.313.9q-.225.125-.363.35T4 17.2v.8h6.3q.15.525.4 1.038t.55.962zm9.413-10.587Q12 8.825 12 8t-.587-1.412T10 6t-1.412.588T8 8t.588 1.413T10 10t1.413-.587M10.3 18"/></svg>