<svg xmlns="http://www.w3.org/2000/svg" viewBox="0 0 24 24" width="24" height="24"><path fill="currentColor" d="M3 20v-7.75q-.65-.175-1.075-.712T1.5 10.3V5h1v4h.75V5h1v4H5V5h1v5.3q0 .7-.425 1.238T4.5 12.25V20zm12 0q-3.35 0-5.675-2.325T7 12q0-3.325 2.325-5.663T15 4q3.325 0 5.663 2.338T23 12q0 3.35-2.337 5.675T15 20m4.9-11.475L16.4 12l3.475 3.475q.525-.725.825-1.612T21 12t-.287-1.863t-.813-1.612M16 6.075V9.6l2.475-2.5q-.55-.4-1.175-.65T16 6.075M15 18q.95 0 1.838-.288t1.612-.812L14 12.425v-6.35q-2.15.35-3.575 2.025T9 12q0 2.5 1.75 4.25T15 18"/></svg>