<svg xmlns="http://www.w3.org/2000/svg" viewBox="0 0 24 24"><path fill="currentColor" d="m18.8 20.05l-3.175-2.475l.8-1.125l3.125 2.4l-1.3-3.9l1.25-.525l1.3 3.925l1.025-4l1.325.375L21.4 21.5h-6.45v-1.45zm-12.3.45q-1.45 0-2.475-1.025T3 17q0-.725.275-1.362T4.05 14.5q-.5-.475-.775-1.125T3 12t.275-1.362T4.05 9.5q-.5-.475-.775-1.125T3 7q0-1.425 1.025-2.463T6.5 3.5q.725 0 1.363.287T9 4.576q.475-.5 1.125-.788T11.5 3.5h6q1.425 0 2.463 1.038T21 7q0 .725-.288 1.375T19.926 9.5q.575.575.85 1.313t.2 1.537q-.475-.175-.975-.25t-1-.075q0-.625-.437-1.075T17.5 10.5h-6q-.625 0-1.062.438T10 12t.438 1.063t1.062.437h3.575q-.475.425-.862.925T13.55 15.5H11.5q-.625 0-1.062.438T10 17t.438 1.063t1.062.437h1.525q.05.525.175 1.025t.325.975H11.5q-.725 0-1.375-.275T9 19.45q-.5.5-1.137.775T6.5 20.5m0-2q.625 0 1.063-.437T8 17t-.437-1.062T6.5 15.5t-1.062.438T5 17t.438 1.063T6.5 18.5m0-5q.625 0 1.063-.437T8 12t-.437-1.062T6.5 10.5t-1.062.438T5 12t.438 1.063T6.5 13.5m0-5q.625 0 1.063-.437T8 7t-.437-1.062T6.5 5.5t-1.062.438T5 7t.438 1.063T6.5 8.5m5 0h6q.625 0 1.063-.437T19 7t-.437-1.062T17.5 5.5h-6q-.625 0-1.062.438T10 7t.438 1.063T11.5 8.5m-2.475 1"/></svg>