<svg xmlns="http://www.w3.org/2000/svg" viewBox="0 0 24 24" width="24" height="24"><path fill="currentColor" d="M2 22v-9.65L10.525 9H2V2h20v10.7L15.675 15H22v7zm2-2h16v-3H4zM20 7V4H4v3zM4 15h5.8L20 11.3V9h-3.95L4 13.7zm2.213-8.962Q6 5.825 6 5.5t.213-.537t.537-.213t.538.213t.212.537t-.213.538t-.537.212t-.537-.213m0 13Q6 18.826 6 18.5t.213-.537t.537-.213t.538.213t.212.537t-.213.538t-.537.212t-.537-.213m1-4.75Q7 14.076 7 13.75t.213-.537T7.75 13t.538.213t.212.537t-.213.538t-.537.212t-.537-.213m4.25-8.25q-.213-.212-.213-.537t.213-.537T12 4.75t.538.213t.212.537t-.213.538T12 6.25t-.537-.213m0 6.75q-.213-.212-.213-.537t.213-.537T12 11.5t.538.213t.212.537t-.213.538T12 13t-.537-.213m0 6.25q-.213-.212-.213-.537t.213-.537t.537-.213t.538.213t.212.537t-.213.538t-.537.212t-.537-.213m4-7.75q-.213-.212-.213-.537t.213-.537T16 10t.538.213t.212.537t-.213.538T16 11.5t-.537-.213m1.25-5.25Q16.5 5.826 16.5 5.5t.213-.537t.537-.213t.538.213T18 5.5t-.213.538t-.537.212t-.537-.213m0 13q-.213-.212-.213-.537t.213-.537t.537-.213t.538.213t.212.537t-.213.538t-.537.212t-.537-.213"/></svg>