<svg xmlns="http://www.w3.org/2000/svg" viewBox="0 0 24 24" width="24" height="24"><path fill="currentColor" d="M7 21V3v5.025V8zm5.713-15.288Q13 5.425 13 5t-.288-.712T12 4t-.712.288T11 5t.288.713T12 6t.713-.288M11.175 23H5V1h14v7.4q-.5-.15-.987-.238T17 8.025V3H7v18h2.35q.3.575.763 1.025t1.062.975m5.325 0q-2.725 0-4.637-1.937T10 16.4q.05-2.6 1.925-4.475T16.4 10q2.725-.05 4.663 1.863T23 16.5V23zm3.188-3.312Q21 18.375 21 16.5t-1.312-3.187T16.5 12t-3.187 1.313T12 16.5t1.313 3.188T16.5 21t3.188-1.312M15.75 19.5v-2.25h-2.125v-1.5h2.125V13.5h1.5v2.25h2.125v1.5H17.25v2.25z"/></svg>