<svg xmlns="http://www.w3.org/2000/svg" viewBox="0 0 24 24" width="24" height="24"><path fill="currentColor" d="M13 22v-7h2v5h6V6h-6v3h-2V4h10v18zM1 20V2h10v7H9V4H3v14h6v-3h2v5zM18.538 8.288q.212-.213.212-.538t-.213-.537T18 7t-.537.213t-.213.537t.213.538T18 8.5t.538-.213m-12-2q.212-.212.212-.537t-.213-.537T6 5t-.537.213t-.213.537t.213.538T6 6.5t.538-.213M3 18V4zm18 2V6zM7.288 12.713Q7 12.425 7 12t.288-.712T8 11t.713.288T9 12t-.288.713T8 13t-.712-.288m4 0Q11 12.426 11 12t.288-.712T12 11t.713.288T13 12t-.288.713T12 13t-.712-.288m4 0Q15 12.426 15 12t.288-.712T16 11t.713.288T17 12t-.288.713T16 13t-.712-.288"/></svg>