<svg xmlns="http://www.w3.org/2000/svg" viewBox="0 0 24 24"><path fill="currentColor" d="M6 20V4zm6-4.5q1.725 0 3.063-1.05t1.762-2.65q-.95-.275-1.775-.8t-1.475-1.25h-2.3q.075-1.025.3-1.662T12 7.175V5.5q-2.075 0-3.537 1.463T7 10.5t1.463 3.538T12 15.5M4 22V2h9.025q-.3.475-.513.975T12.176 4H6v16h12v-8q.5.05 1 0t1-.175V22zm8-8.175q-.2-.275-.425-.913t-.3-1.662h1.45q-.075 1.025-.3 1.663t-.425.912m-1.8-.325q-.6-.375-1.025-.95t-.575-1.3h1.175q.05.625.15 1.188T10.2 13.5M8.6 9.75q.15-.725.575-1.3T10.2 7.5q-.175.5-.275 1.063t-.15 1.187zm5.2 3.75q.175-.5.275-1.062t.15-1.188H15.4q-.15.725-.575 1.3t-1.025.95m-5.3 5h7V17h-7zm10-8.5q-.15 0-.2-.15q-.4-1.525-1.513-2.637T14.15 5.7Q14 5.65 14 5.5t.15-.2q1.525-.375 2.638-1.5T18.3 1.15q.05-.15.2-.15t.2.15q.4 1.525 1.513 2.638T22.85 5.3q.15.025.15.2q0 .15-.15.2q-1.525.4-2.637 1.513T18.7 9.85q-.025.15-.2.15"/></svg>