<svg xmlns="http://www.w3.org/2000/svg" viewBox="0 0 24 24" width="24" height="24"><path fill="currentColor" d="M7.388 17.288Q5.425 15.575 5.075 13H2v-2h3.075q.35-2.575 2.313-4.288T12 5t4.613 1.713T18.925 11H22v2h-3.075q-.35 2.575-2.312 4.288T12 19t-4.612-1.713M12 17q2.075 0 3.538-1.463T17 12t-1.463-3.537T12 7T8.463 8.463T7 12t1.463 3.538T12 17m-3-1.5h6v-5h-1v-.9q0-.875-.575-1.487T12 7.5q-.825 0-1.412.588T10 9.5v1H9zm3-1.75q-.325 0-.537-.213T11.25 13t.213-.537t.537-.213t.538.213t.212.537t-.213.538t-.537.212m-1-3.25v-1q0-.425.288-.712T12 8.5t.713.288T13 9.5v1zm1 2.5"/></svg>