<svg xmlns="http://www.w3.org/2000/svg" viewBox="0 0 24 24" width="24" height="24"><path fill="currentColor" d="M4 22h4.975q-.325-.425-.55-.925T8.075 20H6V9.075L11.05 4l4.925 5.075V12q.525 0 1.025.1t.975.3V8.275l-6.9-7.1L4 8.25zm7-12.975q-.625 0-1.037-.438T9.5 7.525q.05-.625.463-1.062T11 6.025t1.025.438t.475 1.062q-.075.625-.475 1.063T11 9.025M13 22q-1.275 0-2.137-.862T10 19q0-1.2.825-2.062t2.025-.913q.4-.9 1.238-1.463T15.925 14q1.175 0 2.138.663t1.262 1.837q1.125 0 1.9.813T22 19.25t-.712 1.938T19.5 22zm0-2h6.25q.3 0 .525-.213T20 19.25q0-.3-.225-.525t-.525-.225h-1.425l-.425-1.425q-.125-.5-.525-.788t-.9-.287q-.425 0-.787.25t-.538.625L14.15 18H13q-.425 0-.712.288T12 19t.288.713T13 20m3 0"/></svg>