<svg xmlns="http://www.w3.org/2000/svg" viewBox="0 0 24 24" width="24" height="24"><path fill="currentColor" d="M5.55 22.025q-.8 0-1.537-.3t-1.313-.9l-.175-.175q-.225-.2-.287-.5t.062-.575l5.275-13.5l2.725.5q.425.1.813-.062t.662-.438q.35-.375.463-.788t-.013-.837L11.8 3.2L14.6.4l6.9 7.025l-1.275 1.35l1.15 1.25l-1.4 1.4l-1.125-1.175l-.7.725l1.15 1.15l-1.45 1.4l-1.125-1.125l-2.8 2.85l1.125 1.125l-1.45 1.4l-1.075-1.125l-.7.725l1.1 1.1l-1.45 1.4L10.4 18.8l-.7.7l1.05 1.1l-1.4 1.4l-1.075-1.1q-.575.575-1.262.85t-1.463.275m-1.7-6.375l.55-1.4zm.975-2.5l.55-1.4zm.975-2.5l.55-1.375zM5.55 20q.425 0 .775-.15t.65-.425L18.75 7.45L14.6 3.225l-.5.525q.3 1 .113 1.937T13.2 7.475q-.65.65-1.512.963T9.9 8.55l-1.025-.225l-.6 1.6l1.225.4l-.475 1.425l-1.3-.45l-.425 1.1l1.125.4l-.45 1.425L6.75 13.8l-.45 1.1l1.075.375L6.9 16.7l-1.15-.4l-1.325 3.35q.25.2.538.275T5.55 20m6.05-8.4"/></svg>