<svg xmlns="http://www.w3.org/2000/svg" viewBox="0 0 24 24" width="24" height="24"><path fill="currentColor" d="m7.625 18.925l-6.8-1.3l.35-1.95l7 1.3zm.95-3.4L.875 13.4l.55-1.925L9.1 13.6zm2.8 7.475l-9.65-.875l.2-2L11.55 21q.725.075 1.325-.337t.8-1.113l1.275-4.625q.05-.15.038-.325t-.088-.325l-1.375-3.25L13.4 14.3L3.875 9.325l.9-1.775l6.75 3.525l.125-3l2.55-.5l2.55 5.925q.2.475.225.975t-.1 1L15.6 20.1q-.375 1.4-1.575 2.225t-2.65.675m-3.9-15.725L6.3 5.85L7.85 4.6l2.375 2.85l-.05 1.225zm4.275-.75L9.05 2.65l1.675-1.15L13.9 6.125zm6.625 9.125q.125-.575.1-1.175T18.25 13.3l.65-.4q.15-.1.238-.238t.137-.312L20.3 9l-2.2 2.425l-4.125-9.95L15.825.7l2.925 7.025L20.725 5.5l2.35 1.325L21.2 12.95q-.15.5-.45.913t-.725.687zm-.275-4.225"/></svg>