<svg xmlns="http://www.w3.org/2000/svg" viewBox="0 0 24 24"><path fill="currentColor" d="m7.625 18.925l-6.8-1.3l.35-1.95l7 1.3zm.95-3.4l-7.7-2.075l.525-1.925L9.1 13.6zm5.05-6.325l-4.55-6.5L10.7 1.575l4.575 6.55zm4.825 6.4l-1.525-1.475L18.9 12.9q.15-.075.238-.213t.137-.337L20.3 9l-2.2 2.425l-4.15-9.9L15.825.75l2.925 6.975L20.725 5.5l2.35 1.325L21.2 12.95q-.15.5-.45.913t-.725.687zm-3.175-.3L3.85 9.375l.925-1.75l5.8 2.975zm-13.55 6.825l.175-1.95l9.65.825q.725.075 1.325-.325t.8-1.125l.65-2.4L1.4 4.2l1.4-1.4l18.4 18.4l-1.4 1.4l-3.85-3.825l-.35 1.325q-.4 1.425-1.587 2.225T11.375 23zm15.2-8"/></svg>