<svg xmlns="http://www.w3.org/2000/svg" viewBox="0 0 24 24" width="24" height="24"><path fill="currentColor" d="M3.25 20.75L2.175 19.7L6 15.925q-.7-.8-1.25-1.65T3.775 12.5h1.5q.35.675.775 1.3T7 15q.8-.9 1.4-1.9t.975-2.1H1V9.5h5.25V8h1.5v1.5h5.45V11h-2.4q-.425 1.35-1.113 2.575T8.025 15.9q.35.425.938.988t.937.912l-.575 1.525q-.425-.4-1.125-1.088T7 17zM9.125 23l3.375-9h1.625l3.375 9h-1.55l-.825-2.3H11.5l-.8 2.3zm2.85-3.6h2.675l-1.35-3.8zM15 13v-1.5h6.5v-9h-13v4H7V1h16v12zm6.5-1.5v-9zM9.75 8h1.5V5.5h1.5V6h1.5V4h-4.5zm6 2h4.5V8h-1.5v.5h-1.5v-3h1.5V6h1.5V4h-4.5z"/></svg>