<svg xmlns="http://www.w3.org/2000/svg" viewBox="0 0 24 24" width="24" height="24"><path fill="currentColor" d="M9 21h6v-5q-.625.475-1.388.738T12 17t-1.612-.262T9 16zm5.125-6.875Q15 13.25 15 12t-.875-2.125T12 9t-2.125.875T9 12t.875 2.125T12 15t2.125-.875M9 8q.625-.475 1.388-.737T12 7t1.613.263T15 8V3H9zM7 23V1h10v22zm3.938-9.937Q10.5 12.625 10.5 12t.438-1.062T12 10.5t1.063.438T13.5 12t-.437 1.063T12 13.5t-1.062-.437m1.774-7.35Q13 5.424 13 5t-.288-.712T12 4t-.712.288T11 5t.288.713T12 6t.713-.288M12 7"/></svg>