<svg xmlns="http://www.w3.org/2000/svg" viewBox="0 0 24 24" width="24" height="24"><path fill="currentColor" d="M11.213 12.213q.287-.288.287-.713t-.288-.712t-.712-.288t-.712.288t-.288.712t.288.713t.712.287t.713-.288m3 0q.287-.287.287-.712t-.288-.712t-.712-.288t-.712.288t-.288.712t.288.713t.712.287t.713-.288m-6 0q.287-.287.287-.712t-.288-.712T7.5 10.5t-.712.288t-.288.712t.288.713t.712.287t.713-.288m9 0q.287-.287.287-.712t-.288-.712t-.712-.288t-.712.288t-.288.712t.288.713t.712.287t.713-.288M4 21v-2H2V4h20v15h-2v2h-1l-.65-2H5.675L5 21zm0-4h16V6H4zm8-5.5"/></svg>