<svg xmlns="http://www.w3.org/2000/svg" width="24" height="24" viewBox="0 0 24 24"><path d="M11 5V3h2v2h-2Zm0 16v-2h2v2h-2ZM7 5V3h2v2H7Zm0 16v-2h2v2H7Zm-.7-5.7l-2.6-2.6q-.3-.3-.3-.7t.3-.7l2.6-2.6q.275-.275.688-.287T7.7 8.7q.275.275.275.7t-.275.7l-.875.9H12q.425 0 .713.288T13 12q0 .425-.288.713T12 13H6.825l.9.9q.275.275.275.688t-.3.712q-.275.275-.7.275t-.7-.275ZM17 19h2V5h-2v14Zm0 2q-.825 0-1.413-.588T15 19V5q0-.825.588-1.413T17 3h2q.825 0 1.413.588T21 5v14q0 .825-.588 1.413T19 21h-2Zm0-2h2h-2ZM5 21q-.825 0-1.413-.588T3 19h2v2ZM3 5q0-.825.588-1.413T5 3v2H3Z"/></svg>