<svg xmlns="http://www.w3.org/2000/svg" viewBox="0 0 24 24"><path fill="currentColor" d="M9.4 17.025H4.3q-.275 0-.45-.175t-.175-.45v-.8q0-.125.038-.262t.162-.213Q5.15 14.1 5.988 13.413T7.3 12.05q.4-.55.6-1.037t.2-1.163q0-.575-.425-.987T6.65 8.45q-.425 0-.737.238t-.513.587q-.175.325-.513.45T4.226 9.7q-.35-.175-.425-.55t.075-.725q.35-.8 1.138-1.238T6.65 6.75q1.575 0 2.438.8T9.95 9.8q0 .925-.35 1.725t-.9 1.525q-.575.775-1.162 1.263T6.225 15.35l.05.075H9.4q.35 0 .575.225t.225.575t-.225.575t-.575.225M13.2 17q-.425 0-.712-.287T12.2 16V7.975q0-.425.288-.712t.712-.288h2.35q2.425 0 3.713 1.3T20.55 12t-1.3 3.713T15.55 17zm.9-1.8h1.35q1.65 0 2.438-.775T18.675 12t-.787-2.437t-2.438-.788H14.1z"/></svg>