<svg xmlns="http://www.w3.org/2000/svg" viewBox="0 0 24 24"><path fill="currentColor" d="M6.775 19H11.7l-3.45-6H5.925L4.6 15.275q-.35.575-.337 1.238T4.6 17.75t.913.913T6.775 19M12 15.5l1.45-2.5h-2.9zM7.075 11H14.6l1.15-2l-1.6-2.75q-.35-.575-.912-.913T12 5t-1.25.338t-.925.912zM13.3 21H6.775Q5.55 21 4.5 20.4t-1.65-1.65t-.6-2.25t.6-2.25l5.25-9Q8.7 4.2 9.75 3.6T12 3t2.25.6t1.65 1.65l4.675 8q-.6-.15-1.213-.2t-1.212.05l-1.25-2.125l-2.25 3.9q-.8.8-1.237 1.875t-.438 2.3q0 .5.088 1t.237.95m4.7-1h-2q-.425 0-.712-.288T15 19t.288-.712T16 18h2v-2q0-.425.288-.712T19 15t.713.288T20 16v2h2q.425 0 .713.288T23 19t-.288.713T22 20h-2v2q0 .425-.288.713T19 23t-.712-.288T18 22zm-1.1-9.025"/></svg>