<svg xmlns="http://www.w3.org/2000/svg" viewBox="0 0 24 24"><path fill="currentColor" d="M9.975 4H14q3.35 0 5.688 2.325T22.025 12q0 .425-.287.713t-.713.287t-.712-.288t-.288-.712q0-2.5-1.775-4.25T13.975 6H10Q7.5 6 5.725 7.75T3.95 12t1.775 4.25T10 18h2q.425 0 .7.288t.275.712t-.288.713t-.712.287h-2q-3.35 0-5.687-2.325T1.95 12t2.338-5.675T9.974 4M19 14q.425 0 .713.288T20 15v2h2q.425 0 .713.288T23 18t-.288.713T22 19h-2v2.025q0 .425-.288.7T19 22t-.712-.288T18 21v-2h-2.025q-.425 0-.7-.288T15 18t.288-.712T16 17h2v-2q0-.425.288-.712T19 14m-3.475-5.275l-4.95 4.95L8.45 11.55q-.3-.275-.7-.288t-.7.288t-.3.713t.3.687l2.475 2.475q.45.45 1.063.45t1.062-.45l5.3-5.3q.275-.275.275-.687t-.275-.713q-.325-.275-.725-.288t-.7.288"/></svg>