<svg xmlns="http://www.w3.org/2000/svg" viewBox="0 0 24 24" width="24" height="24"><path fill="currentColor" d="M3 19V7q0-1.65 1.175-2.825T7 3h7q1.65 0 2.825 1.175T18 7q0 .425-.288.713T17 8q-.4 0-.7-.312T16 7q0-.825-.587-1.412T14 5H7q-.825 0-1.412.588T5 7v12h11v-1q0-.425.288-.712T17 17t.713.288T18 18v1q0 .825-.587 1.413T16 21H5q-.825 0-1.412-.587T3 19m10.325-4.175Q14.5 13.65 14.5 12t-1.175-2.825T10.5 8T7.675 9.175T6.5 12t1.175 2.825T10.5 16t2.825-1.175m-4.237-1.412Q8.5 12.825 8.5 12t.588-1.412T10.5 10t1.413.588T12.5 12t-.587 1.413T10.5 14t-1.412-.587m12.75-3.7q-.288.287-.713.287q-.25 0-.425.113t-.3.337q-.375.725-1.037 1.138T17.9 12q-.425 0-.725-.288t-.3-.712t.3-.712T17.9 10q.225 0 .4-.112t.3-.338q.375-.725 1.05-1.138T21.125 8q.425 0 .713.288t.287.712t-.288.713M22.126 13q0 .425-.3.713T21.1 14q-.225 0-.4.113t-.3.337q-.375.725-1.037 1.138T17.9 16q-.425 0-.725-.288t-.3-.712t.3-.712T17.9 14q.225 0 .4-.112t.3-.338q.375-.725 1.038-1.138T21.1 12q.425 0 .725.288t.3.712M16 19H5zh-.125z"/></svg>