<svg xmlns="http://www.w3.org/2000/svg" viewBox="0 0 24 24" width="24" height="24"><path fill="currentColor" d="M3.875 18.125Q3 17.25 3 16q-.825 0-1.412-.587T1 14V7q0-.825.588-1.412T3 5h13.175q.4 0 .763.15t.637.425l4.85 4.85q.275.275.425.638t.15.762V14q0 .825-.587 1.413T21 16q0 1.25-.875 2.125T18 19t-2.125-.875T15 16H9q0 1.25-.875 2.125T6 19t-2.125-.875M15 10h4l-3-3h-1zm-6 0h4V7H9zm-6 0h4V7H3zm3.888 6.888q.362-.363.362-.888t-.363-.888T6 14.75t-.888.363T4.75 16t.363.888t.887.362t.888-.363m12 0q.362-.362.362-.887t-.363-.888T18 14.75t-.888.363t-.362.887t.363.888t.887.362t.888-.363M8.2 14h7.6q.425-.45.975-.725T18 13t1.225.275t.975.725h.8v-2H3v2h.8q.425-.45.975-.725T6 13t1.225.275T8.2 14M21 12H3z"/></svg>