<svg xmlns="http://www.w3.org/2000/svg" viewBox="0 0 24 24" width="24" height="24"><path fill="currentColor" d="M10.713 16.713Q11 16.425 11 16V9.975q0-.425-.288-.7T10 9t-.712.288T9 10v6q0 .425.288.713T10 17t.713-.288m4 0Q15 16.426 15 16V9.975q0-.425-.288-.7T14 9t-.712.288T13 10v6q0 .425.288.713T14 17t.713-.288m-6.225 4.575q-1.638-.712-2.85-1.925t-1.925-2.85T3 13t.713-3.512t1.924-2.85t2.85-1.925T12 4t3.513.713t2.85 1.925t1.925 2.85T21 13t-.712 3.513t-1.925 2.85t-2.85 1.925T12 22t-3.512-.712M2.05 7.3q-.275-.275-.275-.7t.275-.7L4.9 3.05q.275-.275.7-.275t.7.275t.275.7t-.275.7L3.45 7.3q-.275.275-.7.275t-.7-.275m19.9 0q-.275.275-.7.275t-.7-.275L17.7 4.45q-.275-.275-.275-.7t.275-.7t.7-.275t.7.275l2.85 2.85q.275.275.275.7t-.275.7M12 20q2.925 0 4.963-2.037T19 13t-2.037-4.962T12 6T7.038 8.038T5 13t2.038 4.963T12 20"/></svg>