<svg xmlns="http://www.w3.org/2000/svg" viewBox="0 0 24 24" width="24" height="24"><path fill="currentColor" d="M7.288 12.288Q7 12.575 7 13v3q0 .425.288.713T8 17t.713-.288T9 16v-3q0-.425-.288-.712T8 12t-.712.288m8-5Q15 7.575 15 8v8q0 .425.288.713T16 17t.713-.288T17 16V8q0-.425-.288-.712T16 7t-.712.288m-4 7Q11 14.575 11 15v1q0 .425.288.713T12 17t.713-.288T13 16v-1q0-.425-.288-.712T12 14t-.712.288M5 21q-.825 0-1.412-.587T3 19V5q0-.825.588-1.412T5 3h14q.825 0 1.413.588T21 5v14q0 .825-.587 1.413T19 21zm0-2h14V5H5zM5 5v14zm7.713 6.713Q13 11.425 13 11t-.288-.712T12 10t-.712.288T11 11t.288.713T12 12t.713-.288"/></svg>