<svg xmlns="http://www.w3.org/2000/svg" viewBox="0 0 24 24" width="24" height="24"><path fill="currentColor" d="M15.725 19.275Q15 18.55 15 17.5t.725-1.775T17.5 15q.2 0 .45.038t.55.162V11q0-.425.288-.712T19.5 10H21q.425 0 .713.288T22 11t-.288.713T21 12h-1v5.5q0 1.05-.725 1.775T17.5 20t-1.775-.725M4 20q-.425 0-.713-.288T3 19v-1.8q0-.875.438-1.575T4.6 14.55q1.55-.775 3.15-1.162T11 13q.575 0 1.175.038t1.175.162q.525.1.725.45t.15.725t-.35.65t-.775.175q-.525-.1-1.037-.15T11 15q-1.425 0-2.8.35t-2.7 1q-.225.125-.362.35T5 17.2v.8h7.325q.5 0 .75.313t.25.687t-.25.688t-.75.312zm4.175-9.175Q7 9.65 7 8t1.175-2.825T11 4t2.825 1.175T15 8t-1.175 2.825T11 12t-2.825-1.175m4.237-1.412Q13 8.825 13 8t-.587-1.412T11 6t-1.412.588T9 8t.588 1.413T11 10t1.413-.587M11 18"/></svg>