<svg xmlns="http://www.w3.org/2000/svg" viewBox="0 0 24 24" width="24" height="24"><path fill="currentColor" d="M12.713 16.713Q13 16.425 13 16t-.288-.712T12 15t-.712.288T11 16t.288.713T12 17t.713-.288m0-4Q13 12.425 13 12V8q0-.425-.288-.712T12 7t-.712.288T11 8v4q0 .425.288.713T12 13t.713-.288M5 21q-.825 0-1.412-.587T3 19V5q0-.825.588-1.412T5 3h4.2q.325-.9 1.088-1.45T12 1t1.713.55T14.8 3H19q.825 0 1.413.588T21 5v14q0 .825-.587 1.413T19 21zm0-2h14V5H5zm7.538-14.962q.212-.213.212-.538t-.213-.537T12 2.75t-.537.213t-.213.537t.213.538t.537.212t.538-.213M5 19V5z"/></svg>