<svg xmlns="http://www.w3.org/2000/svg" viewBox="0 0 24 24" width="24" height="24"><path fill="currentColor" d="M9.5 10.5q-1.675 0-2.838 1.175T5.5 14.5q0 1.675 1.163 2.838T9.5 18.5q1.65 0 2.825-1.162T13.5 14.5q0-1.65-1.175-2.825T9.5 10.5m0 2q.825 0 1.413.588T11.5 14.5t-.587 1.413T9.5 16.5t-1.412-.587T7.5 14.5t.588-1.412T9.5 12.5M20 15q-.425 0-.712.288T19 16q0 1.2-.913 2.1T16 19q-.425 0-.712.288T15 20t.288.713T16 21q2.2 0 3.6-1.4T21 16q0-.425-.288-.712T20 15m0-2q1.25 0 2.125.875T23 16q0 3.025-1.987 5.013T16 23q-1.275 0-2.137-.862T13 20q0-1.25.863-2.125T16 17q.35 0 .675-.325T17 16q0-1.25.863-2.125T20 13M9.5 2q1.475 0 2.688.938t2.112 2.3t1.5 2.937t.85 2.85q.075.4-.175.688t-.65.287q-.45 0-.775-.275t-.45-.7q-.325-1.375-.887-2.637t-1.25-2.238t-1.45-1.563T9.5 4q-.95 0-1.925.925T5.8 7.288T4.5 10.5T4 14q0 1.375.35 2.475t1.038 1.888T7.1 19.575T9.475 20H10q.425-.05.763.188t.387.662q.1.5-.363.825T9.7 22q-3.6.075-5.65-2.137T2 14q0-1.875.563-3.988t1.575-3.887t2.387-2.95T9.5 2m8 15.5"/></svg>