<svg xmlns="http://www.w3.org/2000/svg" viewBox="0 0 24 24" width="24" height="24"><path fill="currentColor" d="M6.288 19.65Q4 17.3 4 13.8q0-1.55.7-3.1t1.75-2.975T8.725 5.05T11 2.875q.2-.2.463-.287T12 2.5t.538.088t.462.287q1.05.925 2.275 2.175t2.275 2.675T19.3 10.7t.7 3.1q0 3.5-2.287 5.85T12 22t-5.712-2.35M16.3 18.238Q18 16.475 18 13.8q0-1.825-1.513-4.125T12 4.65Q9.025 7.375 7.513 9.675T6 13.8q0 2.675 1.7 4.438T12 20t4.3-1.763M10 18h4q.425 0 .713-.288T15 17t-.288-.712T14 16h-4q-.425 0-.712.288T9 17t.288.713T10 18m1-5v1q0 .425.288.713T12 15t.713-.288T13 14v-1h1q.425 0 .713-.288T15 12t-.288-.712T14 11h-1v-1q0-.425-.288-.712T12 9t-.712.288T11 10v1h-1q-.425 0-.712.288T9 12t.288.713T10 13z"/></svg>