<svg xmlns="http://www.w3.org/2000/svg" viewBox="0 0 24 24" width="24" height="24"><path fill="currentColor" d="M7 18h8q.825 0 1.413-.587T17 16v-3H5v3q0 .825.588 1.413T7 18m1.563-1.437Q9 16.125 9 15.5t-.437-1.062T7.5 14t-1.062.438T6 15.5t.438 1.063T7.5 17t1.063-.437m7 0Q16 16.125 16 15.5t-.437-1.062T14.5 14t-1.062.438T13 15.5t.438 1.063T14.5 17t1.063-.437M5 22q-.425 0-.712-.288T4 21v-2.05q-.45-.5-.725-1.112T3 16.5V7q0-2.075 1.925-3.037T11 3h.688q.337 0 .662.025q.4.025.65.338t.175.712q-.075.425-.413.688T12 5h-.95q-2.175 0-3.6.25t-2 .75h7q.425 0 .713.288T13.45 7t-.287.713T12.45 8H5v3h11.55q.2 0 .363.113t.237.312q.225.5.6.85t.85.55q.175.075.288.213t.112.337V16.5q0 .725-.275 1.338T18 18.95V21q0 .425-.288.713T17 22h-1q-.425 0-.712-.288T15 21v-1H7v1q0 .425-.288.713T6 22zM19.025 9q-1.275-1.2-1.9-2.15T16.5 5.1q0-1.075.725-1.838T19 2.5t1.775.762T21.5 5.1q0 .8-.612 1.763T19.025 9M19 1q-1.675 0-2.837 1.2T15 5.1q0 1.15.85 2.488t2.575 2.912q.25.225.575.213t.575-.213Q21.3 8.925 22.15 7.588T23 5.1q0-1.7-1.162-2.9T19 1M5 13h12zm8.075-7H5.45zm5.213-.288Q18 5.426 18 5t.288-.712T19 4t.713.288T20 5t-.288.713T19 6t-.712-.288M19 5"/></svg>