<svg xmlns="http://www.w3.org/2000/svg" viewBox="0 0 24 24" width="24" height="24"><path fill="currentColor" d="M4 22q-.825 0-1.412-.587T2 20V5q0-.825.588-1.412T4 3h1V2q0-.425.288-.712T6 1h4q.425 0 .713.288T11 2v1h1q.825 0 1.413.588T14 5h6q.825 0 1.413.588T22 7v11q0 .825-.587 1.413T20 20h-6q0 .825-.587 1.413T12 22zm0-2h8v-2h8V7h-8V5H4zm6.713-10.288Q11 9.425 11 9t-.288-.712T10 8t-.712.288T9 9t.288.713T10 10t.713-.288m4 0Q15 9.426 15 9t-.288-.712T14 8t-.712.288T13 9t.288.713T14 10t.713-.288m4 0Q19 9.426 19 9t-.288-.712T18 8t-.712.288T17 9t.288.713T18 10t.713-.288m-8 7Q11 16.426 11 16t-.288-.712T10 15t-.712.288T9 16t.288.713T10 17t.713-.288m4 0Q15 16.426 15 16t-.288-.712T14 15t-.712.288T13 16t.288.713T14 17t.713-.288m4 0Q19 16.426 19 16t-.288-.712T18 15t-.712.288T17 16t.288.713T18 17t.713-.288M8 12.5"/></svg>