<svg xmlns="http://www.w3.org/2000/svg" viewBox="0 0 24 24"><path fill="currentColor" d="M5 17v-5zm2.5-1q.625 0 1.063-.437T9 14.5t-.437-1.062T7.5 13t-1.062.438T6 14.5t.438 1.063T7.5 16m9 0q.625 0 1.063-.437T18 14.5t-.437-1.062T16.5 13t-1.062.438T15 14.5t.438 1.063T16.5 16M5 21H4q-.425 0-.712-.288T3 20v-7.65q0-.175.025-.35t.075-.325L5.1 6q.15-.45.538-.725T6.5 5h4.675q.425 0 .712.288t.288.712t-.288.713t-.712.287H6.85L5.8 10h9.375q.425 0 .713.288t.287.712t-.288.713t-.712.287H5v5h14v-4.025q0-.425.288-.712t.712-.288t.713.288t.287.712V20q0 .425-.288.713T20 21h-1q-.425 0-.712-.288T18 20v-1H6v1q0 .425-.288.713T5 21m13.5-11q-.15 0-.2-.15q-.4-1.525-1.513-2.637T14.15 5.7Q14 5.65 14 5.5t.15-.2q1.525-.375 2.638-1.5T18.3 1.15q.05-.15.2-.15t.2.15q.4 1.525 1.513 2.638T22.85 5.3q.15.025.15.2q0 .15-.15.2q-1.525.4-2.637 1.513T18.7 9.85q-.025.15-.2.15"/></svg>