<svg xmlns="http://www.w3.org/2000/svg" viewBox="0 0 24 24" width="24" height="24"><path fill="currentColor" d="M8 16.1q-.825 0-1.412-.587T6 14.1V5q0-.825.588-1.412T8 3h12q.825 0 1.413.588T22 5v9.1q0 .825-.587 1.413T20 16.1zm0-2h12V5H8zm0 0V5zM17 9q.425 0 .713-.288T18 8t-.288-.712T17 7h-6.025q-.425 0-.7.288T10 8t.288.713T11 9zm-3 3q.425 0 .713-.288T15 11t-.288-.712T14 10h-3.025q-.425 0-.7.288T10 11t.288.713T11 12zm-8.55 8.975q-.825.125-1.475-.375T3.2 19.275l-1.325-9.9q-.05-.425.2-.75t.675-.375q.4-.05.725.188t.375.662l1.4 9.9l6.85-.95l4.1-.575q.45-.075.8.225t.35.775q0 .375-.25.663t-.625.337z"/></svg>