<svg xmlns="http://www.w3.org/2000/svg" viewBox="0 0 24 24" width="24" height="24"><path fill="currentColor" d="M14 21v-1.65q0-.2.075-.387t.225-.338l5.225-5.2q.225-.225.5-.325t.55-.1q.3 0 .575.113t.5.337l.925.925q.2.225.313.5t.112.55t-.1.563t-.325.512l-5.2 5.2q-.15.15-.337.225T16.65 22H15q-.425 0-.712-.287T14 21m7.5-5.575l-.925-.925zm-6 5.075h.95l3.025-3.05l-.45-.475l-.475-.45l-3.05 3.025zm3.525-3.525l-.475-.45l.925.925zM11 10V5q0-.425.288-.712T12 4h9q.425 0 .713.288T22 5v5q0 .425-.288.713T21 11h-9q-.425 0-.712-.288T11 10m-9 9v-5q0-.425.288-.712T3 13h8q.425 0 .713.288T12 14v5q0 .425-.288.713T11 20H3q-.425 0-.712-.288T2 19m0-9V5q0-.425.288-.712T3 4h5q.425 0 .713.288T9 5v5q0 .425-.288.713T8 11H3q-.425 0-.712-.288T2 10m11-1h7V6h-7zm-9 9h6v-3H4zm0-9h3V6H4zm3 0"/></svg>