<svg xmlns="http://www.w3.org/2000/svg" viewBox="0 0 24 24" width="24" height="24"><path fill="currentColor" d="M11 10V5q0-.425.288-.712T12 4h9q.425 0 .713.288T22 5v5q0 .425-.288.713T21 11h-9q-.425 0-.712-.288T11 10m-9 9v-5q0-.425.288-.712T3 13h8q.425 0 .713.288T12 14v5q0 .425-.288.713T11 20H3q-.425 0-.712-.288T2 19m0-9V5q0-.425.288-.712T3 4h5q.425 0 .713.288T9 5v5q0 .425-.288.713T8 11H3q-.425 0-.712-.288T2 10m11-1h7V6h-7zm-9 9h6v-3H4zm0-9h3V6H4zm11.6 10.9l-.725.225q-.325.1-.637-.025t-.488-.4l-.2-.35q-.175-.3-.125-.65t.325-.575l.55-.475q-.05-.325-.05-.65t.05-.65l-.55-.475q-.275-.225-.325-.562t.125-.638l.225-.375q.175-.275.475-.4t.625-.025l.725.225q.275-.2.538-.337t.562-.263l.15-.725q.075-.35.337-.562T17.8 12h.4q.35 0 .613.225t.337.575l.15.7q.3.125.562.262t.538.338l.725-.225q.325-.1.638.025t.487.4l.2.35q.175.3.125.65t-.325.575l-.55.475q.05.325.05.65t-.05.65l.55.475q.275.225.325.563t-.125.637l-.225.375q-.175.275-.475.4t-.625.025L20.4 19.9q-.275.2-.537.337t-.563.263l-.15.725q-.075.35-.337.563T18.2 22h-.4q-.35 0-.612-.225t-.338-.575l-.15-.7q-.3-.125-.562-.262T15.6 19.9m3.813-1.487Q20 17.825 20 17t-.587-1.412T18 15t-1.412.588T16 17t.588 1.413T18 19t1.413-.587"/></svg>