<svg xmlns="http://www.w3.org/2000/svg" viewBox="0 0 24 24" width="24" height="24"><path fill="currentColor" d="M7.288 13.713Q7 13.425 7 13t.288-.712T8 12t.713.288T9 13t-.288.713T8 14t-.712-.288m4 0Q11 13.426 11 13t.288-.712T12 12t.713.288T13 13t-.288.713T12 14t-.712-.288m4 0Q15 13.426 15 13t.288-.712T16 12t.713.288T17 13t-.288.713T16 14t-.712-.288M5 22q-.825 0-1.412-.587T3 20V6q0-.825.588-1.412T5 4h1V3q0-.425.288-.712T7 2t.713.288T8 3v1h8V3q0-.425.288-.712T17 2t.713.288T18 3v1h1q.825 0 1.413.588T21 6v14q0 .825-.587 1.413T19 22zm0-2h14V10H5zM5 8h14V6H5zm0 0V6z"/></svg>