<svg xmlns="http://www.w3.org/2000/svg" viewBox="0 0 24 24" width="24" height="24"><path fill="currentColor" d="M5.288 14.713Q5 14.425 5 14t.288-.712T6 13t.713.288T7 14t-.288.713T6 15t-.712-.288m0 4Q5 18.426 5 18t.288-.712T6 17t.713.288T7 18t-.288.713T6 19t-.712-.288m0-8Q5 10.425 5 10t.288-.712T6 9t.713.288T7 10t-.288.713T6 11t-.712-.288M2.65 10.35Q2.5 10.2 2.5 10t.15-.35T3 9.5t.35.15t.15.35t-.15.35t-.35.15t-.35-.15m2.638-3.637Q5 6.425 5 6t.288-.712T6 5t.713.288T7 6t-.288.713T6 7t-.712-.288M2.65 14.35Q2.5 14.2 2.5 14t.15-.35t.35-.15t.35.15t.15.35t-.15.35t-.35.15t-.35-.15m7 7Q9.5 21.2 9.5 21t.15-.35t.35-.15t.35.15t.15.35t-.15.35t-.35.15t-.35-.15m0-18Q9.5 3.2 9.5 3t.15-.35t.35-.15t.35.15t.15.35t-.15.35t-.35.15t-.35-.15m-.363 3.363Q9 6.425 9 6t.288-.712T10 5t.713.288T11 6t-.288.713T10 7t-.712-.288m-.35 8.35Q8.5 14.626 8.5 14t.438-1.062T10 12.5t1.063.438T11.5 14t-.437 1.063T10 15.5t-1.062-.437m0-4Q8.5 10.625 8.5 10t.438-1.062T10 8.5t1.063.438T11.5 10t-.437 1.063T10 11.5t-1.062-.437m.35 7.65Q9 18.425 9 18t.288-.712T10 17t.713.288T11 18t-.288.713T10 19t-.712-.288M17.275 7.4Q15.55 5.45 13 5.075q-.425-.05-.712-.35T12 4t.3-.712t.725-.238q3.375.4 5.675 2.938T21 12t-2.3 6.013t-5.675 2.937q-.425.05-.725-.237T12 20t.288-.725t.712-.35q2.55-.375 4.275-2.325T19 12t-1.725-4.6M12 12"/></svg>