<svg xmlns="http://www.w3.org/2000/svg" viewBox="0 0 24 24" width="24" height="24"><path fill="currentColor" d="M9.525 7.975Q8.5 6.95 8.5 5.5t1.025-2.475T12 2t2.475 1.025T15.5 5.5t-1.025 2.475T12 9T9.525 7.975m3.538-1.412q.437-.438.437-1.063t-.437-1.062T12 4t-1.062.438T10.5 5.5t.438 1.063T12 7t1.063-.437m-2.488 14.012L6 16q-.5-.5-.75-1.125T5 13.5q0-1.475 1.013-2.488T8.5 10q.725 0 1.338.275t1.112.775L12 12.1l1.05-1.05q.5-.5 1.113-.775T15.5 10q1.475 0 2.488 1.013T19 13.5q0 .75-.25 1.375T18 16l-4.575 4.575q-.3.3-.675.45t-.75.15t-.75-.15t-.675-.45M12 19.15l4.55-4.55q.225-.225.338-.512T17 13.5q0-.6-.425-1.05T15.5 12q-.3 0-.537.088t-.463.312L12 14.9l-2.5-2.5q-.15-.15-.387-.275T8.5 12q-.65 0-1.075.45T7 13.5q0 .3.125.563t.325.487zm0-3.575"/></svg>