<svg xmlns="http://www.w3.org/2000/svg" viewBox="0 0 24 24"><path fill="currentColor" d="M11.225 17H17q.425 0 .713-.288T18 16t-.288-.712T17 15h-3.775zM7 17h1.65q.2 0 .388-.075t.337-.225l6.2-6.2q.225-.225.325-.513t.1-.562t-.113-.55t-.312-.5l-.925-.925q-.225-.225-.5-.337T13.575 7q-.275 0-.55.1t-.5.325l-6.225 6.2q-.15.15-.225.338T6 14.35V16q0 .425.288.713T7 17m7.5-7.575l-.925-.925zm-7 6.075v-.95l4.05-4.025l.475.45l.45.475L8.45 15.5zm4.525-4.525l.45.475l-.925-.925zM5 21q-.825 0-1.412-.587T3 19V5q0-.825.588-1.412T5 3h14q.825 0 1.413.588T21 5v14q0 .825-.587 1.413T19 21zm0-2h14V5H5zM5 5v14z"/></svg>