<svg xmlns="http://www.w3.org/2000/svg" viewBox="0 0 24 24"><path fill="currentColor" d="m20 17.15l-2-2v-.75l1.125-.55q.4-.2.638-.55t.237-.8q0-.425-.238-.788t-.637-.562L18 10.625V6h-4.8l-.25-1.7q-.075-.55-.487-.925T11.5 3q-.575 0-.987.375t-.488.925L9.775 6H8.85l-2-2h1.2q.175-1.275 1.15-2.137T11.5 1q1.3 0 2.275.863T14.95 4H18q.825 0 1.413.588T20 6v3.35q.9.45 1.45 1.3T22 12.5q0 1.025-.55 1.875T20 15.65zM18 19l2 2H5q-.85 0-1.425-.575T3 19v-3.125q0-.275.2-.488t.475-.262q.975-.2 1.65-.913T6 12.5q0-.975-.675-1.675T3.675 9.9Q3.4 9.825 3.2 9.612T3 9.125V4l2 2v2.15q1.4.525 2.2 1.7T8 12.5q0 1.5-.8 2.675t-2.2 1.7V19zm3.2 3.6q-.3.3-.712.3t-.713-.3L1.375 4.225q-.3-.3-.288-.712T1.4 2.8t.713-.3t.712.3L21.2 21.2q.3.3.3.7t-.3.7"/></svg>