<svg xmlns="http://www.w3.org/2000/svg" viewBox="0 0 24 24" width="24" height="24"><path fill="currentColor" d="m16.35 19.175l3.55-3.55q.3-.3.7-.288t.7.313q.275.3.275.7t-.275.7l-4.225 4.25q-.3.3-.7.3t-.7-.3l-2.15-2.15q-.275-.275-.275-.7t.275-.7t.7-.275t.7.275zM4 13q0-2.925 1.775-5.587t4.875-4.638q.425-.275.888-.012T12 3.55V5.3q0 .85.588 1.425t1.437.575q.45 0 .838-.187t.687-.563q.2-.25.488-.3t.562.125q1.4.975 2.275 2.475t1.075 3.225q.05.425-.225.675t-.65.3t-.725-.187t-.425-.788q-.075-.5-.225-.962t-.362-.888t-.5-.825t-.638-.75q-.5.325-1.05.488t-1.125.162q-1.55 0-2.687-1.025T10.025 5.75Q8.075 7.4 7.037 9.263T6 13q0 2.05 1.213 3.625T10.3 18.75q.4.125.6.488t.075.762t-.488.6t-.762.075Q8.45 20.3 7.362 19.538T5.475 17.65q-.7-.975-1.087-2.162T4 13"/></svg>