<svg xmlns="http://www.w3.org/2000/svg" viewBox="0 0 24 24" width="24" height="24"><path fill="currentColor" d="M15.375 11.738q1.75-.263 3.25-.738q.5-.2.938.125t.437.85v7.15q0 .625-.363 1.138T18.7 21q-1.425.475-3.187.738T12 22t-3.512-.262T5.3 21q-.575-.225-.937-.737T4 19.124v-7.15q0-.525.438-.85T5.375 11q1.5.475 3.25.738T12 12t3.375-.262M18 19v-5.75q-1.25.35-2.887.55T12 14t-3.113-.2T6 13.25V19q1.25.45 2.875.725T12 20t3.125-.275T18 19M14.825 3.175Q16 4.35 16 6t-1.175 2.825T12 10T9.175 8.825T8 6t1.175-2.825T12 2t2.825 1.175m-1.412 4.238Q14 6.825 14 6t-.587-1.412T12 4t-1.412.588T10 6t.588 1.413T12 8t1.413-.587M12 16.624"/></svg>