<svg xmlns="http://www.w3.org/2000/svg" viewBox="0 0 24 24" width="24" height="24"><path fill="currentColor" d="M4 21q-1.25 0-2.125-.875T1 18q0-.65.25-1.237T2 15.75V12q0-.425.288-.712T3 11h1V6q0-.425.288-.712T5 5h5.675q.6 0 1.1.325t.75.9l4.175 9.85q.15.35.225.7T17 17.5q0 1.45-1.025 2.475T13.5 21q-1.025 0-1.888-.537T10.326 19h-3.5q-.325.9-1.1 1.45T4 21m18-1h-3q-.425 0-.712-.288T18 19V5q0-.425.288-.712T19 4t.713.288T20 5v13h2q.425 0 .713.288T23 19t-.288.713T22 20M4.713 18.713Q5 18.425 5 18t-.288-.712T4 17t-.712.288T3 18t.288.713T4 19t.713-.288m9.85-.15Q15 18.126 15 17.5t-.437-1.062T13.5 16t-1.062.438T12 17.5t.438 1.063T13.5 19t1.063-.437M6.825 17h3.2q.05-.275.113-.513t.187-.487h-2.25L5.15 13H4v2q.95 0 1.725.55t1.1 1.45m2.1-3h4.725l-2.975-7H6v4zm-.85 2l-.462-.475q-.463-.475-1-1.037t-1-1.025L5.15 13H4h1.15zh2.25z"/></svg>