<svg xmlns="http://www.w3.org/2000/svg" viewBox="0 0 24 24" width="24" height="24"><path fill="currentColor" d="M7.5 18V9h9v9v-9h-9zM6 8.85V18h1.5v-8q0-.425.288-.712T8.5 9h7q.425 0 .713.288T16.5 10v8H18V8.85L12 4.5zM9 12h6v-1.5H9zm3-4q.425 0 .713-.288T13 7t-.288-.712T12 6t-.712.288T11 7t.288.713T12 8M6 20q-.825 0-1.412-.587T4 18v-8H2.525q-.35 0-.475-.35t.175-.55l8.6-6.25q.525-.375 1.175-.375t1.175.375l8.6 6.25q.3.2.175.55t-.475.35H20v8q0 .825-.588 1.413T18 20h-2q-.425 0-.712-.288T15 19v-5.5H9V19q0 .425-.288.713T8 20z"/></svg>