<svg xmlns="http://www.w3.org/2000/svg" viewBox="0 0 24 24" width="24" height="24"><path fill="currentColor" d="M2.288 16.713Q2 16.425 2 16V8q0-.425.288-.712T3 7t.713.288T4 8v8q0 .425-.288.713T3 17t-.712-.288M6 19q-.425 0-.712-.288T5 18V9q0-1.65 1.175-2.825T9 5h6q1.65 0 2.825 1.175T19 9v9q0 .425-.288.713T18 19zm14.288-2.287Q20 16.425 20 16V8q0-.425.288-.712T21 7t.713.288T22 8v8q0 .425-.288.713T21 17t-.712-.288M7 17h4v-4h-1q-.425 0-.712-.288T9 12t.288-.712T10 11h1V7H9q-.825 0-1.412.588T7 9zm6 0h4V9q0-.825-.587-1.412T15 7h-2v4h1q.425 0 .713.288T15 12t-.288.713T14 13h-1z"/></svg>