<svg xmlns="http://www.w3.org/2000/svg" viewBox="0 0 24 24" width="24" height="24"><path fill="currentColor" d="M6 6h12q.425 0 .713.288T19 7t-.288.713T18 8H6q-.425 0-.712-.288T5 7t.288-.712T6 6m2-3h8q.425 0 .713.288T17 4t-.288.713T16 5H8q-.425 0-.712-.288T7 4t.288-.712T8 3m-2.6 8l.35 2.15q.35 2.15.925 5.85zm6.425 10H5.85q-.375 0-.662-.238t-.338-.587l-1.65-10q-.075-.45.213-.812T4.175 9H19.8q.475 0 .775.363t.225.812l-.15.825H5.4l1.275 8h4.55q.075.55.238 1.05t.362.95m5.05.525q-.3-.125-.562-.262t-.538-.338l-.725.225q-.325.1-.638-.025t-.487-.4l-.2-.35q-.175-.3-.125-.65t.325-.575l.55-.475q-.05-.325-.05-.65t.05-.65l-.55-.475q-.275-.225-.325-.562t.125-.638l.225-.375q.175-.275.475-.4t.625-.025l.725.225q.275-.2.538-.337t.562-.263l.15-.725q.075-.35.338-.562t.612-.213h.4q.35 0 .613.225t.337.575l.15.7q.3.125.562.262t.538.338l.725-.225q.325-.1.638.025t.487.4l.2.35q.175.3.125.65t-.325.575l-.55.475q.05.325.05.65t-.05.65l.55.475q.275.225.325.563t-.125.637l-.225.375q-.175.275-.475.4t-.625.025l-.725-.225q-.275.2-.537.337t-.563.263l-.15.725q-.075.35-.337.563t-.613.212h-.4q-.35 0-.612-.225t-.338-.575zm2.713-2.087q.587-.588.587-1.413t-.587-1.412t-1.413-.588t-1.412.588t-.588 1.412t.588 1.413t1.412.587t1.413-.587"/></svg>