<svg xmlns="http://www.w3.org/2000/svg" viewBox="0 0 24 24" width="24" height="24"><path fill="currentColor" d="M15.563 17.563Q16 17.125 16 16.5t-.437-1.062T14.5 15t-1.062.438T13 16.5t.438 1.063T14.5 18t1.063-.437M9.45 17.55q.4 0 .7-.3l5.1-5.1q.3-.3.3-.7t-.3-.7t-.712-.3t-.713.3L8.75 15.825q-.3.3-.3.713t.3.712t.7.3m1.113-4.988Q11 12.126 11 11.5t-.437-1.062T9.5 10t-1.062.438T8 11.5t.438 1.063T9.5 13t1.063-.437M6.288 19.65Q4 17.3 4 13.8q0-1.55.7-3.1t1.75-2.975T8.725 5.05T11 2.875q.2-.2.463-.287T12 2.5t.538.088t.462.287q1.05.925 2.275 2.175t2.275 2.675T19.3 10.7t.7 3.1q0 3.5-2.287 5.85T12 22t-5.712-2.35M16.3 18.238Q18 16.475 18 13.8q0-1.825-1.513-4.125T12 4.65Q9.025 7.375 7.513 9.675T6 13.8q0 2.675 1.7 4.438T12 20t4.3-1.763M12 12"/></svg>