<svg xmlns="http://www.w3.org/2000/svg" viewBox="0 0 24 24"><path fill="currentColor" d="M7.425 10.75L6.6 9.925Q6.375 9.7 6.075 9.7t-.525.225t-.225.538t.225.537l1.2 1.15q.3.275.7.288t.7-.288l2.3-2.3q.225-.225.225-.525T10.45 8.8t-.525-.225T9.4 8.8zM6.25 16h3q.325 0 .538-.213T10 15.25t-.213-.537t-.537-.213h-3q-.325 0-.537.213t-.213.537t.213.538t.537.212m10.163-4.587Q17 10.825 17 10t-.587-1.412T15 8t-1.412.588T13 10t.588 1.413T15 12t1.413-.587M4 20q-.825 0-1.412-.587T2 18V6q0-.825.588-1.412T4 4h16q.825 0 1.413.588T22 6v12q0 .825-.587 1.413T20 20zm0-2h16V6H4zm0 0V6zm11-5q-.9 0-1.625.163t-1.275.512q-.525.325-.8.738t-.275.887q0 .3.225.5t.55.2h6.4q.325 0 .55-.213t.225-.537q0-.425-.275-.825t-.8-.75q-.55-.35-1.275-.513T15 13"/></svg>