<svg xmlns="http://www.w3.org/2000/svg" viewBox="0 0 24 24" width="24" height="24"><path fill="currentColor" d="M19.85 22.525L2.175 4.85q-.3-.3-.287-.712t.312-.713t.713-.3t.712.3L21.275 21.1zM9 16q-.425 0-.712-.288T8 15t.288-.712T9 14h5.175l2 2zm13-9v9.5q0 .5-.312.75T21 17.5t-.687-.25T20 16.5V7h-9.5q-.5 0-.75-.312T9.5 6t.25-.687T10.5 5H20q.825 0 1.413.588T22 7M4 19q-.825 0-1.412-.587T2 17V7q0-.825.588-1.412T4 5h1.175l2 2H4v10h13.175l2 2zm1.288-9.287Q5 9.425 5 9t.288-.712T6 8t.713.288T7 9t-.288.713T6 10t-.712-.288M12.7 9.7l-1.4-1.4q.125-.125.313-.213T12 8q.425 0 .713.288T13 9q0 .2-.088.388T12.7 9.7m1.588.013Q14 9.425 14 9t.288-.712T15 8t.713.288T16 9t-.288.713T15 10t-.712-.288m3 0Q17 9.426 17 9t.288-.712T18 8t.713.288T19 9t-.288.713T18 10t-.712-.288m-12 3Q5 12.426 5 12t.288-.712T6 11t.713.288T7 12t-.288.713T6 13t-.712-.288m3 0Q8 12.426 8 12t.288-.712T9 11t.713.288T10 12t-.288.713T9 13t-.712-.288M15.7 12.7l-1.4-1.4q.125-.125.313-.213T15 11q.425 0 .713.288T16 12q0 .2-.088.388t-.212.312m1.588.013Q17 12.425 17 12t.288-.712T18 11t.713.288T19 12t-.288.713T18 13t-.712-.288"/></svg>