<svg xmlns="http://www.w3.org/2000/svg" viewBox="0 0 24 24" width="24" height="24"><path fill="currentColor" d="M4 22q-.825 0-1.412-.587T2 20V10q0-.825.588-1.412T4 8h16q.825 0 1.413.588T22 10v10q0 .825-.587 1.413T20 22zm0-2h16V10H4zm5-1h6q.425 0 .713-.288T16 18t-.288-.712T15 17H9q-.425 0-.712.288T8 18t.288.713T9 19m-5 1V10zM9.375 4H10q.425 0 .713.288T11 5t-.288.713T10 6H7q-.425 0-.712-.288T6 5V2q0-.425.288-.712T7 1t.713.288T8 2v.525Q8.8 1.8 9.825 1.4T12 1q2 0 3.575 1.188t2.15 3.062q.1.325-.175.538T16.875 6t-.75-.15t-.5-.5q-.5-1.05-1.463-1.7T12 3q-.75 0-1.425.263T9.375 4m-2.662 8.713Q7 12.425 7 12t-.288-.712T6 11t-.712.288T5 12t.288.713T6 13t.713-.288m3 0Q10 12.426 10 12t-.288-.712T9 11t-.712.288T8 12t.288.713T9 13t.713-.288m3 0Q13 12.426 13 12t-.288-.712T12 11t-.712.288T11 12t.288.713T12 13t.713-.288m3 0Q16 12.426 16 12t-.288-.712T15 11t-.712.288T14 12t.288.713T15 13t.713-.288m3 0Q19 12.426 19 12t-.288-.712T18 11t-.712.288T17 12t.288.713T18 13t.713-.288m-12 3Q7 15.426 7 15t-.288-.712T6 14t-.712.288T5 15t.288.713T6 16t.713-.288m3 0Q10 15.426 10 15t-.288-.712T9 14t-.712.288T8 15t.288.713T9 16t.713-.288m3 0Q13 15.426 13 15t-.288-.712T12 14t-.712.288T11 15t.288.713T12 16t.713-.288m3 0Q16 15.426 16 15t-.288-.712T15 14t-.712.288T14 15t.288.713T15 16t.713-.288m1.575 0Q17.575 16 18 16t.713-.288T19 15t-.288-.712T18 14t-.712.288T17 15t.288.713"/></svg>