<svg xmlns="http://www.w3.org/2000/svg" viewBox="0 0 24 24" width="24" height="24"><path fill="currentColor" d="M15 11q-.225 0-.437.1t-.338.275l1.4 1.4q.175-.125.275-.337T16 12q0-.425-.287-.712T15 11m-1.825 5H9q-.425 0-.712-.288T8 15t.288-.712T9 14h4.175zm6.6 6.6L1.4 4.225q-.3-.3-.3-.712t.3-.713t.7-.3t.7.3l18.375 18.4q.3.3.3.7t-.3.7t-.7.3t-.7-.3M20 5q.825 0 1.413.588T22 7v4.45q0 .5-.312.75t-.688.25t-.687-.25t-.313-.75V7h-9.725q-.5 0-.75-.312T9.275 6t.25-.687t.75-.313zM4 19q-.825 0-1.412-.587T2 17V7q0-.825.588-1.412T4 5h1l2 2H4v10h9q.425 0 .713.288T14 18t-.288.713T13 19zm12.85 3q-.35 0-.6-.25t-.25-.6v-3.3q0-.35.25-.6t.6-.25H17l4 4v1zM22 19.15l-2-2V16q0-.425-.288-.713T19 15q-.225 0-.437.1t-.338.275l-.7-.725q.275-.3.663-.475T19 14q.825 0 1.413.588T21 16v1h.15q.35 0 .6.25t.25.6zM5.288 9.713Q5 9.425 5 9t.288-.712T6 8t.713.288T7 9t-.288.713T6 10t-.712-.288m0 3Q5 12.426 5 12t.288-.712T6 11t.713.288T7 12t-.288.713T6 13t-.712-.288m3 0Q8 12.426 8 12t.288-.712T9 11t.713.288T10 12t-.288.713T9 13t-.712-.288m7.425-3Q16 9.426 16 9t-.288-.712T15 8t-.712.288T14 9t.288.713T15 10t.713-.288m3 0Q19 9.426 19 9t-.288-.712T18 8t-.712.288T17 9t.288.713T18 10t.713-.288m-1.426 1.876Q17 11.875 17 12.3t.288.713t.712.287t.713-.288T19 12.3t-.288-.712T18 11.3t-.712.288M12 8q-.225 0-.437.1t-.338.275l1.4 1.4q.175-.125.275-.337T13 9q0-.425-.287-.712T12 8m.9 2.025"/></svg>