<svg xmlns="http://www.w3.org/2000/svg" viewBox="0 0 24 24" width="24" height="24"><path fill="currentColor" d="M3 20q-.825 0-1.412-.587T1 18V6q0-.825.588-1.412T3 4h18q.825 0 1.413.588T23 6v12q0 .825-.587 1.413T21 20zm0-2h18V6H3zm6-1h6q.425 0 .713-.288T16 16t-.288-.712T15 15H9q-.425 0-.712.288T8 16t.288.713T9 17m-6 1V6zm3.713-8.287Q7 9.425 7 9t-.288-.712T6 8t-.712.288T5 9t.288.713T6 10t.713-.288m4 0Q11 9.426 11 9t-.288-.712T10 8t-.712.288T9 9t.288.713T10 10t.713-.288m4 0Q15 9.426 15 9t-.288-.712T14 8t-.712.288T13 9t.288.713T14 10t.713-.288m4 0Q19 9.426 19 9t-.288-.712T18 8t-.712.288T17 9t.288.713T18 10t.713-.288m-12 3.5Q7 12.926 7 12.5t-.288-.712T6 11.5t-.712.288T5 12.5t.288.713T6 13.5t.713-.288m4 0Q11 12.926 11 12.5t-.288-.712T10 11.5t-.712.288T9 12.5t.288.713t.712.287t.713-.288m4 0Q15 12.926 15 12.5t-.288-.712T14 11.5t-.712.288T13 12.5t.288.713t.712.287t.713-.288m4 0Q19 12.926 19 12.5t-.288-.712T18 11.5t-.712.288T17 12.5t.288.713t.712.287t.713-.288"/></svg>