<svg xmlns="http://www.w3.org/2000/svg" viewBox="0 0 24 24" width="24" height="24"><path fill="currentColor" d="M8.713 16.713Q9 16.425 9 16t-.288-.712T8 15t-.712.288T7 16t.288.713T8 17t.713-.288m0-4Q9 12.425 9 12t-.288-.712T8 11t-.712.288T7 12t.288.713T8 13t.713-.288m0-4Q9 8.426 9 8t-.288-.712T8 7t-.712.288T7 8t.288.713T8 9t.713-.288M12 17h4q.425 0 .713-.288T17 16t-.288-.712T16 15h-4q-.425 0-.712.288T11 16t.288.713T12 17m0-4h4q.425 0 .713-.288T17 12t-.288-.712T16 11h-4q-.425 0-.712.288T11 12t.288.713T12 13m0-4h4q.425 0 .713-.288T17 8t-.288-.712T16 7h-4q-.425 0-.712.288T11 8t.288.713T12 9M5 21q-.825 0-1.412-.587T3 19V5q0-.825.588-1.412T5 3h14q.825 0 1.413.588T21 5v14q0 .825-.587 1.413T19 21zm0-2h14V5H5zM5 5v14z"/></svg>