<svg xmlns="http://www.w3.org/2000/svg" viewBox="0 0 24 24"><path fill="currentColor" d="M6.713 17.713Q7 17.425 7 17t-.288-.712T6 16t-.712.288T5 17t.288.713T6 18t.713-.288m12 0Q19 17.426 19 17t-.288-.712T18 16t-.712.288T17 17t.288.713T18 18t.713-.288M17 13h4.25L19 10h-2zM3.875 19.125Q3 18.25 3 17H2q-.425 0-.712-.288T1 16v-4.825q0-.425.288-.712T2 10.175t.713.288t.287.712V15h.8q.425-.45.975-.725T6 14t1.225.275T8.2 15H15V6h-2.1q-.4 0-.675-.262t-.325-.663q-.05-.425.263-.75T12.9 4H16q.425 0 .713.288T17 5v3h2q.475 0 .9.213t.7.587l2 2.675q.2.275.3.575t.1.625V16q0 .425-.288.713T22 17h-1q0 1.25-.875 2.125T18 20t-2.125-.875T15 17H9q0 1.25-.875 2.125T6 20t-2.125-.875M5.5 10q-.15 0-.2-.15q-.4-1.525-1.513-2.637T1.15 5.7Q1 5.65 1 5.5t.15-.2q1.525-.375 2.638-1.5T5.3 1.15Q5.35 1 5.5 1t.2.15q.4 1.525 1.513 2.638T9.85 5.3q.15.025.15.2q0 .15-.15.2q-1.525.4-2.637 1.513T5.7 9.85q-.025.15-.2.15"/></svg>