<svg xmlns="http://www.w3.org/2000/svg" viewBox="0 0 24 24"><path fill="currentColor" d="m12 11l8-5H4zm-8 9q-.825 0-1.412-.587T2 18V6q0-.825.588-1.412T4 4h16q.825 0 1.413.588T22 6v5.6q0 .425-.288.713T21 12.6t-.712-.287T20 11.6V8l-6.95 4.35q-.5.3-1.05.3t-1.05-.3L4 8v10h7.025q.425 0 .713.288t.287.712t-.288.713t-.712.287zm14.5 3q-.15 0-.2-.15q-.4-1.525-1.513-2.637T14.15 18.7q-.15-.05-.15-.2q0-.175.15-.2q1.525-.4 2.638-1.513T18.3 14.15q.05-.15.2-.15t.2.15q.4 1.525 1.513 2.638T22.85 18.3q.15.025.15.2q0 .15-.15.2q-1.525.4-2.637 1.513T18.7 22.85q-.025.15-.2.15"/></svg>