<svg xmlns="http://www.w3.org/2000/svg" viewBox="0 0 24 24" width="24" height="24"><path fill="currentColor" d="M7.713 14.713Q8 14.425 8 14v-4q0-.425-.288-.712T7 9t-.712.288T6 10v4q0 .425.288.713T7 15t.713-.288m5 0Q13 14.426 13 14v-4q0-.425-.288-.712T12 9t-.712.288T11 10v4q0 .425.288.713T12 15t.713-.288m5 0Q18 14.426 18 14v-4q0-.425-.288-.712T17 9t-.712.288T16 10v4q0 .425.288.713T17 15t.713-.288M4 17h16V7H4zm0 0V7zm0 2q-.825 0-1.412-.587T2 17V7q0-.825.588-1.412T4 5h1V4q0-.425.288-.712T6 3t.713.288T7 4v1h4V4q0-.425.288-.712T12 3t.713.288T13 4v1h4V4q0-.425.288-.712T18 3t.713.288T19 4v1h1q.825 0 1.413.588T22 7v10q0 .825-.587 1.413T20 19h-1v1q0 .425-.288.713T18 21t-.712-.288T17 20v-1h-4v1q0 .425-.288.713T12 21t-.712-.288T11 20v-1H7v1q0 .425-.288.713T6 21t-.712-.288T5 20v-1z"/></svg>