<svg xmlns="http://www.w3.org/2000/svg" viewBox="0 0 24 24" width="24" height="24"><path fill="currentColor" d="M7.288 20.713Q7 20.425 7 20v-2.075q-2.325-.325-3.937-1.937T1.1 12.125q-.075-.425.2-.775T2 11t.725.338t.4.787Q3.5 13.8 4.85 14.9T8 16h.25q.125 0 .25-.025q.325.5.7.938t.8.812q-.25.075-.488.113T9 17.925V20q0 .425-.288.713T8 21t-.712-.288m6.587-7.587Q13 12.25 13 11V5q0-1.25.875-2.125T16 2t2.125.875T19 5v6q0 1.25-.875 2.125T16 14t-2.125-.875m2.838-1.412Q17 11.425 17 11V5q0-.425-.288-.712T16 4t-.712.288T15 5v6q0 .425.288.713T16 12t.713-.288M7.5 13.95q-1.075-.2-1.787-1.025T5 11V5q0-1.25.875-2.125T8 2t2.125.875T11 5v4.175q-.25-.1-.488-.137T10 9q-1.225 0-2.075.863t-.85 2.087q0 .5.125 1t.3 1m11.65.95q1.35-1.1 1.725-2.775q.1-.45.4-.788T22 11t.7.35t.2.775q-.35 2.25-1.963 3.863T17 17.925V20q0 .425-.288.713T16 21t-.712-.288T15 20v-2.075q-2.325-.325-3.937-1.937T9.1 12.125q-.075-.425.2-.775T10 11t.725.338t.4.787Q11.5 13.8 12.85 14.9T16 16t3.15-1.1M16 8"/></svg>