<svg xmlns="http://www.w3.org/2000/svg" viewBox="0 0 24 24" width="24" height="24"><path fill="currentColor" d="M4 20q-.825 0-1.412-.587T2 18V6q0-.825.588-1.412T4 4h16q.825 0 1.413.588T22 6v12q0 .825-.587 1.413T20 20zm0-2h16V6H4zm2-1h8q.425 0 .713-.288T15 16V8q0-.425-.288-.712T14 7H6q-.425 0-.712.288T5 8v8q0 .425.288.713T6 17m12.713-.288Q19 16.426 19 16t-.288-.712T18 15t-.712.288T17 16t.288.713T18 17t.713-.288M7 15V9h6v6zm11.713-2.287Q19 12.425 19 12t-.288-.712T18 11t-.712.288T17 12t.288.713T18 13t.713-.288m0-4Q19 8.426 19 8t-.288-.712T18 7t-.712.288T17 8t.288.713T18 9t.713-.288M4 18V6z"/></svg>