<svg xmlns="http://www.w3.org/2000/svg" viewBox="0 0 24 24" width="24" height="24"><path fill="currentColor" d="M7 13.138V21V3zM7 23q-.825 0-1.412-.587T5 21V3q0-.825.588-1.412T7 1h10q.825 0 1.413.588T19 3v1q0 .425-.288.713T18 5t-.712-.288T17 4V3H7v18h10v-1q0-.425.288-.712T18 19t.713.288T19 20v1q0 .825-.587 1.413T17 23zm5.713-17.287Q13 5.424 13 5t-.288-.712T12 4t-.712.288T11 5t.288.713T12 6t.713-.288m2.525 7.9q-.163-.362.062-.787q.125-.2.163-.4T15.5 12t-.038-.425t-.162-.4q-.225-.425-.062-.788t.512-.537t.738-.087t.637.562q.2.4.288.825t.087.85t-.088.85t-.287.825q-.25.475-.638.562t-.737-.087t-.513-.537m2.488 2.425q-.125-.363.15-.688q.575-.725.85-1.562T19 12t-.275-1.787t-.85-1.563q-.275-.325-.15-.687t.45-.563t.738-.175t.762.525q.65.925.988 2.013T21 12t-.337 2.238t-.988 2.012q-.35.5-.763.525t-.737-.175t-.45-.563"/></svg>