<svg xmlns="http://www.w3.org/2000/svg" viewBox="0 0 24 24" width="24" height="24"><path fill="currentColor" d="M19 3v3.1q.45.175.725.55T20 7.5v2q0 .475-.275.85T19 10.9V22q0 .425-.288.713T18 23t-.712-.288T17 22V3H7v7q0 .425-.288.713T6 11t-.712-.288T5 10V3q0-.825.588-1.412T7 1h10q.825 0 1.413.588T19 3m-6.287 2.713Q13 5.425 13 5t-.288-.712T12 4t-.712.288T11 5t.288.713T12 6t.713-.288M17 22V3zm-11.712.713Q5 22.425 5 22t.288-.712T6 21t.713.288T7 22t-.288.713T6 23t-.712-.288m1.7-3.187q-.463-.275-.988-.4q-.425-.125-.712-.413T5 18t.3-.712t.7-.213q.925.15 1.763.588T9.25 18.75t1.088 1.488t.587 1.762q.075.4-.213.7T10 23t-.712-.288T8.875 22q-.125-.525-.4-.987t-.65-.838t-.837-.65m1.524-3.712Q7.325 15.225 6 15.05q-.425-.05-.712-.337T5 14t.3-.712t.725-.238q1.725.175 3.275.912t2.775 1.963t1.938 2.775t.912 3.275q.05.425-.225.725t-.7.3t-.725-.287t-.35-.713q-.175-1.325-.75-2.512T10.65 17.35t-2.137-1.537"/></svg>