<svg xmlns="http://www.w3.org/2000/svg" viewBox="0 0 24 24" width="24" height="24"><path fill="currentColor" d="M15.5 11q.625 0 1.063-.437T17 9.5t-.437-1.062T15.5 8t-1.062.438T14 9.5t.438 1.063T15.5 11m-7 0q.625 0 1.063-.437T10 9.5t-.437-1.062T8.5 8t-1.062.438T7 9.5t.438 1.063T8.5 11M12 22q-2.075 0-3.9-.788t-3.175-2.137T2.788 15.9T2 12q0-2.1.788-3.925T4.95 4.9t3.2-2.125T12.025 2q.4 0 .638.313t.187.737t-.35.675t-.725.275q-.875.025-1.712.238t-1.638.612q-1.975 1-3.2 2.9T4 12q0 3.325 2.338 5.663T12 20q2.475 0 4.45-1.35t2.9-3.5q.45-1.025.6-2.1t-.025-2.175q-.05-.425.15-.763t.6-.462t.75.05t.425.575q.25 1.475.075 2.962t-.775 2.838q-1.175 2.65-3.612 4.288T12 22m6.9-19.8q.5-.5.913-.85T20.95 1q.925 0 1.488.638T23 3.075q0 .375-.15.75t-.45.675l-2.8 2.8q-.3.3-.7.3t-.7-.3l-2.8-2.8q-.325-.325-.462-.7t-.138-.75q0-.8.575-1.425T16.85 1q.7 0 1.1.325t.95.875M12 17.5q1.45 0 2.688-.687T16.65 14.9q.175-.275-.012-.587T16.1 14H7.9q-.35 0-.537.313t-.013.587q.725 1.225 1.975 1.913T12 17.5"/></svg>