<svg xmlns="http://www.w3.org/2000/svg" viewBox="0 0 24 24" width="24" height="24"><path fill="currentColor" d="M4 20q-.825 0-1.412-.587T2 18V6q0-.825.588-1.412T4 4l6 6H4v8h7q.425 0 .713.288T12 19t-.288.713T11 20zM22 6v3q0 .425-.288.713T21 10h-8.15l-6-6h2l1.6 3.25q.175.35.5.55t.7.2q.75 0 1.163-.638t.062-1.312L11.85 4h2.25l1.625 3.25q.175.35.5.55t.7.2q.75 0 1.15-.638t.05-1.312L17.1 4H20q.825 0 1.413.587T22 6m-.5 8.425l-.925-.925zM20.475 17.6L17.4 14.55l2.125-2.125q.225-.225.5-.325t.55-.1q.3 0 .575.113t.5.337l.925.925q.225.225.325.5t.1.55t-.1.563t-.325.512zM15.5 19.5h.95l.1-.1l-.95-.95l-.1.1zm5.038 3.45q-.413 0-.713-.3l-2.2-2.2l-.25.25q-.15.15-.337.225T16.65 21H15q-.425 0-.712-.288T14 20v-1.65q0-.2.075-.387t.225-.338l.25-.225L1.325 4.175q-.3-.3-.3-.712t.3-.713t.713-.3t.712.3l18.5 18.5q.3.3.3.7t-.3.7t-.712.3"/></svg>