<svg xmlns="http://www.w3.org/2000/svg" viewBox="0 0 24 24" width="24" height="24"><path fill="currentColor" d="M8.725 16.275Q8 15.55 8 14.5t.725-1.775T10.5 12q.425 0 .8.125t.7.375v-5q0-.2.15-.35T12.5 7h3q.2 0 .35.15t.15.35v1q0 .2-.15.35T15.5 9H13v5.5q0 1.05-.725 1.775T10.5 17t-1.775-.725m12.488-.375q-.788 1.825-2.138 3.175T15.9 21.213T12 22q-1.9 0-3.613-.675t-3.05-1.862t-2.187-2.8t-1.075-3.513q-.05-.475.225-.737t.65-.313t.725.163t.4.737q.375 3.025 2.638 5.025t5.287 2q3.35 0 5.675-2.325T20 12.025T17.675 6.35T12 4.025q-2.225 0-4.038 1.088T5.1 8H7q.425 0 .713.288T8 9t-.288.713T7 10H3q-.425 0-.712-.288T2 9V5q0-.425.288-.712T3 4t.713.288T4 5v1q1.375-1.825 3.45-2.912T12 2q2.075 0 3.9.788t3.175 2.137T21.213 8.1T22 12t-.788 3.9"/></svg>