<svg xmlns="http://www.w3.org/2000/svg" viewBox="0 0 24 24" width="24" height="24"><path fill="currentColor" d="M16.588 17.413Q16 16.825 16 16t.588-1.412T18 14t1.413.588T20 16t-.587 1.413T18 18t-1.412-.587M14 22v-.575q0-1.1 1.1-1.763T18 19t2.9.663t1.1 1.762V22zm-.587-12.587Q14 8.825 14 8t-.587-1.412T12 6t-1.412.588T10 8t.588 1.413T12 10t1.413-.587M10 16q0 .825.588 1.413T12 18t1.413-.587T14 16t-.587-1.412T12 14t-1.412.588T10 16m1.288.713Q11 16.425 11 16t.288-.712T12 15t.713.288T13 16t-.288.713T12 17t-.712-.288M7 7q0-2.125 1.438-3.562T12 2t3.563 1.438T17 7v4q0 .425-.288.713T16 12t-.712-.288T15 11V7q0-1.275-.9-2.137T12 4t-2.1.863T9 7v10q0 1.05.675 1.875t1.65 1.05q.35.075.588.35t.237.625q0 .5-.375.8t-.875.175q-1.7-.375-2.8-1.712T7 17z"/></svg>