<svg xmlns="http://www.w3.org/2000/svg" viewBox="0 0 24 24" width="24" height="24"><path fill="currentColor" d="M10.713 15.713Q11 15.425 11 15V9q0-.425-.288-.712T10 8t-.712.288T9 9v6q0 .425.288.713T10 16t.713-.288m4 0Q15 15.426 15 15V9q0-.425-.288-.712T14 8t-.712.288T13 9v6q0 .425.288.713T14 16t.713-.288M12 22q-2.075 0-3.9-.788t-3.175-2.137T2.788 15.9T2 12t.788-3.9t2.137-3.175T8.1 2.788T12 2t3.9.788t3.175 2.137T21.213 8.1T22 12t-.788 3.9t-2.137 3.175t-3.175 2.138T12 22m0-2q3.35 0 5.675-2.325T20 12t-2.325-5.675T12 4T6.325 6.325T4 12t2.325 5.675T12 20m0-8"/></svg>