<svg xmlns="http://www.w3.org/2000/svg" viewBox="0 0 24 24" width="24" height="24"><path fill="currentColor" d="M18 11h-2q-.425 0-.712-.288T15 10t.288-.712T16 9h2V7q0-.425.288-.712T19 6t.713.288T20 7v2h2q.425 0 .713.288T23 10t-.288.713T22 11h-2v2q0 .425-.288.713T19 14t-.712-.288T18 13zm-11.825-.175Q5 9.65 5 8t1.175-2.825T9 4t2.825 1.175T13 8t-1.175 2.825T9 12t-2.825-1.175M1 18v-.8q0-.85.438-1.562T2.6 14.55q1.55-.775 3.15-1.162T9 13t3.25.388t3.15 1.162q.725.375 1.163 1.088T17 17.2v.8q0 .825-.587 1.413T15 20H3q-.825 0-1.412-.587T1 18m2 0h12v-.8q0-.275-.137-.5t-.363-.35q-1.35-.675-2.725-1.012T9 15t-2.775.338T3.5 16.35q-.225.125-.363.35T3 17.2zm7.413-8.587Q11 8.825 11 8t-.587-1.412T9 6t-1.412.588T7 8t.588 1.413T9 10t1.413-.587M9 18"/></svg>