<svg xmlns="http://www.w3.org/2000/svg" viewBox="0 0 24 24" width="24" height="24"><path fill="currentColor" d="M9.175 10.825Q8 9.65 8 8t1.175-2.825T12 4t2.825 1.175T16 8t-1.175 2.825T12 12t-2.825-1.175M4 18v-.8q0-.85.438-1.562T5.6 14.55q1.55-.775 3.15-1.162T12 13t3.25.388t3.15 1.162q.725.375 1.163 1.088T20 17.2v.8q0 .825-.587 1.413T18 20H6q-.825 0-1.412-.587T4 18m2 0h12v-.8q0-.275-.137-.5t-.363-.35q-1.35-.675-2.725-1.012T12 15t-2.775.338T6.5 16.35q-.225.125-.363.35T6 17.2zm7.413-8.587Q14 8.825 14 8t-.587-1.412T12 6t-1.412.588T10 8t.588 1.413T12 10t1.413-.587M12 18"/></svg>