<svg xmlns="http://www.w3.org/2000/svg" viewBox="0 0 24 24" width="24" height="24"><path fill="currentColor" d="M12.713 16.713Q13 16.425 13 16v-4q0-.425-.288-.712T12 11t-.712.288T11 12v4q0 .425.288.713T12 17t.713-.288m0-8Q13 8.425 13 8t-.288-.712T12 7t-.712.288T11 8t.288.713T12 9t.713-.288m-1.038 13.163q-.15-.025-.3-.075Q8 20.675 6 17.637T4 11.1V6.375q0-.625.363-1.125t.937-.725l6-2.25q.35-.125.7-.125t.7.125l6 2.25q.575.225.938.725T20 6.375V11.1q0 3.5-2 6.538T12.625 21.8q-.15.05-.3.075T12 21.9t-.325-.025M12 19.9q2.6-.825 4.3-3.3t1.7-5.5V6.375l-6-2.25l-6 2.25V11.1q0 3.025 1.7 5.5t4.3 3.3m0-7.9"/></svg>