<svg xmlns="http://www.w3.org/2000/svg" viewBox="0 0 24 24" width="24" height="24"><path fill="currentColor" d="M3 19q-.825 0-1.412-.587T1 17V7q0-.825.588-1.412T3 5h10q.825 0 1.413.588T15 7v10q0 .825-.587 1.413T13 19zm0-3.65q1.1-.65 2.35-1T8 14t2.65.35t2.35 1V7H3zM8 16q-1.025 0-2 .25T4.15 17h7.7q-.875-.5-1.85-.75T8 16m-1.937-3.562q-.813-.813-.813-1.938t.813-1.937T8 7.75t1.938.813t.812 1.937t-.812 1.938T8 13.25t-1.937-.812M8 11.4q.375 0 .638-.262T8.9 10.5t-.262-.638T8 9.6t-.638.263t-.262.637t.263.638T8 11.4m9.288 7.313Q17 18.425 17 18V6q0-.425.288-.712T18 5t.713.288T19 6v12q0 .425-.288.713T18 19t-.712-.288m4 0Q21 18.426 21 18V6q0-.425.288-.712T22 5t.713.288T23 6v12q0 .425-.288.713T22 19t-.712-.288M8 17"/></svg>