<svg xmlns="http://www.w3.org/2000/svg" viewBox="0 0 24 24" width="24" height="24"><path fill="currentColor" d="M6.6 19.975q-2.2-2.025-2.55-5.15q-.05-.475.213-.75T5 13.8t.75.3t.325.725Q6.4 17.1 8.025 18.55T12 20t3.975-1.45t1.95-3.725q.05-.425.325-.725t.75-.3t.738.275t.212.75q-.35 3.125-2.55 5.15T12 22t-5.4-2.025m-2.313-8.263Q4 11.426 4 11t.288-.712T5 10t.713.288T6 11t-.288.713T5 12t-.712-.288m4.5 0Q8.5 11.426 8.5 11t.288-.712T9.5 10t.713.288t.287.712t-.288.713T9.5 12t-.712-.288m5 0Q13.5 11.426 13.5 11t.288-.712T14.5 10t.713.288t.287.712t-.288.713T14.5 12t-.712-.288m4.5 0Q18 11.426 18 11t.288-.712T19 10t.713.288T20 11t-.288.713T19 12t-.712-.288m-11.75-2.75q-.288-.287-.288-.712t.288-.712t.712-.288t.713.288t.287.712t-.288.713t-.712.287t-.712-.288m9.5 0q-.288-.287-.288-.712t.288-.712t.712-.288t.713.288t.287.712t-.288.713t-.712.287t-.712-.288m-4.75-.25Q11 8.426 11 8t.288-.712T12 7t.713.288T13 8t-.288.713T12 9t-.712-.288m-2.5-2.5Q8.5 5.926 8.5 5.5t.288-.712T9.5 4.5t.713.288t.287.712t-.288.713T9.5 6.5t-.712-.288m5 0Q13.5 5.926 13.5 5.5t.288-.712t.712-.288t.713.288t.287.712t-.288.713t-.712.287t-.712-.288m-2.5-2.5Q11 3.426 11 3t.288-.712T12 2t.713.288T13 3t-.288.713T12 4t-.712-.288M12 13.8"/></svg>