<svg xmlns="http://www.w3.org/2000/svg" viewBox="0 0 24 24"><path fill="currentColor" d="M4 18V6v5.3v-.3zm0 2q-.825 0-1.412-.587T2 18V6q0-.825.588-1.412T4 4h16q.825 0 1.413.588T22 6v4.3q0 .425-.288.713T21 11.3t-.712-.288T20 10.3V6H4v12h6.3q.425 0 .713.288T11.3 19t-.288.713T10.3 20zm10.463 1.538Q13 20.075 13 18t1.463-3.537T18 13t3.538 1.463T23 18t-1.463 3.538T18 23t-3.537-1.463M16.75 20q.2 0 .35-.15t.15-.35v-3q0-.2-.15-.35t-.35-.15t-.35.15t-.15.35v3q0 .2.15.35t.35.15m2.5 0q.2 0 .35-.15t.15-.35v-3q0-.2-.15-.35t-.35-.15t-.35.15t-.15.35v3q0 .2.15.35t.35.15m-7.775-4.55q.55-1.375 1.575-2.4t2.4-1.575q-.975-.45-1.912-1.375T12.2 7.65q-.05-.15-.2-.15t-.2.15q-.4 1.525-1.512 2.638T7.65 11.8q-.15.05-.15.2t.15.2q1.525.4 2.45 1.338t1.375 1.912"/></svg>