<svg xmlns="http://www.w3.org/2000/svg" viewBox="0 0 24 24"><path fill="currentColor" d="M15 22q-.825 0-1.412-.587T13 20v-4q0-.825.588-1.412T15 14h6q.825 0 1.413.588T23 16v4q0 .825-.587 1.413T21 22zm0-2h6v-4h-6zm-.2-8.075q-.375.2-.775.062t-.6-.512q-.2-.425-.562-.7t-.813-.275q-.625 0-1.062.425t-.438 1.05q0 .45.238.813t.662.562q.375.2.525.588t-.05.762t-.587.525t-.763-.05q-.95-.425-1.487-1.275T8.55 12q0-1.45 1.025-2.475T12.05 8.5q1.05 0 1.913.55t1.287 1.5q.2.375.063.775t-.513.6M10.275 22q-.425 0-.75-.275t-.375-.7l-.3-2.225q-.325-.125-.612-.3t-.563-.375l-1.55.65q-.625.275-1.25.05t-.975-.8l-1.175-2.05q-.35-.575-.2-1.238t.675-1.062l1.325-1Q4.5 12.5 4.5 12.337v-.675q0-.162.025-.337l-1.325-1q-.525-.4-.675-1.063t.2-1.237L3.9 5.975q.35-.575.975-.8t1.25.05l1.55.65q.275-.2.575-.375t.6-.3l.2-1.65q.075-.675.575-1.113T10.8 2h2.4q.675 0 1.175.438t.575 1.112l.2 1.65q.325.125.613.3t.562.375l1.5-.65q.625-.275 1.263-.05t.987.8l1.175 2.05q.35.575.213 1.225t-.663 1.075l-1.15.875q-.35.25-.75.2t-.65-.4t-.187-.75t.387-.65l.975-.75l-.975-1.7l-2.475 1.05q-.55-.575-1.212-.962t-1.438-.588L13 4h-1.975l-.35 2.65q-.775.2-1.437.588t-1.213.937L5.55 7.15l-.975 1.7l2.15 1.6q-.125.375-.175.75t-.05.8q0 .4.05.775t.175.75l-2.15 1.625l.975 1.7l2.475-1.05q.6.625 1.35 1.05T11 17.4v3.75q0 .35-.2.6t-.525.25M18 18"/></svg>