<svg xmlns="http://www.w3.org/2000/svg" viewBox="0 0 24 24" width="24" height="24"><path fill="currentColor" d="M11.475 22q-.275 0-.512-.162t-.388-.413q-.4-.65-1.087-1.037T8 20q-.85 0-1.537.4T5.35 21.45q-.15.25-.387.4T4.45 22H4q-.425 0-.712-.288T3 21V4h-.025q-.425 0-.7-.288T2 3t.288-.712T3 2h18q.425 0 .713.288T22 3t-.288.713T21 4v17q0 .425-.288.713T20 22h-.5q-.275 0-.525-.162t-.4-.413q-.425-.65-1.1-1.037T16 20q-.85 0-1.525.388t-1.1 1.037q-.15.25-.387.413t-.513.162zM5 19.025q.425-.325.925-.55T7 18.125V4H5zm4-.875q.55.125 1.05.35t.95.55V4H9zm4 .9q.425-.35.925-.562T15 18.15V4h-2zm6 0V4h-2v14.15q.55.125 1.05.338t.95.562M7 4H5zm4 0H9zm4 0h-2zm4 0h-2zm-6 0h-2z"/></svg>