<svg xmlns="http://www.w3.org/2000/svg" viewBox="0 0 24 24" width="24" height="24"><path fill="currentColor" d="M13 22q-.825 0-1.412-.587T11 20v-5q0-.825.588-1.412T13 13h8q.825 0 1.413.588T23 15v5q0 .825-.587 1.413T21 22zm0-2h8v-2h-8zm0-4h8v-1h-8zm-5.375 3.55Q5.9 17.9 4.95 15.687T4 11.1V6.375q0-.625.363-1.125t.937-.725l6.25-2.35q.2-.075.45-.075t.45.075l6.25 2.35q.575.225.938.725T20 6.375V10q0 .425-.288.713T19 11t-.712-.288T18 10V6.375l-6-2.25l-6 2.25V11.1q0 2.025.813 3.863T9 18.1q.3.275.313.7t-.263.725t-.7.3t-.725-.275"/></svg>