<svg xmlns="http://www.w3.org/2000/svg" viewBox="0 0 24 24" width="24" height="24"><path fill="currentColor" d="M4 6.375q0-.625.363-1.125t.937-.725l6-2.25q.35-.125.7-.125t.7.125l6 2.25q.575.225.938.725T20 6.375v1.7q0 .425-.288.713T19 9.075t-.712-.287T18 8.075v-1.7l-6-2.25l-6 2.25V11.1q0 2 .8 3.863t2.275 3.212q.3.275.325.7t-.25.725t-.687.313t-.713-.263Q5.975 18 4.988 15.763T4 11.1zM21.3 21.3q-.3.3-.712.3t-.713-.3l-2.35-2.375Q17.45 18.95 17 19q-.825 0-1.412-.587T15 17t.588-1.412T17 15t1.413.588T19 17q0 .075-.075.525L21.3 19.9q.3.3.3.7t-.3.7M11 17q0-2.5 1.75-4.25T17 11t4.25 1.75T23 17q0 .425-.288.713T22 18t-.712-.288T21 17q0-1.65-1.175-2.825T17 13t-2.825 1.175T13 17t1.175 2.825T17 21q.425 0 .713.288T18 22t-.288.713T17 23q-2.5 0-4.25-1.75T11 17"/></svg>