<svg xmlns="http://www.w3.org/2000/svg" viewBox="0 0 24 24" width="24" height="24"><path fill="currentColor" d="M8.713 18.713Q9 18.425 9 18t-.288-.712T8 17t-.712.288T7 18t.288.713T8 19t.713-.288m0-4Q9 14.425 9 14v-2q0-.425-.288-.712T8 11t-.712.288T7 12v2q0 .425.288.713T8 15t.713-.288m4 4Q13 18.426 13 18v-2q0-.425-.288-.712T12 15t-.712.288T11 16v2q0 .425.288.713T12 19t.713-.288m0-6Q13 12.425 13 12t-.288-.712T12 11t-.712.288T11 12t.288.713T12 13t.713-.288m4 6Q17 18.426 17 18t-.288-.712T16 17t-.712.288T15 18t.288.713T16 19t.713-.288m0-4Q17 14.425 17 14v-2q0-.425-.288-.712T16 11t-.712.288T15 12v2q0 .425.288.713T16 15t.713-.288M6 22q-.825 0-1.412-.587T4 20V8.825q0-.4.15-.762t.425-.638l4.85-4.85q.275-.275.638-.425t.762-.15H18q.825 0 1.413.588T20 4v16q0 .825-.587 1.413T18 22zm0-2h12V4h-7.15L6 8.85zm0 0h12z"/></svg>