<svg xmlns="http://www.w3.org/2000/svg" viewBox="0 0 24 24" width="24" height="24"><path fill="currentColor" d="M11.2 15.8q.85.35 1.638.063t1.037-1.163q.55-1.85 1-3.65t.85-3.625q.1-.45-.312-.637t-.688.162q-1.15 1.5-2.262 2.988T10.25 13q-.525.75-.162 1.6t1.112 1.2M5.125 20q-.525 0-1-.238t-.75-.712q-.65-1.125-1-2.387T2.025 14q0-2.35.988-4.325T5.675 6.3Q7.1 5.125 8.838 4.525T12.4 4q.4.025.6.35t.15.725t-.363.662t-.712.263q-1.375-.025-2.7.45T7 7.8q-1.35 1.125-2.162 2.725T4.025 14q0 1.05.288 2.075T5.125 18H18.9q.575-.95.838-1.963T20 14q0-1.475-.562-2.9t-1.513-2.475q-.3-.35-.225-.725t.35-.625t.7-.262t.8.412q1.275 1.375 1.863 3.113T22 14q0 1.325-.325 2.613T20.65 19.05q-.25.475-.737.713T18.9 20zM12 13.975"/></svg>