<svg xmlns="http://www.w3.org/2000/svg" viewBox="0 0 24 24" width="24" height="24"><path fill="currentColor" d="M13.4 15.425q.65-.65.6-1.513t-.75-1.387q-1.5-1.175-3.05-2.175t-3.125-2q-.35-.225-.65.075t-.075.65q1 1.575 2 3.138t2.1 3.112q.5.725 1.4.738t1.55-.638M5.125 20q-.55 0-1.012-.238t-.738-.712q-.7-1.2-1.05-2.512t-.35-2.688q0-.875.175-1.725t.525-1.65q.15-.375.55-.512t.75.062t.487.588t-.012.787q-.225.6-.35 1.225T3.975 13.9q0 1.1.287 2.138T5.125 18H18.9q.525-.9.813-1.912T20 14q0-3.325-2.337-5.663T12 6q-.675 0-1.325.125t-1.275.35q-.4.125-.775-.012T8.05 5.95T8 5.187t.525-.537q.825-.325 1.7-.488T12 4q2.075 0 3.888.788t3.175 2.15t2.15 3.175T22 14q0 1.35-.35 2.625t-1 2.425q-.275.475-.75.713t-1 .237zm6.85-5.95"/></svg>