<svg xmlns="http://www.w3.org/2000/svg" viewBox="0 0 24 24" width="24" height="24"><path fill="currentColor" d="M14 16h3q.425 0 .713-.288T18 15V9q0-.425-.288-.712T17 8h-3q-.425 0-.712.288T13 9v6q0 .425.288.713T14 16m-7 0h3q.425 0 .713-.288T11 15V9q0-.425-.288-.712T10 8H7q-.425 0-.712.288T6 9v6q0 .425.288.713T7 16M19 6h-1q-.425 0-.712-.288T17 5t.288-.712T18 4h1V3q0-.425.288-.712T20 2t.713.288T21 3v1h1q.425 0 .713.288T23 5t-.288.713T22 6h-1v1q0 .425-.288.713T20 8t-.712-.288T19 7zM4 18V6zm0 2q-.825 0-1.412-.587T2 18V6q0-.825.588-1.412T4 4h10q.425 0 .713.288T15 5t-.288.713T14 6H4v12h16v-7q0-.425.288-.712T21 10t.713.288T22 11v7q0 .825-.587 1.413T20 20z"/></svg>