<svg xmlns="http://www.w3.org/2000/svg" viewBox="0 0 24 24" width="24" height="24"><path fill="currentColor" d="M15 14.2L12.2 17q-.3.3-.7.3t-.7-.3L2.3 8.5Q2 8.2 2 7.825t.3-.675l2.8-2.8q.3-.3.725-.3t.725.3L15 12.8q.3.3.3.7t-.3.7m-3.5.7l1.4-1.4l-7.1-7.1l-1.4 1.4zm6.4 6.4l-3.55-3.55l1.4-1.4l3.55 3.55q.275.275.275.7t-.275.7t-.7.275t-.7-.275M16.025 7.975Q15 6.95 15 5.5t1.025-2.475T18.5 2t2.475 1.025T22 5.5t-1.025 2.475T18.5 9t-2.475-1.025m3.538-1.412Q20 6.125 20 5.5t-.437-1.062T18.5 4t-1.062.438T17 5.5t.438 1.063T18.5 7t1.063-.437M8.65 10.65"/></svg>