<svg xmlns="http://www.w3.org/2000/svg" viewBox="0 0 24 24" width="24" height="24"><path fill="currentColor" d="M7.038 13.963Q5 11.925 5 9t2.038-4.962T12 2t4.963 2.038T19 9t-2.037 4.963T12 16t-4.962-2.037m8.5-1.425Q17 11.075 17 9t-1.463-3.537T12 4T8.463 5.463T7 9t1.463 3.538T12 14t3.538-1.463m-4.826-3.825Q11 8.425 11 8t-.288-.712T10 7t-.712.288T9 8t.288.713T10 9t.713-.288m4 0Q15 8.426 15 8t-.288-.712T14 7t-.712.288T13 8t.288.713T14 9t.713-.288m-2-2Q13 6.426 13 6t-.288-.712T12 5t-.712.288T11 6t.288.713T12 7t.713-.288M11 22v-1q0-.825-.587-1.412T9 19H8q-.425 0-.712-.288T7 18t.288-.712T8 17h8q.425 0 .713.288T17 18t-.288.713T16 19h-1q-.825 0-1.412.588T13 21v1zm1-13"/></svg>