<svg xmlns="http://www.w3.org/2000/svg" viewBox="0 0 24 24" width="24" height="24"><path fill="currentColor" d="M14.125 14.125Q15 13.25 15 12t-.875-2.125T12 9t-2.125.875T9 12t.875 2.125T12 15t2.125-.875M17 12q0 .75-.2 1.45t-.625 1.325q-.225.35-.213.775t.288.7q.3.3.7.288t.65-.338q.675-.9 1.037-1.975T19 12t-.363-2.225T17.6 7.8q-.25-.325-.65-.337t-.7.287q-.275.275-.288.7t.213.775q.425.625.625 1.325T17 12m-9.8-1.45q.2-.7.625-1.325q.225-.35.212-.775t-.287-.7q-.3-.3-.7-.288T6.4 7.8q-.675.9-1.037 1.975T5 12t.363 2.225T6.4 16.2q.25.325.65.338t.7-.288q.275-.275.288-.7t-.213-.775Q7.4 14.15 7.2 13.45T7 12t.2-1.45M4 20q-.825 0-1.412-.587T2 18V6q0-.825.588-1.412T4 4h16q.825 0 1.413.588T22 6v12q0 .825-.587 1.413T20 20zm0-2h16V6H4zm0 0V6z"/></svg>