<svg xmlns="http://www.w3.org/2000/svg" viewBox="0 0 24 24" width="24" height="24"><path fill="currentColor" d="M11.825 22q-.6 0-1.15-.225t-.975-.65L5.3 16.7q-.275-.275-.3-.687t.275-.713l.075-.075q.4-.4.938-.537t1.062.012l1.65.475V7q0-.425.288-.712T10 6t.713.288T11 7v9.5q0 .5-.4.8t-.875.175l-1.15-.325l2.55 2.55q.125.125.313.213t.387.087H16q.825 0 1.413-.587T18 18v-4q0-.425.288-.712T19 13t.713.288T20 14v4q0 1.65-1.175 2.825T16 22zm1.888-17.713Q14 4.575 14 5v9q0 .425-.288.713T13 15t-.712-.288T12 14V5q0-.425.288-.712T13 4t.713.288m3 7Q17 11.575 17 12v2q0 .425-.288.713T16 15t-.712-.288T15 14v-2q0-.425.288-.712T16 11t.713.288M4.1 5.5h2.15q.325 0 .538.213T7 6.25t-.213.538T6.25 7H3q-.425 0-.712-.288T2 6V2.75q0-.325.213-.537T2.75 2t.538.213t.212.537v1.275q1.8-1.475 3.975-2.25T12 1q3.2 0 5.738 1.275t3.712 3.4q.15.275.038.575t-.388.425t-.562.025t-.463-.375q-1.1-1.8-3.225-2.812T12 2.5q-2.2 0-4.225.775T4.1 5.5"/></svg>