<svg xmlns="http://www.w3.org/2000/svg" viewBox="0 0 24 24" width="24" height="24"><path fill="currentColor" d="M18 2q.825 0 1.413.588T20 4v16q0 .825-.587 1.413T18 22H6q-.825 0-1.412-.587T4 20V4q0-.825.588-1.412T6 2zm0 2H6v16h12zm-3 3H9q-.425 0-.712.288T8 8v8q0 .425.288.713T9 17h6q.425 0 .713-.288T16 16V8q0-.425-.288-.712T15 7m-1 2v4h-4V9zm-2 8.75q-.325 0-.537.213t-.213.537t.213.538t.537.212t.538-.213t.212-.537t-.213-.537T12 17.75m0-13q-.325 0-.537.213t-.213.537t.213.538t.537.212t.538-.213t.212-.537t-.213-.537T12 4.75M12 12"/></svg>