<svg xmlns="http://www.w3.org/2000/svg" viewBox="0 0 24 24" width="24" height="24"><path fill="currentColor" d="M17 19h2V5h-2zm0 2q-.825 0-1.412-.587T15 19V5q0-.825.588-1.412T17 3h2q.825 0 1.413.588T21 5v14q0 .825-.587 1.413T19 21zm-5.712-.288Q11 20.426 11 20t.288-.712T12 19t.713.288T13 20t-.288.713T12 21t-.712-.288m-4 0Q7 20.426 7 20t.288-.712T8 19t.713.288T9 20t-.288.713T8 21t-.712-.288m-4 0Q3 20.426 3 20t.288-.712T4 19t.713.288T5 20t-.288.713T4 21t-.712-.288m8-16Q11 4.425 11 4t.288-.712T12 3t.713.288T13 4t-.288.713T12 5t-.712-.288m-4 0Q7 4.426 7 4t.288-.712T8 3t.713.288T9 4t-.288.713T8 5t-.712-.288m-4 0Q3 4.426 3 4t.288-.712T4 3t.713.288T5 4t-.288.713T4 5t-.712-.288M6.825 13l.9.9q.275.275.275.688t-.3.712q-.275.275-.7.275t-.7-.275l-2.6-2.6q-.3-.3-.3-.7t.3-.7l2.6-2.6q.275-.275.688-.287T7.7 8.7q.275.275.275.7t-.275.7l-.875.9H12q.425 0 .713.288T13 12t-.288.713T12 13zM17 19h2z"/></svg>