<svg xmlns="http://www.w3.org/2000/svg" viewBox="0 0 24 24" width="24" height="24"><path fill="currentColor" d="M21 18q-.375 0-.687-.262T20 16.975V6H9.025q-.5 0-.75-.312T8.025 5t.25-.687t.75-.313H20q.825 0 1.413.588T22 6v11q0 .5-.312.75T21 18m-1.25 4.575L17.15 20H4q-.825 0-1.412-.587T2 18V6q0-.825.588-1.412T4 4l2 2H4v12h11.15L1.35 4.2q-.3-.3-.3-.713t.3-.712t.713-.3t.712.3l18.4 18.4q.3.3.3.7t-.3.7t-.712.3t-.713-.3M17 17H6q-.425 0-.712-.288T5 16t.288-.712T6 15h9zm-4-4H6q-.425 0-.712-.288T5 12t.288-.712T6 11h5zM9 9H6q-.425 0-.712-.288T5 8t.288-.712T6 7h1zm9 4q.425 0 .713-.288T19 12t-.288-.712T18 11h-1.725q-.5 0-.75.313t-.25.687t.25.688t.75.312zm-4-4q.425 0 .713-.288T15 8t-.288-.712T14 7h-1.725q-.5 0-.75.313t-.25.687t.25.688t.75.312z"/></svg>