<svg xmlns="http://www.w3.org/2000/svg" viewBox="0 0 24 24" width="24" height="24"><path fill="currentColor" d="M19 7.5q.425 0 .713-.288T20 6.5t-.288-.712T19 5.5t-.712.288T18 6.5t.288.713T19 7.5m-4 0q.425 0 .713-.288T16 6.5t-.288-.712T15 5.5t-.712.288T14 6.5t.288.713T15 7.5m.613 1.788q-.663.287-.963.937q-.125.25.063.463t.487.212h3.6q.3 0 .488-.213t.062-.462q-.3-.65-.962-.937T17 9t-1.388.288M2.75 20.25Q1 18.5 1 16v-5q0-.825.588-1.412T3 9h8q.825 0 1.413.588T13 11v5q0 2.5-1.75 4.25T7 22t-4.25-1.75m7.075-1.425Q11 17.65 11 16v-5H3v5q0 1.65 1.175 2.825T7 20t2.825-1.175M23 4v5q0 2.55-1.75 4.275T16.975 15q-.425 0-.837-.05t-.813-.175t-.575-.5t-.05-.775t.5-.588t.775-.062q.275.075.525.112t.525.038q1.65 0 2.813-1.175T21 9V4h-8v2.5q0 .425-.288.713T12 7.5t-.712-.288T11 6.5V4q0-.825.588-1.412T13 2h8q.825 0 1.413.588T23 4M5 14.5q.425 0 .713-.288T6 13.5t-.288-.712T5 12.5t-.712.288T4 13.5t.288.713T5 14.5m4.713-.288Q10 13.926 10 13.5t-.288-.712T9 12.5t-.712.288T8 13.5t.288.713T9 14.5t.713-.288m-1.388 3.413q.625-.275.975-.875q.125-.275-.025-.513T8.85 16h-3.7q-.275 0-.425.238t-.025.512q.35.6.975.875T7 17.9t1.325-.275M16.75 8.5"/></svg>