<svg xmlns="http://www.w3.org/2000/svg" viewBox="0 0 24 24" width="24" height="24"><path fill="currentColor" d="M10.713 16.713Q11 16.425 11 16v-6q0-.425-.288-.712T10 9t-.712.288T9 10v6q0 .425.288.713T10 17t.713-.288m4 0Q15 16.426 15 16v-6q0-.425-.288-.712T14 9t-.712.288T13 10v6q0 .425.288.713T14 17t.713-.288M10 3q-.425 0-.712-.288T9 2t.288-.712T10 1h4q.425 0 .713.288T15 2t-.288.713T14 3zM8.513 21.288q-1.638-.713-2.863-1.938t-1.937-2.863T3 13t.713-3.488T5.65 6.65t2.863-1.937T12 4q1.55 0 2.975.5t2.675 1.45l.7-.7q.275-.275.7-.275t.7.275t.275.7t-.275.7l-.7.7Q20 8.6 20.5 10.025T21 13q0 1.85-.713 3.488T18.35 19.35t-2.863 1.938T12 22t-3.488-.712m8.438-3.338Q19 15.9 19 13t-2.05-4.95T12 6T7.05 8.05T5 13t2.05 4.95T12 20t4.95-2.05M12 13"/></svg>