<svg xmlns="http://www.w3.org/2000/svg" viewBox="0 0 24 24" width="24" height="24"><path fill="currentColor" d="M10.45 22q-.7 0-1.3-.262t-1.025-.813L3.2 14.65q-.225-.3-.2-.687t.3-.663q.425-.425 1.063-.5t1.187.25l1.95 1.175V8q0-.425.288-.712T8.5 7t.713.288T9.5 8v8.05q0 .575-.513.863T7.976 16.9l-.925-.575l2.625 3.325q.125.2.338.275t.437.075H16q.825 0 1.413-.575T18 18v-4q0-.425-.288-.712T17 13h-1.5q-.425 0-.712-.288T14.5 12t.288-.712T15.5 11H17q1.25 0 2.125.875T20 14v4q0 1.675-1.175 2.838T16 22zm.838-9.287Q11 12.425 11 12V6.25q0-.425.288-.712T12 5.25t.713.288t.287.712V12q0 .425-.288.713T12 13t-.712-.288M10.5 3q-1.05 0-1.963.4T6.95 4.475Q6.3 5.125 5.913 6t-.438 1.8q-.025.425-.262.763t-.663.387t-.775-.187t-.35-.663q-.025-1.3.6-2.725T5.55 3.05q.95-.95 2.225-1.5T10.5 1t2.725.55t2.225 1.5q1.025 1.025 1.525 2.275t.5 2.675q0 .425-.313.675t-.737.2t-.675-.362t-.275-.738q-.05-.95-.413-1.787t-1.037-1.513T12.45 3.4T10.5 3m2.025 13"/></svg>