<svg xmlns="http://www.w3.org/2000/svg" viewBox="0 0 24 24" width="24" height="24"><path fill="currentColor" d="M15.75 9.5q.325 0 .538-.213t.212-.537t-.213-.537T15.75 8h-.025q-.325 0-.525.213t-.2.537t.213.538t.537.212m3.538-1.287Q19.075 8 18.75 8t-.537.213T18 8.75t.213.538t.537.212t.538-.213t.212-.537t-.213-.537m-7.5-3Q11.576 5 11.25 5t-.537.213t-.213.537t.213.538t.537.212t.538-.213T12 5.75t-.213-.537M18.75 6.5q.325 0 .538-.213t.212-.537t-.213-.537T18.75 5h-4.5q-.325 0-.537.213t-.213.537t.213.538t.537.212zM8.025 15.9q.35.425.938.988t.937.912l-.575 1.525q-.425-.4-1.125-1.088T7 17l-3.225 3.225q-.225.225-.525.225t-.525-.225t-.225-.537t.225-.538L6 15.925q-.5-.575-.937-1.163t-.788-1.237Q4.1 13.2 4.2 12.938t.325-.388t.488-.075t.412.325q.325.575.713 1.138T7 15q.8-.9 1.4-1.9t.975-2.1H1.75q-.3 0-.525-.213T1 10.25q0-.3.225-.525T1.75 9.5h4.5v-.75q0-.325.213-.537T7 8t.538.213t.212.537v.75h4.7q.325 0 .538.213t.212.537t-.212.538t-.538.212H10.8q-.425 1.35-1.112 2.575T8.025 15.9m3.475 4.8l-.65 1.825q-.075.2-.262.338t-.413.137q-.375 0-.587-.312t-.088-.663l2.825-7.55q.075-.225.263-.35t.437-.125h.575q.25 0 .437.138t.263.362l2.825 7.525q.125.35-.088.663T16.45 23q-.225 0-.413-.137t-.262-.363l-.65-1.8zm.475-1.3h2.675l-1.35-3.8zM23 11.5q0 .625-.425 1.063T21.5 13h-5.75q-.325 0-.537-.213T15 12.25t.213-.537t.537-.213h5.75v-9h-13v3.25q0 .325-.213.538T7.75 6.5t-.537-.213T7 5.75V2.5q0-.625.425-1.062T8.5 1h13q.65 0 1.075.438T23 2.5zm-1.5 0v-9z"/></svg>