<svg xmlns="http://www.w3.org/2000/svg" viewBox="0 0 24 24" width="24" height="24"><path fill="currentColor" d="M12 15.5q.425 0 .713-.288T13 14.5t-.288-.712T12 13.5t-.712.288T11 14.5t.288.713t.712.287m0-3q.425 0 .713-.288T13 11.5v-2q0-.425-.288-.712T12 8.5t-.712.288T11 9.5v2q0 .425.288.713T12 12.5M10.5 4h3zm0 16h3zm0 2q-.65 0-1.187-.387t-.738-1.038L8 18.65q-.15-.5-.462-1.012t-.813-1.063q-.85-.925-1.287-2.1T5 12q0-1.275.438-2.45t1.287-2.125q.5-.575.813-1.075t.462-1l.575-1.925q.2-.65.738-1.037T10.5 2h3q.65 0 1.188.388t.737 1.037L16 5.35q.15.5.463 1.013t.812 1.062q.85.925 1.288 2.1T19 12q0 1.275-.437 2.45t-1.288 2.125q-.5.575-.812 1.075t-.463 1l-.575 1.925q-.2.65-.737 1.038T13.5 22zm1.5-5q2.075 0 3.538-1.463T17 12t-1.463-3.537T12 7T8.463 8.463T7 12t1.463 3.538T12 17M10.1 5.25q.5-.125.963-.2T12 4.975t.938.075t.962.2L13.5 4h-3zM10.5 20h3l.4-1.25q-.5.125-.962.188T12 19t-.937-.062t-.963-.188z"/></svg>