<svg xmlns="http://www.w3.org/2000/svg" viewBox="0 0 24 24" width="24" height="24"><path fill="currentColor" d="M2.75 21.275q-.3-.3-.3-.712t.3-.713l1.7-1.7q-.725-.725-1.088-1.65T3 14.575q0-1.025.375-1.925t1.075-1.6l1.425-1.4l.7.7q.125-.8.475-1.525t.925-1.3l1.425-1.4l.7.7q.125-.8.488-1.525t.937-1.3l2.15-2.125q.275-.275.688-.288t.712.288q.275.275.275.688t-.275.712l-.7.725q.575.575.925 1.3t.475 1.525L19.9 2.7q.3-.3.7-.288t.7.313q.275.3.275.7t-.275.7L17.2 8.25q.8.125 1.525.475t1.3.925l.7-.7q.3-.3.712-.3t.713.3t.3.7t-.3.7l-2.1 2.125q-.575.6-1.325.963t-1.55.487l.7.675l-1.4 1.4q-.575.575-1.312.938t-1.538.487l.725.7l-1.425 1.425q-.725.725-1.638 1.088T9.375 21q-.85 0-1.713-.363T5.9 19.526l-1.75 1.75q-.3.3-.7.3t-.7-.3M5.875 16.7q.425-.425.65-.962T6.75 14.6q0-.575-.225-1.137t-.65-.988q-.425.425-.663.988T4.976 14.6q0 .6.238 1.138t.662.962M9.4 19.025q.6-.025 1.15-.25t.975-.65q-.425-.425-.987-.65T9.4 17.25t-1.137.238t-.988.662q.425.425.975.65t1.15.225m0-5.85q.425-.425.65-.975t.225-1.125q0-.6-.225-1.15T9.4 8.95q-.425.425-.663.975t-.237 1.15q0 .575.238 1.125t.662.975m3.55 2.325q.6 0 1.138-.238t.962-.662q-.425-.425-.962-.65t-1.138-.225t-1.15.238t-.975.662q.425.425.975.65t1.15.225m0-5.85q.425-.425.638-.975t.212-1.15q0-.575-.213-1.137T12.95 5.4q-.425.425-.662.988t-.238 1.137q0 .6.238 1.15t.662.975m3.525 2.3q.575 0 1.138-.237t.987-.663q-.45-.425-1.012-.65t-1.138-.225q-.575.025-1.125.25t-.975.65q.425.425.988.663t1.137.212"/></svg>