<svg xmlns="http://www.w3.org/2000/svg" viewBox="0 0 24 24" width="24" height="24"><path fill="currentColor" d="M12 19q-1.775 0-3.325-.05q-1.325-.05-2.613-.137T4.2 18.575q-.65-.175-1.125-.65t-.65-1.125q-.15-.575-.237-1.4t-.138-1.575Q2 12.925 2 12t.05-1.825q.05-.75.138-1.575t.237-1.4q.175-.65.65-1.125t1.125-.65q.575-.15 1.863-.237t2.612-.138Q10.225 5 12 5l1 .013q1 .012 2.313.05t2.612.125t1.875.237q.65.175 1.125.65t.65 1.125q.15.575.238 1.4t.137 1.575q.05.9.05 1.825t-.05 1.825q-.05.75-.137 1.575t-.238 1.4q-.175.65-.65 1.125t-1.125.65q-.575.15-1.875.237t-2.613.125t-2.312.05zm0-2q2.175 0 4.438-.088t2.862-.262q.125-.05.213-.137t.137-.213q.2-.725.275-2.075T20 12t-.075-2.225T19.65 7.7q-.05-.125-.137-.212T19.3 7.35q-.6-.175-2.863-.262T12 7t-4.437.088T4.7 7.35q-.125.05-.213.138T4.35 7.7q-.2.725-.275 2.075T4 12t.075 2.225t.275 2.075q.05.125.138.213t.212.137q.6.175 2.863.263T12 17m2.45-5.425l-3.7-2.15q-.25-.15-.5.012t-.25.438v4.25q0 .275.25.438t.5.012l3.7-2.15q.25-.15.25-.425t-.25-.425M12 12"/></svg>