<svg xmlns="http://www.w3.org/2000/svg" viewBox="0 0 24 24" width="24" height="24"><path fill="currentColor" d="M19 18h-1q-.425 0-.712-.288T17 17t.288-.712T18 16h1v-1q0-.425.288-.712T20 14t.713.288T21 15v1h1q.425 0 .713.288T23 17t-.288.713T22 18h-1v1q0 .425-.288.713T20 20t-.712-.288T19 19zM12 5l1 .013q1 .012 2.313.05t2.6.125t1.887.237q.65.175 1.125.638t.65 1.112q.2.8.288 1.8T21.975 11q0 .425-.275.713T21 12t-.712-.288t-.313-.712q-.025-.875-.1-1.825T19.65 7.7q-.05-.125-.15-.212t-.225-.138q-.6-.15-2.85-.25T12 7q-2.2 0-4.45.1t-2.85.25q-.125.05-.213.15t-.137.225q-.2.725-.275 2.063T4 12t.075 2.225t.275 2.075q.05.125.137.213t.213.137q.6.15 2.85.25T12 17h2q.425 0 .712.263t.288.687t-.288.725t-.712.3q-.4 0-.763.013T12.6 19H12q-1.775 0-3.325-.05q-1.325-.025-2.613-.112T4.176 18.6q-.65-.175-1.125-.65t-.65-1.125q-.15-.6-.238-1.425t-.112-1.575Q2 12.925 2 12t.05-1.8q.025-.775.113-1.588T2.4 7.2q.175-.65.65-1.125t1.125-.65q.6-.15 1.888-.238t2.612-.137Q10.225 5 12 5m2.45 6.575l-3.7-2.15q-.25-.15-.5.013t-.25.437v4.25q0 .275.25.438t.5.012l3.7-2.15q.25-.15.25-.425t-.25-.425"/></svg>