<svg xmlns="http://www.w3.org/2000/svg" viewBox="0 0 24 24" width="24" height="24"><path fill="currentColor" d="M10.588 5.413Q10 4.825 10 4t.588-1.412T12 2t1.413.588T14 4t-.587 1.413T12 6t-1.412-.587m-1.3 15.3Q9 20.425 9 20V9q-1.35-.125-2.575-.288t-2.35-.437q-.55-.125-.737-.513T3.225 7t.375-.638t.775-.137q1.725.4 3.613.588T12 7t4.013-.187t3.612-.588q.475-.125.775.15t.375.65t-.125.75t-.75.5q-1.125.275-2.337.438T15 9v11q0 .425-.288.713T14 21t-.712-.288T13 20v-5h-2v5q0 .425-.288.713T10 21t-.712-.288m10-8Q19 12.425 19 12t.288-.712T20 11t.713.288T21 12t-.288.713T20 13t-.712-.288m0 4Q19 16.426 19 16t.288-.712T20 15t.713.288T21 16t-.288.713T20 17t-.712-.288m0 4Q19 20.426 19 20t.288-.712T20 19t.713.288T21 20t-.288.713T20 21t-.712-.288"/></svg>