<svg xmlns="http://www.w3.org/2000/svg" viewBox="0 0 24 24" width="24" height="24"><path fill="currentColor" d="M5.638 21.938Q3 20.875 3 19q0-.8.5-1.437t1.4-1.138l1.625 1.45q-.6.2-1.062.513T5 19q0 .65 2.025 1.325T12 21t4.975-.675T19 19q0-.3-.462-.612t-1.063-.513l1.625-1.45q.9.5 1.4 1.138T21 19q0 1.875-2.637 2.938T12 23t-6.363-1.062M12 20.025L3 12.05V8.275L12-.1l9 8.375v3.775zM9.887 9.888q.363-.363.363-.888t-.363-.888T9 7.75t-.888.363T7.75 9t.363.888t.887.362t.888-.363m.362 1.713q1.075.525 2.263.338t2.087-.988q.85-.725 1.113-1.825T15.45 7.05zm2.638-4.712q.362-.363.362-.888t-.363-.888T12 4.75t-.888.363T10.75 6t.363.888t.887.362t.888-.363"/></svg>