<svg xmlns="http://www.w3.org/2000/svg" viewBox="0 0 24 24" width="24" height="24"><path fill="currentColor" d="M9.563 15.563Q10 15.125 10 14.5t-.437-1.062T8.5 13t-1.062.438T7 14.5t.438 1.063T8.5 16t1.063-.437M13 22l2-2q-.825 0-1.412-.587T13 18v-4q0-1.775 1.25-2.887T17.5 10t3.25 1.113T22 14v4q0 .825-.587 1.413T20 20l2 2zm5.025-4.225q.225-.225.225-.525t-.225-.525t-.525-.225t-.525.225t-.225.525t.225.525t.525.225t.525-.225M14.5 15h6v-1q0-.275-.05-.525T20.3 13h-5.6q-.1.225-.15.475T14.5 14zM5 21v-3.05q-.45-.5-.725-1.112T4 15.5V6q0-2.075 1.925-3.037T12 2q4.3 0 6.15.925T20 6v2.4q-.45-.15-.95-.238T18 8.025V7H6v3h6.5q-.75.825-1.125 1.85T11 14v5H8v2z"/></svg>