<svg xmlns="http://www.w3.org/2000/svg" viewBox="0 0 24 24" width="24" height="24"><path fill="currentColor" d="M8.563 16.563Q9 16.125 9 15.5t-.437-1.062T7.5 14t-1.062.438T6 15.5t.438 1.063T7.5 17t1.063-.437m7 0Q16 16.125 16 15.5t-.437-1.062T14.5 14t-1.062.438T13 15.5t.438 1.063T14.5 17t1.063-.437M4 22v-3.05q-.45-.5-.725-1.112T3 16.5V7q0-2.075 1.925-3.037T11 3q.65 0 1.225.013t1.1.062q-.175.5-.25.975T13 5q0 .775.2 1.525T13.8 8H5v3h11.075L19 13.625V16.5q0 .725-.275 1.338T18 18.95V22h-3v-2H7v2zM19.713 5.712Q20 5.425 20 5t-.288-.712T19 4t-.712.288T18 5t.288.713T19 6t.713-.288M19 11q-2.025-1.725-3.012-3.187T15 5.1q0-1.7 1.163-2.9T19 1t2.838 1.2T23 5.1q0 1.25-.987 2.713T19 11"/></svg>