<svg xmlns="http://www.w3.org/2000/svg" viewBox="0 0 24 24" width="24" height="24"><path fill="currentColor" d="M9.125 9.825L7.875 9l.2-.325q.075-.125.125-.262t.05-.288q0-.2-.075-.375T7.9 7.375q-.3-.3-.488-.75t-.187-.95q0-.375.113-.712t.312-.638L7.875 4l1.25.825l-.225.325q-.075.125-.112.263T8.75 5.7q0 .2.088.388t.262.362q.275.275.438.65t.212.8t-.062.838t-.363.762zm-3.05-.075l-1.35-.675l.2-.375q.075-.125.1-.275t.025-.3q0-.2-.075-.413T4.75 7.3q-.25-.325-.375-.75T4.25 5.7q0-.325.075-.65t.225-.6l.175-.375l1.35.675l-.2.375q-.075.125-.1.275t-.025.3q0 .2.075.413t.225.412q.25.325.375.75t.125.85q0 .325-.063.638t-.212.587zM1.875 8L1 2l1.763-.5Q4.525 1 7 1q1.225 0 2.313.15t1.912.35Q12.2 1.725 13 2l-.875 6H10.6l.725-4.925Q10.25 2.8 9.175 2.65T7 2.5t-2.175.15t-2.15.425L3.4 8zm3.85 14L4 21l4.025-7H11.5l1.45-5.025q.25-.875.925-1.425T15.4 7q1.2 0 1.963.913t.537 2.112L16.5 17H8.625zm3.225 0v-1q0-.825.588-1.412T10.974 19h5.1q.45 0 .925.163t.975.512v-1.1q0-1.575.413-3.238t1.237-3.437l.5-1.05q.3-.65.2-1.312T19.75 8.4q-.2-.2-.3-.45t-.1-.525q0-.575.425-1t1-.425q.5 0 .913.263t.637.712q.325.65.488 1.325t.162 1.35q0 .35-.05.738t-.175.812L19.975 22zM16 6q-.825 0-1.412-.587T14 4t.588-1.412T16 2t1.413.588T18 4t-.587 1.413T16 6"/></svg>