<svg xmlns="http://www.w3.org/2000/svg" viewBox="0 0 24 24" width="24" height="24"><path fill="currentColor" d="M5 23V1h14v8h-5.05l-.8 3.175q-1.025.925-1.588 2.175T11 17t.55 2.638t1.6 2.187l.3 1.175zm7.713-17.287Q13 5.424 13 5t-.288-.712T12 4t-.712.288T11 5t.288.713T12 6t.713-.288M15.5 23l-.575-2.3q-.9-.65-1.412-1.612T13 17t.513-2.087t1.412-1.613L15.5 11h4l.575 2.3q.9.65 1.413 1.613T22 17t-.513 2.088t-1.412 1.612L19.5 23zm3.775-4.225Q20 18.05 20 17t-.725-1.775T17.5 14.5t-1.775.725T15 17t.725 1.775t1.775.725t1.775-.725"/></svg>