<svg xmlns="http://www.w3.org/2000/svg" viewBox="0 0 24 24" width="24" height="24"><path fill="currentColor" d="M8 7q.425 0 .713-.288T9 6t-.288-.712T8 5t-.712.288T7 6t.288.713T8 7m3.713-.288Q12 6.426 12 6t-.288-.712T11 5t-.712.288T10 6t.288.713T11 7t.713-.288M12 18q1.575 0 2.688-1.075T15.8 14.3q0-.725-.25-1.412T14.8 11.7L12 8.9l-2.7 2.7q-.55.55-.837 1.25T8.2 14.3q.05 1.55 1.15 2.625T12 18m-1.275-2.425Q10.2 15.05 10.2 14.3q0-.375.138-.713t.412-.612l1.25-1.25l1.225 1.225q.275.275.425.625t.15.725q0 .75-.525 1.275T12 16.1t-1.275-.525M4 22V2h16v20z"/></svg>