<svg xmlns="http://www.w3.org/2000/svg" viewBox="0 0 24 24" width="24" height="24"><path fill="currentColor" d="M3 21v-4.75l8.925-8.925L10.5 5.9l1.425-1.4l1.925 1.9l3.8-3.8l3.75 3.75l-3.8 3.8L19 11.6L17.6 13l-4.25-4.25L5 17.075V19h1.05q.25.55.538 1.05T7.2 21zm12 2q-2.275 0-4.2-1.2T8 18.5q.875-2.1 2.8-3.3T15 14t4.2 1.2t2.8 3.3q-.875 2.1-2.8 3.3T15 23m1.775-2.725q.725-.725.725-1.775t-.725-1.775T15 16t-1.775.725T12.5 18.5t.725 1.775T15 21t1.775-.725m-2.838-.712q-.437-.438-.437-1.063t.438-1.062T15 17t1.063.438t.437 1.062t-.437 1.063T15 20t-1.062-.437"/></svg>