<svg xmlns="http://www.w3.org/2000/svg" viewBox="0 0 24 24" width="24" height="24"><path fill="currentColor" d="M6.55 14.55q1.775 0 2.425-1.05t.65-2.7q0-.425-.3-.65T8.15 9.7q-.65-.175-1.575-.212t-1.8.087q-.65.1-.962.325t-.313.65q0 .675.113 1.3T3.95 13q.4.875.937 1.213t1.663.337M17.25 20v-6h1.5v6zm-2.75-1.5v-3H16v3zm5.5 0v-3h1.5v3zM6.55 16q-1.525 0-2.325-.413T2.75 14.05q-.375-.65-.638-1.5T1.625 11H1l.525-2.45q1.4-.275 2.538-.413T6.25 8q1.525 0 2.763.263T10.95 9h2.125q.6-.45 1.9-.712t2.775-.263q1.05 0 2.188.125t2.537.4L23 11h-.625q-.175.55-.363 1.213t-.462 1.237q-.3-.275-.638-.512T20.2 12.5q.125-.45.213-.95t.087-1.025q0-.425-.312-.663T19.2 9.55q-.875-.125-1.787-.075T15.85 9.7q-.875.225-1.175.45t-.3.65q0 .7.1 1.288t.35 1.062q-.3.25-.575.538t-.475.637q-.175-.275-.3-.55t-.225-.625q-.125-.4-.213-.8t-.212-.8q-.1-.3-.3-.438T12 10.975q-.3 0-.513.15t-.312.425q-.125.4-.213.8t-.212.8q-.425 1.5-1.525 2.175T6.55 16"/></svg>