<svg xmlns="http://www.w3.org/2000/svg" viewBox="0 0 24 24" width="24" height="24"><path fill="currentColor" d="m9.05 16.15l-1.175 2.625l-5.4 3.45l-.7-.9l4.2-3.9L6.5 13.5l2.575-5.35q.375-.8 1.188-1.05t1.612.175l3.375 1.75L19.8 8.9l-.225-.85q-.5-.1-.95-.437t-.925-.988q-.35-.5-.675-1.075t-.65-1.35q-.35-.825.063-1.65t1.287-1.05l1.625-.425q.875-.225 1.625.263t.875 1.387q.125.8.138 1.488t-.063 1.312q-.1.8-.325 1.325t-.6.85l1.1 4.05l-1.45.375l-.525-1.925l-5.3.825l-1.6-.775l-2.475 3.4l6.45 7.775l-.8.8zm2.538-10.737Q11 4.825 11 4t.588-1.412T13 2t1.413.588T15 4t-.587 1.413T13 6t-1.412-.587M19.975 6.6q.2-.05.288-.237t.187-.763q.1-.55.088-1.187T20.4 2.925q-.05-.225-.237-.35T19.75 2.5l-1.625.45q-.225.05-.337.263t-.013.412q.35.825.675 1.4t.725 1q.325.35.463.463t.337.112"/></svg>