<svg xmlns="http://www.w3.org/2000/svg" viewBox="0 0 24 24" width="24" height="24"><path fill="currentColor" d="M5 8V6h14v2zm2-3V3h10v2zm10.175 18.025l-.3-1.5q-.3-.125-.562-.262t-.538-.338l-1.45.45l-1-1.7l1.15-1q-.05-.325-.05-.65t.05-.65l-1.15-1l1-1.7l1.45.45q.275-.2.537-.337t.563-.263l.3-1.5h2l.3 1.5q.3.125.563.263t.537.337l1.45-.45l1 1.7l-1.15 1q.05.325.05.65t-.05.65l1.15 1l-1 1.7l-1.45-.45q-.275.2-.537.337t-.563.263l-.3 1.5zm2.413-3.587q.587-.588.587-1.413t-.587-1.412t-1.413-.588t-1.412.588t-.588 1.412t.588 1.413t1.412.587t1.413-.587M11.825 21H5L3 9h18l-.425 2.45q-.575-.225-1.175-.337T18.175 11q-2.925 0-4.975 2.05t-2.05 4.975q0 .775.175 1.525t.5 1.45"/></svg>