<svg xmlns="http://www.w3.org/2000/svg" viewBox="0 0 24 24" width="24" height="24"><path fill="currentColor" d="M2 22v-6.025h20V22zM22 8H2V2h20zM2 14v-1.7L7.95 10H22v2.725L18.425 14zm5.288-8.462Q7.5 5.325 7.5 5t-.213-.537t-.537-.213t-.537.213T6 5t.213.538t.537.212t.538-.213m0 14Q7.5 19.326 7.5 19t-.213-.537t-.537-.213t-.537.213T6 19t.213.538t.537.212t.538-.213m1-5.75q.212-.212.212-.537t-.213-.537t-.537-.213t-.537.213T7 13.25t.213.538t.537.212t.538-.213m4.25-8.25q.212-.212.212-.537t-.213-.537T12 4.25t-.537.213T11.25 5t.213.538t.537.212t.538-.213m0 7.25q.212-.212.212-.537t-.213-.537T12 11.5t-.537.213t-.213.537t.213.538T12 13t.538-.213m0 6.75q.212-.212.212-.537t-.213-.537T12 18.25t-.537.213t-.213.537t.213.538t.537.212t.538-.213m4-8.25q.212-.212.212-.537t-.213-.537T16 10t-.537.213t-.213.537t.213.538t.537.212t.538-.213m1.25-5.75Q18 5.326 18 5t-.213-.537t-.537-.213t-.537.213T16.5 5t.213.538t.537.212t.538-.213m0 14Q18 19.326 18 19t-.213-.537t-.537-.213t-.537.213T16.5 19t.213.538t.537.212t.538-.213"/></svg>