<svg xmlns="http://www.w3.org/2000/svg" viewBox="0 0 24 24" width="24" height="24"><path fill="currentColor" d="M12 22q-2.075 0-3.537-1.463T7 17V7q0-2.075 1.463-3.537T12 2t3.538 1.463T17 7v5h-5v2q-.825 0-1.412.588T10 16q0 .8.588 1.375T12 18zm2 0v-.575q0-1.3 1.25-1.875t2.75-.575t2.75.575T22 21.425V22zm2.588-4.587Q16 16.825 16 16t.588-1.412T18 14t1.413.588T20 16t-.587 1.413T18 18t-1.412-.587m-5.3-.7Q11 16.425 11 16t.288-.712T12 15t.713.288T13 16t-.288.713T12 17t-.712-.288m2.124-7.3Q14 8.825 14 8t-.587-1.412T12 6t-1.412.588T10 8t.588 1.413T12 10t1.413-.587"/></svg>