<svg xmlns="http://www.w3.org/2000/svg" viewBox="0 0 24 24" width="24" height="24"><path fill="currentColor" d="m7.55 19.35l-2.4-4.8l1.8-.9l2.4 4.775zm9 0l-5.4-10.8l1.8-.9l5.4 10.775zm-4.512-.638q-.288-.287-.288-.712t.288-.712t.712-.288t.713.288t.287.712t-.288.713t-.712.287t-.712-.288m9.512.638l-1.4-2.8l1.8-.9l1.375 2.8zm-11-3l-5.4-10.8l1.8-.875l5.375 10.775zm8.738-1.638Q19 14.426 19 14t.288-.712T20 13t.713.288T21 14t-.288.713T20 15t-.712-.288m-15-2Q4 12.426 4 12t.288-.712T5 11t.713.288T6 12t-.288.713T5 13t-.712-.288m13.762-.362l-3.4-6.8l1.8-.9l3.375 6.8zm-15-2l-2.4-4.8l1.8-.875L4.825 9.45zm7.488-3.637Q10.25 6.425 10.25 6t.288-.712T11.25 5t.713.288t.287.712t-.288.713T11.25 7t-.712-.288"/></svg>