<svg xmlns="http://www.w3.org/2000/svg" viewBox="0 0 24 24"><path fill="currentColor" d="m1.725 22.125l.175-1.95l5.25.425l.475-1.675l-6.8-1.325l.35-1.925l6.975 1.3l.425-1.45l-7.7-2.075l.525-1.925L9.1 13.6l.375-1.325L1.4 4.2l1.4-1.4l18.4 18.4l-1.4 1.4l-3.85-3.825l-.35 1.325q-.375 1.425-1.575 2.225t-2.65.675zM18.45 15.6l-5.8-5.75l.85-.575L9.075 2.7L10.7 1.575l4.45 6.6l1.25-.85l-2.45-5.8L15.825.75l2.925 6.975L20.725 5.5l2.35 1.325L21.2 12.95q-.15.5-.45.913t-.725.687zm-3.175-.3L3.85 9.375l.9-1.775l5.825 3z"/></svg>