<svg xmlns="http://www.w3.org/2000/svg" viewBox="0 0 24 24" width="24" height="24"><path fill="currentColor" d="m11.375 23l-9.65-.875l.2-2l5.225.475l.475-1.7l-6.8-1.275l.35-1.95l6.975 1.3l.425-1.475l-7.7-2.075l.55-1.925L9.1 13.575l.375-1.325l-5.6-2.9l.9-1.8l6.75 3.525l.125-2.975l2.55-.5l2.55 5.9q.2.475.225.975t-.1 1L15.6 20.1q-.375 1.4-1.575 2.213t-2.65.687m7-7.35q.125-.575.1-1.175T18.25 13.3l-2.425-5.625l.575-.35l-2.4-5.85l1.825-.75L18.75 7.75l1.975-2.225l2.35 1.325l-1.875 6.1q-.15.5-.45.912t-.725.688zm-10.9-8.375L6.3 5.85L7.85 4.6l2.375 2.85l-.05 1.225zm4.275-.75L9.05 2.65l1.675-1.15L13.9 6.125z"/></svg>