<svg xmlns="http://www.w3.org/2000/svg" viewBox="0 0 24 24" width="24" height="24"><path fill="currentColor" d="M11.288 11.713Q11 11.425 11 11t.288-.712T12 10t.713.288T13 11t-.288.713T12 12t-.712-.288m0-6Q11 5.426 11 5t.288-.712T12 4t.713.288T13 5t-.288.713T12 6t-.712-.288m2 3Q13 8.426 13 8t.288-.712T14 7t.713.288T15 8t-.288.713T14 9t-.712-.288m1 3Q14 11.426 14 11t.288-.712T15 10t.713.288T16 11t-.288.713T15 12t-.712-.288m0-6Q14 5.426 14 5t.288-.712T15 4t.713.288T16 5t-.288.713T15 6t-.712-.288m2 3Q16 8.426 16 8t.288-.712T17 7t.713.288T18 8t-.288.713T17 9t-.712-.288m1 3Q17 11.426 17 11t.288-.712T18 10t.713.288T19 11t-.288.713T18 12t-.712-.288m0-6Q17 5.426 17 5t.288-.712T18 4t.713.288T19 5t-.288.713T18 6t-.712-.288m2 3Q19 8.426 19 8t.288-.712T20 7t.713.288T21 8t-.288.713T20 9t-.712-.288m1 3Q20 11.426 20 11t.288-.712T21 10t.713.288T22 11t-.288.713T21 12t-.712-.288m0-6Q20 5.426 20 5t.288-.712T21 4t.713.288T22 5t-.288.713T21 6t-.712-.288M19.95 21q-3.125 0-6.187-1.35T8.2 15.8t-3.85-5.55T3 4.05V3h5.9l.925 5.025l-2.85 2.875q.55.975 1.225 1.85t1.45 1.625q.725.725 1.588 1.388T13.1 17l2.9-2.9l5 1.025V21z"/></svg>