<svg xmlns="http://www.w3.org/2000/svg" viewBox="0 0 24 24"><path fill="currentColor" d="M3.675 17.025v-1.7Q4.95 14.3 5.888 13.513T7.3 12.05q.35-.5.575-1.037T8.1 9.95q0-.7-.412-1.1t-1.038-.4q-.6 0-.975.388t-.5 1.062L3.45 9.775q.15-1.35 1.013-2.187T6.65 6.75q1.575 0 2.438.8T9.95 9.8q0 .925-.35 1.725t-.9 1.525q-.575.775-1.162 1.263T6.225 15.35l.05.075H10.2v1.6zM12.2 17V6.975h3.35q2.425 0 3.713 1.3T20.55 12t-1.3 3.713T15.55 17zm1.9-1.8h1.35q1.65 0 2.438-.775T18.675 12t-.787-2.437t-2.438-.788H14.1z"/></svg>