<svg xmlns="http://www.w3.org/2000/svg" viewBox="0 0 24 24"><path fill="currentColor" d="M12.25 17.025V7h3.325Q18 7 19.288 8.288T20.575 12t-1.3 3.725t-3.7 1.3zm1.875-1.8H15.5q1.65 0 2.425-.787T18.7 12t-.775-2.437t-2.425-.788h-1.375zM6.9 17.25q-1.475 0-2.4-.763T3.425 14.3l1.8-.35q.125.725.538 1.138T6.9 15.5q.7 0 1.125-.387t.425-1.063q0-.65-.45-1.075t-1.275-.425h-.8v-1.6h.75q.75 0 1.125-.35t.375-.925t-.363-.913t-.962-.337q-.575 0-.937.3T5.4 9.6l-1.775-.2q.2-1.325 1.05-1.975t2.2-.65q1.375 0 2.238.688t.862 2.012q0 .75-.337 1.263t-.888.862v.1q.75.275 1.15.975t.4 1.525q0 1.475-.937 2.263T6.9 17.25"/></svg>