<svg xmlns="http://www.w3.org/2000/svg" viewBox="0 0 24 24" width="24" height="24"><path fill="currentColor" d="M11.288 4.713Q11 4.425 11 4t.288-.712T12 3t.713.288T13 4t-.288.713T12 5t-.712-.288m0-3Q11 1.426 11 1t.288-.712T12 0t.713.288T13 1t-.288.713T12 2t-.712-.288M8.4 22q-1.6-.95-2.5-2.55T5 16q0-2.025 1.075-3.738T9 9.676V7q0-.425.288-.712T10 6h4q.425 0 .713.288T15 7v2.675q1.825.875 2.913 2.588T19 16q0 1.85-.9 3.45T15.6 22zM7 3q-.425 0-.712-.288T6 2t.288-.712T7 1t.713.288T8 2t-.288.713T7 3m9.288-.288Q16 2.426 16 2t.288-.712T17 1t.713.288T18 2t-.288.713T17 3t-.712-.288m-8 2Q8 4.426 8 4t.288-.712T9 3t.713.288T10 4t-.288.713T9 5t-.712-.288m6 0Q14 4.426 14 4t.288-.712T15 3t.713.288T16 4t-.288.713T15 5t-.712-.288"/></svg>