<svg xmlns="http://www.w3.org/2000/svg" viewBox="0 0 24 24" width="24" height="24"><path fill="currentColor" d="M4.588 19.413Q4 18.825 4 18t.588-1.412T6 16t1.413.588T8 18t-.587 1.413T6 20t-1.412-.587m6 0Q10 18.825 10 18t.588-1.412T12 16t1.413.588T14 18t-.587 1.413T12 20t-1.412-.587m6 0Q16 18.825 16 18t.588-1.412T18 16t1.413.588T20 18t-.587 1.413T18 20t-1.412-.587m-12-6Q4 12.825 4 12t.588-1.412T6 10t1.413.588T8 12t-.587 1.413T6 14t-1.412-.587m6 0Q10 12.825 10 12t.588-1.412T12 10t1.413.588T14 12t-.587 1.413T12 14t-1.412-.587m6 0Q16 12.825 16 12t.588-1.412T18 10t1.413.588T20 12t-.587 1.413T18 14t-1.412-.587m-12-6Q4 6.825 4 6t.588-1.412T6 4t1.413.588T8 6t-.587 1.413T6 8t-1.412-.587m6 0Q10 6.825 10 6t.588-1.412T12 4t1.413.588T14 6t-.587 1.413T12 8t-1.412-.587m6 0Q16 6.825 16 6t.588-1.412T18 4t1.413.588T20 6t-.587 1.413T18 8t-1.412-.587"/></svg>