<svg xmlns="http://www.w3.org/2000/svg" viewBox="0 0 24 24" width="24" height="24"><path fill="currentColor" d="M16 23q-1.275 0-2.137-.862T13 20q0-1.25.875-2.125T16 17q.425 0 .713-.288T17 16q0-1.25.875-2.125T20 13t2.125.875T23 16q0 3.025-1.987 5.013T16 23m-6.5-6.5q-.825 0-1.412-.587T7.5 14.5t.588-1.412T9.5 12.5t1.413.588t.587 1.412t-.587 1.413T9.5 16.5m0 5.5q-4.025 0-5.762-2.5T2 14q0-1.875.563-3.988t1.575-3.887t2.387-2.95T9.5 2q1.4 0 2.625.9t2.188 2.338t1.612 3.224t.9 3.538q0 .95-.788 1.575t-.962 1.525q-.5.1-.937.263t-.838.412q.1-.3.15-.612t.05-.663q0-1.65-1.175-2.825T9.5 10.5t-2.825 1.175T5.5 14.5t1.175 2.825T9.5 18.5q.5 0 .975-.112t.9-.338q-.375.875-.413 1.85t.363 1.925q-.425.1-.875.138T9.5 22"/></svg>