<svg xmlns="http://www.w3.org/2000/svg" viewBox="0 0 24 24" width="24" height="24"><path fill="currentColor" d="M4.788 7.713Q4.5 7.425 4.5 7t.288-.712T5.5 6t.713.288T6.5 7t-.288.713T5.5 8t-.712-.288M10 22q-1.65 0-2.825-1.175T6 18v-6q0-2.5 1.75-4.25T12 6h1.825q1.725 0 2.95 1.163T18 10.025q0 1.15-.612 2.113T15.724 13.6q-.8.375-1.262 1.113T14 16.325V18q0 1.675-1.162 2.838T10 22M7.288 5.712Q7 5.425 7 5v-.5q0-.425.288-.712T8 3.5t.713.288T9 4.5V5q0 .425-.288.713T8 6t-.712-.288m3-1Q10 4.426 10 4v-.5q0-.425.288-.712T11 2.5t.713.288T12 3.5V4q0 .425-.288.713T11 5t-.712-.288m3 0Q13 4.426 13 4V3q0-.425.288-.712T14 2t.713.288T15 3v1q0 .425-.288.713T14 5t-.712-.288m3.15.85Q16 5.126 16 4.5v-1q0-.625.438-1.062T17.5 2t1.063.438T19 3.5v1q0 .625-.437 1.063T17.5 6t-1.062-.437"/></svg>