<svg xmlns="http://www.w3.org/2000/svg" viewBox="0 0 24 24" width="24" height="24"><path fill="currentColor" d="M10 7.163q-.8-.838-.75-2.038q.05-1.3.913-2.287T12 1q.975.85 1.838 1.838t.912 2.287q.05 1.2-.75 2.038T12 8t-2-.837m10.788 9.625q.212-.213.212-.538t-.213-.537t-.537-.213t-.537.213t-.213.537t.213.538t.537.212t.538-.213M18 22H6q-1.25 0-2.125-.875T3 19v-2h6v-6q0-.825.588-1.412T11 9h2q.825 0 1.413.588T15 11v6h2.6q-.05-.2-.075-.375t-.025-.375q0-1.15.8-1.95t1.95-.8t1.95.8t.8 1.95q0 .95-.562 1.675T21 18.9v.1q0 1.25-.875 2.125T18 22"/></svg>