<svg xmlns="http://www.w3.org/2000/svg" viewBox="0 0 24 24" width="24" height="24"><path fill="currentColor" d="M16 6q-.825 0-1.412-.587T14 4t.588-1.412T16 2t1.413.588T18 4t-.587 1.413T16 6M5.725 22L4 21l3.45-6q.275-.475.738-.737T9.2 14h2.3l1.45-5.025q.25-.875.925-1.425T15.4 7q1.2 0 1.963.913t.537 2.112L16.825 15.4q-.125.7-.687 1.15T14.85 17H8.625zM7 11L5.575 9.6l1.6-1.6H3V6h4.175L5.6 4.4L7 3l4 4zm11.425 11H8.95v-1q0-.825.588-1.412T10.975 19h5.1q.45 0 .925.163t.975.512v-1.1q0-1.575.413-3.238t1.237-3.437l.5-1.05q.3-.65.2-1.312T19.75 8.4q-.2-.2-.3-.45t-.1-.525q0-.575.425-1t1-.425q.5 0 .913.263t.637.712q.325.65.488 1.325t.162 1.35q0 .35-.05.738t-.175.812l-2.4 9.325q-.2.65-.725 1.063t-1.2.412"/></svg>