<svg xmlns="http://www.w3.org/2000/svg" viewBox="0 0 24 24" width="24" height="24"><path fill="currentColor" d="m9.25 15l1.05-1.05l-.675-.7h2q1.2 0 2.038-.837t.837-2.038t-.837-2.037t-2.038-.838H7.25V9h4.375q.575 0 .975.4t.4.975t-.4.975t-.975.4h-2l.675-.675L9.25 10l-2.5 2.5zM6.5 20q-1.025 0-1.875-.537T3.35 18H0v-6q0-.825.588-1.412T2 10h1l1.5-4.175q.225-.6.738-.962T6.4 4.5h7.45q.525 0 .988.263t.737.712L18 9.5l4.175.35q.825.075 1.325.625t.5 1.375V18h-3.35q-.425.925-1.275 1.463T17.5 20t-1.875-.537T14.35 18h-4.7q-.425.925-1.275 1.463T6.5 20"/></svg>