<svg xmlns="http://www.w3.org/2000/svg" viewBox="0 0 24 24" width="24" height="24"><path fill="currentColor" d="M8 6q-.825 0-1.412-.587T6 4t.588-1.412T8 2t1.413.588T10 4t-.587 1.413T8 6m10.275 16l-2.9-5H9.15q-.725 0-1.287-.45t-.688-1.15L6.1 10.025q-.225-1.2.538-2.113T8.6 7q.85 0 1.525.55t.925 1.425L12.5 14h2.3q.55 0 1.013.263t.737.737L20 21zM17 11l-4-4l4-4l1.4 1.4L16.825 6H21v2h-4.175l1.6 1.6zM5.575 22q-.675 0-1.2-.413t-.725-1.062L1.25 11.2q-.125-.425-.175-.812t-.05-.738q0-.675.163-1.35t.487-1.325q.225-.45.638-.712T3.225 6q.575 0 1 .425t.425 1q0 .275-.1.525t-.3.45q-.475.475-.575 1.138t.2 1.312l.5 1.05q.825 1.775 1.238 3.438t.412 3.237v1.1q.5-.35.975-.513T7.925 19h5.1q.85 0 1.438.588T15.05 21v1z"/></svg>