<svg xmlns="http://www.w3.org/2000/svg" viewBox="0 0 24 24" width="24" height="24"><path fill="currentColor" d="M6.5 20q-1.025 0-1.875-.537T3.35 18H0v-6q0-.825.588-1.412T2 10h1l1.5-4.175q.225-.6.738-.962T6.4 4.5h7.45q.525 0 .988.263t.737.712l.85 1.4L13.95 9.75h-1.575L10 7.375L5.375 12L10 16.625l2.375-2.375h3.65l3.925-4.575l2.225.175q.825.075 1.325.625t.5 1.375V18h-3.35q-.425.925-1.275 1.463T17.5 20t-1.875-.537T14.35 18h-4.7q-.425.925-1.275 1.463T6.5 20m3.5-5.5l1.05-1.05l-.675-.7h4.95L21.55 5.5l-1.125-1l-5.775 6.75h-4.275l.675-.7L10 9.5L7.5 12z"/></svg>