<svg xmlns="http://www.w3.org/2000/svg" viewBox="0 0 24 24" width="24" height="24"><path fill="currentColor" d="m15 8l-3-3l3-3l1.05 1.05l-1.175 1.2H18v1.5h-3.125l1.175 1.2zm4 6l-3-3l1.05-1.05l1.2 1.175V8h1.5v3.125l1.2-1.175L22 11zM8 6q-.825 0-1.412-.587T6 4t.588-1.412T8 2t1.413.588T10 4t-.587 1.413T8 6m10.275 16l-2.9-5H9.15q-.725 0-1.287-.45t-.688-1.15L6.1 10.025q-.225-1.2.538-2.113T8.6 7q.85 0 1.525.55t.925 1.425L12.5 14h2.3q.55 0 1.013.263t.737.737L20 21zm-12.7 0q-.675 0-1.2-.413t-.725-1.062L1.25 11.2q-.125-.425-.175-.812t-.05-.738q0-.675.163-1.35t.487-1.325q.225-.45.638-.712T3.225 6q.575 0 1 .425t.425 1q0 .275-.1.525t-.3.45q-.475.475-.575 1.138t.2 1.312l.5 1.05q.825 1.775 1.238 3.438t.412 3.237v1.1q.5-.35.975-.513T7.925 19h5.1q.85 0 1.438.588T15.05 21v1z"/></svg>