<svg xmlns="http://www.w3.org/2000/svg" viewBox="0 0 24 24" width="24" height="24"><path fill="currentColor" d="M15.388 11.388q.362-.363.362-.888t-.363-.888t-.887-.362t-.888.363t-.362.887t.363.888t.887.362t.888-.363m-5 0q.362-.362.362-.887t-.363-.888T9.5 9.25t-.888.363t-.362.887t.363.888t.887.362t.888-.363m4.325 4.788Q15.924 15.35 16.5 14h-9q.575 1.35 1.788 2.175T12 17t2.713-.825m-6.225 4.113q-1.638-.713-2.85-1.925t-1.925-2.85T3 12t.713-3.512t1.924-2.85t2.85-1.925T12 3t3.513.713t2.85 1.924t1.925 2.85T21 12t-.712 3.513t-1.925 2.85t-2.85 1.925T12 21t-3.512-.712M12.4 8.5q.425 0 .963-.162T13.9 7.6q0-.3-.2-.525t-.5-.225q-.2 0-.387.075T12.4 7q-.525 0-.887-.362t-.363-.888q0-.275.088-.462t.262-.263q-.475.05-.925.125T9.7 5.4q-.025.075-.038.175t-.012.175q0 1.125.813 1.938T12.4 8.5"/></svg>