<svg xmlns="http://www.w3.org/2000/svg" viewBox="0 0 24 24" width="24" height="24"><path fill="currentColor" d="m4.9 21l-.15-1.275l-.2-.1q-.1-.05-.275-.175l-1.2.5l-1.1-1.9L3 17.275v-.525l-1.025-.8l1.1-1.9l1.2.5q.125-.075.237-.15t.238-.125L4.9 13h2.2l.15 1.275l.1.05l.1.05q.05.025.125.075l.15.1l1.2-.5l1.1 1.9L9 16.725v.55l5.475-3.175l-1.125 1.975l.3.225l-3.95 2.3l-.775 1.35l-1.2-.5q-.125.075-.237.15t-.238.125L7.1 21zm.038-5.062Q4.5 16.375 4.5 17t.438 1.063T6 18.5t1.063-.437T7.5 17t-.437-1.062T6 15.5t-1.062.438M9.9 10l-.15-1.275q-.05-.05-.125-.075T9.5 8.575v5.5l-.375-.65L8 13.9V8.8L7 7.05l1-.775V5.75l-1.025-.8l1.1-1.9l1.2.5q.125-.075.237-.15t.238-.125L9.9 2h2.2l.15 1.275l.2.1q.1.05.275.175l1.2-.5l1.1 1.9L14 5.725v.525l1.025.8l-1.1 1.9l-1.2-.5q-.125.075-.237.15t-.238.125L12.1 10zm.038-5.062Q9.5 5.375 9.5 6t.438 1.063T11 7.5t1.063-.437T12.5 6t-.437-1.062T11 4.5t-1.062.438M16.9 21l-.15-1.275l-.2-.1q-.1-.05-.275-.175l-1.2.5l-1.1-1.9L15 17.275v-.525l-1.025-.775l1.1-1.925l1.2.5q.075-.05.1-.062l.375-.188l-5.4-3.8h1.2l.1-.9l4.875 3.4H19.1l.15 1.275l.1.05l.1.05q.05.025.125.075l.15.1l1.2-.5l1.1 1.9l-1.025.775v.525l1.025.8l-1.1 1.9l-1.2-.5q-.125.075-.237.15t-.238.125L19.1 21zm.038-5.062Q16.5 16.375 16.5 17t.438 1.063T18 18.5t1.063-.437T19.5 17t-.437-1.062T18 15.5t-1.062.438"/></svg>