<svg xmlns="http://www.w3.org/2000/svg" viewBox="0 0 24 24" width="24" height="24"><path fill="currentColor" d="M11.25 22q-.3 0-.525-.225t-.225-.525t.225-.525t.525-.225v-1.55q-1.05-.125-1.975-.5t-1.675-1l-1.075 1.1q.225.225.225.525t-.225.525t-.525.225t-.525-.225L4.4 18.55q-.225-.225-.225-.538t.225-.537t.525-.213t.525.213l1.1-1.1q-.625-.775-1-1.675t-.5-1.95H3.5q0 .3-.225.525t-.525.225t-.525-.225T2 12.75v-1.5q0-.3.225-.525t.525-.225t.525.225t.225.525h1.55q.125-1.05.513-1.95t.987-1.675l-1.1-1.1q-.225.2-.525.212T4.4 6.525t-.225-.538t.225-.537L5.45 4.4q.225-.225.538-.225t.537.225t.225.537t-.225.538L7.6 6.55q.775-.625 1.675-1t1.95-.5V3.5q-.3 0-.512-.225T10.5 2.75t.225-.525T11.25 2h1.5q.3 0 .525.225t.225.525t-.225.525t-.525.225v1.55q1.05.125 1.95.5t1.675 1l1.1-1.1q-.225-.225-.225-.525t.225-.525t.538-.225t.537.225l1.05 1.075q.225.225.225.525t-.225.525t-.537.225t-.538-.225L17.45 7.6q.625.775 1 1.687t.5 1.963h1.55q0-.3.225-.525t.525-.225t.525.225t.225.525v1.5q0 .3-.225.525t-.525.225t-.525-.225t-.225-.525h-1.55q-.125 1.05-.5 1.962t-1 1.688l1.075 1.075q.225-.225.538-.225t.537.225t.225.538t-.225.537l-1.05 1.05q-.225.225-.537.225t-.538-.225t-.213-.525t.213-.525l-1.1-1.1q-.775.625-1.675 1.013t-1.95.512V20.5q.3 0 .525.225t.225.525t-.225.525t-.525.225zm-.288-6.288q.288-.287.288-.712t-.288-.712T10.25 14t-.712.288T9.25 15t.288.713t.712.287t.713-.288M13.75 16q.425 0 .713-.288T14.75 15t-.288-.712T13.75 14t-.712.288t-.288.712t.288.713t.712.287M8.5 13q.425 0 .713-.288T9.5 12t-.288-.712T8.5 11t-.712.288T7.5 12t.288.713T8.5 13m4.213-.288Q13 12.426 13 12t-.288-.712T12 11t-.712.288T11 12t.288.713T12 13t.713-.288M15.5 13q.425 0 .713-.288T16.5 12t-.288-.712T15.5 11t-.712.288T14.5 12t.288.713t.712.287m-4.537-3.287q.287-.288.287-.713t-.288-.712T10.25 8t-.712.288T9.25 9t.288.713t.712.287t.713-.288M13.75 10q.425 0 .713-.288T14.75 9t-.288-.712T13.75 8t-.712.288T12.75 9t.288.713t.712.287"/></svg>