<svg xmlns="http://www.w3.org/2000/svg" viewBox="0 0 24 24" width="24" height="24"><path fill="currentColor" d="M18 23q-2.075 0-3.537-1.463T13 18t1.463-3.537T18 13t3.538 1.463T23 18t-1.463 3.538T18 23M7 9h10V7H7zm4.675 12H5q-.825 0-1.412-.587T3 19V5q0-.825.588-1.412T5 3h14q.825 0 1.413.588T21 5v6.7q-.725-.35-1.463-.525T18 11q-.275 0-.513.012t-.487.063V11H7v2h6.125q-.45.425-.812.925T11.675 15H7v2h4.075q-.05.25-.062.488T11 18q0 .825.15 1.538T11.675 21m7.388-3.437q.437-.438.437-1.063t-.437-1.062T18 15t-1.062.438T16.5 16.5t.438 1.063T18 18t1.063-.437m.337 3.087q.65-.35 1.075-.975q-.575-.35-1.2-.513T18 19t-1.275.163t-1.2.512q.425.625 1.075.975T18 21t1.4-.35"/></svg>