<svg xmlns="http://www.w3.org/2000/svg" viewBox="0 0 24 24" width="24" height="24"><path fill="currentColor" d="M17 19h2V5h-2zm-9.287-5.287Q8 13.425 8 13t-.288-.712T7 12t-.712.288T6 13t.288.713T7 14t.713-.288m0 3Q8 16.426 8 16t-.288-.712T7 15t-.712.288T6 16t.288.713T7 17t.713-.288M6 11h8V7H6zm4.713 2.713Q11 13.425 11 13t-.288-.712T10 12t-.712.288T9 13t.288.713T10 14t.713-.288m0 3Q11 16.426 11 16t-.288-.712T10 15t-.712.288T9 16t.288.713T10 17t.713-.288m3-3Q14 13.425 14 13t-.288-.712T13 12t-.712.288T12 13t.288.713T13 14t.713-.288m0 3Q14 16.426 14 16t-.288-.712T13 15t-.712.288T12 16t.288.713T13 17t.713-.288M17 21q-.575 0-1.012-.275T15.275 20H5q-.825 0-1.412-.587T3 18V6q0-.825.588-1.412T5 4h10.275q.275-.45.713-.725T17 3h2q.825 0 1.413.588T21 5v14q0 .825-.587 1.413T19 21z"/></svg>