<svg xmlns="http://www.w3.org/2000/svg" viewBox="0 0 24 24" width="24" height="24"><path fill="currentColor" d="M14.438 10.563Q14 10.125 14 9.5q0-.325.238-.75t.512-.812t.513-.663L15.5 7l.238.275q.237.275.512.663t.513.812t.237.75q0 .625-.437 1.063T15.5 11t-1.062-.437m4-3Q18 7.125 18 6.5q0-.325.238-.75t.512-.812t.513-.663L19.5 4l.238.275q.237.275.512.663t.513.812t.237.75q0 .625-.437 1.063T19.5 8t-1.062-.437m0 6Q18 13.125 18 12.5q0-.325.238-.75t.512-.812t.513-.663L19.5 10l.238.275q.237.275.512.663t.513.812t.237.75q0 .625-.437 1.063T19.5 14t-1.062-.437M5.463 19.538Q4 18.075 4 16q0-1.2.525-2.238T6 12V6q0-1.25.875-2.125T9 3t2.125.875T12 6v6q.95.725 1.475 1.763T14 16q0 2.075-1.463 3.538T9 21t-3.537-1.463M6 16h6q0-.725-.312-1.35T10.8 13.6L10 13V6q0-.425-.288-.712T9 5t-.712.288T8 6v7l-.8.6q-.575.425-.888 1.05T6 16"/></svg>