<svg xmlns="http://www.w3.org/2000/svg" viewBox="0 0 24 24" width="24" height="24"><path fill="currentColor" d="M5 22q-2.075 0-3.537-1.463T0 17t1.463-3.537T5 12t3.538 1.463T10 17t-1.463 3.538T5 22m2.125-2.875Q8 18.25 8 17t-.875-2.125T5 14t-2.125.875T2 17t.875 2.125T5 20t2.125-.875M11 19v-5l-3.2-2.8q-.3-.275-.45-.637T7.2 9.8t.163-.762T7.8 8.4l2.8-2.8q.3-.3.688-.45T12.1 5t.813.15t.687.45l1.9 1.9q.7.7 1.6 1.1T19 9v2q-1.425 0-2.713-.55T14 8.9l-.8-.8l-2.4 2.4l2.2 2.3V19zm3.088-14.087Q13.5 4.325 13.5 3.5t.588-1.412T15.5 1.5t1.413.588T17.5 3.5t-.587 1.413T15.5 5.5t-1.412-.587M19 22q-2.075 0-3.537-1.463T14 17t1.463-3.537T19 12t3.538 1.463T24 17t-1.463 3.538T19 22m2.125-2.875Q22 18.25 22 17t-.875-2.125T19 14t-2.125.875T16 17t.875 2.125T19 20t2.125-.875"/></svg>