<svg xmlns="http://www.w3.org/2000/svg" viewBox="0 0 24 24" width="24" height="24"><path fill="currentColor" d="M12 22q-2.075 0-3.9-.788t-3.175-2.137T2.788 15.9T2 12t.788-3.9t2.137-3.175T8.1 2.788T12 2q3 0 5.475 1.638T21.15 8H18v12q-1.325.95-2.85 1.475T12 22m3.188-6.812Q16.5 13.875 16.5 12t-1.312-3.187T12 7.5T8.813 8.813T7.5 12t1.313 3.188T12 16.5t3.188-1.312m-3.9-2.476Q11 12.426 11 12t.288-.712T12 11t.713.288T13 12t-.288.713T12 13t-.712-.288m9 9Q20 21.426 20 21t.288-.712T21 20t.713.288T22 21t-.288.713T21 22t-.712-.288M20 18v-8h2v8z"/></svg>