<svg xmlns="http://www.w3.org/2000/svg" viewBox="0 0 24 24"><path fill="currentColor" d="M6.5 16.5q-1.875 0-3.187-1.312T2 12t1.313-3.187T6.5 7.5q1.4 0 2.5.75t1.625 1.95q.325-.1.663-.15t.687-.05t.7.05t.7.15Q13.9 9 15 8.25t2.5-.75q1.875 0 3.188 1.313T22 12t-1.312 3.188T17.5 16.5q-1.825 0-3.125-1.263T13 12.176q-.25-.1-.5-.137T11.975 12t-.513.05t-.462.125q-.075 1.8-1.375 3.063T6.5 16.5m-1.775-6.275Q4 10.95 4 12t.725 1.775T6.5 14.5t1.775-.725T9 12t-.725-1.775T6.5 9.5t-1.775.725m11 0Q15 10.95 15 12t.725 1.775t1.775.725t1.775-.725T20 12t-.725-1.775T17.5 9.5t-1.775.725"/></svg>