<svg xmlns="http://www.w3.org/2000/svg" viewBox="0 0 24 24" width="24" height="24"><path fill="currentColor" d="M11.65 5.85q-.15-.15-.15-.35t.15-.35T12 5t.35.15t.15.35t-.15.35T12 6t-.35-.15m2 0q-.15-.15-.15-.35t.15-.35T14 5t.35.15t.15.35t-.15.35T14 6t-.35-.15m-4 0Q9.5 5.7 9.5 5.5t.15-.35T10 5t.35.15t.15.35t-.15.35T10 6t-.35-.15m7 1q-.15-.15-.15-.35t.15-.35T17 6t.35.15t.15.35t-.15.35T17 7t-.35-.15m-8 0Q8.5 6.7 8.5 6.5t.15-.35T9 6t.35.15t.15.35t-.15.35T9 7t-.35-.15m-2 0Q6.5 6.7 6.5 6.5t.15-.35T7 6t.35.15t.15.35t-.15.35T7 7t-.35-.15m4 0q-.15-.15-.15-.35t.15-.35T11 6t.35.15t.15.35t-.15.35T11 7t-.35-.15m2 0q-.15-.15-.15-.35t.15-.35T13 6t.35.15t.15.35t-.15.35T13 7t-.35-.15m2 0q-.15-.15-.15-.35t.15-.35T15 6t.35.15t.15.35t-.15.35T15 7t-.35-.15m-3 1q-.15-.15-.15-.35t.15-.35T12 7t.35.15t.15.35t-.15.35T12 8t-.35-.15m2 0q-.15-.15-.15-.35t.15-.35T14 7t.35.15t.15.35t-.15.35T14 8t-.35-.15m2 0q-.15-.15-.15-.35t.15-.35T16 7t.35.15t.15.35t-.15.35T16 8t-.35-.15m-6 0Q9.5 7.7 9.5 7.5t.15-.35T10 7t.35.15t.15.35t-.15.35T10 8t-.35-.15m-2 0Q7.5 7.7 7.5 7.5t.15-.35T8 7t.35.15t.15.35t-.15.35T8 8t-.35-.15m1 1Q8.5 8.7 8.5 8.5t.15-.35T9 8t.35.15t.15.35t-.15.35T9 9t-.35-.15m-2 0Q6.5 8.7 6.5 8.5t.15-.35T7 8t.35.15t.15.35t-.15.35T7 9t-.35-.15m4 0q-.15-.15-.15-.35t.15-.35T11 8t.35.15t.15.35t-.15.35T11 9t-.35-.15m2 0q-.15-.15-.15-.35t.15-.35T13 8t.35.15t.15.35t-.15.35T13 9t-.35-.15m2 0q-.15-.15-.15-.35t.15-.35T15 8t.35.15t.15.35t-.15.35T15 9t-.35-.15m2 0q-.15-.15-.15-.35t.15-.35T17 8t.35.15t.15.35t-.15.35T17 9t-.35-.15m-12 0Q4.5 8.7 4.5 8.5t.15-.35T5 8t.35.15t.15.35t-.15.35T5 9t-.35-.15m1-1Q5.5 7.7 5.5 7.5t.15-.35T6 7t.35.15t.15.35t-.15.35T6 8t-.35-.15m2-2Q7.5 5.7 7.5 5.5t.15-.35T8 5t.35.15t.15.35t-.15.35T8 6t-.35-.15m1-1Q8.5 4.7 8.5 4.5t.15-.35T9 4t.35.15t.15.35t-.15.35T9 5t-.35-.15m2 0q-.15-.15-.15-.35t.15-.35T11 4t.35.15t.15.35t-.15.35T11 5t-.35-.15m2 0q-.15-.15-.15-.35t.15-.35T13 4t.35.15t.15.35t-.15.35T13 5t-.35-.15m2 0q-.15-.15-.15-.35t.15-.35T15 4t.35.15t.15.35t-.15.35T15 5t-.35-.15m1 1q-.15-.15-.15-.35t.15-.35T16 5t.35.15t.15.35t-.15.35T16 6t-.35-.15m2 2q-.15-.15-.15-.35t.15-.35T18 7t.35.15t.15.35t-.15.35T18 8t-.35-.15m1 1q-.15-.15-.15-.35t.15-.35T19 8t.35.15t.15.35t-.15.35T19 9t-.35-.15M8.113 13.888Q7.75 13.525 7.75 13t.363-.888T9 11.75t.888.363t.362.887t-.363.888T9 14.25t-.888-.363m6 0q-.362-.362-.362-.887t.363-.888t.887-.362t.888.363t.362.887t-.363.888t-.887.362t-.888-.363M12 22q-2.05 0-3.875-.788t-3.187-2.15t-2.15-3.187T2 12q0-2.075.788-3.9t2.15-3.175t3.187-2.137T12 2q2.075 0 3.9.788t3.175 2.137T21.213 8.1T22 12q0 2.05-.788 3.875t-2.137 3.188t-3.175 2.15T12 22m0-2q3.35 0 5.675-2.337T20 12q0-3.35-2.325-5.675T12 4Q8.675 4 6.337 6.325T4 12q0 3.325 2.338 5.663T12 20"/></svg>