<svg xmlns="http://www.w3.org/2000/svg" viewBox="0 0 24 24" width="24" height="24"><path fill="currentColor" d="M8.113 13.888Q7.75 13.525 7.75 13t.363-.888T9 11.75t.888.363t.362.887t-.363.888T9 14.25t-.888-.363m6 0q-.362-.362-.362-.887t.363-.888t.887-.362t.888.363t.362.887t-.363.888t-.887.362t-.888-.363M12 20q3.35 0 5.675-2.325T20 12q0-.6-.075-1.162T19.65 9.75q-.525.125-1.05.188T17.5 10q-2.275 0-4.3-.975T9.75 6.3q-.8 1.95-2.287 3.388T4 11.85V12q0 3.35 2.325 5.675T12 20m0 2q-2.075 0-3.9-.787t-3.175-2.138T2.788 15.9T2 12t.788-3.9t2.137-3.175T8.1 2.788T12 2t3.9.788t3.175 2.137T21.213 8.1T22 12t-.788 3.9t-2.137 3.175t-3.175 2.138T12 22"/></svg>