<svg xmlns="http://www.w3.org/2000/svg" viewBox="0 0 24 24" width="24" height="24"><path fill="currentColor" d="M10.85 22.925q-.575-.075-1.15-.2q-2.2 1.625-4.837 1.163T.825 21.075Q-.3 19.225.1 17.1t1.925-3.575v-.075Q.475 12.025.1 9.938T.8 6q.925-1.575 2.55-2.387t3.425-.563q.8-1.425 2.188-2.237T12 0t3.038.813t2.187 2.237q1.8-.25 3.425.563T23.2 6q1.075 1.85.7 3.938t-1.925 3.512v.075Q23.5 14.975 23.9 17.1t-.725 3.975q-1.4 2.35-4.038 2.813T14.3 22.725q-.575.125-1.15.2T12 23t-1.15-.075M12 21q3.35 0 5.675-2.325T20 13q0-.725-.112-1.388t-.338-1.287q-.725.5-1.6.775t-1.825.275q-2.55 0-4.337-1.787T10 5.25q-2.6.65-4.3 2.8T4 13q0 3.35 2.325 5.675T12 21m-3.887-6.112Q7.75 14.525 7.75 14t.363-.888T9 12.75t.888.363t.362.887t-.363.888T9 15.25t-.888-.363m6 0q-.362-.362-.362-.887t.363-.888t.887-.362t.888.363t.362.887t-.363.888t-.887.362t-.888-.363"/></svg>