<svg xmlns="http://www.w3.org/2000/svg" viewBox="0 0 24 24"><path fill="currentColor" d="M18 22v-3h-3v-2h3v-3h2v3h3v2h-3v3zm-11.975-.975q-1.25 0-2.125-.875t-.875-2.125T3.9 15.9t2.125-.875q-1.25 0-2.125-.875t-.875-2.125T3.9 9.9t2.125-.875q-1.25 0-2.125-.875t-.875-2.125q0-1.275.875-2.15T6.025 3t2.125.887t.875 2.138q0-1.25.875-2.138T12.025 3h5.95q1.275 0 2.15.875T21 6.025q0 1.25-.875 2.125t-2.15.875q1.35.025 2.25 1t.75 2.325q-.475-.175-.95-.25t-.975-.075q-2.5 0-4.275 1.725T13 17.975q0 .8.2 1.6t.6 1.45h-1.775q-1.25 0-2.125-.875t-.875-2.125q0 1.25-.875 2.125t-2.125.875M6.025 7q.425 0 .712-.288T7.025 6t-.288-.712T6.026 5t-.712.288T5.025 6t.288.713t.712.287m5.5 0H18.5V5h-6.975zm-2.5 11.025q0-1.25.875-2.125t2.125-.875q-1.25 0-2.125-.887T9.025 12q0 1.25-.875 2.138t-2.125.887q1.25 0 2.125.875t.875 2.125m0-6.025q0-1.25.875-2.113t2.125-.862q-1.25 0-2.125-.875t-.875-2.125q0 1.25-.875 2.125t-2.125.875q1.25 0 2.125.862T9.025 12"/></svg>