<svg xmlns="http://www.w3.org/2000/svg" viewBox="0 0 24 24" width="24" height="24"><path fill="currentColor" d="M16.025 14.475Q15 13.45 15 12t1.025-2.475T18.5 8.5t2.475 1.025T22 12t-1.025 2.475T18.5 15.5t-2.475-1.025m-13 0Q2 13.45 2 12t1.025-2.475T5.5 8.5t2.475 1.025T9 12t-1.025 2.475T5.5 15.5t-2.475-1.025m3.538-1.412Q7 12.625 7 12t-.437-1.062T5.5 10.5t-1.062.438T4 12t.438 1.063T5.5 13.5t1.063-.437m2.962 7.912Q8.5 19.95 8.5 18.5t1.025-2.475T12 15t2.475 1.025T15.5 18.5t-1.025 2.475T12 22t-2.475-1.025m3.538-1.412q.437-.438.437-1.063t-.437-1.062T12 17t-1.062.438T10.5 18.5t.438 1.063T12 20t1.063-.437M9.525 7.975Q8.5 6.95 8.5 5.5t1.025-2.475T12 2t2.475 1.025T15.5 5.5t-1.025 2.475T12 9T9.525 7.975m3.538-1.412q.437-.438.437-1.063t-.437-1.062T12 4t-1.062.438T10.5 5.5t.438 1.063T12 7t1.063-.437"/></svg>