<svg xmlns="http://www.w3.org/2000/svg" viewBox="0 0 24 24" width="24" height="24"><path fill="currentColor" d="M4.25 14h3.4q-.075-.5-.112-1T7.5 12t.038-1t.112-1h-3.4q-.125.5-.187 1T4 12t.063 1t.187 1m.85-6h2.95q.225-.925.563-1.812T9.4 4.45q-1.375.45-2.475 1.363T5.1 8m4.3 11.55q-.45-.85-.788-1.737T8.05 16H5.1q.725 1.275 1.825 2.188T9.4 19.55M10.1 8h3.8q-.3-1.075-.775-2.062T12 4.05q-.65.9-1.125 1.888T10.1 8m5.85 0h2.95q-.725-1.275-1.825-2.187T14.6 4.45q.45.85.788 1.738T15.95 8M12 22q-2.075 0-3.9-.788t-3.175-2.137T2.788 15.9T2 12t.788-3.9t2.137-3.175T8.1 2.788T12 2q3.65 0 6.363 2.288T21.775 10H9.65q-.075.5-.112 1T9.5 12t.038 1t.112 1H14v2h-3.9q.3 1.075.775 2.063T12 19.95q.45 0 .888-.05t.887-.1l.425 1.95q-.575.125-1.1.187T12 22m7.15 0q-.425 0-.737-.313t-.313-.737t.313-.737t.737-.313t.738.313t.312.737t-.312.738t-.738.312m-.75-3.2q0-1.15.188-1.575t1.062-1.175q.35-.35.6-.687t.25-.763q0-.45-.337-.8t-1.013-.35t-1.025.388t-.475.812l-1.35-.55q.3-.875 1.025-1.487T19.15 12q1.175 0 2.013.637T22 14.55q0 .6-.3 1.125t-.75.975q-.75.75-.9 1.05t-.15 1.1z"/></svg>