<svg xmlns="http://www.w3.org/2000/svg" viewBox="0 0 24 24" width="24" height="24"><path fill="currentColor" d="M17.4 22L16 20.6l2.1-2.1l-2.1-2.1l1.4-1.4l2.1 2.1l2.1-2.1l1.4 1.4l-2.075 2.1L23 20.6L21.6 22l-2.1-2.075zM12 22q-2.075 0-3.9-.788t-3.175-2.137T2.788 15.9T2 12t.788-3.9t2.137-3.175T8.1 2.788T12 2t3.9.788t3.175 2.137T21.213 8.1T22 12q0 .25-.012.5t-.038.5h-2.025q.05-.25.063-.5T20 12q0-.5-.062-1t-.188-1h-3.4q.075.5.113 1t.037 1v.5q0 .25-.025.5h-2q.025-.25.025-.5V12q0-.5-.037-1t-.113-1h-4.7q-.075.5-.112 1T9.5 12t.038 1t.112 1H14v2h-3.9q.3 1.075.775 2.063T12 19.95q.45 0 .888-.05t.887-.1l.45 1.95q-.575.125-1.112.187T12 22m-7.75-8h3.4q-.075-.5-.112-1T7.5 12t.038-1t.112-1h-3.4q-.125.5-.187 1T4 12t.063 1t.187 1m.85-6h2.95q.225-.925.563-1.812T9.4 4.45q-1.375.45-2.475 1.363T5.1 8m4.3 11.55q-.45-.85-.788-1.737T8.05 16H5.1q.725 1.275 1.825 2.188T9.4 19.55M10.1 8h3.8q-.3-1.075-.775-2.062T12 4.05q-.65.9-1.125 1.888T10.1 8m5.85 0h2.95q-.725-1.275-1.825-2.187T14.6 4.45q.45.85.788 1.738T15.95 8"/></svg>