<svg xmlns="http://www.w3.org/2000/svg" viewBox="0 0 24 24" width="24" height="24"><path fill="currentColor" d="M12 22q-2.075 0-3.9-.788t-3.175-2.137T2.788 15.9T2 12t.788-3.9t2.137-3.175T8.1 2.788T12 2q1.9 0 3.6.663T18.625 4.5t2.2 2.775t1.1 3.475q-.5-.275-1.05-.45t-1.125-.25q-.475-1.875-1.713-3.3T15 4.6V5q0 .825-.587 1.413T13 7h-2v2q0 .425-.288.713T10 10H8v2h6.5q-.725.8-1.112 1.8T13 15.9q0 1.95.775 3.025t2 2.35q-.9.35-1.85.538T12 22m-1-2.05V18q-.825 0-1.412-.587T9 16v-1l-4.8-4.8q-.075.45-.137.9T4 12q0 3.025 1.988 5.3T11 19.95m9.063-2.887q.437-.438.437-1.063t-.425-1.062t-1.05-.438q-.65 0-1.088.438T17.5 16t.438 1.063T19 17.5t1.063-.437M19 22q-.075 0-.4-.275l-.1-.175q-.55-.95-1.388-1.687T15.676 18.2q-.35-.5-.513-1.088T15 15.9q0-1.65 1.175-2.775T19 12t2.825 1.125T23 15.9q0 .625-.162 1.213t-.513 1.087q-.6.925-1.437 1.663T19.5 21.55l-.1.175q-.05.125-.162.2T19 22"/></svg>