<svg xmlns="http://www.w3.org/2000/svg" viewBox="0 0 24 24" width="24" height="24"><path fill="currentColor" d="M8 21v-2H4q-.825 0-1.412-.587T2 17V5q0-.825.588-1.412T4 3h16q.825 0 1.413.588T22 5v2h-2V5H4v12h7v4zm7.838-6.163q.687-.687 1.662-.687t1.663.688t.687 1.662t-.687 1.663t-1.663.687t-1.662-.687t-.688-1.663t.688-1.662M21 8q.425 0 .713.288T22 9v11q0 .425-.288.713T21 21h-7q-.425 0-.712-.288T13 20V9q0-.425.288-.712T14 8zm-4.575 1.425Q16 9.85 16 10.5t.425 1.075T17.5 12t1.075-.425T19 10.5t-.425-1.075T17.5 9t-1.075.425m3.563 9.563Q21 17.975 21 16.5t-1.012-2.488T17.5 13t-2.488 1.013T14 16.5t1.013 2.488T17.5 20t2.488-1.012"/></svg>