<svg xmlns="http://www.w3.org/2000/svg" viewBox="0 0 24 24" width="24" height="24"><path fill="currentColor" d="M10.938 6.563Q10.5 6.125 10.5 5.5t.438-1.062T12 4t1.063.438T13.5 5.5t-.437 1.063T12 7t-1.062-.437M8.462 21.538Q7 20.075 7 18V6q0-2.075 1.463-3.537T12 1t3.538 1.463T17 6v12q0 2.075-1.463 3.538T12 23t-3.537-1.463m5.312-14.262Q14.5 6.55 14.5 5.5t-.725-1.775T12 3t-1.775.725T9.5 5.5t.725 1.775T12 8t1.775-.725m-2.562 8.438q.287-.288.287-.713t-.288-.712T10.5 14t-.712.288T9.5 15t.288.713t.712.287t.713-.288m0-3q.287-.287.287-.712t-.288-.712T10.5 11t-.712.288T9.5 12t.288.713t.712.287t.713-.288m3 0q.287-.287.287-.712t-.288-.712T13.5 11t-.712.288T12.5 12t.288.713t.712.287t.713-.288m0 3q.287-.287.287-.712t-.288-.712T13.5 14t-.712.288T12.5 15t.288.713t.712.287t.713-.288m-3 3q.287-.287.287-.712t-.288-.712T10.5 17t-.712.288T9.5 18t.288.713t.712.287t.713-.288m3 0q.287-.287.287-.712t-.288-.712T13.5 17t-.712.288T12.5 18t.288.713t.712.287t.713-.288"/></svg>