<svg xmlns="http://www.w3.org/2000/svg" viewBox="0 0 24 24" width="24" height="24"><path fill="currentColor" d="M7.038 20.963Q5 18.925 5 16V8q0-2.925 2.038-4.962T12 1t4.963 2.038T19 8v8q0 2.925-2.037 4.963T12 23t-4.962-2.037m6.025-13.4q.437-.438.437-1.063t-.437-1.062T12 5t-1.062.438T10.5 6.5t.438 1.063T12 8t1.063-.437m-3.35 4.15Q10 11.425 10 11t-.288-.712T9 10t-.712.288T8 11t.288.713T9 12t.713-.288m3 0Q13 11.426 13 11t-.288-.712T12 10t-.712.288T11 11t.288.713T12 12t.713-.288m3 0Q16 11.426 16 11t-.288-.712T15 10t-.712.288T14 11t.288.713T15 12t.713-.288m-6 3Q10 14.426 10 14t-.288-.712T9 13t-.712.288T8 14t.288.713T9 15t.713-.288m6 0Q16 14.426 16 14t-.288-.712T15 13t-.712.288T14 14t.288.713T15 15t.713-.288m-3 0Q13 14.426 13 14t-.288-.712T12 13t-.712.288T11 14t.288.713T12 15t.713-.288m-3 3Q10 17.426 10 17t-.288-.712T9 16t-.712.288T8 17t.288.713T9 18t.713-.288m6 0Q16 17.426 16 17t-.288-.712T15 16t-.712.288T14 17t.288.713T15 18t.713-.288m-3 0Q13 17.426 13 17t-.288-.712T12 16t-.712.288T11 17t.288.713T12 18t.713-.288"/></svg>