<svg xmlns="http://www.w3.org/2000/svg" viewBox="0 0 24 24" width="24" height="24"><path fill="currentColor" d="m5.65 4.65l-1.4-1.4Q5.725 1.7 7.713.85T12 0t4.288.85t3.462 2.4l-1.4 1.4q-1.2-1.25-2.838-1.95T12 2t-3.512.7T5.65 4.65m2.8 2.8l-1.4-1.4Q8 5.1 9.263 4.55T12 4t2.738.55t2.212 1.5l-1.4 1.4q-.675-.675-1.588-1.062T12 6t-1.963.388T8.45 7.45m1.088 15.513Q8.5 21.925 8.5 20.5v-8.05q0-1.425 1.038-2.462T12 8.95t2.463 1.038T15.5 12.45v8.05q0 1.425-1.037 2.463T12 24t-2.463-1.037m3.875-9.05Q14 13.324 14 12.5t-.587-1.412T12 10.5t-1.412.588T10 12.5t.588 1.413T12 14.5t1.413-.587"/></svg>