<svg xmlns="http://www.w3.org/2000/svg" viewBox="0 0 24 24" width="24" height="24"><path fill="currentColor" d="M7 23q-.825 0-1.412-.587T5 21V3q0-.825.588-1.412T7 1h10q.825 0 1.413.588T19 3v3h-3.325l-1 1q-1.525 0-2.6.963T11 10.5v4q0 1.45 1.025 2.475T14.5 18H19v3q0 .825-.587 1.413T17 23zm5.713-17.287Q13 5.424 13 5t-.288-.712T12 4t-.712.288T11 5t.288.713T12 6t.713-.288M14.5 16q-.625 0-1.062-.437T13 14.5v-4q0-.625.438-1.062T14.5 9h1l1-1h2l1 1h1q.625 0 1.063.438T22 10.5v4q0 .625-.437 1.063T20.5 16zm4.238-2.262q.512-.513.512-1.238t-.513-1.237t-1.237-.513t-1.237.513t-.513 1.237t.513 1.238t1.237.512t1.238-.513"/></svg>