<svg xmlns="http://www.w3.org/2000/svg" viewBox="0 0 24 24" width="24" height="24"><path fill="currentColor" d="M12 22q-.275 0-.5-.137t-.35-.363l-.175-.35q-.275-.525-.6-1.012T9.65 19.2Q8.6 17.95 7.4 16.888T5.325 14.45q-.7-.95-1.012-2.087T4 10.025Q4 6.7 6.313 4.35T11.974 2q3.4 0 5.713 2.4T20 10.2l2.1-2.1l1.4 1.4L19 14l-4.5-4.5l1.375-1.4L18 10.2q0-2.55-1.737-4.35T11.974 4q-2.5 0-4.225 1.763T6 10.025q0 .9.238 1.738t.737 1.562q.7 1.05 1.6 1.925t1.775 1.775q.45.475.838.95t.787.975q.2-.3.413-.587t.462-.563q-.175-.275-.275-.612t-.1-.688q0-1.05.725-1.775T14.975 14t1.775.725t.725 1.775t-.725 1.775t-1.775.725h-.213q-.087 0-.212-.025q-.45.5-.85 1.038T13 21.15l-.175.35q-.125.25-.35.375T12 22"/></svg>