<svg xmlns="http://www.w3.org/2000/svg" viewBox="0 0 24 24" width="24" height="24"><path fill="currentColor" d="M8.5 11q.625 0 1.063-.437T10 9.5t-.437-1.062T8.5 8t-1.062.438T7 9.5t.438 1.063T8.5 11m3.5 6.5q1.7 0 3.088-.962T17.1 14H6.9q.625 1.575 2.013 2.538T12 17.5M18.9 8l-3.5-3.5q-.325-.325-.462-.7t-.138-.75q0-.8.575-1.425T16.85 1q.7 0 1.1.325t.95.875q.5-.5.913-.85T20.95 1q.925 0 1.488.638T23 3.075q0 .375-.15.75t-.45.675zM12 22q-2.075 0-3.9-.788t-3.175-2.137T2.788 15.9T2 12t.788-3.9t2.137-3.175T8.1 2.788T12 2q.25 0 .488.013t.487.037q-.125.425-.187.863t-.063.912q0 1.325.513 2.463t1.387 1.987q-.275.2-.45.525T14 9.5q0 .625.438 1.063T15.5 11q.575 0 .988-.375t.487-.925q.45.15.938.225T18.9 10q.725 0 1.425-.175t1.325-.475q.175.65.263 1.3T22 12q0 2.075-.788 3.9t-2.137 3.175t-3.175 2.138T12 22"/></svg>