<svg xmlns="http://www.w3.org/2000/svg" viewBox="0 0 24 24" width="24" height="24"><path fill="currentColor" d="m18 13l-1.4-1.4l2.15-2.15q-1.075-.2-3.437.225T10 12.975q.8-2.925 3.225-4.7T18.7 6.5l-2.1-2.1L18 3l5 5zm-6 9q-.275 0-.5-.137t-.35-.363l-.175-.35q-.275-.525-.6-1.012T9.65 19.2q-1.05-1.25-2.238-2.325T5.326 14.45q-.65-.975-.987-2.1T4 10.025Q4 6.7 6.313 4.35T11.974 2q.925 0 1.775.2t1.65.575L13.875 4.3q-.45-.15-.925-.225T11.975 4q-2.5 0-4.225 1.763T6 10.025q0 .9.238 1.738t.737 1.562q.7 1.05 1.6 1.925t1.775 1.775q.45.475.838.95t.787.975q.35-.5.763-.975t.837-.95q.675-.725 1.4-1.4t1.375-1.45l1.425 1.425q-.8.95-1.712 1.8t-1.713 1.8q-.4.475-.737.95t-.613 1l-.175.35q-.125.25-.35.375T12 22"/></svg>