<svg xmlns="http://www.w3.org/2000/svg" viewBox="0 0 24 24" width="24" height="24"><path fill="currentColor" d="M4 20q-.825 0-1.412-.587T2 18V6q0-.825.588-1.412T4 4l10.55 10.55L12 17.1V20zm11.975-6.875L6.85 4H8.5l1.675 3.325l.675.675h2.65l-2-4H14l2 4h3l-2-4h3q.825 0 1.413.588T22 6v4.3q-1.025-.35-2.087-.2T18.1 11zm4.6 2.275l.925-.975l-.925-.925l-.95.95zm-.1 2.2L17.4 14.55l2.125-2.125q.225-.225.5-.325t.55-.1q.3 0 .575.113t.5.337l.925.925q.225.225.325.5t.1.55t-.1.563t-.325.512zm1.475 4.35l-1.425 1.425l-2.9-2.925l-.55.55H14v-3.075l.55-.525L.625 3.475L2.05 2.05z"/></svg>