<svg xmlns="http://www.w3.org/2000/svg" viewBox="0 0 24 24" width="24" height="24"><path fill="currentColor" d="M8 5V4q0-.825.588-1.412T10 2h4q.825 0 1.413.588T16 4v1h3q.825 0 1.413.588T21 7v1H3V7q0-.825.588-1.412T5 5zM5 21q-.825 0-1.412-.587T3 19v-9h4v2q0 .825.588 1.413T9 14h6q.825 0 1.413-.587T17 12v-2h4v9q0 .825-.587 1.413T19 21zm3.713-3.287Q9 17.425 9 17t-.288-.712T8 16t-.712.288T7 17t.288.713T8 18t.713-.288m4 0Q13 17.426 13 17t-.288-.712T12 16t-.712.288T11 17t.288.713T12 18t.713-.288m4 0Q17 17.426 17 17t-.288-.712T16 16t-.712.288T15 17t.288.713T16 18t.713-.288M9 12v-2h6v2zm1-7h4V4h-4z"/></svg>