<svg xmlns="http://www.w3.org/2000/svg" viewBox="0 0 24 24" width="24" height="24"><path fill="currentColor" d="M8.213 13.713Q8.5 13.425 8.5 13t-.288-.712T7.5 12t-.712.288T6.5 13t.288.713T7.5 14t.713-.288M10.5 14q.425 0 .713-.288T11.5 13t-.288-.712T10.5 12t-.712.288T9.5 13t.288.713t.712.287m3 0q.425 0 .713-.288T14.5 13t-.288-.712T13.5 12t-.712.288T12.5 13t.288.713t.712.287m3.713-.288q.287-.287.287-.712t-.288-.712T16.5 12t-.712.288T15.5 13t.288.713t.712.287t.713-.288m-8.726 7.576q-1.637-.713-2.85-1.925t-1.925-2.85T3 13q0-3.45 2.288-6.012T11 4.05V1q0-.425.288-.712T12 0t.713.288T13 1v3.05q3.425.375 5.713 2.938T21 13q0 1.875-.712 3.513t-1.925 2.85t-2.85 1.925T12 22t-3.512-.712"/></svg>