<svg xmlns="http://www.w3.org/2000/svg" viewBox="0 0 24 24" width="24" height="24"><path fill="currentColor" d="M15.538 17.538Q17 16.075 17 14v-4q0-2.075-1.463-3.537T12 5T8.463 6.463T7 10v4q0 2.075 1.463 3.538T12 19t3.538-1.463m-5.663-1.412Q9 15.25 9 14v-4q0-1.25.875-2.125T12 7t2.125.875T15 10v4q0 1.25-.875 2.125T12 17t-2.125-.875m2.838-6.413Q13 9.425 13 9t-.288-.712T12 8t-.712.288T11 9t.288.713T12 10t.713-.288M5 23q-.825 0-1.412-.587T3 21V3q0-.825.588-1.412T5 1h14q.825 0 1.413.588T21 3v18q0 .825-.587 1.413T19 23z"/></svg>