<svg xmlns="http://www.w3.org/2000/svg" viewBox="0 0 24 24"><path fill="currentColor" d="M14 21v-4h2v4zm0-7v-4h2v4zm0-7V3h2v4zm6 14L17.5 3h2L22 21zm-13.538-.075q-.137-.075-.212-.225l-.1-.225q-.55-1.2-1.588-2.063T2.8 16.45q-.4-.575-.6-1.25T2 13.8q0-1.975 1.375-3.375t3.325-1.4q1.975 0 3.4 1.312t1.425 3.263q0 .75-.2 1.475T10.7 16.45q-.725 1.1-1.75 1.963t-1.6 2.062l-.1.225q-.075.15-.212.225T6.75 21t-.287-.075m1.7-5.762q.587-.588.587-1.413t-.587-1.412t-1.413-.588t-1.412.588t-.588 1.412t.588 1.413t1.412.587t1.413-.587m3.487-6.138q-.4-.425-.85-.75t-.95-.6L10.5 3h2z"/></svg>