<svg xmlns="http://www.w3.org/2000/svg" viewBox="0 0 24 24" width="24" height="24"><path fill="currentColor" d="M11.288 9.213Q11 8.925 11 8.5t.288-.712T12 7.5t.713.288T13 8.5t-.288.713T12 9.5t-.712-.288M11 6V1h2v5zM5.588 21.413Q5 20.825 5 20t.588-1.412T7 18t1.413.588T9 20t-.587 1.413T7 22t-1.412-.587m10 0Q15 20.825 15 20t.588-1.412T17 18t1.413.588T19 20t-.587 1.413T17 22t-1.412-.587M1 4V2h3.275l4.25 9h7l3.9-7H21.7l-4.4 7.95q-.275.5-.737.775T15.55 13H8.1L7 15h12v2H7q-1.125 0-1.713-.975T5.25 14.05L6.6 11.6L3 4z"/></svg>