<svg xmlns="http://www.w3.org/2000/svg" viewBox="0 0 24 24" width="24" height="24"><path fill="currentColor" d="M8 23q-.825 0-1.412-.587T6 21V3q0-.825.588-1.412T8 1h8q.825 0 1.413.588T18 3v18q0 .825-.587 1.413T16 23zm6.125-13.875Q15 8.25 15 7t-.875-2.125T12 4t-2.125.875T9 7t.875 2.125T12 10t2.125-.875m-2.838-1.412Q11 7.425 11 7t.288-.712T12 6t.713.288T13 7t-.288.713T12 8t-.712-.288m-.576 6Q11 13.426 11 13t-.288-.712T10 12t-.712.288T9 13t.288.713T10 14t.713-.288m4 0Q15 13.426 15 13t-.288-.712T14 12t-.712.288T13 13t.288.713T14 14t.713-.288m-4 3Q11 16.426 11 16t-.288-.712T10 15t-.712.288T9 16t.288.713T10 17t.713-.288m4 0Q15 16.426 15 16t-.288-.712T14 15t-.712.288T13 16t.288.713T14 17t.713-.288m-4 3Q11 19.426 11 19t-.288-.712T10 18t-.712.288T9 19t.288.713T10 20t.713-.288m4 0Q15 19.426 15 19t-.288-.712T14 18t-.712.288T13 19t.288.713T14 20t.713-.288"/></svg>