<svg xmlns="http://www.w3.org/2000/svg" viewBox="0 0 24 24"><path fill="currentColor" d="M16.95 22.888q-.275-.113-.5-.338l-4-4Q12 18.125 12 17.5t.45-1.075L16.1 12.8l-1.95-1.95l1.4-1.4l7.025 6.975q.225.225.338.5t.112.55t-.112.563t-.338.512l-4 4q-.225.225-.513.338T17.5 23t-.55-.112M14.2 17.5h6.6l-3.3-3.3zM4 21v-2h2.35Q4.8 17.75 3.9 15.938T3 12q0-1.875.713-3.512t1.924-2.85t2.85-1.925T12 3q3.225 0 5.663 1.988T20.775 10H18.7q-.65-2.2-2.475-3.6T12 5Q9.075 5 7.038 7.038T5 12q0 1.8.813 3.3T8 17.75V15h2v6z"/></svg>