<svg xmlns="http://www.w3.org/2000/svg" viewBox="0 0 24 24" width="24" height="24"><path fill="currentColor" d="m2.45 10.575l4.2-4.2q.35-.35.825-.5t.975-.05l1.3.275Q8.4 7.7 7.625 9t-1.5 3.15zm5.125 2.275q.575-1.8 1.563-3.4t2.387-3q2.2-2.2 5.025-3.287t5.275-.663q.425 2.45-.65 5.275T17.9 12.8q-1.375 1.375-3 2.388t-3.425 1.587zm8.313-2.425q.837 0 1.412-.575t.575-1.412t-.575-1.413t-1.412-.575t-1.413.575t-.575 1.413t.575 1.412t1.413.575m-2.113 11.45l-1.6-3.675q1.85-.725 3.163-1.5t2.912-2.125l.25 1.3q.1.5-.05.988t-.5.837zM4.05 16.05q.875-.875 2.125-.888t2.125.863t.875 2.125t-.875 2.125q-.625.625-2.088 1.075t-4.037.8q.35-2.575.8-4.025T4.05 16.05"/></svg>