<svg xmlns="http://www.w3.org/2000/svg" viewBox="0 0 24 24" width="24" height="24"><path fill="currentColor" d="M14.363 4.638Q14 4.275 14 3.75t.363-.888t.887-.362t.888.363t.362.887t-.363.888T15.25 5t-.888-.363m0 16.5Q14 20.776 14 20.25t.363-.888t.887-.362t.888.363t.362.887t-.363.888t-.887.362t-.888-.363m4-13Q18 7.775 18 7.25t.363-.888T19.25 6t.888.363t.362.887t-.363.888t-.887.362t-.888-.363m0 9.5Q18 17.276 18 16.75t.363-.888t.887-.362t.888.363t.362.887t-.363.888t-.887.362t-.888-.363m1.5-4.75Q19.5 12.526 19.5 12t.363-.888t.887-.362t.888.363T22 12t-.363.888t-.887.362t-.888-.363M12 22q-2.075 0-3.9-.788t-3.175-2.137T2.788 15.9T2 12t.788-3.9t2.137-3.175T8.1 2.788T12 2v2Q8.65 4 6.325 6.325T4 12t2.325 5.675T12 20zm3.3-5.3L11 12.4V7h2v4.6l3.7 3.7z"/></svg>