<svg xmlns="http://www.w3.org/2000/svg" viewBox="0 0 24 24"><path fill="currentColor" d="M7.5 7q-.825 0-1.412-.587T5.5 5t.588-1.412T7.5 3t1.413.588T9.5 5t-.587 1.413T7.5 7m11 16l-2.9-5H8.65q-.725 0-1.263-.437T6.7 16.4l-1.075-5.375q-.225-1.2.538-2.112T8.124 8q.6 0 1.163.238t.937.712l2.3 2.825l2.25-1.5l-.275-.125q-.2-.1-.262-.275t.037-.375l1.25-2.725q.1-.2.288-.275t.387.025l1.35.625q.2.1.275.288t-.025.387L16.875 9.8l.7 1.025l-5.05 3.35l-.925-.625l.35 1.45h3.1q.525 0 .975.275t.725.725l3.5 6zM13 21H6.55q-.825 0-1.512-.587T4.175 19L2 8h2.05l2.2 11H13z"/></svg>