<svg xmlns="http://www.w3.org/2000/svg" viewBox="0 0 24 24" width="24" height="24"><path fill="currentColor" d="M8.125 21.213q-1.825-.788-3.187-2.15t-2.15-3.188T2 11.988t.788-3.875t2.15-3.175t3.187-2.15T12.013 2t3.875.788t3.175 2.15t2.15 3.175t.787 3.875t-.787 3.887t-2.15 3.188t-3.175 2.15t-3.875.787t-3.888-.787m.438-8.65Q9 12.125 9 11.5t-.437-1.062T7.5 10t-1.062.438T6 11.5t.438 1.063T7.5 13t1.063-.437m9 0Q18 12.125 18 11.5t-.437-1.062T16.5 10t-1.062.438T15 11.5t.438 1.063T16.5 13t1.063-.437m-7.5 4.5q.437-.438.437-1.063t-.437-1.062T9 14.5t-1.062.438T7.5 16t.438 1.063T9 17.5t1.063-.437m6 0q.437-.438.437-1.063t-.437-1.062T15 14.5t-1.062.438T13.5 16t.438 1.063T15 17.5t1.063-.437M10.5 9h3q.65 0 1.075-.425T15 7.5t-.425-1.075T13.5 6h-3q-.65 0-1.075.425T9 7.5t.425 1.075T10.5 9"/></svg>