<svg xmlns="http://www.w3.org/2000/svg" viewBox="0 0 24 24"><path fill="currentColor" d="M15 22q-.825 0-1.412-.587T13 20v-4q0-.825.588-1.412T15 14h6q.825 0 1.413.588T23 16v4q0 .825-.587 1.413T21 22zm0-2h6v-4h-6zm-5.75 2l-.4-3.2q-.325-.125-.612-.3t-.563-.375L4.7 19.375l-2.75-4.75l2.575-1.95Q4.5 12.5 4.5 12.338v-.675q0-.163.025-.338L1.95 9.375l2.75-4.75l2.975 1.25q.275-.2.575-.375t.6-.3l.4-3.2h5.5l.4 3.2q.325.125.613.3t.562.375l2.975-1.25l2.75 4.75l-2.575 1.95q.025.175.025.338V12h-3.925q0-1.45-1.037-2.475T12.05 8.5q-1.475 0-2.488 1.013T8.55 12q0 1.2.688 2.1T11 15.35V22z"/></svg>