<svg xmlns="http://www.w3.org/2000/svg" viewBox="0 0 24 24" width="24" height="24"><path fill="currentColor" d="m16.875 18.3l1.45 1.45q-1.175.925-2.525 1.488t-2.825.712v-2q1.05-.15 2.038-.575t1.862-1.075m5.1-5.3q-.2 1.55-.763 2.888T19.726 18.3l-1.4-1.4q.65-.825 1.05-1.812t.55-2.088zm-2.25-7.3q.95 1.1 1.538 2.45t.712 2.85h-2.05q-.15-1.125-.55-2.113T18.325 7.1zm-8.75-3.65v2q-3 .425-4.975 2.675T4.025 12q0 3 1.975 5.25t4.975 2.7v2q-3.825-.45-6.387-3.287T2.025 12q0-3.875 2.563-6.7t6.387-3.25m2 0q1.475.125 2.825.688t2.525 1.512l-1.4 1.45q-.9-.675-1.9-1.1t-2.05-.55zm-.687 15.875q.137-.075.212-.225l.1-.225q.65-1.2 1.625-2.05t1.725-1.975q.375-.575.588-1.25t.212-1.4q0-1.975-1.375-3.375T12.05 6q-1.925-.025-3.325 1.325T7.25 10.6q-.05.8.163 1.525t.637 1.325q.75 1.125 1.75 1.963t1.6 2.062l.1.225q.075.15.213.225T12 18t.288-.075m-1.7-5.762Q10 11.575 10 10.75t.588-1.412T12 8.75t1.413.588T14 10.75t-.587 1.413T12 12.75t-1.412-.587"/></svg>