<svg xmlns="http://www.w3.org/2000/svg" viewBox="0 0 24 24" width="24" height="24"><path fill="currentColor" d="M17 23q-2.5 0-4.25-1.75T11 17t1.75-4.25T17 11t4.25 1.75T23 17q0 .575-.1 1.1t-.3 1.025q-.05-.075-.113-.15t-.137-.15l-1.375-1.4Q21 17.3 21 17.213V17q0-1.65-1.175-2.825T17 13t-2.825 1.175T13 17t1.175 2.825T17 21h.213q.087 0 .212-.025l1.4 1.375l.15.15q.075.075.15.125q-.5.2-1.025.288T17 23m4.3-1.7q-.3.3-.713.3t-.712-.3l-2.35-2.375Q17.45 18.95 17 19q-.825 0-1.412-.587T15 17t.588-1.412T17 15t1.413.588T19 17q0 .075-.075.525L21.3 19.9q.3.3.3.7t-.3.7M4 11.1V5l8-3l8 3v4.6q-.725-.275-1.475-.437T17 9q-3.35 0-5.675 2.325T9 17q0 1.175.338 2.3t.987 2.1q-2.8-1.325-4.562-4.15T4 11.1"/></svg>