<svg xmlns="http://www.w3.org/2000/svg" viewBox="0 0 24 24"><path fill="currentColor" d="M3 20q0-1.4.613-2.65t1.737-2.1q-1.1-.7-1.725-1.825T3 11q0-2.9 2.037-4.95T10 4q1.65 0 3.138.763t2.487 2.112Q16.175 6 17.063 5.5t1.912-.5q1.575 0 2.8.825T23 8.075q0 1.175-.825 2t-2 .825H20V15q0 2.1-1.462 3.55T15 20zm5-6q1.25 0 2.125-.962T11 11q0-.6-.275-.8T10.1 10q-.5 0-.8.288T9 11H7q0-1.25.875-2.125T10.025 8q1.225 0 2.1.825T13 11q0 .725-.275 1.538T11.95 14h1.55q.625 0 1.063-.425T15 12.5V11q0-2.075-1.462-3.537T10 6Q7.9 6 6.45 7.463T5 11q0 1.275.863 2.138T8 14"/></svg>