<svg xmlns="http://www.w3.org/2000/svg" viewBox="0 0 24 24" width="24" height="24"><path fill="currentColor" d="M11 22v-1.825l-1.6 1.35L8.1 20l2.9-2.45v-3.8l-3.3 1.9l-.675 3.725l-1.975-.35l.375-2.075l-1.6.925l-1-1.725l1.6-.925L2.45 14.5l.675-1.875L6.7 13.9L10 12l-3.3-1.9l-3.575 1.3l-.675-1.9l1.975-.7l-1.6-.925l1-1.725l1.6.925L5.05 5l1.975-.35l.675 3.725l3.3 1.9v-3.8l-2.9-2.45L9.4 2.5L11 3.85V2h2v1.85l1.6-1.35l1.3 1.525l-2.9 2.45v3.8l3.275-1.9l.675-3.725l1.975.35l-.375 2.075l1.6-.925l1 1.725l-1.6.925l1.975.7l-.675 1.9l-3.575-1.3L14 12l3.275 1.9l3.575-1.275l.675 1.875l-1.975.725l1.6.925l-1 1.725l-1.6-.925l.375 2.075l-1.975.35l-.675-3.725L13 13.75v3.8L15.9 20l-1.3 1.525l-1.6-1.35V22z"/></svg>