<svg xmlns="http://www.w3.org/2000/svg" viewBox="0 0 24 24" width="24" height="24"><path fill="currentColor" d="M11.288 11.713Q11 11.425 11 11t.288-.712T12 10t.713.288T13 11t-.288.713T12 12t-.712-.288m0-4Q11 7.426 11 7t.288-.712T12 6t.713.288T13 7t-.288.713T12 8t-.712-.288m0-4Q11 3.426 11 3t.288-.712T12 2t.713.288T13 3t-.288.713T12 4t-.712-.288m3 10Q14 13.426 14 13t.288-.712T15 12t.713.288T16 13t-.288.713T15 14t-.712-.288m2.824-2.85q-.287-.287-.287-.712t.288-.712t.712-.288t.713.288t.287.712t-.288.713t-.712.287t-.712-.288m2.825-2.8q-.288-.287-.288-.712t.288-.712t.712-.288t.713.288t.287.712t-.287.713t-.713.287t-.712-.288m-11.65 5.65Q8 13.426 8 13t.288-.712T9 12t.713.288T10 13t-.288.713T9 14t-.712-.288m-2.826-2.85q-.287-.287-.287-.712t.288-.712t.712-.288t.713.288t.287.712t-.287.713t-.713.287t-.712-.288m-2.825-2.8q-.288-.287-.288-.712t.288-.712t.712-.288t.713.288t.287.712t-.287.713t-.713.287t-.712-.288M11 22v-4H7v-2h10v2h-4v4z"/></svg>