<svg xmlns="http://www.w3.org/2000/svg" viewBox="0 0 24 24" width="24" height="24"><path fill="currentColor" d="M18.15 22q.625-1.55.875-3.175t.125-3.275q-.975 2.075-2.912 3.262T12 20q-2.1 0-3.8-.987t-2.9-2.638t-1.85-3.787T2.8 8.15q0-1.575.213-3.113T3.75 2h2.1q-.6 1.55-.862 3.175T4.85 8.45q.975-2.075 2.913-3.262T12 4q2.1 0 3.8.988t2.9 2.637t1.85 3.788t.65 4.437q0 1.575-.212 3.113T20.25 22zm-3.325-7.175Q16 13.65 16 12t-1.175-2.825T12 8T9.175 9.175T8 12t1.175 2.825T12 16t2.825-1.175m-4.237-1.412Q10 12.825 10 12t.588-1.412T12 10t1.413.588T14 12t-.587 1.413T12 14t-1.412-.587"/></svg>