<svg xmlns="http://www.w3.org/2000/svg" viewBox="0 0 24 24" width="24" height="24"><path fill="currentColor" d="M8.1 21.213q-1.825-.788-3.175-2.138T2.788 15.9T2 12t.788-3.9t2.137-3.175T8.1 2.788T12 2t3.9.788t3.175 2.137T21.213 8.1T22 12t-.788 3.9t-2.137 3.175t-3.175 2.138T12 22t-3.9-.788m1-1.762l1.2-2.75q-1.05-.375-1.812-1.162T7.3 13.7l-2.75 1.15q.575 1.6 1.775 2.8t2.775 1.8M7.3 10.3q.425-1.05 1.188-1.837T10.3 7.3L9.15 4.55q-1.6.6-2.8 1.8t-1.8 2.8zm6.825 3.825Q15 13.25 15 12t-.875-2.125T12 9t-2.125.875T9 12t.875 2.125T12 15t2.125-.875m.775 5.325q1.575-.6 2.763-1.787T19.45 14.9l-2.75-1.2q-.375 1.05-1.15 1.813t-1.8 1.187zm1.8-9.2l2.75-1.15q-.6-1.575-1.787-2.762T14.9 4.55l-1.15 2.8q1.025.375 1.775 1.138T16.7 10.25"/></svg>