<svg xmlns="http://www.w3.org/2000/svg" viewBox="0 0 24 24" width="24" height="24"><path fill="currentColor" d="M8.1 21.213q-1.825-.788-3.175-2.138T2.788 15.9T2 12t.788-3.9t2.137-3.175T8.1 2.788T12 2t3.9.788t3.175 2.137T21.213 8.1T22 12t-.788 3.9t-2.137 3.175t-3.175 2.138T12 22t-3.9-.788m9.575-3.537Q20 15.35 20 12t-2.325-5.675T12 4T6.325 6.325T4 12t2.325 5.675T12 20t5.675-2.325M7.75 16.25Q6 14.5 6 12t1.75-4.25T12 6t4.25 1.75T18 12t-1.75 4.25T12 18t-4.25-1.75m7.075-1.425Q16 13.65 16 12t-1.175-2.825T12 8T9.175 9.175T8 12t1.175 2.825T12 16t2.825-1.175m-4.237-1.412Q10 12.825 10 12t.588-1.412T12 10t1.413.588T14 12t-.587 1.413T12 14t-1.412-.587"/></svg>