<svg xmlns="http://www.w3.org/2000/svg" viewBox="0 0 24 24" width="24" height="24"><path fill="currentColor" d="M7 22q-2.5 0-4.25-1.75T1 16V9h12v7q0 2.5-1.75 4.25T7 22m-2-7.5q.425 0 .713-.288T6 13.5t-.288-.712T5 12.5t-.712.288T4 13.5t.288.713T5 14.5m3.738 2.888Q9.5 16.874 9.5 16h-5q0 .875.763 1.388T7 17.9t1.738-.512m.975-3.175Q10 13.925 10 13.5t-.288-.712T9 12.5t-.712.288T8 13.5t.288.713T9 14.5t.713-.288M17 15q-.65 0-1.287-.137T14.5 14.45V7.5H11V2h12v7q0 2.5-1.75 4.25T17 15m-2-7.5q.425 0 .713-.288T16 6.5t-.288-.712T15 5.5t-.712.288T14 6.5t.288.713T15 7.5m-.5 3.4h5q0-.875-.763-1.388T17 9q-.85 0-1.675.45T14.5 10.9M19 7.5q.425 0 .713-.288T20 6.5t-.288-.712T19 5.5t-.712.288T18 6.5t.288.713T19 7.5"/></svg>