<svg xmlns="http://www.w3.org/2000/svg" viewBox="0 0 24 24" width="24" height="24"><path fill="currentColor" d="M10.45 22q-.7 0-1.3-.262t-1.025-.813L2.65 13.95l.65-.65q.425-.425 1.063-.5t1.187.25l1.95 1.175V8q0-.425.288-.712T8.5 7t.713.288T9.5 8v4H11V6.25q0-.425.288-.712T12 5.25t.713.288t.287.712V12h4q1.25 0 2.125.875T20 15v3q0 1.675-1.175 2.838T16 22zM3.575 9.1Q3.5 8.825 3.5 8.55V8q0-2.9 2.038-4.95T10.5 1q2.9 0 4.95 2.05T17.5 8q0 .275-.038.638L17.426 9l-2-.225l.038-.288Q15.5 8.2 15.5 8q0-2.075-1.463-3.537T10.5 3Q8.4 3 6.95 4.463T5.5 8v.4q0 .2.05.4z"/></svg>