<svg xmlns="http://www.w3.org/2000/svg" viewBox="0 0 24 24" width="24" height="24"><path fill="currentColor" d="M13.075 17.575q.425-.425.425-1.075t-.425-1.075T12 15t-1.075.425T10.5 16.5t.425 1.075T12 18t1.075-.425m0-4.5Q13.5 12.65 13.5 12t-.425-1.075T12 10.5t-1.075.425T10.5 12t.425 1.075T12 13.5t1.075-.425m0-4.5Q13.5 8.15 13.5 7.5t-.425-1.075T12 6t-1.075.425T10.5 7.5t.425 1.075T12 9t1.075-.425M7 15v-1.15q-1.275-.35-2.137-1.4T4 10h3V8.85q-1.275-.35-2.137-1.4T4 5h3q0-.825.588-1.412T9 3h6q.825 0 1.413.588T17 5h3q0 1.4-.862 2.45T17 8.85V10h3q0 1.4-.862 2.45T17 13.85V15h3q0 1.4-.862 2.45T17 18.85V19q0 .825-.587 1.413T15 21H9q-.825 0-1.412-.587T7 19v-.15q-1.275-.35-2.137-1.4T4 15z"/></svg>