<svg xmlns="http://www.w3.org/2000/svg" viewBox="0 0 24 24" width="24" height="24"><path fill="currentColor" d="M5 21q-.825 0-1.412-.587T3 19V5q0-.825.588-1.412T5 3h5v18zm6.288-.288Q11 20.426 11 20t.288-.712T12 19t.713.288T13 20t-.288.713T12 21t-.712-.288m0-4Q11 16.426 11 16t.288-.712T12 15t.713.288T13 16t-.288.713T12 17t-.712-.288m0-4Q11 12.425 11 12t.288-.712T12 11t.713.288T13 12t-.288.713T12 13t-.712-.288m0-4Q11 8.426 11 8t.288-.712T12 7t.713.288T13 8t-.288.713T12 9t-.712-.288m0-4Q11 4.426 11 4t.288-.712T12 3t.713.288T13 4t-.288.713T12 5t-.712-.288m2 14Q13 18.426 13 18t.288-.712T14 17t.713.288T15 18t-.288.713T14 19t-.712-.288m0-4Q13 14.425 13 14t.288-.712T14 13t.713.288T15 14t-.288.713T14 15t-.712-.288m0-4Q13 10.426 13 10t.288-.712T14 9t.713.288T15 10t-.288.713T14 11t-.712-.288m0-4Q13 6.426 13 6t.288-.712T14 5t.713.288T15 6t-.288.713T14 7t-.712-.288m2 14Q15 20.426 15 20t.288-.712T16 19t.713.288T17 20t-.288.713T16 21t-.712-.288m0-4Q15 16.426 15 16t.288-.712T16 15t.713.288T17 16t-.288.713T16 17t-.712-.288m0-4Q15 12.425 15 12t.288-.712T16 11t.713.288T17 12t-.288.713T16 13t-.712-.288m0-4Q15 8.426 15 8t.288-.712T16 7t.713.288T17 8t-.288.713T16 9t-.712-.288m0-4Q15 4.426 15 4t.288-.712T16 3t.713.288T17 4t-.288.713T16 5t-.712-.288M18 19q-.425 0-.712-.288T17 18t.288-.712T18 17t.713.288T19 18t-.288.713T18 19m0-4q-.425 0-.712-.288T17 14t.288-.712T18 13t.713.288T19 14t-.288.713T18 15m0-4q-.425 0-.712-.288T17 10t.288-.712T18 9t.713.288T19 10t-.288.713T18 11m-.712-4.288Q17 6.426 17 6t.288-.712T18 5t.713.288T19 6t-.288.713T18 7t-.712-.288m2 14Q19 20.426 19 20t.288-.712T20 19t.713.288T21 20t-.288.713T20 21t-.712-.288m0-4Q19 16.426 19 16t.288-.712T20 15t.713.288T21 16t-.288.713T20 17t-.712-.288m0-4Q19 12.425 19 12t.288-.712T20 11t.713.288T21 12t-.288.713T20 13t-.712-.288m0-4Q19 8.426 19 8t.288-.712T20 7t.713.288T21 8t-.288.713T20 9t-.712-.288m0-4Q19 4.426 19 4t.288-.712T20 3t.713.288T21 4t-.288.713T20 5t-.712-.288"/></svg>