<svg xmlns="http://www.w3.org/2000/svg" viewBox="0 0 24 24" width="24" height="24"><path fill="currentColor" d="M12 12q.425 0 .713-.288T13 11t-.288-.712T12 10t-.712.288T11 11t.288.713T12 12m-2.575 6H14.6l1.825 1.825q-.975.575-2.1.875T12 21t-2.312-.3t-2.088-.875zM12 3q1.875 0 3.513.713t2.85 1.924t1.925 2.85T21 12q0 1.975-.8 3.688t-2.15 2.962l-2.125-2.125q.95-.825 1.513-2T18 12q0-2.5-1.75-4.25T12 6T7.75 7.75T6 12q0 1.35.563 2.525t1.512 2L5.95 18.65Q4.6 17.4 3.8 15.687T3 12q0-1.875.713-3.512t1.924-2.85t2.85-1.925T12 3m0 5q1.65 0 2.825 1.175T16 12t-1.175 2.825T12 16t-2.825-1.175T8 12t1.175-2.825T12 8M4 21q.425 0 .713-.288T5 20t-.288-.712T4 19t-.712.288T3 20t.288.713T4 21m-2 2q.425 0 .713-.288T3 22t-.288-.712T2 21t-.712.288T1 22t.288.713T2 23m18-2q-.425 0-.712-.288T19 20t.288-.712T20 19t.713.288T21 20t-.288.713T20 21m2 2q-.425 0-.712-.288T21 22t.288-.712T22 21t.713.288T23 22t-.288.713T22 23"/></svg>