<svg xmlns="http://www.w3.org/2000/svg" viewBox="0 0 24 24"><path fill="currentColor" d="M12 22q-1.65 0-2.812-1.125T8 18.1q-.025-.8.275-1.562T9.15 15.2l3.2-3.175l-3.2-3.175q-.55-.525-.837-1.225T8 6.15q-.05-1.7 1.113-2.925T12 2q.8 0 1.525.3t1.3.875l5.975 6q.575.575.888 1.313T22 12.025t-.3 1.525t-.875 1.3l-6 6q-.575.575-1.3.863T12 22m-6.5-.975q-1.475 0-2.488-1.05T2 17.45q0-.725.275-1.4t.8-1.175L6 12.025l-2.925-2.85q-.525-.5-.8-1.175T2 6.6q0-1.5 1.012-2.537T5.5 3.024q.325 0 .625.05t.575.15q-.35.7-.537 1.45T6 6.2q.05 1.175.488 2.213t1.237 1.837L9.5 12.025L7.725 13.8q-.875.85-1.312 1.975T6 18.125q.025.7.188 1.388t.512 1.312q-.275.1-.575.15t-.625.05m8.775-5.325q.325.3.725.3t.7-.3l2.3-2.275q.275-.275.425-.65t.15-.775t-.15-.775t-.425-.65L15.7 8.3q-.3-.3-.712-.3t-.713.3t-.3.713t.3.712l2.3 2.275l-2.3 2.3q-.3.3-.3.713t.3.687"/></svg>