<svg xmlns="http://www.w3.org/2000/svg" viewBox="0 0 24 24" width="24" height="24"><path fill="currentColor" d="M12 19q-1.775 0-3.325-.05q-1.325-.05-2.613-.137T4.2 18.575q-.65-.175-1.125-.65t-.65-1.125q-.15-.575-.237-1.4t-.138-1.575Q2 12.925 2 12t.05-1.825q.05-.75.138-1.575t.237-1.4q.175-.65.65-1.125t1.125-.65q.575-.15 1.863-.237t2.612-.138Q10.225 5 12 5l1 .013q1 .012 2.313.05t2.612.125t1.875.237q.65.175 1.125.65t.65 1.125q.15.575.238 1.4t.137 1.575q.05.9.05 1.825t-.05 1.825q-.05.75-.137 1.575t-.238 1.4q-.175.65-.65 1.125t-1.125.65q-.575.15-1.875.237t-2.613.125t-2.312.05zm-2-4l5.2-3L10 9z"/></svg>