<svg xmlns="http://www.w3.org/2000/svg" viewBox="0 0 24 24" width="24" height="24"><path fill="currentColor" d="M19 20v-2h-2v-2h2v-2h2v2h2v2h-2v2zm-9-5l5.2-3L10 9zm2-10l1 .013q1 .012 2.313.05t2.6.125t1.887.237q.65.175 1.125.65t.65 1.125q.3 1.1.363 2.563t.037 2.662q-.45-.2-.95-.312T20 12q-2.075 0-3.537 1.45T15 16.975q0 .5.088 1.013t.287.962q-.675.025-1.275.038T13.025 19H12q-1.775 0-3.325-.05q-1.325-.025-2.613-.112T4.176 18.6q-.65-.175-1.125-.65t-.65-1.125q-.15-.6-.238-1.425t-.112-1.575Q2 12.925 2 12t.05-1.8q.025-.775.113-1.588T2.4 7.2q.175-.65.65-1.125t1.125-.65q.6-.15 1.888-.238t2.612-.137Q10.225 5 12 5"/></svg>