<svg xmlns="http://www.w3.org/2000/svg" width="283.44" height="35" viewBox="0 0 283.44 35"><rect class="svg__rect" x="0" y="0" width="108.05" height="35" fill="#31C4F3"/><rect class="svg__rect" x="106.05" y="0" width="177.39" height="35" fill="#389AD5"/><path class="svg__text" d="M17.33 22L14.22 22L14.22 13.47L17.14 13.47Q18.59 13.47 19.34 14.05Q20.10 14.63 20.10 15.78L20.10 15.78Q20.10 16.36 19.78 16.83Q19.47 17.30 18.86 17.56L18.86 17.56Q19.55 17.75 19.93 18.26Q20.31 18.78 20.31 19.51L20.31 19.51Q20.31 20.71 19.53 21.36Q18.76 22 17.33 22L17.33 22ZM15.70 18.15L15.70 20.82L17.35 20.82Q18.04 20.82 18.44 20.47Q18.83 20.13 18.83 19.51L18.83 19.51Q18.83 18.18 17.47 18.15L17.47 18.15L15.70 18.15ZM15.70 14.66L15.70 17.06L17.15 17.06Q17.84 17.06 18.23 16.75Q18.62 16.43 18.62 15.86L18.62 15.86Q18.62 15.23 18.26 14.95Q17.90 14.66 17.14 14.66L17.14 14.66L15.70 14.66ZM24.64 19.16L24.64 19.16L24.64 13.47L26.12 13.47L26.12 19.18Q26.12 20.03 26.55 20.48Q26.98 20.93 27.83 20.93L27.83 20.93Q29.54 20.93 29.54 19.13L29.54 19.13L29.54 13.47L31.02 13.47L31.02 19.17Q31.02 20.53 30.15 21.32Q29.28 22.12 27.83 22.12L27.83 22.12Q26.36 22.12 25.50 21.33Q24.64 20.55 24.64 19.16ZM37.15 22L35.67 22L35.67 13.47L37.15 13.47L37.15 22ZM47.32 22L41.96 22L41.96 13.47L43.44 13.47L43.44 20.82L47.32 20.82L47.32 22ZM53.12 14.66L50.49 14.66L50.49 13.47L57.25 13.47L57.25 14.66L54.59 14.66L54.59 22L53.12 22L53.12 14.66ZM68.47 22L66.99 22L66.99 13.47L72.41 13.47L72.41 14.66L68.47 14.66L68.47 17.20L71.90 17.20L71.90 18.38L68.47 18.38L68.47 22ZM76.30 18.00L76.30 18.00L76.30 17.52Q76.30 16.28 76.74 15.32Q77.18 14.37 77.99 13.86Q78.79 13.35 79.84 13.35Q80.88 13.35 81.68 13.85Q82.49 14.35 82.93 15.29Q83.37 16.23 83.38 17.48L83.38 17.48L83.38 17.96Q83.38 19.21 82.94 20.16Q82.51 21.10 81.70 21.61Q80.90 22.12 79.85 22.12L79.85 22.12Q78.81 22.12 78.00 21.61Q77.19 21.10 76.75 20.17Q76.30 19.23 76.30 18.00ZM77.78 17.46L77.78 17.96Q77.78 19.36 78.33 20.13Q78.88 20.90 79.85 20.90L79.85 20.90Q80.83 20.90 81.36 20.15Q81.89 19.40 81.89 17.96L81.89 17.96L81.89 17.51Q81.89 16.09 81.36 15.34Q80.82 14.58 79.84 14.58L79.84 14.58Q78.88 14.58 78.33 15.33Q77.79 16.09 77.78 17.46L77.78 17.46ZM89.32 22L87.84 22L87.84 13.47L90.84 13.47Q92.32 13.47 93.12 14.13Q93.92 14.79 93.92 16.05L93.92 16.05Q93.92 16.90 93.51 17.48Q93.10 18.06 92.36 18.37L92.36 18.37L94.27 21.92L94.27 22L92.69 22L90.97 18.71L89.32 18.71L89.32 22ZM89.32 14.66L89.32 17.52L90.85 17.52Q91.60 17.52 92.02 17.15Q92.44 16.77 92.44 16.11L92.44 16.11Q92.44 15.43 92.05 15.05Q91.66 14.68 90.89 14.66L90.89 14.66L89.32 14.66Z" fill="#FFFFFF"/><path class="svg__text" d="M122.62 22L120.24 22L120.24 13.60L122.62 13.60L122.62 16.76L125.86 16.76L125.86 13.60L128.23 13.60L128.23 22L125.86 22L125.86 18.72L122.62 18.72L122.62 22ZM132.96 17.80L132.96 17.80Q132.96 16.55 133.57 15.55Q134.17 14.56 135.23 14.00Q136.30 13.43 137.63 13.43L137.63 13.43Q138.96 13.43 140.02 14.00Q141.09 14.56 141.69 15.55Q142.30 16.55 142.30 17.80L142.30 17.80Q142.30 19.05 141.69 20.04Q141.09 21.04 140.03 21.60Q138.96 22.17 137.63 22.17L137.63 22.17Q136.30 22.17 135.23 21.60Q134.17 21.04 133.57 20.04Q132.96 19.05 132.96 17.80ZM135.36 17.80L135.36 17.80Q135.36 18.51 135.66 19.05Q135.96 19.60 136.48 19.90Q137.00 20.20 137.63 20.20L137.63 20.20Q138.27 20.20 138.78 19.90Q139.30 19.60 139.60 19.05Q139.90 18.51 139.90 17.80L139.90 17.80Q139.90 17.09 139.60 16.54Q139.30 16 138.78 15.70Q138.27 15.40 137.63 15.40L137.63 15.40Q136.99 15.40 136.48 15.70Q135.96 16 135.66 16.54Q135.36 17.09 135.36 17.80ZM149.22 22L147.03 22L147.03 13.60L148.98 13.60L151.94 18.45L154.82 13.60L156.77 13.60L156.79 22L154.61 22L154.59 17.55L152.43 21.17L151.37 21.17L149.22 17.67L149.22 22ZM168.70 22L161.96 22L161.96 13.60L168.55 13.60L168.55 15.44L164.31 15.44L164.31 16.85L168.04 16.85L168.04 18.63L164.31 18.63L164.31 20.17L168.70 20.17L168.70 22ZM174.92 22L172.50 22L176.21 13.60L178.55 13.60L182.27 22L179.80 22L179.14 20.37L175.59 20.37L174.92 22ZM177.36 15.93L176.28 18.61L178.44 18.61L177.36 15.93ZM185.83 21.24L185.83 21.24L186.61 19.49Q187.18 19.86 187.92 20.09Q188.66 20.32 189.38 20.32L189.38 20.32Q190.75 20.32 190.76 19.64L190.76 19.64Q190.76 19.28 190.37 19.11Q189.98 18.93 189.11 18.74L189.11 18.74Q188.16 18.53 187.52 18.30Q186.89 18.06 186.43 17.55Q185.98 17.03 185.98 16.16L185.98 16.16Q185.98 15.39 186.40 14.77Q186.82 14.15 187.65 13.79Q188.49 13.43 189.69 13.43L189.69 13.43Q190.52 13.43 191.33 13.62Q192.13 13.80 192.75 14.17L192.75 14.17L192.02 15.93Q190.81 15.28 189.68 15.28L189.68 15.28Q188.97 15.28 188.65 15.49Q188.33 15.70 188.33 16.04L188.33 16.04Q188.33 16.37 188.71 16.54Q189.10 16.71 189.95 16.89L189.95 16.89Q190.91 17.10 191.54 17.33Q192.17 17.56 192.63 18.07Q193.09 18.58 193.09 19.46L193.09 19.46Q193.09 20.21 192.67 20.83Q192.26 21.44 191.41 21.80Q190.57 22.17 189.37 22.17L189.37 22.17Q188.35 22.17 187.39 21.92Q186.43 21.67 185.83 21.24ZM197.08 21.24L197.08 21.24L197.86 19.49Q198.43 19.86 199.17 20.09Q199.91 20.32 200.63 20.32L200.63 20.32Q202.00 20.32 202.01 19.64L202.01 19.64Q202.01 19.28 201.62 19.11Q201.23 18.93 200.36 18.74L200.36 18.74Q199.41 18.53 198.77 18.30Q198.14 18.06 197.68 17.55Q197.23 17.03 197.23 16.16L197.23 16.16Q197.23 15.39 197.65 14.77Q198.07 14.15 198.90 13.79Q199.74 13.43 200.94 13.43L200.94 13.43Q201.77 13.43 202.58 13.62Q203.38 13.80 204.00 14.17L204.00 14.17L203.27 15.93Q202.06 15.28 200.93 15.28L200.93 15.28Q200.22 15.28 199.90 15.49Q199.58 15.70 199.58 16.04L199.58 16.04Q199.58 16.37 199.96 16.54Q200.35 16.71 201.20 16.89L201.20 16.89Q202.16 17.10 202.79 17.33Q203.42 17.56 203.88 18.07Q204.34 18.58 204.34 19.46L204.34 19.46Q204.34 20.21 203.92 20.83Q203.51 21.44 202.66 21.80Q201.82 22.17 200.62 22.17L200.62 22.17Q199.60 22.17 198.64 21.92Q197.68 21.67 197.08 21.24ZM211.30 22L208.92 22L208.92 13.60L211.30 13.60L211.30 22ZM215.89 21.24L215.89 21.24L216.67 19.49Q217.23 19.86 217.97 20.09Q218.72 20.32 219.44 20.32L219.44 20.32Q220.80 20.32 220.81 19.64L220.81 19.64Q220.81 19.28 220.42 19.11Q220.03 18.93 219.16 18.74L219.16 18.74Q218.21 18.53 217.58 18.30Q216.94 18.06 216.49 17.55Q216.03 17.03 216.03 16.16L216.03 16.16Q216.03 15.39 216.45 14.77Q216.87 14.15 217.71 13.79Q218.54 13.43 219.75 13.43L219.75 13.43Q220.57 13.43 221.38 13.62Q222.19 13.80 222.80 14.17L222.80 14.17L222.07 15.93Q220.87 15.28 219.74 15.28L219.74 15.28Q219.03 15.28 218.70 15.49Q218.38 15.70 218.38 16.04L218.38 16.04Q218.38 16.37 218.77 16.54Q219.15 16.71 220.00 16.89L220.00 16.89Q220.96 17.10 221.59 17.33Q222.22 17.56 222.68 18.07Q223.15 18.58 223.15 19.46L223.15 19.46Q223.15 20.21 222.73 20.83Q222.31 21.44 221.47 21.80Q220.63 22.17 219.43 22.17L219.43 22.17Q218.41 22.17 217.44 21.92Q216.48 21.67 215.89 21.24ZM229.52 15.48L226.93 15.48L226.93 13.60L234.45 13.60L234.45 15.48L231.89 15.48L231.89 22L229.52 22L229.52 15.48ZM240.24 22L237.82 22L241.53 13.60L243.87 13.60L247.59 22L245.12 22L244.46 20.37L240.91 20.37L240.24 22ZM242.68 15.93L241.60 18.61L243.76 18.61L242.68 15.93ZM254.07 22L251.74 22L251.74 13.60L253.70 13.60L257.41 18.07L257.41 13.60L259.73 13.60L259.73 22L257.78 22L254.07 17.52L254.07 22ZM266.69 15.48L264.10 15.48L264.10 13.60L271.63 13.60L271.63 15.48L269.06 15.48L269.06 22L266.69 22L266.69 15.48Z" fill="#FFFFFF" x="119.05"/></svg>