<svg xmlns="http://www.w3.org/2000/svg" viewBox="0 0 24 24" width="24" height="24"><path fill="currentColor" d="M15.888 2.788q1.812.787 3.175 2.15t2.15 3.175t.787 3.875t-.787 3.887t-2.15 3.188t-3.175 2.15t-3.875.787t-3.888-.787t-3.187-2.15t-2.15-3.188T2 11.988t.788-3.875t2.15-3.175t3.187-2.15T12.013 2t3.875.788m1.775 14.875Q20 15.325 20 12t-2.337-5.663T12 4T6.337 6.338T4 12t2.338 5.663T12 20t5.663-2.337M10 7q0 .825.588 1.413T12 9t1.413-.587T14 7t-.587-1.412T12 5t-1.412.588T10 7m-.913 3.65Q7.5 11.3 7.5 12.5v4q0 1.1 1.575 1.85t3.425.6v-2q-.875.05-1.65-.125T9.5 16.3q.125-.575.875-.937T12 15t1.688.4t.812 1.05v2.05q1.1-.4 1.55-.962t.45-1.038v-4q0-1.2-1.588-1.85T12 10t-2.912.65m2.025 3.488q-.363-.363-.363-.888t.363-.888T12 12t.888.363t.362.887t-.363.888T12 14.5t-.888-.363M12 12"/></svg>