<svg xmlns="http://www.w3.org/2000/svg" viewBox="0 0 24 24" width="24" height="24"><path fill="currentColor" d="M5 17.85q1.35-1.325 3.138-2.087T12 15t3.863.763T19 17.85V5H5zm9.475-5.875Q15.5 10.95 15.5 9.5t-1.025-2.475T12 6T9.525 7.025T8.5 9.5t1.025 2.475T12 13t2.475-1.025M5 21q-.825 0-1.412-.587T3 19V5q0-.825.588-1.412T5 3h14q.825 0 1.413.588T21 5v14q0 .825-.587 1.413T19 21zm1.725-2h10.55q-1.1-.975-2.488-1.487T12 17t-2.812.513T6.725 19m4.213-8.437Q10.5 10.125 10.5 9.5t.438-1.062T12 8t1.063.438T13.5 9.5t-.437 1.063T12 11t-1.062-.437m1.062.862"/></svg>