<svg xmlns="http://www.w3.org/2000/svg" viewBox="0 0 24 24" width="24" height="24"><path fill="currentColor" d="M11.288 4.713Q11 4.425 11 4t.288-.712T12 3t.713.288T13 4t-.288.713T12 5t-.712-.288m0-3Q11 1.426 11 1t.288-.712T12 0t.713.288T13 1t-.288.713T12 2t-.712-.288M8.4 22q-1.6-.95-2.5-2.55T5 16q0-2.025 1.075-3.738T9 9.676V7q0-.425.288-.712T10 6h4q.425 0 .713.288T15 7v2.675q1.825.875 2.913 2.588T19 16q0 1.85-.9 3.45T15.6 22zm.6-2h6q.95-.725 1.475-1.763T17 16q0-1.45-.763-2.662T14.15 11.5L13 10.95V8h-2v2.95l-1.15.55q-1.325.625-2.087 1.838T7 16q0 1.2.525 2.238T9 20M7 3q-.425 0-.712-.288T6 2t.288-.712T7 1t.713.288T8 2t-.288.713T7 3m9.288-.288Q16 2.426 16 2t.288-.712T17 1t.713.288T18 2t-.288.713T17 3t-.712-.288m-8 2Q8 4.426 8 4t.288-.712T9 3t.713.288T10 4t-.288.713T9 5t-.712-.288m6 0Q14 4.426 14 4t.288-.712T15 3t.713.288T16 4t-.288.713T15 5t-.712-.288M12 16"/></svg>