<svg xmlns="http://www.w3.org/2000/svg" viewBox="0 0 24 24" width="24" height="24"><path fill="currentColor" d="M8.713 13.713Q9 13.425 9 13t-.288-.712T8 12t-.712.288T7 13t.288.713T8 14t.713-.288m4 0Q13 13.426 13 13t-.288-.712T12 12t-.712.288T11 13t.288.713T12 14t.713-.288m4 0Q17 13.426 17 13t-.288-.712T16 12t-.712.288T15 13t.288.713T16 14t.713-.288m-8.226 7.576q-1.637-.713-2.85-1.925t-1.925-2.85T3 13t.713-3.512t1.924-2.85t2.85-1.925T12 4t3.513.713t2.85 1.925t1.925 2.85T21 13t-.712 3.513t-1.925 2.85t-2.85 1.925T12 22t-3.512-.712M5.6 2.35L7 3.75L2.75 8l-1.4-1.4zm12.8 0l4.25 4.25l-1.4 1.4L17 3.75zM12 20q2.925 0 4.963-2.037T19 13t-2.037-4.962T12 6T7.038 8.038T5 13t2.038 4.963T12 20"/></svg>