<svg xmlns="http://www.w3.org/2000/svg" viewBox="0 0 24 24" width="24" height="24"><path fill="currentColor" d="M12.025 2q2.025 0 3.163 1.525T17.125 7q.65 1.575 1.25 3.5t1.275 3.875q.65 1.875 1.425 3.525t1.8 2.825q.2.225.175.525t-.225.525t-.475.25t-.55-.175q-1.975-1.55-3.25-3.463t-2.575-3.337q-.85-.95-1.812-1.5T12.025 13t-2.137.55t-1.813 1.5q-1.3 1.425-2.575 3.338T2.25 21.85q-.275.2-.55.175t-.475-.25T1 21.25t.175-.525Q2.2 19.55 2.975 17.9T4.4 14.375q.675-1.95 1.275-3.875T6.925 7q.8-1.95 1.938-3.475T12.025 2m0 2q-1.125 0-1.775.975T9.1 7q-.65 1.4-1.162 3.013T6.8 13.5q.5-.525.963-.925t.962-.725q.8-.475 1.588-.663T12.025 11t1.713.188t1.587.662q.5.325.963.725t.962.925q-.625-1.875-1.137-3.487T14.95 7q-.5-1.05-1.15-2.025T12.025 4m0 7"/></svg>