<svg xmlns="http://www.w3.org/2000/svg" viewBox="0 0 24 24" width="24" height="24"><path fill="currentColor" d="M5 17v2V5zm12 4H7q-1.65 0-2.825-1.175T3 17V7q0-1.65 1.175-2.825T7 3h5.025v2H7q-.825 0-1.412.588T5 7v10q0 .825.588 1.413T7 19h10q.825 0 1.413-.587T19 17v-5.025h2V17q0 1.65-1.175 2.825T17 21m1.5-11q-.15 0-.2-.15q-.4-1.525-1.513-2.637T14.15 5.7Q14 5.65 14 5.5q0-.175.15-.2q1.525-.4 2.638-1.513T18.3 1.15q.05-.15.2-.15t.2.15q.4 1.525 1.513 2.638T22.85 5.3q.15.025.15.2q0 .15-.15.2q-1.525.4-2.637 1.513T18.7 9.85q-.025.15-.2.15"/></svg>