<svg xmlns="http://www.w3.org/2000/svg" viewBox="0 0 24 24" width="24" height="24"><path fill="currentColor" d="M5 21q-.825 0-1.412-.587T3 19V5q0-.825.588-1.412T5 3h4.2q.35-.9 1.1-1.45T12 1t1.7.55T14.8 3H19q.825 0 1.413.588T21 5v14q0 .825-.587 1.413T19 21zm7.538-16.963q.212-.212.212-.537t-.213-.537T12 2.75t-.537.213t-.213.537t.213.538t.537.212t.538-.213M5 17.85q1.35-1.325 3.138-2.087T12 15t3.863.763T19 17.85V5H5zm9.475-5.875Q15.5 10.95 15.5 9.5t-1.025-2.475T12 6T9.525 7.025T8.5 9.5t1.025 2.475T12 13t2.475-1.025M7 19h10v-.25q-1.05-.875-2.325-1.312T12 17t-2.675.438T7 18.75zm3.938-8.437Q10.5 10.125 10.5 9.5t.438-1.062T12 8t1.063.438T13.5 9.5t-.437 1.063T12 11t-1.062-.437m1.062.862"/></svg>