<svg xmlns="http://www.w3.org/2000/svg" viewBox="0 0 24 24" width="24" height="24"><path fill="currentColor" d="M10.75 19h2.5v-4.5h1.5V9.9q0-.675-.712-1.037T12 8.5t-2.037.363T9.25 9.9v4.6h1.5zm-2.625 2.213q-1.825-.788-3.187-2.15t-2.15-3.188T2 11.988t.788-3.875t2.15-3.175t3.187-2.15T12.013 2t3.875.788t3.175 2.15t2.15 3.175t.787 3.875t-.787 3.887t-2.15 3.188t-3.175 2.15t-3.875.787t-3.888-.787m9.538-3.55Q20 15.325 20 12t-2.337-5.663T12 4T6.337 6.338T4 12t2.338 5.663T12 20t5.663-2.337M13.075 7.575Q13.5 7.15 13.5 6.5t-.425-1.075T12 5t-1.075.425T10.5 6.5t.425 1.075T12 8t1.075-.425M12 12"/></svg>