<svg xmlns="http://www.w3.org/2000/svg" viewBox="0 0 24 24" width="24" height="24"><path fill="currentColor" d="M9.5 18.5q1.65 0 2.825-1.162T13.5 14.5q0-1.65-1.175-2.825T9.5 10.5q-1.675 0-2.838 1.175T5.5 14.5q0 1.675 1.163 2.838T9.5 18.5m0-2q-.825 0-1.412-.587T7.5 14.5t.588-1.412T9.5 12.5t1.413.588t.587 1.412t-.587 1.413T9.5 16.5M16 21q2.2 0 3.6-1.4T21 16q0-.425-.288-.712T20 15t-.712.288T19 16q0 1.2-.913 2.1T16 19q-.425 0-.712.288T15 20t.288.713T16 21m0 2q-1.275 0-2.137-.862T13 20q0-1.25.863-2.125T16 17q.35 0 .675-.325T17 16q0-1.25.863-2.125T20 13q1.25 0 2.125.875T23 16q0 3.025-1.987 5.013T16 23m-6.5-1q-4.025 0-5.762-2.5T2 14q0-1.875.563-3.988t1.575-3.887t2.387-2.95T9.5 2q1.4 0 2.625.9t2.188 2.338t1.612 3.224t.9 3.538H14.8q-.25-1.5-.8-2.937T12.713 6.5t-1.575-1.812T9.5 4q-.95 0-1.925.925T5.8 7.288T4.5 10.5T4 14q0 2.025.625 3.225t1.5 1.813t1.813.787T9.5 20q.3 0 .688-.025T11 19.85q-.025.5.05 1t.275.975q-.425.1-.875.138T9.5 22m8-4.5"/></svg>