<svg xmlns="http://www.w3.org/2000/svg" viewBox="0 0 24 24" width="24" height="24"><path fill="currentColor" d="M8.563 17.563Q9 17.125 9 16.5t-.437-1.062T7.5 15t-1.062.438T6 16.5t.438 1.063T7.5 18t1.063-.437m0-9Q9 8.124 9 7.5t-.437-1.062T7.5 6t-1.062.438T6 7.5t.438 1.063T7.5 9t1.063-.437m0 4.5Q9 12.625 9 12t-.437-1.062T7.5 10.5t-1.062.438T6 12t.438 1.063T7.5 13.5t1.063-.437m9 4.5Q18 17.125 18 16.5t-.437-1.062T16.5 15t-1.062.438T15 16.5t.438 1.063T16.5 18t1.063-.437m0-9Q18 8.124 18 7.5t-.437-1.062T16.5 6t-1.062.438T15 7.5t.438 1.063T16.5 9t1.063-.437M5 21q-.825 0-1.412-.587T3 19V5q0-.825.588-1.412T5 3h14q.825 0 1.413.588T21 5v14q0 .825-.587 1.413T19 21zm0-2h14V5H5zM5 5v14zm12.563 8.063Q18 12.625 18 12t-.437-1.062T16.5 10.5t-1.062.438T15 12t.438 1.063t1.062.437t1.063-.437m-4.5-4.5q.437-.438.437-1.063t-.437-1.062T12 6t-1.062.438T10.5 7.5t.438 1.063T12 9t1.063-.437m0 9q.437-.438.437-1.063t-.437-1.062T12 15t-1.062.438T10.5 16.5t.438 1.063T12 18t1.063-.437m0-4.5q.437-.438.437-1.063t-.437-1.062T12 10.5t-1.062.438T10.5 12t.438 1.063T12 13.5t1.063-.437"/></svg>