<svg xmlns="http://www.w3.org/2000/svg" viewBox="0 0 24 24" width="24" height="24"><path fill="currentColor" d="M9.563 16.563Q10 16.125 10 15.5t-.437-1.062T8.5 14t-1.062.438T7 15.5t.438 1.063T8.5 17t1.063-.437m0-7Q10 9.125 10 8.5t-.437-1.062T8.5 7t-1.062.438T7 8.5t.438 1.063T8.5 10t1.063-.437m7 7Q17 16.125 17 15.5t-.437-1.062T15.5 14t-1.062.438T14 15.5t.438 1.063T15.5 17t1.063-.437m0-7Q17 9.125 17 8.5t-.437-1.062T15.5 7t-1.062.438T14 8.5t.438 1.063T15.5 10t1.063-.437M5 21q-.825 0-1.412-.587T3 19V5q0-.825.588-1.412T5 3h14q.825 0 1.413.588T21 5v14q0 .825-.587 1.413T19 21zm0-2h14V5H5zM5 5v14z"/></svg>