<svg xmlns="http://www.w3.org/2000/svg" viewBox="0 0 24 24" width="24" height="24"><path fill="currentColor" d="M10.713 10.713Q11 10.425 11 10t-.288-.712T10 9t-.712.288T9 10t.288.713T10 11t.713-.288m0 4Q11 14.426 11 14t-.288-.712T10 13t-.712.288T9 14t.288.713T10 15t.713-.288M7.35 10.35q.15-.15.15-.35t-.15-.35T7 9.5t-.35.15t-.15.35t.15.35t.35.15t.35-.15M10 17.5q.2 0 .35-.15t.15-.35t-.15-.35t-.35-.15t-.35.15t-.15.35t.15.35t.35.15m-2.65-3.15q.15-.15.15-.35t-.15-.35T7 13.5t-.35.15t-.15.35t.15.35t.35.15t.35-.15m3-7q.15-.15.15-.35t-.15-.35T10 6.5t-.35.15T9.5 7t.15.35t.35.15t.35-.15m4.363 3.363Q15 10.425 15 10t-.288-.712T14 9t-.712.288T13 10t.288.713T14 11t.713-.288M14.35 7.35q.15-.15.15-.35t-.15-.35T14 6.5t-.35.15t-.15.35t.15.35t.35.15t.35-.15m3 7q.15-.15.15-.35t-.15-.35t-.35-.15t-.35.15t-.15.35t.15.35t.35.15t.35-.15m0-4q.15-.15.15-.35t-.15-.35T17 9.5t-.35.15t-.15.35t.15.35t.35.15t.35-.15M8.1 21.213q-1.825-.788-3.175-2.138T2.788 15.9T2 12t.788-3.9t2.137-3.175T8.1 2.788T12 2t3.9.788t3.175 2.137T21.213 8.1T22 12t-.788 3.9t-2.137 3.175t-3.175 2.138T12 22t-3.9-.788M12 20q3.35 0 5.675-2.325T20 12t-2.325-5.675T12 4T6.325 6.325T4 12t2.325 5.675T12 20m2.35-2.65q.15-.15.15-.35t-.15-.35t-.35-.15t-.35.15t-.15.35t.15.35t.35.15t.35-.15m.363-2.637Q15 14.425 15 14t-.288-.712T14 13t-.712.288T13 14t.288.713T14 15t.713-.288M12 12"/></svg>