<svg xmlns="http://www.w3.org/2000/svg" viewBox="0 0 24 24" width="24" height="24"><path fill="currentColor" d="M12.375 20.125Q11.5 19.25 11.5 18t.875-2.125T14.5 15t2.125.875T17.5 18t-.875 2.125T14.5 21t-2.125-.875m2.838-1.412q.287-.288.287-.713t-.288-.712T14.5 17t-.712.288T13.5 18t.288.713t.712.287t.713-.288M12.6 12.4Q11 10.8 11 8.5t1.6-3.9T16.5 3t3.9 1.6T22 8.5t-1.6 3.9t-3.9 1.6t-3.9-1.6m6.388-1.412Q20 9.975 20 8.5t-1.012-2.488T16.5 5t-2.488 1.013T13 8.5t1.013 2.488T16.5 12t2.488-1.012M7 18q-1.65 0-2.825-1.175T3 14t1.175-2.825T7 10t2.825 1.175T11 14t-1.175 2.825T7 18m1.412-2.588Q9 14.826 9 14t-.587-1.412T7 12t-1.412.588T5 14t.588 1.413T7 16t1.413-.587M7 14"/></svg>