<svg xmlns="http://www.w3.org/2000/svg" viewBox="0 0 24 24" width="24" height="24"><path fill="currentColor" d="M7 18h8q.825 0 1.413-.587T17 16v-3H5v3q0 .825.588 1.413T7 18m1.563-1.437Q9 16.125 9 15.5t-.437-1.062T7.5 14t-1.062.438T6 15.5t.438 1.063T7.5 17t1.063-.437m7 0Q16 16.125 16 15.5t-.437-1.062T14.5 14t-1.062.438T13 15.5t.438 1.063T14.5 17t1.063-.437M5 22q-.425 0-.712-.288T4 21v-2.05q-.45-.5-.725-1.112T3 16.5V7q0-2.075 1.925-3.037T11 3q.65 0 1.225.013t1.1.062q-.175.475-.25.963T13 5.05q-.425-.025-.913-.037T11.05 5q-2.175 0-3.6.25t-2 .75h7.625q.1.475.275.975T13.8 8H5v3h11.075L19 13.625V16.5q0 .725-.275 1.338T18 18.95V21q0 .425-.288.713T17 22h-1q-.425 0-.712-.288T15 21v-1H7v1q0 .425-.288.713T6 22zM18.288 5.712Q18 5.425 18 5t.288-.712T19 4t.713.288T20 5t-.288.713T19 6t-.712-.288m2.487-2.45q.725.763.725 1.838q0 .8-.612 1.763T19.025 9q-1.275-1.2-1.9-2.15T16.5 5.1q0-1.075.725-1.838T19 2.5t1.775.762M19 11q2.025-1.725 3.013-3.187T23 5.1q0-1.7-1.162-2.9T19 1t-2.837 1.2T15 5.1q0 1.25.988 2.713T19 11M5 13h12zm8.075-7H5.45zM19 5"/></svg>