<svg xmlns="http://www.w3.org/2000/svg" viewBox="0 0 24 24" width="24" height="24"><path fill="currentColor" d="M13.613 11.388q-.363-.363-.363-.888t.363-.888t.887-.362t.888.363t.362.887t-.363.888t-.887.362t-.888-.363m-5 0q-.362-.362-.362-.887t.363-.888t.887-.362t.888.363t.362.887t-.363.888t-.887.362t-.888-.363m.676 4.788Q8.075 15.35 7.5 14h9q-.575 1.35-1.787 2.175T12 17t-2.713-.825m-.8 4.113q-1.637-.713-2.85-1.925t-1.925-2.85T3 12t.713-3.512t1.924-2.85t2.85-1.925T12 3t3.513.713t2.85 1.924t1.925 2.85T21 12t-.712 3.513t-1.925 2.85t-2.85 1.925T12 21t-3.512-.712m8.462-3.338Q19 14.9 19 12t-2.05-4.95T12 5h-.3q-.15 0-.3.05q-.15.15-.2.325t-.05.375q0 .525.362.888T12.4 7q.225 0 .413-.075t.387-.075q.3 0 .5.225t.2.525q0 .575-.538.738T12.4 8.5q-1.125 0-1.937-.812T9.65 5.75V5.6q0-.075.025-.2Q7.6 6.15 6.3 7.925T5 12q0 2.9 2.05 4.95T12 19t4.95-2.05M12 12"/></svg>