<svg xmlns="http://www.w3.org/2000/svg" viewBox="0 0 24 24" width="24" height="24"><path fill="currentColor" d="M3.175 19.825Q2 18.65 2 17t1.175-2.825T6 13t2.825 1.175T10 17t-1.175 2.825T6 21t-2.825-1.175m12 0Q14 18.65 14 17t1.175-2.825T18 13t2.825 1.175T22 17t-1.175 2.825T18 21t-2.825-1.175M6 19q.825 0 1.413-.587T8 17t-.587-1.412T6 15t-1.412.588T4 17t.588 1.413T6 19m12 0q.825 0 1.413-.587T20 17t-.587-1.412T18 15t-1.412.588T16 17t.588 1.413T18 19m-7.35-4.65q-.55-.55-.55-1.35t.55-1.35T12 11.1t1.35.55t.55 1.35t-.55 1.35t-1.35.55t-1.35-.55M9.175 8.825Q8 7.65 8 6t1.175-2.825T12 2t2.825 1.175T16 6t-1.175 2.825T12 10T9.175 8.825m4.238-1.412Q14 6.825 14 6t-.587-1.412T12 4t-1.412.588T10 6t.588 1.413T12 8t1.413-.587M18 17"/></svg>