<svg xmlns="http://www.w3.org/2000/svg" viewBox="0 0 24 24" width="24" height="24"><path fill="currentColor" d="M14.875 15.125Q14 14.25 14 13t.875-2.125T17 10t2.125.875T20 13t-.875 2.125T17 16t-2.125-.875m2.838-1.412Q18 13.425 18 13t-.288-.712T17 12t-.712.288T16 13t.288.713T17 14t.713-.288M11 23v-2.9q0-.525.25-.987t.7-.738q.8-.475 1.688-.788t1.812-.462L17 19l1.55-1.875q.925.15 1.8.463t1.675.787q.45.275.713.738T23 20.1V23zm1.975-2h3.075l-1.35-1.65q-.45.125-.875.325t-.85.425zm4.975 0H21v-.9q-.4-.25-.825-.437t-.875-.313zM5 21q-.825 0-1.413-.587T3 19V5q0-.825.588-1.412T5 3h14q.825 0 1.413.588T21 5v5q-.4-.5-.875-.95T19 8.45V5H5v14h4.15q-.075.275-.112.55T9 20.1v.9zM7 9h7q.65-.5 1.425-.75T17 8V7H7zm0 4h5q0-.525.112-1.025t.313-.975H7zm0 4h3.45q.275-.225.588-.4t.637-.325V15H7zm-2 2V5v3.425V8zm12-6"/></svg>