<svg xmlns="http://www.w3.org/2000/svg" viewBox="0 0 24 24"><path fill="currentColor" d="M4 18v-7v.175V6zm0 2q-.825 0-1.412-.587T2 18V6q0-.825.588-1.412T4 4h16q.825 0 1.413.588T22 6v6q-.8-.475-1.675-.737T18.5 11t-1.825.263T15.05 12H4v6h8.025q.05.525.163 1.025T12.5 20zM4 8h16V6H4zm14.5 14q-.15 0-.2-.15q-.4-1.525-1.513-2.637T14.15 17.7q-.15-.05-.15-.2q0-.175.15-.2q1.525-.4 2.638-1.513T18.3 13.15q.05-.15.2-.15t.2.15q.4 1.525 1.513 2.638T22.85 17.3q.15.025.15.2q0 .15-.15.2q-1.525.4-2.637 1.513T18.7 21.85q-.025.15-.2.15"/></svg>