<svg xmlns="http://www.w3.org/2000/svg" viewBox="0 0 24 24"><path fill="currentColor" d="m16.9 22.5l-1.4-1.4l3.075-3.1H16v-2h6v6h-2v-2.6zM6.775 19H11.7l-3.45-6H5.925L4.6 15.275q-.35.575-.337 1.238T4.6 17.75t.913.913T6.775 19M12 15.5l1.45-2.5h-2.9zM7.075 11H14.6l1.15-2l-1.6-2.75q-.35-.575-.912-.913T12 5t-1.25.338t-.925.912zM13.3 21H6.775Q5.55 21 4.5 20.4t-1.65-1.65t-.6-2.25t.6-2.25l5.25-9Q8.7 4.2 9.75 3.6T12 3t2.25.6t1.65 1.65l4.675 8q-.6-.15-1.213-.2t-1.212.05l-1.25-2.125l-2.25 3.9q-.8.8-1.237 1.875t-.438 2.3q0 .5.088 1t.237.95m3.6-10.025"/></svg>