<svg xmlns="http://www.w3.org/2000/svg" viewBox="0 0 24 24" width="24" height="24"><path fill="currentColor" d="M11.238 21.875q-.363-.15-.663-.425L2.55 13.425q-.275-.3-.425-.663T1.975 12t.15-.775t.425-.65l8.025-8.025q.3-.3.663-.438T12 1.975t.775.138t.65.437l8.025 8.025q.3.275.438.65t.137.775t-.137.763t-.438.662l-8.025 8.025q-.275.275-.65.425t-.775.15t-.763-.15m.763-1.85L20.025 12L12 3.975L3.975 12zM11 13h2V7h-2zm1.713 2.713Q13 15.425 13 15t-.288-.712T12 14t-.712.288T11 15t.288.713T12 16t.713-.288M12 12"/></svg>