<svg xmlns="http://www.w3.org/2000/svg" viewBox="0 0 24 24" width="24" height="24"><path fill="currentColor" d="M9.338 21.413Q8.25 20.325 8.25 18.75q0-1.3.775-2.287T11 15.124V13H5V9H2.5V2h7v7H7v2h10V8.875q-1.2-.35-1.975-1.338T14.25 5.25q0-1.575 1.088-2.662T18 1.5t2.663 1.088T21.75 5.25q0 1.3-.775 2.288T19 8.875V13h-6v2.125q1.2.35 1.975 1.338t.775 2.287q0 1.575-1.088 2.663T12 22.5t-2.662-1.088m9.9-14.924q.512-.513.512-1.238t-.513-1.237T18 3.5t-1.237.513t-.513 1.237t.513 1.238T18 7t1.238-.513M4.5 7h3V4h-3zm8.738 12.988q.512-.513.512-1.238t-.513-1.237T12 17t-1.237.513t-.513 1.237t.513 1.238T12 20.5t1.238-.513M12 18.75"/></svg>