<svg xmlns="http://www.w3.org/2000/svg" viewBox="0 0 24 24" width="24" height="24"><path fill="currentColor" d="M16.225 11.588q2.2-.413 3.775-1.088v10q-1.5.675-3.65 1.088T12 22t-4.35-.413T4 20.5v-10q1.575.675 3.775 1.088T12 12t4.225-.413M18 19v-5.75q-1.25.35-2.887.55T12 14t-3.113-.2T6 13.25V19q1.25.45 2.875.725T12 20t3.125-.275T18 19M14.825 3.175Q16 4.35 16 6t-1.175 2.825T12 10T9.175 8.825T8 6t1.175-2.825T12 2t2.825 1.175m-1.412 4.238Q14 6.825 14 6t-.587-1.412T12 4t-1.412.588T10 6t.588 1.413T12 8t1.413-.587M12 16.624"/></svg>