<svg xmlns="http://www.w3.org/2000/svg" viewBox="0 0 24 24" width="24" height="24"><path fill="currentColor" d="M4 20V4zm0 2q-.825 0-1.412-.587T2 20V4q0-.825.588-1.412T4 2h16q.825 0 1.413.588T22 4v8h-2V4H4v16h5v2zm1.8-3.5h.4q.35 0 .575-.225T7 17.7v-1.2h2v-2H7v-3h12v-.4l-1.65-4.8q-.125-.35-.413-.575T16.3 5.5H7.7q-.35 0-.638.225T6.65 6.3L5 11.1v6.6q0 .35.225.575t.575.225m1.85-9l.7-2h7.3l.7 2zm2.063 4.213Q10 13.425 10 13t-.288-.712T9 12t-.712.288T8 13t.288.713T9 14t.713-.288m4.212 6.788h6.15q.125-.525.513-.913t.912-.512v-2.15q-.525-.125-.913-.513t-.512-.912h-6.15q-.125.525-.513.913t-.912.512v2.15q.525.125.913.513t.512.912m4.138-1.437q.437-.438.437-1.063t-.437-1.062T17 16.5t-1.062.438T15.5 18t.438 1.063T17 19.5t1.063-.437M13 22q-.825 0-1.412-.587T11 20v-4q0-.825.588-1.412T13 14h8q.825 0 1.413.588T23 16v4q0 .825-.587 1.413T21 22z"/></svg>