<svg xmlns="http://www.w3.org/2000/svg" viewBox="0 0 24 24" width="24" height="24"><path fill="currentColor" d="M13.475 22q-.7 0-1.312-.3t-1.038-.85l-5.45-6.925l.475-.5q.5-.525 1.2-.625t1.3.275L10.5 14.2V4q0-.425.288-.712T11.5 3t.725.288t.3.712v13.8L10.1 16.3l2.6 3.325q.15.2.35.288t.425.087H19q.825 0 1.413-.587T21 18v-7q0-.425.288-.712T22 10t.713.288T23 11v7q0 1.65-1.175 2.825T19 22zM14 13V8q0-.425.288-.712T15 7t.713.288T16 8v5zm3.5 0V9q0-.425.288-.712T18.5 8t.713.288T19.5 9v4zM2.025 9Q1 8 1 6.55q0-1.05.625-1.888t1.3-1.637l1.575-1.8L6.075 3.05q.675.8 1.3 1.625T8 6.55Q8 8 6.975 9T4.5 10T2.025 9m3.538-1.425Q6 7.15 6 6.55q0-.675-.462-1.162T4.624 4.4L4.5 4.275l-.125.125q-.45.5-.913.988T3 6.55q0 .6.438 1.025T4.5 8t1.063-.425M4.5 6.125"/></svg>