<svg xmlns="http://www.w3.org/2000/svg" viewBox="0 0 24 24" width="24" height="24"><path fill="currentColor" d="M1 20v-2.8q0-.85.438-1.562T2.6 14.55q1.55-.775 3.15-1.162T9 13t3.25.388t3.15 1.162q.725.375 1.163 1.088T17 17.2V20zm18 0v-3q0-1.1-.612-2.113T16.65 13.15q1.275.15 2.4.513t2.1.887q.9.5 1.375 1.112T23 17v3zM6.175 10.825Q5 9.65 5 8t1.175-2.825T9 4t2.825 1.175T13 8t-1.175 2.825T9 12t-2.825-1.175m11.65 0Q16.65 12 15 12q-.275 0-.7-.062t-.7-.138q.675-.8 1.038-1.775T15 8t-.362-2.025T13.6 4.2q.35-.125.7-.163T15 4q1.65 0 2.825 1.175T19 8t-1.175 2.825M3 18h12v-.8q0-.275-.137-.5t-.363-.35q-1.35-.675-2.725-1.012T9 15t-2.775.338T3.5 16.35q-.225.125-.363.35T3 17.2zm7.413-8.587Q11 8.825 11 8t-.587-1.412T9 6t-1.412.588T7 8t.588 1.413T9 10t1.413-.587M9 8"/></svg>