<svg xmlns="http://www.w3.org/2000/svg" viewBox="0 0 24 24" width="24" height="24"><path fill="currentColor" d="M6 6h12q.425 0 .713.288T19 7t-.288.713T18 8H6q-.425 0-.712-.288T5 7t.288-.712T6 6m2-3h8q.425 0 .713.288T17 4t-.288.713T16 5H8q-.425 0-.712-.288T7 4t.288-.712T8 3m-2.6 8l.35 2.15q.35 2.15.925 5.85zm6.425 10H5L3 9h18l-.35 2H5.4l1.275 8h4.55q.075.55.238 1.05t.362.95m5.35 2.025l-.3-1.5q-.3-.125-.562-.262t-.538-.338l-1.45.45l-1-1.7l1.15-1q-.05-.325-.05-.65t.05-.65l-1.15-1l1-1.7l1.45.45q.275-.2.537-.337t.563-.263l.3-1.5h2l.3 1.5q.3.125.563.263t.537.337l1.45-.45l1 1.7l-1.15 1q.05.325.05.65t-.05.65l1.15 1l-1 1.7l-1.45-.45q-.275.2-.537.337t-.563.263l-.3 1.5zm2.413-3.588q.587-.587.587-1.412t-.587-1.412t-1.413-.588t-1.412.588t-.588 1.412t.588 1.413t1.412.587t1.413-.587"/></svg>