<svg xmlns="http://www.w3.org/2000/svg" viewBox="0 0 24 24" width="24" height="24"><path fill="currentColor" d="M17.063 17.063q.437-.438.437-1.063t-.437-1.062T16 14.5t-1.062.438T14.5 16t.438 1.063T16 17.5t1.063-.437m-4-4q.437-.438.437-1.063t-.437-1.062T12 10.5t-1.062.438T10.5 12t.438 1.063T12 13.5t1.063-.437m-4-4Q9.5 8.625 9.5 8t-.437-1.062T8 6.5t-1.062.438T6.5 8t.438 1.063T8 9.5t1.063-.437M5 21q-.825 0-1.412-.587T3 19V5q0-.825.588-1.412T5 3h14q.825 0 1.413.588T21 5v14q0 .825-.587 1.413T19 21zm0-2h14V5H5zM5 5v14z"/></svg>