<svg xmlns="http://www.w3.org/2000/svg" viewBox="0 0 24 24"><path fill="currentColor" d="M12 23q-.525 0-.888-.363t-.362-.887q0-.5.363-.875T12 20.5q.5 0 .875.375t.375.875q0 .525-.375.888T12 23m-4.25-1q-.525 0-.888-.363T6.5 20.75q0-.5.363-.875t.887-.375q.5 0 .875.375T9 20.75q0 .525-.375.888T7.75 22m8.5 0q-.525 0-.888-.363T15 20.75q0-.5.363-.875t.887-.375q.5 0 .875.375t.375.875q0 .525-.375.888T16.25 22M5 19q-.525 0-.888-.363t-.362-.887q0-.5.363-.875T5 16.5q.5 0 .875.375t.375.875q0 .525-.375.888T5 19m7 0q-2.275 0-3.887-1.612T6.5 13.5t1.8-4.637T12 4.75q1.9 1.75 3.7 4.113t1.8 4.637t-1.612 3.888T12 19m7 0q-.525 0-.888-.363t-.362-.887q0-.5.363-.875T19 16.5q.5 0 .875.375t.375.875q0 .525-.375.888T19 19m-4.525-3.012q1.025-1.013 1.025-2.463q0-1.3-1.175-3.037T12 7.55q-1.175 1.2-2.337 2.938T8.5 13.525q0 1.45 1.025 2.463T12 17t2.475-1.012M12 15.5q.825 0 1.413-.575T14 13.5q0-.825-.587-1.412T12 11.5q-.85 0-1.425.588T10 13.5q0 .85.575 1.425T12 15.5m0-12q-.525 0-.888-.363t-.362-.887q0-.5.363-.875T12 1q.5 0 .875.375t.375.875q0 .525-.375.888T12 3.5m0 10"/></svg>