<svg xmlns="http://www.w3.org/2000/svg" viewBox="0 0 24 24" width="24" height="24"><path fill="currentColor" d="m9 23l-1-1v-6H3v-2l2-2V5H4V3h7.125q-.45.425-.812.925T9.675 5H7v7.85L5.85 14h6.575q.6.35 1.238.588t1.337.337V16h-5v6zm8.063-15.437q.437-.438.437-1.063t-.437-1.062T16 5t-1.062.438T14.5 6.5t.438 1.063T16 8t1.063-.437m.35 3.075q.637-.363 1.062-.963q-.55-.325-1.175-.5T16 9t-1.3.175t-1.175.5q.425.6 1.062.963T16 11t1.413-.363m-4.95.9Q11 10.076 11 8t1.463-3.537T16 3t3.538 1.463T21 8t-1.463 3.538T16 13t-3.537-1.463"/></svg>