<svg xmlns="http://www.w3.org/2000/svg" viewBox="0 0 24 24" width="24" height="24"><path fill="currentColor" d="M5 22q-1.25 0-2.125-.875T2 19v-5q0-.8.513-1.425t1.262-.925L10.525 9H2V2h17q1.25 0 2.125.875T22 5v5.6q0 .95-.537 1.725t-1.438 1.1L15.675 15H22v7zm0-2h15v-3H5q-.275 0-.513-.038T4 16.85V19q0 .425.288.713T5 20M20 7.175V5q0-.425-.288-.713T19 4H4v3h15q.275 0 .513.05t.487.125M5 15h4.8l9.525-3.45q.3-.125.488-.375T20 10.6V10q0-.425-.287-.712T19 9h-2.95L4.5 13.5q-.2.075-.35.238T4 14.1q0 .4.3.65T5 15m1.213-8.962Q6 5.825 6 5.5t.213-.537t.537-.213t.538.213t.212.537t-.213.538t-.537.212t-.537-.213m0 13Q6 18.826 6 18.5t.213-.537t.537-.213t.538.213t.212.537t-.213.538t-.537.212t-.537-.213m1-4.75Q7 14.076 7 13.75t.213-.537T7.75 13t.538.213t.212.537t-.213.538t-.537.212t-.537-.213m4.25-8.25q-.213-.212-.213-.537t.213-.537T12 4.75t.538.213t.212.537t-.213.538T12 6.25t-.537-.213m0 6.75q-.213-.212-.213-.537t.213-.537T12 11.5t.538.213t.212.537t-.213.538T12 13t-.537-.213m0 6.25q-.213-.212-.213-.537t.213-.537t.537-.213t.538.213t.212.537t-.213.538t-.537.212t-.537-.213m4-7.75q-.213-.212-.213-.537t.213-.537T16 10t.538.213t.212.537t-.213.538T16 11.5t-.537-.213m1.25-5.25Q16.5 5.826 16.5 5.5t.213-.537t.537-.213t.538.213T18 5.5t-.213.538t-.537.212t-.537-.213m0 13q-.213-.212-.213-.537t.213-.537t.537-.213t.538.213t.212.537t-.213.538t-.537.212t-.537-.213"/></svg>