<svg xmlns="http://www.w3.org/2000/svg" viewBox="0 0 24 24"><path fill="currentColor" d="M1 13v-2h4v2zm10-8V1h2v4zm0 18v-4h2v4zM6.4 7.75L3.875 5.325L5.3 3.85l2.4 2.5zm12.3 12.4l-2.425-2.525L17.6 16.25l2.525 2.425zm-13.375-.025L3.85 18.7l2.525-2.425L7.75 17.6zM12 17q-2.075 0-3.537-1.463T7 12t1.463-3.537T12 7q.275 0 .525.038t.525.087l-.675 1.9Q12.275 9 12.188 9H12q-1.25 0-2.125.875T9 12t.875 2.125T12 15q.975 0 1.738-.562T14.825 13H16.9q-.35 1.725-1.725 2.863T12 17m1.8-6L17 2h2l3.2 9h-1.9l-.7-2h-3.2l-.7 2zm3.05-3.35h2.3L18 4z"/></svg>