<svg xmlns="http://www.w3.org/2000/svg" viewBox="0 0 24 24" width="24" height="24"><path fill="currentColor" d="M2 21V9l8-6l5.375 4.05q-.625.075-1.175.288t-1.05.562L10 5.5L4 10v9h4v2zm8 0v-1.9q0-.525.263-.987t.712-.738q1.15-.675 2.413-1.025T16 16t2.613.35t2.412 1.025q.45.275.713.738T22 19.1V21zm2.15-2h7.7q-.875-.5-1.85-.75T16 18t-2 .25t-1.85.75m1.725-4.875Q13 13.25 13 12t.875-2.125T16 9t2.125.875T19 12t-.875 2.125T16 15t-2.125-.875m2.838-1.412Q17 12.425 17 12t-.288-.712T16 11t-.712.288T15 12t.288.713T16 13t.713-.288M16 19"/></svg>