<svg xmlns="http://www.w3.org/2000/svg" viewBox="0 0 24 24" width="24" height="24"><path fill="currentColor" d="M12 16q.1 0 .325-.2l.075-.15q.4-.8 1.1-1.375t1.2-1.3q.275-.425.413-.888t.137-.962q0-1.325-.95-2.225T12 8t-2.312.9t-.963 2.225q0 .5.15.963t.425.887q.5.725 1.188 1.3t1.087 1.375l.075.15q.025.05.35.2m-.888-3.863q-.362-.362-.362-.887t.363-.888T12 10t.888.363t.362.887t-.363.888T12 12.5t-.888-.363M8 19q-2.925 0-4.962-2.037T1 12t2.038-4.962T8 5h8q2.925 0 4.963 2.038T23 12t-2.037 4.963T16 19zm0-2h8q2.075 0 3.538-1.463T21 12t-1.463-3.537T16 7H8Q5.925 7 4.463 8.463T3 12t1.463 3.538T8 17m4-5"/></svg>