<svg xmlns="http://www.w3.org/2000/svg" viewBox="0 0 24 24" width="24" height="24"><path fill="currentColor" d="M19.063 17.563q.437-.438.437-1.063t-.437-1.062T18 15t-1.062.438T16.5 16.5t.438 1.063T18 18t1.063-.437m.337 3.087q.65-.35 1.075-.975q-.575-.35-1.2-.513T18 19t-1.275.163t-1.2.512q.425.625 1.075.975T18 21t1.4-.35M9 8h6V6q0-1.25-.875-2.125T12 3t-2.125.875T9 6zm3.25 14H6q-.825 0-1.412-.587T4 20V10q0-.825.588-1.412T6 8h1V6q0-2.075 1.463-3.537T12 1t3.538 1.463T17 6v2h1q.825 0 1.413.588T20 10v1.3q-.45-.15-.937-.225T18 11v-1H6v10h5.3q.2.6.4 1.038t.55.962m2.213-.462Q13 20.075 13 18t1.463-3.537T18 13t3.538 1.463T23 18t-1.463 3.538T18 23t-3.537-1.463M6 10v10z"/></svg>