<svg xmlns="http://www.w3.org/2000/svg" viewBox="0 0 24 24" width="24" height="24"><path fill="currentColor" d="M7.875 13.125Q7 12.25 7 11V5q0-1.25.875-2.125T10 2t2.125.875T13 5v6q0 1.25-.875 2.125T10 14t-2.125-.875m2.838-1.412Q11 11.425 11 11V5q0-.425-.288-.712T10 4t-.712.288T9 5v6q0 .425.288.713T10 12t.713-.288M11 21H9v-3.075q-2.6-.35-4.3-2.325T3 11h2q0 2.075 1.463 3.538T10 16q.275 0 .513-.025T11 15.9zm5 1l-.3-1.5q-.3-.125-.562-.262T14.6 19.9l-1.45.45l-1-1.7l1.15-1q-.05-.325-.05-.65t.05-.65l-1.15-1l1-1.7l1.45.45q.275-.2.538-.337t.562-.263L16 12h2l.3 1.5q.3.125.563.263t.537.337l1.45-.45l1 1.7l-1.15 1q.05.325.05.65t-.05.65l1.15 1l-1 1.7l-1.45-.45q-.275.2-.537.338t-.563.262L18 22zm2.413-3.588Q19 17.826 19 17t-.587-1.412T17 15t-1.412.588T15 17t.588 1.413T17 19t1.413-.587"/></svg>