<svg xmlns="http://www.w3.org/2000/svg" viewBox="0 0 24 24" width="24" height="24"><path fill="currentColor" d="M8 23q-.425 0-.712-.288T7 22t.288-.712T8 21t.713.288T9 22t-.288.713T8 23m3.288-.288Q11 22.426 11 22t.288-.712T12 21t.713.288T13 22t-.288.713T12 23t-.712-.288m4 0Q15 22.426 15 22t.288-.712T16 21t.713.288T17 22t-.288.713T16 23t-.712-.288M16 17V3H8v14zM12.713 5.713Q13 5.425 13 5t-.288-.712T12 4t-.712.288T11 5t.288.713T12 6t.713-.288M8 17V3zM18 3v2.05q.425.075.713.413t.287.762v1.55q0 .425-.288.763T18 8.95V17q0 .825-.587 1.413T16 19H8q-.825 0-1.412-.587T6 17V3q0-.825.588-1.412T8 1h8q.825 0 1.413.588T18 3"/></svg>