<svg xmlns="http://www.w3.org/2000/svg" viewBox="0 0 24 24" width="24" height="24"><path fill="currentColor" d="M7 13.25V21V3zM7 23q-.825 0-1.412-.587T5 21V3q0-.825.588-1.412T7 1h10q.825 0 1.413.588T19 3v2h-2V3H7v18h10v-2h2v2q0 .825-.587 1.413T17 23zm5.713-17.287Q13 5.424 13 5t-.288-.712T12 4t-.712.288T11 5t.288.713T12 6t.713-.288m3.612 9.138l-1.45-1.45q.3-.275.463-.637T15.5 12t-.162-.763t-.463-.637l1.45-1.45q.575.575.875 1.313T17.5 12t-.3 1.538t-.875 1.312m2.45 2.45l-1.4-1.4q.775-.775 1.2-1.775T19 12t-.425-2.125t-1.2-1.775l1.4-1.4q1.075 1.05 1.65 2.425T21 12t-.575 2.875t-1.65 2.425"/></svg>