<svg xmlns="http://www.w3.org/2000/svg" viewBox="0 0 24 24" width="24" height="24"><path fill="currentColor" d="M18.6 16.8q0 1.35-.675 2.488T16.1 21.1l-.9.525q-.35.2-.712.3t-.763.1q-.575 0-1.087-.2t-.938-.6q-.725-.675-.862-1.65t.287-1.875l.375-.775q.1-.175.175-.337t.125-.363q.05-.075 0-.15t-.125-.125t-.15-.012t-.125.112q-.275.575-.687 1.05t-.963.775q-.575.35-1.225.525t-1.325.175q-1.35 0-2.5-.65T2.9 16.1l-.525-.9q-.2-.325-.3-.7t-.1-.75q0-.575.213-1.075t.587-.925q.675-.725 1.663-.887t1.862.287l.775.375q.175.1.338.175t.362.125q.1.025.163-.025t.112-.125t.013-.15t-.113-.125q-1.225-.525-1.888-1.675t-.662-2.5t.675-2.5T7.9 2.9l.9-.5q.35-.2.725-.3T10.3 2q.575 0 1.075.2t.925.6q.7.7.85 1.675t-.3 1.85l-.375.775q-.075.175-.162.338t-.138.362q-.025.075.025.138t.125.112q.075.025.15 0t.125-.1q.575-1.2 1.713-1.862t2.462-.663q1.35 0 2.513.65T21.1 7.9l.5.9q.2.35.288.713t.087.737q0 .575-.2 1.088t-.6.937q-.65.725-1.638.875t-1.862-.3l-.775-.375q-.175-.075-.337-.15T16.2 12.2q-.075-.05-.137 0t-.113.125q-.025.075 0 .15t.1.125q1.225.55 1.888 1.7t.662 2.5m-4.4 3.1l.9-.525q.7-.4 1.1-1.075t.4-1.475q0-.775-.375-1.437t-1.05-1.013q-.8-.425-1.088-1.287t.088-1.688q.4-.875 1.35-1.112t1.875.212l1.175.575q.3.125.625.088t.55-.263t.275-.525T19.9 9.8l-.525-.9q-.425-.725-1.125-1.137t-1.525-.413q-.75 0-1.388.4t-.987 1.075q-.4.8-1.262 1.075T11.4 9.8q-.85-.375-1.137-1.263T10.4 6.8l.675-1.375q.15-.275.1-.6t-.275-.55T10.363 4t-.588.1l-.9.525q-.7.4-1.1 1.1t-.4 1.5q0 .75.375 1.413T8.8 9.65q.75.425 1.075 1.2t0 1.575q-.375.925-1.325 1.25t-1.875-.125l-1.25-.625q-.3-.15-.612-.1t-.563.3q-.225.225-.275.525t.125.575l.525.9q.4.7 1.088 1.088T7.2 16.6q.4 0 .775-.1t.725-.3q.3-.175.525-.437t.4-.563q.475-.825 1.35-1.137t1.675.162t1.075 1.325t-.125 1.65l-.675 1.375q-.125.3-.088.625t.263.55t.525.275t.575-.125M12 12"/></svg>