<svg xmlns="http://www.w3.org/2000/svg" viewBox="0 0 24 24" width="24" height="24"><path fill="currentColor" d="M15.5 11q.625 0 1.063-.437T17 9.5t-.437-1.062T15.5 8t-1.062.438T14 9.5t.438 1.063T15.5 11m-7 0q.625 0 1.063-.437T10 9.5t-.437-1.062T8.5 8t-1.062.438T7 9.5t.438 1.063T8.5 11m3.5 6.5q1.7 0 3.088-.962T17.1 14H6.9q.625 1.575 2.013 2.538T12 17.5m0 4.5q-2.075 0-3.9-.788t-3.175-2.137T2.788 15.9T2 12t.788-3.9t2.137-3.175T8.1 2.788T12 2q.25 0 .488.013t.487.037q-.15.5-.212.988t-.038.987Q12.525 4 12.363 4H12Q8.675 4 6.337 6.338T4 12t2.338 5.663T12 20t5.663-2.337T20 12q0-.525-.075-1.037t-.2-1.013q.5-.075.988-.225t.937-.375q.175.65.263 1.3T22 12q0 2.075-.788 3.9t-2.137 3.175t-3.175 2.138T12 22m6.9-14l-3.5-3.5q-.325-.325-.462-.7t-.138-.75q0-.8.575-1.425T16.85 1q.7 0 1.1.325t.95.875q.5-.5.913-.85T20.95 1q.925 0 1.488.638T23 3.075q0 .375-.15.75t-.45.675z"/></svg>