<svg xmlns="http://www.w3.org/2000/svg" viewBox="0 0 24 24" width="24" height="24"><path fill="currentColor" d="M4 20q-.825 0-1.412-.587T2 18V6q0-.825.588-1.412T4 4l6 6H4v8h8v2zM22 6v4h-9.15l-6-6H8.5l1.675 3.325l.675.675h2.65l-2-4H14l2 4h3l-2-4h3q.825 0 1.413.588T22 6m-.5 8.425l-.925-.925zm-1.05 3.2l-3.075-3.075l2.15-2.125q.225-.2.5-.312t.55-.113q.3 0 .575.113t.5.337l.925.925q.2.225.313.5t.112.55t-.1.563t-.325.512zm1.5 4.325l-1.425 1.425l-2.925-2.9l-.525.525H14v-3.075l.525-.525L.625 3.475L2.05 2.05zM15.5 19.5h.95l.075-.1l-.925-.925l-.1.075z"/></svg>