<svg xmlns="http://www.w3.org/2000/svg" viewBox="0 0 24 24" width="24" height="24"><path fill="currentColor" d="M3 18V4zm18 2V6zM7.288 12.713Q7 12.425 7 12t.288-.712T8 11t.713.288T9 12t-.288.713T8 13t-.712-.288m4 0Q11 12.426 11 12t.288-.712T12 11t.713.288T13 12t-.288.713T12 13t-.712-.288m4 0Q15 12.426 15 12t.288-.712T16 11t.713.288T17 12t-.288.713T16 13t-.712-.288M15 22q-.825 0-1.412-.587T13 20v-5h2v5h6V6h-6v3h-2V6q0-.825.588-1.412T15 4h6q.825 0 1.413.588T23 6v14q0 .825-.587 1.413T21 22zM3 20q-.825 0-1.412-.587T1 18V4q0-.825.588-1.412T3 2h6q.825 0 1.413.588T11 4v5H9V4H3v14h6v-3h2v3q0 .825-.587 1.413T9 20zM18.538 8.288q.212-.213.212-.538t-.213-.537T18 7t-.537.213t-.213.537t.213.538T18 8.5t.538-.213m-12-2q.212-.212.212-.537t-.213-.537T6 5t-.537.213t-.213.537t.213.538T6 6.5t.538-.213"/></svg>