<svg xmlns="http://www.w3.org/2000/svg" viewBox="0 0 24 24" width="24" height="24"><path fill="currentColor" d="M13.875 13.125Q13 12.25 13 11t.875-2.125T16 8t2.125.875T19 11t-.875 2.125T16 14t-2.125-.875M10 20v-1.9q0-.525.25-1t.7-.75q1.125-.675 2.388-1.012T16 15t2.663.338t2.387 1.012q.45.275.7.75t.25 1V20zm2.15-2h7.7q-.875-.5-1.85-.75T16 17t-2 .25t-1.85.75m4.563-6.288Q17 11.425 17 11t-.288-.712T16 10t-.712.288T15 11t.288.713T16 12t.713-.288M3 14v-2h8v2zm0-8V4h12v2zm8.1 4H3V8h9q-.35.425-.562.925T11.1 10"/></svg>