<svg xmlns="http://www.w3.org/2000/svg" viewBox="0 0 24 24" width="24" height="24"><path fill="currentColor" d="M5.5 12.4L1.6 8.5l3.9-3.9l3.9 3.9zM9 22v-5q-1.525-.125-3.025-.363T3 16l.5-2q2.1.575 4.213.788T12 15t4.288-.213T20.5 14l.5 2q-1.475.4-2.975.638T15 17v5zM5.5 9.6l1.1-1.1l-1.1-1.1l-1.1 1.1zm4.375-3.475Q9 5.25 9 4t.875-2.125T12 1t2.125.875T15 4t-.875 2.125T12 7t-2.125-.875m.713 7.288Q10 12.825 10 12t.588-1.412T12 10t1.413.588T14 12t-.587 1.413T12 14t-1.412-.587m2.125-8.7Q13 4.424 13 4t-.288-.712T12 3t-.712.288T11 4t.288.713T12 5t.713-.288M17.05 12l-1.7-3l1.7-3h3.4l1.7 3l-1.7 3zm1.15-2h1.1l.55-1l-.55-1h-1.1l-.55 1zm.55-1"/></svg>