<svg xmlns="http://www.w3.org/2000/svg" viewBox="0 0 24 24" width="24" height="24"><path fill="currentColor" d="M17.55 12L14 8.45l1.425-1.4l2.125 2.125l4.25-4.25l1.4 1.425zM6.175 10.825Q5 9.65 5 8t1.175-2.825T9 4t2.825 1.175T13 8t-1.175 2.825T9 12t-2.825-1.175M1 20v-2.8q0-.85.438-1.562T2.6 14.55q1.55-.775 3.15-1.162T9 13t3.25.388t3.15 1.162q.725.375 1.163 1.088T17 17.2V20zm2-2h12v-.8q0-.275-.137-.5t-.363-.35q-1.35-.675-2.725-1.012T9 15t-2.775.338T3.5 16.35q-.225.125-.363.35T3 17.2zm7.413-8.587Q11 8.825 11 8t-.587-1.412T9 6t-1.412.588T7 8t.588 1.413T9 10t1.413-.587M9 8"/></svg>