<svg xmlns="http://www.w3.org/2000/svg" viewBox="0 0 24 24" width="24" height="24"><path fill="currentColor" d="M19.95 21q-3.125 0-6.175-1.362t-5.55-3.863t-3.862-5.55T3 4.05q0-.45.3-.75t.75-.3H8.1q.35 0 .625.238t.325.562l.65 3.5q.05.4-.025.675T9.4 8.45L6.975 10.9q.5.925 1.187 1.787t1.513 1.663q.775.775 1.625 1.438T13.1 17l2.35-2.35q.225-.225.588-.337t.712-.063l3.45.7q.35.075.575.35t.225.6v4.05q0 .45-.3.75t-.75.3M6.025 9l1.65-1.65L7.25 5H5.025q.125 1.025.35 2.025T6.025 9m8.95 8.95q.975.425 1.988.675T19 18.95v-2.2l-2.35-.475zM15.4 10L14 8.6l2.075-2.1L14 4.425L15.4 3l2.1 2.1L19.575 3L21 4.425L18.9 6.5L21 8.6L19.575 10L17.5 7.925z"/></svg>