<svg xmlns="http://www.w3.org/2000/svg" viewBox="0 0 24 24" width="24" height="24"><path fill="currentColor" d="M12 22q-3.475-.875-5.738-3.988T4 11.1V5l8-3l8 3v5h-2V6.375l-6-2.25l-6 2.25V11.1q0 3.025 1.7 5.5t4.3 3.3q.65-.2 1.238-.512t1.162-.738l1.4 1.4q-.825.675-1.787 1.175T12 22m8.288-.288Q20 21.426 20 21t.288-.712T21 20t.713.288T22 21t-.288.713T21 22t-.712-.288M20 18v-6h2v6zm-6.587-4.587Q14 12.825 14 12t-.587-1.412T12 10t-1.412.588T10 12t.588 1.413T12 14t1.413-.587M12 16q-1.65 0-2.825-1.175T8 12t1.175-2.825T12 8t2.825 1.175T16 12q0 .55-.137 1.063t-.413.987L18.425 17L17 18.425l-3-2.975q-.45.275-.962.413T12 16"/></svg>