<svg xmlns="http://www.w3.org/2000/svg" viewBox="0 0 24 24" width="24" height="24"><path fill="currentColor" d="M2 16v-2.8q0-.85.438-1.562T3.6 10.55q1.55-.775 3.15-1.162T10 9q1.125 0 2.225.175t2.2.55q-.425.35-.775.763t-.625.887q-.75-.2-1.5-.288T10 11q-1.4 0-2.775.338T4.5 12.35q-.225.125-.363.35T4 13.2v.8h8.075q-.05.5-.05 1t.05 1zm5.175-9.175Q6 5.65 6 4t1.175-2.825T10 0t2.825 1.175T14 4t-1.175 2.825T10 8T7.175 6.825m4.238-1.412Q12 4.825 12 4t-.587-1.412T10 2t-1.412.588T8 4t.588 1.413T10 6t1.413-.587m7.412 1.412Q17.65 8 16 8q-.275 0-.7-.062t-.7-.138q.675-.8 1.038-1.775T16 4t-.363-2.025T14.6.2q.35-.125.7-.163T16 0q1.65 0 2.825 1.175T20 4t-1.175 2.825M19 20q-2.075 0-3.537-1.463T14 15q0-2.1 1.463-3.55T19 10q2.1 0 3.55 1.45T24 15q0 2.075-1.45 3.538T19 20m-.7-2.75l3.525-3.55l-.7-.7l-2.825 2.825l-1.425-1.425l-.7.725z"/></svg>