<svg xmlns="http://www.w3.org/2000/svg" viewBox="0 0 24 24" width="24" height="24"><path fill="currentColor" d="M14.175 19.825Q13 18.65 13 17t1.175-2.825T17 13t2.825 1.175T21 17t-1.175 2.825T17 21t-2.825-1.175m4.238-1.412Q19 17.825 19 17t-.587-1.412T17 15t-1.412.588T15 17t.588 1.413T17 19t1.413-.587M4.175 16.825Q3 15.65 3 14t1.175-2.825T7 10t2.825 1.175T11 14t-1.175 2.825T7 18t-2.825-1.175m4.238-1.412Q9 14.825 9 14t-.587-1.412T7 12t-1.412.588T5 14t.588 1.413T7 16t1.413-.587m-.238-6.588Q7 7.65 7 6t1.175-2.825T11 2t2.825 1.175T15 6t-1.175 2.825T11 10T8.175 8.825m4.238-1.412Q13 6.825 13 6t-.587-1.412T11 4t-1.412.588T9 6t.588 1.413T11 8t1.413-.587M11 6"/></svg>