<svg xmlns="http://www.w3.org/2000/svg" viewBox="0 0 24 24"><path fill="currentColor" d="M4 18V6v5.3v-.3zm7.3 2H4q-.825 0-1.412-.587T2 18V6q0-.825.588-1.412T4 4h16q.825 0 1.413.588T22 6v6.275q-.45-.325-.95-.562T20 11.3V6H4v12h7q0 .525.075 1.025T11.3 20m3.162 1.538Q13 20.075 13 18t1.463-3.537T18 13t3.538 1.463T23 18t-1.463 3.538T18 23t-3.537-1.463M16.25 20h1v-4h-1zm2.5 0h1v-4h-1zm-7.275-4.55q.55-1.375 1.575-2.4t2.4-1.575q-.975-.45-1.912-1.375T12.2 7.65q-.05-.15-.2-.15t-.2.15q-.4 1.525-1.512 2.638T7.65 11.8q-.15.05-.15.2t.15.2q1.525.4 2.45 1.338t1.375 1.912"/></svg>