<svg xmlns="http://www.w3.org/2000/svg" viewBox="0 0 24 24"><path fill="currentColor" d="M14.425 9q-.35 0-.6-.2t-.35-.525l-1.425-5q-.125-.5.163-.887T13 2h6.575q.35 0 .6.2t.35.525l1.425 5q.125.5-.162.888T21 9zm.75-2h4.5L18.8 4h-4.475zM7.5 7q-.825 0-1.412-.587T5.5 5t.588-1.412T7.5 3t1.413.588T9.5 5t-.587 1.413T7.5 7M13 21H6.55q-.825 0-1.512-.587T4.175 19L2 8h2.05l2.2 11H13zm5.5 2l-2.9-5H8.65q-.725 0-1.263-.437T6.7 16.4l-1.1-5.35q-.25-1.2.575-2.125T8.2 8q.875 0 1.588.525T10.7 9.95L11.8 15h3.25q.525 0 .975.275t.725.725l3.5 6zM15.175 7l-.85-3z"/></svg>