<svg xmlns="http://www.w3.org/2000/svg" viewBox="0 0 24 24" width="24" height="24"><path fill="currentColor" d="M9.513 11.988Q8.5 10.975 8.5 9.5t1.013-2.488T12 6t2.488 1.013T15.5 9.5t-1.012 2.488T12 13t-2.488-1.012m3.563-1.413q.425-.425.425-1.075t-.425-1.075T12 8t-1.075.425T10.5 9.5t.425 1.075T12 11t1.075-.425M12 22q-3.475-.875-5.737-3.988T4 11.1V5l8-3l8 3v6.1q0 3.8-2.262 6.913T12 22m0-17.875l-6 2.25V11.1q0 1.35.375 2.625t1.025 2.4q1.05-.525 2.2-.825T12 15t2.4.3t2.2.825q.65-1.125 1.025-2.4T18 11.1V6.375zM10.25 17.2q-.85.2-1.625.55q.725.75 1.575 1.3t1.8.85q.95-.3 1.8-.85t1.575-1.3q-.775-.35-1.625-.55T12 17t-1.75.2"/></svg>