<svg xmlns="http://www.w3.org/2000/svg" viewBox="0 0 24 24" width="24" height="24"><path fill="currentColor" d="M5.55 22.025q-.8 0-1.537-.3t-1.313-.9l-.175-.175q-.225-.2-.287-.5t.062-.575L7.15 7.2q.2-.5.688-.762T8.85 6.3l1.45.275q.425.1.813-.062t.662-.438q.35-.375.463-.788t-.013-.837l-.125-.375q-.125-.4-.037-.812t.387-.713l1.075-1.075q.425-.45 1.063-.45t1.062.425l4.525 4.6q.55.575.563 1.363t-.513 1.362l.475.475q.15.175.263.363t.112.387q0 .175-.075.35t-.275.375q-.3.275-.712.288t-.713-.288l-.45-.475l-.7.725l.45.45q.275.275.275.7t-.275.7q-.3.275-.712.288t-.713-.288l-.45-.425l-2.8 2.85l.425.4q.3.3.3.713t-.3.712q-.3.275-.712.288t-.713-.288l-.4-.425l-.7.725l.4.4q.275.275.275.7t-.275.7q-.3.275-.712.287t-.713-.287l-.4-.375l-.7.7l.4.375q.275.3.275.713t-.275.712q-.3.275-.712.288t-.713-.288l-.4-.4q-.575.575-1.263.85t-1.462.275M4.125 14.95q.125-.275.2-.487l.075-.213l-.55 1.4l.088-.212q.087-.213.187-.488m.975-2.5q.125-.275.2-.487l.075-.213l-.55 1.4l.088-.213q.087-.212.187-.487m.975-2.5q.125-.275.2-.475l.075-.2l-.55 1.375l.088-.212q.087-.213.187-.488M5.55 20q.425 0 .788-.15t.637-.45L18.75 7.45L14.6 3.225l-.5.5q.3 1 .113 1.95T13.2 7.45q-.65.65-1.5.963t-1.775.112l-1.025-.2l-.625 1.525l.575.2q.275.125.4.4t.025.55q-.1.3-.375.45t-.575.025l-.6-.225l-.425 1.1l.475.175q.275.125.413.4t.037.55q-.1.3-.387.438t-.588.012l-.5-.175l-.425 1.1l.4.15q.275.125.4.388t.025.537q-.1.3-.387.45t-.588.025l-.4-.15l-1.35 3.4q.25.175.538.263T5.55 20m6.05-8.4"/></svg>