<svg xmlns="http://www.w3.org/2000/svg" viewBox="0 0 24 24"><path fill="currentColor" d="M7.625 18.925L1.8 17.8q-.425-.075-.65-.4T1 16.65q.075-.4.412-.637t.763-.163l6 1.125zm.95-3.4l-6.75-1.85q-.425-.1-.612-.45t-.063-.775q.125-.4.45-.6t.75-.1L9.1 13.6zm5.05-6.325L9.65 3.475q-.25-.35-.175-.738T9.9 2.1q.35-.225.738-.162t.662.412l3.975 5.775zm4.825 6.4l-1.525-1.475L18.9 12.9q.15-.075.238-.213t.137-.337L20.3 9l-2.2 2.425L14.375 2.4q-.175-.35-.012-.737T14.9 1.1q.4-.15.775 0t.55.525l2.525 6.1l1.15-1.3q.275-.3.65-.45t.8-.125q.425.05.775.238t.6.537l.275.4l-1.8 5.925q-.15.5-.45.913t-.725.687zm-3.175-.3L4.75 9.8q-.4-.2-.513-.587t.088-.763q.2-.35.588-.475t.762.05l4.9 2.575zM2.75 22.225q-.425-.05-.7-.363t-.225-.737t.363-.675t.737-.225L11.55 21q.725.075 1.325-.325t.8-1.125l.65-2.4L1.4 4.2l1.4-1.4l18.4 18.4l-1.4 1.4l-3.85-3.825l-.35 1.325q-.4 1.425-1.587 2.225T11.375 23zm14.175-8.1"/></svg>