<svg xmlns="http://www.w3.org/2000/svg" viewBox="0 0 24 24" width="24" height="24"><path fill="currentColor" d="M17 22H7q-.825 0-1.412-.587T5 20V4q0-.825.588-1.412T7 2h10q.825 0 1.413.588T19 4v16q0 .825-.587 1.413T17 22m0-2V4H7v16zM13.413 8.413Q14 7.825 14 7t-.587-1.412T12 5t-1.412.588T10 7t.588 1.413T12 9t1.413-.587m1.412 9.412Q16 16.65 16 15t-1.175-2.825T12 11t-2.825 1.175T8 15t1.175 2.825T12 19t2.825-1.175m-4.237-1.412Q10 15.824 10 15t.588-1.412T12 13t1.413.588T14 15t-.587 1.413T12 17t-1.412-.587M7 4v16z"/></svg>