<svg xmlns="http://www.w3.org/2000/svg" viewBox="0 0 24 24" width="24" height="24"><path fill="currentColor" d="M5.1 20q-.55 0-1.012-.238t-.738-.712q-.65-1.175-1-2.437T2 14q0-2.075.788-3.9t2.137-3.175T8.1 4.788T12 4q.575 0 1.15.075t1.15.2l-1.325 1.8q-.25-.05-.487-.062T12 6Q8.65 6 6.325 8.325T4 14q0 1.05.287 2.063T5.1 18h13.775q.55-.9.825-1.925T19.975 14q0-1.65-.638-3.15T17.5 8.225l.525-2.175q1.875 1.425 2.913 3.512T21.975 14q.025 1.35-.325 2.625t-1.025 2.425q-.275.475-.737.713T18.875 20zm6.075-4.2q.8.35 1.613.038T13.85 14.7q.725-2.425 1.313-4.85t1.062-4.9q-1.575 1.975-3.062 3.975T10.225 13q-.5.725-.2 1.575t1.15 1.225m.8-1.825"/></svg>