<svg xmlns="http://www.w3.org/2000/svg" viewBox="0 0 24 24" width="24" height="24"><path fill="currentColor" d="M5.125 20q-.55 0-1.012-.238t-.738-.712Q2.7 17.9 2.35 16.625T2.025 14q0-2.35 1.038-4.437T5.975 6.05L6.5 8.225Q5.3 9.35 4.663 10.85T4.025 14q0 1.05.275 2.075T5.125 18H18.9q.525-.925.813-1.937T20 14q0-3.35-2.325-5.675T12 6q-.25 0-.488.012t-.487.063L9.7 4.275q.575-.125 1.15-.2T12 4q2.075 0 3.9.788t3.175 2.137t2.138 3.175T22 14q0 1.35-.35 2.613t-1 2.437q-.275.475-.737.713T18.9 20zm7.7-4.2q.85-.375 1.15-1.225t-.2-1.575q-1.45-2.075-2.937-4.075T7.775 4.95q.475 2.475 1.063 4.9t1.312 4.85q.25.825 1.063 1.138t1.612-.038m-.8-1.825"/></svg>