<svg xmlns="http://www.w3.org/2000/svg" viewBox="0 0 24 24" width="24" height="24"><path fill="currentColor" d="M11 19q-2.5 0-4.25-1.75T5 13q0-.275.025-.55t.075-.55q-.125.05-.3.075T4.5 12q-1.05 0-1.775-.725T2 9.5t.688-1.775T4.425 7q.825 0 1.488.462T6.85 8.65q.825-.75 1.888-1.2T11 7h11v4h-5v2q0 2.5-1.75 4.25T11 19m-5.787-8.787Q5.5 9.925 5.5 9.5t-.288-.712T4.5 8.5t-.712.288T3.5 9.5t.288.713t.712.287t.713-.288m8.262 5.263Q14.5 14.45 14.5 13t-1.025-2.475T11 9.5t-2.475 1.025T7.5 13t1.025 2.475T11 16.5t2.475-1.025m-1.062-1.062Q13 13.825 13 13t-.587-1.412T11 11t-1.412.588T9 13t.588 1.413T11 15t1.413-.587M11 13"/></svg>