<svg xmlns="http://www.w3.org/2000/svg" viewBox="0 0 24 24" width="24" height="24"><path fill="currentColor" d="M1 13.75v-2h4v2zM6.35 8.5L3.5 5.675l1.425-1.4L7.75 7.1zM5.113 18.638q-.363-.363-.363-.888t.363-.888T6 16.5t.888.363t.362.887t-.363.888T6 19t-.888-.363M7 13.75v-1q0-2.075 1.463-3.537T12 7.75t3.538 1.463T17 12.75v1h-2v-1q0-1.25-.875-2.125T12 9.75t-2.125.875T9 12.75v1zm1.113 8.888q-.363-.363-.363-.888t.363-.888T9 20.5t.888.363t.362.887t-.363.888T9 23t-.888-.363m3-4q-.362-.362-.362-.887t.363-.888T12 16.5t.888.363t.362.887t-.363.888T12 19t-.888-.363M11 5.75v-4h2v4zm3.113 16.888q-.363-.363-.363-.888t.363-.888T15 20.5t.888.363t.362.887t-.363.888T15 23t-.888-.363M17.65 8.5l-1.425-1.4l2.85-2.825l1.4 1.4zm-.537 10.138q-.363-.363-.363-.888t.363-.888T18 16.5t.888.363t.362.887t-.363.888T18 19t-.888-.363M19 13.75v-2h4v2zm-7 0"/></svg>