<svg xmlns="http://www.w3.org/2000/svg" viewBox="0 0 24 24" width="24" height="24"><path fill="currentColor" d="M15.225 14.275Q14.5 13.55 14.5 12.5t.725-1.775T17 10t1.775.725t.725 1.775t-.725 1.775T17 15t-1.775-.725M12 20v-1.4q0-.6.313-1.112t.887-.738q.9-.375 1.863-.562T17 16t1.938.188t1.862.562q.575.225.888.738T22 18.6V20zm-4.825-9.175Q6 9.65 6 8t1.175-2.825T10 4t2.825 1.175T14 8t-1.175 2.825T10 12t-2.825-1.175M2 20v-2.8q0-.85.425-1.562T3.6 14.55q1.5-.75 3.113-1.15T10 13q.875 0 1.75.15t1.75.35l-.85.85l-.85.85q-.45-.125-.9-.162T10 15q-1.45 0-2.838.35t-2.662 1q-.25.125-.375.35T4 17.2v.8h6v2zm9.413-10.587Q12 8.825 12 8t-.587-1.412T10 6t-1.412.588T8 8t.588 1.413T10 10t1.413-.587"/></svg>