<svg xmlns="http://www.w3.org/2000/svg" viewBox="0 0 24 24" width="24" height="24"><path fill="currentColor" d="M8.125 21.213q-1.825-.788-3.187-2.15t-2.15-3.188T2 11.988t.788-3.875t2.15-3.175t3.187-2.15T12.013 2t3.875.788t3.175 2.15t2.15 3.175t.787 3.875t-.787 3.887t-2.15 3.188t-3.175 2.15t-3.875.787t-3.888-.787m6.8-4.775q1.425.437 2.675 1.262q1.15-1.15 1.775-2.613T20 12q0-3.35-2.325-5.675T12 4T6.325 6.325T4 12q0 1.625.612 3.1T6.4 17.7q1.25-.825 2.675-1.263T12 16t2.925.438M10 18.25q-.975.25-1.85.75q.875.5 1.85.75t2 .25t2-.25t1.85-.75q-.875-.5-1.85-.75T12 18t-2 .25M7 11q.425 0 .713-.288T8 10t-.288-.712T7 9t-.712.288T6 10t.288.713T7 11m3.713-3.287Q11 7.425 11 7t-.288-.712T10 6t-.712.288T9 7t.288.713T10 8t.713-.288M17 11q.425 0 .713-.288T18 10t-.288-.712T17 9t-.712.288T16 10t.288.713T17 11m-3.588 2.413Q14 12.825 14 12q0-.325-.1-.638t-.3-.562l1.35-3.4q.175-.4.013-.788T14.4 6.05q-.375-.175-.763-.012T13.1 6.6L11.75 10q-.75.125-1.25.688T10 12q0 .825.588 1.413T12 14t1.413-.587M12 18"/></svg>