<svg xmlns="http://www.w3.org/2000/svg" viewBox="0 0 24 24" width="24" height="24"><path fill="currentColor" d="M19 7.5q.425 0 .713-.288T20 6.5t-.288-.712T19 5.5t-.712.288T18 6.5t.288.713T19 7.5m-4 0q.425 0 .713-.288T16 6.5t-.288-.712T15 5.5t-.712.288T14 6.5t.288.713T15 7.5m-.5 3.4h5q0-.875-.763-1.388T17 9t-1.737.513T14.5 10.9M2.75 20.25Q1 18.5 1 16V9h12v7q0 2.5-1.75 4.25T7 22t-4.25-1.75m7.075-1.425Q11 17.65 11 16v-5H3v5q0 1.65 1.175 2.825T7 20t2.825-1.175M17 15q-.65 0-1.287-.137T14.5 14.45V12.1q.55.425 1.188.663T17 13q1.65 0 2.825-1.175T21 9V4h-8v3.5h-2V2h12v7q0 2.5-1.75 4.25T17 15m-12-.5q.425 0 .713-.288T6 13.5t-.288-.712T5 12.5t-.712.288T4 13.5t.288.713T5 14.5m4.713-.288Q10 13.926 10 13.5t-.288-.712T9 12.5t-.712.288T8 13.5t.288.713T9 14.5t.713-.288m-.975 3.176Q9.5 16.874 9.5 16h-5q0 .875.763 1.388T7 17.9t1.738-.512M17 8.5"/></svg>