<svg xmlns="http://www.w3.org/2000/svg" viewBox="0 0 24 24" width="24" height="24"><path fill="currentColor" d="M9 17.25h4q.825 0 1.413-.587T15 15.25V14q0-.825-.587-1.412T13 12h-2v-1.25h4v-2H9V14h4v1.25H9zM9 3V1h6v2zm-.488 18.288q-1.637-.713-2.862-1.938t-1.937-2.863T3 13t.713-3.488T5.65 6.65t2.863-1.937T12 4q1.55 0 2.975.5t2.675 1.45l1.4-1.4l1.4 1.4l-1.4 1.4Q20 8.6 20.5 10.025T21 13q0 1.85-.713 3.488T18.35 19.35t-2.863 1.938T12 22t-3.488-.712m8.438-3.338Q19 15.9 19 13t-2.05-4.95T12 6T7.05 8.05T5 13t2.05 4.95T12 20t4.95-2.05M12 13"/></svg>