<svg xmlns="http://www.w3.org/2000/svg" viewBox="0 0 24 24" width="24" height="24"><path fill="currentColor" d="M3.25 20.75L2.175 19.7L6 15.925q-.7-.8-1.25-1.65T3.775 12.5h1.5q.35.675.775 1.3T7 15q.8-.9 1.4-1.9t.975-2.1H1V9.5h5.25V8h1.5v1.5h5.45V11h-2.4q-.425 1.35-1.113 2.575T8.025 15.9q.35.425.938.988t.937.912l-.575 1.525q-.425-.4-1.125-1.088T7 17zM9.125 23l3.375-9h1.625l3.375 9h-1.55l-.825-2.3H11.5l-.8 2.3zm2.85-3.6h2.675l-1.35-3.8zM15 13v-1.5h6.5v-9h-13v4H7v-4q0-.625.425-1.062T8.5 1h13q.65 0 1.075.438T23 2.5v9q0 .625-.425 1.063T21.5 13zm6.5-1.5v-9zM9.75 8h1.5V5.5h1.5V6h1.5V5q0-.425-.288-.712T13.25 4h-2.5q-.425 0-.712.288T9.75 5zm7 2h2.5q.425 0 .713-.288T20.25 9V8h-1.5v.5h-1.5v-3h1.5V6h1.5V5q0-.425-.288-.712T19.25 4h-2.5q-.425 0-.712.288T15.75 5v4q0 .425.288.713t.712.287"/></svg>