<svg xmlns="http://www.w3.org/2000/svg" viewBox="0 0 24 24" width="24" height="24"><path fill="currentColor" d="M12 12q-.425 0-.712-.288T11 11t.288-.712T12 10t.713.288T13 11t-.288.713T12 12m-1.575 5l-1.35 1.35q.675.325 1.4.488T12 19t1.525-.162t1.4-.488L13.6 17zM12 5q-1.45 0-2.725.55T7.05 7.05t-1.5 2.225T5 12q0 1.575.638 2.925t1.737 2.3l1.4-1.4q-.8-.7-1.287-1.687T7 12q0-2.075 1.463-3.537T12 7t3.538 1.463T17 12q0 1.15-.488 2.138t-1.287 1.687l1.4 1.4q1.1-.95 1.738-2.3T19 12q0-1.45-.55-2.725t-1.5-2.225t-2.225-1.5T12 5m0 4q-1.25 0-2.125.875T9 12t.875 2.125T12 15t2.125-.875T15 12t-.875-2.125T12 9m0 12q-1.875 0-3.512-.712t-2.85-1.925t-1.925-2.85T3 12t.713-3.512t1.924-2.85t2.85-1.925T12 3t3.513.713t2.85 1.924t1.925 2.85T21 12t-.712 3.513t-1.925 2.85t-2.85 1.925T12 21"/></svg>