<svg xmlns="http://www.w3.org/2000/svg" viewBox="0 0 24 24" width="24" height="24"><path fill="currentColor" d="m4.825 22.575l-1.675-1.1q1.125-2.2 1.475-4.6T4.975 12q0-2.45-.35-4.85T3.15 2.55l1.675-1.1q.325.625.588 1.262T5.875 4H8q1.65.025 2.825 1.188T12 8.025v8q0 1.65-1.175 2.825T8 20.025H5.875q-.2.65-.463 1.288t-.587 1.262M18 16l-4-4l4-4l1.4 1.425L17.825 11H22v2h-4.175l1.575 1.6zM6.425 18H8q.825 0 1.412-.587T10 16V8q0-.825-.587-1.412T8 6H6.4q.325 1.475.463 2.988T7 12q0 1.525-.125 3.025T6.425 18M7 12"/></svg>