<svg xmlns="http://www.w3.org/2000/svg" viewBox="0 0 24 24" width="24" height="24"><path fill="currentColor" d="M17.5 4q1.75 1.55 2.625 2.863T21 9.3q0 1.5-1 2.6T17.5 13T15 11.9t-1-2.6q0-1.05.925-2.45T17.5 4m0 2.775q-.675.725-1.088 1.413T16 9.3q0 .675.425 1.188T17.5 11t1.075-.513T19 9.3q0-.425-.413-1.112T17.5 6.775M12 22q-3.425 0-5.712-2.35T4 13.8q0-2.5 1.988-5.437T12 2q1.35 1.15 2.475 2.25T16.5 6.4q-.175.225-.625.85t-.575.825q-.675-.8-1.487-1.662T12 4.65Q9.025 7.375 7.513 9.675T6 13.8q0 2.675 1.7 4.438T12 20q1.3 0 2.4-.475t1.9-1.3t1.25-1.963T18 13.8q0-.425-.088-.9t-.262-.975q.225-.125.888-.475t.887-.475q.275.725.425 1.438T20 13.8q0 3.5-2.287 5.85T12 22m.275-3q.3-.025.513-.238T13 18.25q0-.35-.225-.562T12.2 17.5q-1.025.075-2.175-.562t-1.45-2.313q-.05-.275-.262-.45T7.825 14q-.35 0-.575.263t-.15.612q.425 2.275 2 3.25t3.175.875M17.5 8.875"/></svg>