<svg xmlns="http://www.w3.org/2000/svg" viewBox="0 0 24 24" width="24" height="24"><path fill="currentColor" d="M7 19q-.825 0-1.412-.587T5 17V7q0-.825.588-1.412T7 5h10q.825 0 1.413.588T19 7v10q0 .825-.587 1.413T17 19zm0 2h10q1.65 0 2.825-1.175T21 17V7q0-1.65-1.175-2.825T17 3H7Q5.35 3 4.175 4.175T3 7v10q0 1.65 1.175 2.825T7 21m.275-9.475L5.9 10.15q1.05-1.275 2.713-1.963T12 7.5q1.675 0 3.35.688t2.725 1.962L16.7 11.525q-.875-.95-2.087-1.487T12 9.5t-2.613.538t-2.112 1.487m2.85 2.85L8.7 12.95q.65-.7 1.513-1.075t1.812-.375t1.787.375T15.3 12.95l-1.4 1.425q-.35-.375-.863-.625T12 13.5t-1.025.25t-.85.625m1.163 2.338Q11 16.425 11 16t.288-.712T12 15t.713.288T13 16t-.288.713T12 17t-.712-.288M12 12"/></svg>