<svg xmlns="http://www.w3.org/2000/svg" viewBox="0 0 24 24" width="24" height="24"><path fill="currentColor" d="M3.175 19.825Q2 18.65 2 17t1.175-2.825T6 13t2.825 1.175T10 17t-1.175 2.825T6 21t-2.825-1.175m12 0Q14 18.65 14 17t1.175-2.825T18 13t2.825 1.175T22 17t-1.175 2.825T18 21t-2.825-1.175m-7.762-1.412Q8 17.825 8 17t-.587-1.412T6 15t-1.412.588T4 17t.588 1.413T6 19t1.413-.587m12 0Q20 17.825 20 17t-.587-1.412T18 15t-1.412.588T16 17t.588 1.413T18 19t1.413-.587M9.175 9.825Q8 8.65 8 7t1.175-2.825T12 3t2.825 1.175T16 7t-1.175 2.825T12 11T9.175 9.825m4.238-1.412Q14 7.825 14 7t-.587-1.412T12 5t-1.412.588T10 7t.588 1.413T12 9t1.413-.587M6 17"/></svg>