<svg xmlns="http://www.w3.org/2000/svg" viewBox="0 0 24 24" width="24" height="24"><path fill="currentColor" d="M19 20v-2h-2v-2h2v-2h2v2h2v2h-2v2zM12 5l1 .013q1 .012 2.313.05t2.6.125t1.887.237q.65.175 1.125.638t.65 1.112q.275.975.338 2.3T21.975 12H20q0-.925-.075-2.262T19.65 7.7q-.05-.125-.15-.213t-.225-.137q-.6-.15-2.85-.25T12 7q-2.2 0-4.45.1t-2.85.25q-.125.05-.213.15t-.137.225q-.2.725-.275 2.063T4 12t.075 2.225t.275 2.075q.05.125.137.213t.213.137q.6.15 2.85.25T12 17h1.488q.762 0 1.512-.025v1.975q-.525.025-1.062.038t-.963.012H12q-1.775 0-3.325-.05q-1.325-.025-2.613-.112T4.176 18.6q-.65-.175-1.125-.65t-.65-1.125q-.15-.6-.238-1.425t-.112-1.575Q2 12.925 2 12t.05-1.8q.025-.775.113-1.588T2.4 7.2q.175-.65.65-1.125t1.125-.65q.6-.15 1.888-.238t2.612-.137Q10.225 5 12 5m-2 10l5.2-3L10 9z"/></svg>