<svg xmlns="http://www.w3.org/2000/svg" viewBox="0 0 24 24"><path fill="currentColor" d="M13.25 17.025q-.425 0-.712-.287t-.288-.713V8q0-.425.288-.712T13.25 7h2.325Q18 7 19.288 8.288T20.575 12t-1.3 3.725t-3.7 1.3zm.875-1.8H15.5q1.65 0 2.425-.787T18.7 12t-.775-2.437t-2.425-.788h-1.375zM6.9 17.25q-1.125 0-1.95-.437T3.725 15.5q-.175-.35-.025-.725t.5-.55t.713-.038t.562.488q.2.4.563.613t.862.212q.7 0 1.125-.387t.425-1.063q0-.65-.45-1.075t-1.275-.425h-.05q-.35 0-.575-.225t-.225-.575t.225-.575t.575-.225q.75 0 1.125-.35t.375-.925t-.363-.912t-.962-.338q-.45 0-.775.2t-.525.55q-.175.35-.525.45t-.7-.075t-.45-.525t.075-.7q.15-.3.362-.537T4.8 7.35q.4-.275.925-.425t1.15-.15q1.375 0 2.238.688t.862 2.012q0 .75-.337 1.263t-.888.862v.1q.75.275 1.15.975t.4 1.525q0 1.475-.937 2.263T6.9 17.25"/></svg>