<svg xmlns="http://www.w3.org/2000/svg" viewBox="0 0 24 24" width="24" height="24"><path fill="currentColor" d="M15.888 2.788q1.812.787 3.175 2.15t2.15 3.175t.787 3.875t-.787 3.887t-2.15 3.188t-3.175 2.15t-3.875.787t-3.888-.787t-3.187-2.15t-2.15-3.188T2 11.988t.788-3.875t2.15-3.175t3.187-2.15T12.013 2t3.875.788M10 7q0 .825.588 1.413T12 9t1.413-.587T14 7t-.587-1.412T12 5t-1.412.588T10 7m-1.075 3.538Q7.5 11.075 7.5 12.5v4q0 1.425 1.425 1.938T12 18.95q.425 0 .713-.288T13 17.95t-.288-.712T12 16.95q-.5.05-.975-.05t-.95-.3q-.275-.125-.35-.388t.1-.462q.425-.425 1-.588T12 15q.925 0 1.713.325t.787 1.125v.85q0 .3.213.525t.512.225q.575 0 .925-.475t.35-1.075v-4q0-1.425-1.425-1.963T12 10t-3.075.538m2.188 3.6q-.363-.363-.363-.888t.363-.888T12 12t.888.363t.362.887t-.363.888T12 14.5t-.888-.363"/></svg>