<svg xmlns="http://www.w3.org/2000/svg" viewBox="0 0 24 24"><path fill="currentColor" d="M18 19h-2q-.425 0-.712-.288T15 18t.288-.712T16 17h2v-2q0-.425.288-.712T19 14t.713.288T20 15v2h2q.425 0 .713.288T23 18t-.288.713T22 19h-2v2q0 .425-.288.713T19 22t-.712-.288T18 21zm-8.475-3.575q.45.45 1.063.45t1.062-.45l5.3-5.3q.3-.3.3-.712t-.3-.688q-.3-.3-.712-.3t-.713.3l-4.95 4.95L8.45 11.55q-.3-.3-.7-.3t-.7.3t-.3.7t.3.7zM9.975 20q-3.35 0-5.687-2.325T1.95 12q0-3.325 2.338-5.663T9.974 4H14q2.525 0 4.525 1.375t2.9 3.575q.275.65.413 1.338t.187 1.387q.025.4-.325.613t-.75.062q-.45-.15-.95-.237t-1-.088q-1.25 0-2.35.475t-1.9 1.275q-1.025 1.025-1.462 2.35t-.238 2.7q.05.45-.225.813t-.7.362z"/></svg>