<svg xmlns="http://www.w3.org/2000/svg" viewBox="0 0 24 24" width="24" height="24"><path fill="currentColor" d="M18.5 10q-.15 0-.2-.15q-.4-1.525-1.513-2.637T14.15 5.7Q14 5.65 14 5.5q0-.175.15-.2q1.525-.4 2.638-1.513T18.3 1.15q.05-.15.2-.15t.2.15q.4 1.525 1.513 2.638T22.85 5.3q.15.025.15.2q0 .15-.15.2q-1.525.4-2.637 1.513T18.7 9.85q-.025.15-.2.15M17 21H7q-1.65 0-2.825-1.175T3 17V7q0-1.65 1.175-2.825T7 3h4.675q.3 0 .475.238t.075.537q-.45 1.675-.025 3.363t1.7 2.962t2.963 1.7t3.362-.025q.3-.075.538.088t.237.462V17q0 1.65-1.175 2.825T17 21"/></svg>