<svg xmlns="http://www.w3.org/2000/svg" viewBox="0 0 24 24"><path fill="currentColor" d="M3.7 20.3q-.475.475-1.088.213T2 19.575V13q0-.425.288-.712T3 12t.713.288T4 13v4.125l.85-.85q.125-.125.313-.2T5.55 16H7q.425 0 .713.288T8 17t-.288.713T7 18H6zM17 18q-.425 0-.712-.288T16 17t.288-.712T17 16h3v-3.025q0-.425.288-.7T21 12t.713.288T22 13v3q0 .825-.587 1.413T20 18zm-5.712-3.287Q11 14.425 11 14V6q0-.425.288-.712T12 5t.713.288T13 6v8q0 .425-.288.713T12 15t-.712-.288m-4-2Q7 12.426 7 12V8q0-.425.288-.712T8 7t.713.288T9 8v4q0 .425-.288.713T8 13t-.712-.288m8-1Q15 11.426 15 11V9q0-.425.288-.712T16 8t.713.288T17 9v2q0 .425-.288.713T16 12t-.712-.288M3 8q-.425 0-.712-.288T2 7V4q0-.825.588-1.412T4 2h3q.425 0 .713.288T8 3t-.288.713T7 4H4v3.025q0 .425-.288.7T3 8m17.288-.288Q20 7.426 20 7V4h-3q-.425 0-.712-.288T16 3t.288-.712T17 2h3q.825 0 1.413.588T22 4v3.025q0 .425-.288.7T21 8t-.712-.288"/></svg>