<svg xmlns="http://www.w3.org/2000/svg" viewBox="0 0 24 24" width="24" height="24"><path fill="currentColor" d="M14.363 4.638Q14 4.275 14 3.75t.363-.888t.887-.362t.888.363t.362.887t-.363.888T15.25 5t-.888-.363m0 16.5Q14 20.776 14 20.25t.363-.888t.887-.362t.888.363t.362.887t-.363.888t-.887.362t-.888-.363m4-13Q18 7.775 18 7.25t.363-.888T19.25 6t.888.363t.362.887t-.363.888t-.887.362t-.888-.363m0 9.5Q18 17.276 18 16.75t.363-.888t.887-.362t.888.363t.362.887t-.363.888t-.887.362t-.888-.363m1.5-4.75Q19.5 12.526 19.5 12t.363-.888t.887-.362t.888.363T22 12t-.363.888t-.887.362t-.888-.363M4.613 5.25q2.613-2.825 6.413-3.2q.4-.05.688.238T12 3q0 .4-.262.7t-.663.35q-3.025.35-5.05 2.6T4 12q0 3.125 2.025 5.363t5.05 2.587q.4.05.663.35T12 21q0 .425-.288.713t-.687.237Q7.2 21.575 4.6 18.75T2 12t2.613-6.75m5.975 8.163Q10 12.825 10 12q0-.125.013-.262t.062-.263L8.7 10.1q-.275-.275-.275-.7t.275-.7t.7-.275t.7.275l1.375 1.375q.1-.025.525-.075q.825 0 1.413.588T14 12t-.587 1.413T12 14t-1.412-.587"/></svg>