<svg xmlns="http://www.w3.org/2000/svg" viewBox="0 0 24 24" width="24" height="24"><path fill="currentColor" d="M5.713 20.713Q5.425 21 5 21H2q-.425 0-.712-.288T1 20v-3q0-.425.288-.712T2 16t.713.288T3 17v2h2q.425 0 .713.288T6 20t-.288.713m17-4.426Q23 16.575 23 17v3q0 .425-.288.713T22 21h-3q-.425 0-.712-.288T18 20t.288-.712T19 19h2v-2q0-.425.288-.712T22 16t.713.288M4.5 18q-.2 0-.35-.15T4 17.5v-11q0-.2.15-.35T4.5 6h1q.2 0 .35.15T6 6.5v11q0 .2-.15.35T5.5 18zm2.65-.15Q7 17.7 7 17.5v-11q0-.2.15-.35T7.5 6t.35.15t.15.35v11q0 .2-.15.35T7.5 18t-.35-.15m3.35.15q-.2 0-.35-.15T10 17.5v-11q0-.2.15-.35T10.5 6h1q.2 0 .35.15t.15.35v11q0 .2-.15.35t-.35.15zm3 0q-.2 0-.35-.15T13 17.5v-11q0-.2.15-.35T13.5 6h2q.2 0 .35.15t.15.35v11q0 .2-.15.35t-.35.15zm3.65-.15Q17 17.7 17 17.5v-11q0-.2.15-.35T17.5 6t.35.15t.15.35v11q0 .2-.15.35t-.35.15t-.35-.15m2 0Q19 17.7 19 17.5v-11q0-.2.15-.35T19.5 6t.35.15t.15.35v11q0 .2-.15.35t-.35.15t-.35-.15M5.713 4.712Q5.425 5 5 5H3v2q0 .425-.288.713T2 8t-.712-.288T1 7V4q0-.425.288-.712T2 3h3q.425 0 .713.288T6 4t-.288.713m12.576-1.425Q18.575 3 19 3h3q.425 0 .713.288T23 4v3q0 .425-.288.713T22 8t-.712-.288T21 7V5h-2q-.425 0-.712-.288T18 4t.288-.712"/></svg>