<svg xmlns="http://www.w3.org/2000/svg" viewBox="0 0 24 24" width="24" height="24"><path fill="currentColor" d="M4.006 18q-1.253 0-2.13-.875Q1 16.25 1 15V9q0-1.25.879-2.125T4.012 6h9.161q.427 0 .715.288t.287.712t-.288.713t-.714.287H4.005q-.427 0-.716.288Q3 8.575 3 9v6q0 .425.288.713q.288.287.714.287h9.746q.501 0 .739.313t.238.687t-.237.688t-.739.312zm.997-3q-.426 0-.715-.288Q4 14.426 4 14v-4q0-.425.289-.712T5.002 9H11.2q.351 0 .589.238t.262.587q.075 1.125.3 2.138t.6 1.887q.175.425-.05.788T12.25 15zM18.1 16.8q-.2-.05-.375-.15q-1.6-.875-2.588-2.8t-1.112-4.275q-.025-.25.138-.437t.412-.238q.775-.175 1.6-.55t1.75-.95q.275-.175.575-.175t.575.175q.925.6 1.763.962t1.612.538q.25.05.388.238t.137.437q-.125 2.375-1.137 4.288T19.25 16.65q-.175.1-.363.15t-.387.05t-.4-.05m.4-2.025q.875-.575 1.5-1.7t.875-2.55q-.575-.2-1.162-.488T18.5 9.375z"/></svg>