<svg xmlns="http://www.w3.org/2000/svg" viewBox="0 0 24 24" width="24" height="24"><path fill="currentColor" d="M6.075 17.075Q6.5 16.65 6.5 16t-.425-1.075T5 14.5t-1.075.425T3.5 16t.425 1.075T5 17.5t1.075-.425m3.638-4.362Q10 12.424 10 12t-.288-.712T9 11t-.712.288T8 12t.288.713T9 13t.713-.288m0-4Q10 8.426 10 8t-.288-.712T9 7t-.712.288T8 8t.288.713T9 9t.713-.288m-3.638.363Q6.5 8.65 6.5 8t-.425-1.075T5 6.5t-1.075.425T3.5 8t.425 1.075T5 9.5t1.075-.425m0 4Q6.5 12.65 6.5 12t-.425-1.075T5 10.5t-1.075.425T3.5 12t.425 1.075T5 13.5t1.075-.425m3.638 3.638Q10 16.425 10 16t-.288-.712T9 15t-.712.288T8 16t.288.713T9 17t.713-.288m7.65-.35q.137-.137.137-.362t-.137-.363T17 15.5t-.363.138T16.5 16t.138.363t.362.137t.363-.137m0-8Q17.5 8.225 17.5 8t-.137-.363T17 7.5t-.363.138T16.5 8t.138.363T17 8.5t.363-.137m0 4q.137-.138.137-.363t-.137-.363T17 11.5t-.363.138T16.5 12t.138.363t.362.137t.363-.137m-3.65-3.65Q14 8.425 14 8t-.288-.712T13 7t-.712.288T12 8t.288.713T13 9t.713-.288m0 4Q14 12.426 14 12t-.288-.712T13 11t-.712.288T12 12t.288.713T13 13t.713-.288m0 4Q14 16.426 14 16t-.288-.712T13 15t-.712.288T12 16t.288.713T13 17t.713-.288M21 4v16q0 .425-.288.713T20 21H4q-.425 0-.712-.288T3 20V4q0-.425.288-.712T4 3h16q.425 0 .713.288T21 4"/></svg>