<svg xmlns="http://www.w3.org/2000/svg" viewBox="0 0 24 24" width="24" height="24"><path fill="currentColor" d="m19.1 21.9l-17-17q-.275-.275-.275-.7t.275-.7t.7-.275t.7.275l17 17q.275.275.275.7t-.275.7t-.7.275t-.7-.275m-9.45-.55Q9.5 21.2 9.5 21t.15-.35t.35-.15t.35.15t.15.35t-.15.35t-.35.15t-.35-.15m4 0q-.15-.15-.15-.35t.15-.35t.35-.15t.35.15t.15.35t-.15.35t-.35.15t-.35-.15m-8.362-2.637Q5 18.425 5 18t.288-.712T6 17t.713.288T7 18t-.288.713T6 19t-.712-.288m4 0Q9 18.426 9 18t.288-.712T10 17t.713.288T11 18t-.288.713T10 19t-.712-.288m4 0Q13 18.426 13 18t.288-.712T14 17t.713.288T15 18t-.288.713T14 19t-.712-.288m-4.363-3.637Q8.5 14.65 8.5 14t.425-1.075T10 12.5t1.075.425T11.5 14t-.425 1.075T10 15.5t-1.075-.425m-3.637-.362Q5 14.425 5 14t.288-.712T6 13t.713.288T7 14t-.288.713T6 15t-.712-.288m12.512.263l-.775-.775q-.1-.5.213-.85T18 13q.425 0 .713.288T19 14q0 .45-.35.763t-.85.212M2.65 14.35Q2.5 14.2 2.5 14t.15-.35t.35-.15t.35.15t.15.35t-.15.35t-.35.15t-.35-.15m18 0q-.15-.15-.15-.35t.15-.35t.35-.15t.35.15t.15.35t-.15.35t-.35.15t-.35-.15m-6.35-2.9L12.55 9.7q.125-.525.5-.862T14 8.5q.65 0 1.075.425T15.5 10q0 .575-.35.963t-.85.487m-9.013-.737Q5 10.425 5 10t.288-.712T6 9t.713.288T7 10t-.288.713T6 11t-.712-.288m12 0Q17 10.426 17 10t.288-.712T18 9t.713.288T19 10t-.288.713T18 11t-.712-.288M2.65 10.35Q2.5 10.2 2.5 10t.15-.35T3 9.5t.35.15t.15.35t-.15.35t-.35.15t-.35-.15m18 0q-.15-.15-.15-.35t.15-.35t.35-.15t.35.15t.15.35t-.15.35t-.35.15t-.35-.15m-7.362-3.637Q13 6.425 13 6t.288-.712T14 5t.713.288T15 6t-.288.713T14 7t-.712-.288m-3.463.263l-.8-.8q-.075-.5.225-.837T10 5q.425 0 .713.288T11 6q0 .45-.337.75t-.838.225m7.463-.262Q17 6.424 17 6t.288-.712T18 5t.713.288T19 6t-.288.713T18 7t-.712-.288M9.65 3.35Q9.5 3.2 9.5 3t.15-.35t.35-.15t.35.15t.15.35t-.15.35t-.35.15t-.35-.15m4 0Q13.5 3.2 13.5 3t.15-.35t.35-.15t.35.15t.15.35t-.15.35t-.35.15t-.35-.15"/></svg>