<svg xmlns="http://www.w3.org/2000/svg" viewBox="0 0 24 24" width="24" height="24"><path fill="currentColor" d="M19.288 8.713Q19 8.425 19 8t.288-.712T20 7t.713.288T21 8t-.288.713T20 9t-.712-.288m0 4Q19 12.426 19 12t.288-.712T20 11t.713.288T21 12t-.288.713T20 13t-.712-.288m0 4Q19 16.426 19 16t.288-.712T20 15t.713.288T21 16t-.288.713T20 17t-.712-.288m-12 4Q7 20.426 7 20t.288-.712T8 19t.713.288T9 20t-.288.713T8 21t-.712-.288m4 0Q11 20.426 11 20t.288-.712T12 19t.713.288T13 20t-.288.713T12 21t-.712-.288m4 0Q15 20.426 15 20t.288-.712T16 19t.713.288T17 20t-.288.713T16 21t-.712-.288m4 0Q19 20.426 19 20t.288-.712T20 19t.713.288T21 20t-.288.713T20 21t-.712-.288M3 20V5q0-.825.588-1.412T5 3h15q.425 0 .713.288T21 4t-.288.713T20 5H5v15q0 .425-.288.713T4 21t-.712-.288T3 20"/></svg>