<svg xmlns="http://www.w3.org/2000/svg" viewBox="0 0 24 24" width="24" height="24"><path fill="currentColor" d="M11.288 8.713Q11 8.425 11 8t.288-.712T12 7t.713.288T13 8t-.288.713T12 9t-.712-.288m-4 4Q7 12.426 7 12t.288-.712T8 11t.713.288T9 12t-.288.713T8 13t-.712-.288m4 0Q11 12.426 11 12t.288-.712T12 11t.713.288T13 12t-.288.713T12 13t-.712-.288m4 0Q15 12.426 15 12t.288-.712T16 11t.713.288T17 12t-.288.713T16 13t-.712-.288m-4 4Q11 16.426 11 16t.288-.712T12 15t.713.288T13 16t-.288.713T12 17t-.712-.288m-8-8Q3 8.425 3 8t.288-.712T4 7t.713.288T5 8t-.288.713T4 9t-.712-.288m16 0Q19 8.426 19 8t.288-.712T20 7t.713.288T21 8t-.288.713T20 9t-.712-.288m-16 4Q3 12.426 3 12t.288-.712T4 11t.713.288T5 12t-.288.713T4 13t-.712-.288m16 0Q19 12.426 19 12t.288-.712T20 11t.713.288T21 12t-.288.713T20 13t-.712-.288m-16 4Q3 16.426 3 16t.288-.712T4 15t.713.288T5 16t-.288.713T4 17t-.712-.288m16 0Q19 16.426 19 16t.288-.712T20 15t.713.288T21 16t-.288.713T20 17t-.712-.288m-16 4Q3 20.426 3 20t.288-.712T4 19t.713.288T5 20t-.288.713T4 21t-.712-.288m4 0Q7 20.426 7 20t.288-.712T8 19t.713.288T9 20t-.288.713T8 21t-.712-.288m4 0Q11 20.426 11 20t.288-.712T12 19t.713.288T13 20t-.288.713T12 21t-.712-.288m4 0Q15 20.426 15 20t.288-.712T16 19t.713.288T17 20t-.288.713T16 21t-.712-.288m4 0Q19 20.426 19 20t.288-.712T20 19t.713.288T21 20t-.288.713T20 21t-.712-.288M4 5q-.425 0-.712-.288T3 4t.288-.712T4 3h16q.425 0 .713.288T21 4t-.288.713T20 5z"/></svg>