<svg xmlns="http://www.w3.org/2000/svg" viewBox="0 0 24 24" width="24" height="24"><path fill="currentColor" d="M7 22H6q-.425 0-.712-.288T5 21v-1q-.825 0-1.412-.587T3 18V7q0-.825.588-1.412T5 5q0-.825.588-1.412T7 3h6.375q-.125.35-.213.725t-.137.775H7V6h6.075q.1.475.275.975T13.8 8H5v4h12.1l.6.5q.575.5 1.3.5t1.3-.5q.2-.175.45-.062t.25.387V18q0 .825-.587 1.413T19 20v1q0 .425-.288.713T18 22h-1q-.425 0-.712-.288T16 21v-1H8v1q0 .425-.288.713T7 22M18.288 5.712Q18 5.425 18 5t.288-.712T19 4t.713.288T20 5t-.288.713T19 6t-.712-.288M7 17h2q.425 0 .713-.288T10 16t-.288-.712T9 15H7q-.425 0-.712.288T6 16t.288.713T7 17m8 0h2q.425 0 .713-.288T18 16t-.288-.712T17 15h-2q-.425 0-.712.288T14 16t.288.713T15 17m4-16q-1.675 0-2.838 1.2T15 5.1q0 1.15.85 2.488t2.575 2.912q.25.225.575.213t.575-.213Q21.3 8.925 22.15 7.588T23 5.1q0-1.7-1.162-2.9T19 1"/></svg>