<svg xmlns="http://www.w3.org/2000/svg" viewBox="0 0 24 24" width="24" height="24"><path fill="currentColor" d="M8.563 16.563Q9 16.125 9 15.5t-.437-1.062T7.5 14t-1.062.438T6 15.5t.438 1.063T7.5 17t1.063-.437m7 0Q16 16.125 16 15.5t-.437-1.062T14.5 14t-1.062.438T13 15.5t.438 1.063T14.5 17t1.063-.437M5 22q-.425 0-.712-.288T4 21v-2.05q-.45-.5-.725-1.112T3 16.5V7q0-2.075 1.925-3.037T11 3q.325 0 .625.013t.575.012q.425.025.7.375t.175.8q-.05.3-.062.613t.012.637t.075.625t.15.6q.15.5-.113.913T12.375 8H5v3h11.55q.2 0 .363.113t.237.312q.225.5.6.85t.85.55q.175.075.288.213t.112.337V16.5q0 .725-.275 1.338T18 18.95V21q0 .425-.288.713T17 22h-1q-.425 0-.712-.288T15 21v-1H7v1q0 .425-.288.713T6 22zM19.713 5.712Q20 5.425 20 5t-.288-.712T19 4t-.712.288T18 5t.288.713T19 6t.713-.288M19 11q-2.025-1.725-3.012-3.187T15 5.1q0-1.7 1.163-2.9T19 1t2.838 1.2T23 5.1q0 1.25-.987 2.713T19 11"/></svg>