<svg xmlns="http://www.w3.org/2000/svg" viewBox="0 0 24 24" width="24" height="24"><path fill="currentColor" d="M6.425 18.6q0-.425.275-.7l4.3-4.3V6.875L9.125 8.75q-.3.3-.7.3t-.7-.3t-.3-.712t.3-.713l3.575-3.6q.15-.15.325-.213T12 3.45t.375.062t.325.213l3.625 3.625q.3.3.3.7t-.3.7t-.712.3t-.713-.3L13 6.875v6.7q0 .4-.15.763t-.425.637L8.1 19.3q-.275.275-.7.275t-.7-.275t-.275-.7m10.875.725q-.275.275-.7.275t-.7-.275l-1.8-1.775q-.3-.3-.3-.7t.3-.7t.712-.3t.713.3l1.775 1.775q.275.275.287.688t-.287.712"/></svg>