<svg xmlns="http://www.w3.org/2000/svg" viewBox="0 0 24 24" width="24" height="24"><path fill="currentColor" d="M17.9 7.375q-.325-.325-.5-.775t-.175-.95q0-.225.038-.425t.112-.375q.125-.325.45-.475t.625 0q.275.125.388.4t-.038.55q-.05.075-.062.15t-.013.175q0 .225.075.413t.275.387q.275.275.45.663t.225.812q.05.275.013.525t-.138.45q-.125.35-.437.525t-.638.025q-.275-.125-.387-.412t.012-.563q.025-.05.075-.325q0-.2-.075-.387t-.275-.388m-3.15-.1q-.25-.325-.375-.725t-.125-.85q0-.2.025-.387t.075-.338q.125-.35.4-.537t.6-.063q.3.125.438.4t.012.55q-.05.075-.05.15v.175q0 .25.063.475t.237.425q.25.325.375.725t.125.85q0 .2-.025.388t-.075.337q-.125.35-.4.538t-.6.062q-.3-.125-.437-.4T15 8.5q.05-.075.05-.15v-.175q0-.25-.062-.475t-.238-.425M17 2.5q-1.1 0-2.175.15t-2.15.425l.6 4.075q.05.35-.175.6t-.575.25q-.275 0-.487-.188t-.263-.462l-.625-4.375q-.05-.425.163-.787t.637-.488q1.15-.325 2.488-.512T17 1t2.55.188t2.5.512q.425.125.638.488t.162.787l-.625 4.375q-.05.275-.262.463T21.475 8q-.35 0-.575-.25t-.175-.6l.6-4.075q-1.075-.275-2.15-.425T17 2.5M15.375 17H9.15q-.725 0-1.287-.45t-.688-1.15L6.1 10.025q-.225-1.2.538-2.113T8.6 7q.85 0 1.525.55t.925 1.425L12.5 14h2.3q.55 0 1.013.263t.737.737l2.95 5.15q.2.35.088.75t-.463.6t-.75.088t-.6-.463zm-9.8 5q-.675 0-1.2-.413t-.725-1.062L1.25 11.2q-.125-.425-.175-.812t-.05-.738q0-.675.163-1.35t.487-1.325q.225-.45.638-.712T3.225 6q.575 0 1 .425t.425 1q0 .275-.1.525t-.3.45q-.475.475-.575 1.138t.2 1.312l.5 1.05q.825 1.775 1.238 3.438t.412 3.237v1.1q.5-.35.975-.513T7.925 19h5.625q.625 0 1.063.438t.437 1.062t-.437 1.063T13.55 22zM8 6q-.825 0-1.412-.587T6 4t.588-1.412T8 2t1.413.588T10 4t-.587 1.413T8 6"/></svg>