<svg xmlns="http://www.w3.org/2000/svg" viewBox="0 0 24 24" width="24" height="24"><path fill="currentColor" d="M6.3 10.3Q6 10 6 9.588t.3-.713L7.175 8H4q-.425 0-.712-.288T3 7t.288-.712T4 6h3.175L6.3 5.125q-.275-.3-.287-.712T6.3 3.7t.7-.3t.7.3l2.6 2.6q.15.15.213.325t.062.375t-.062.375t-.213.325l-2.6 2.6q-.3.3-.7.3t-.7-.3M16 6q-.825 0-1.412-.587T14 4t.588-1.412T16 2t1.413.588T18 4t-.587 1.413T16 6M4.875 21.5q-.35-.2-.462-.6t.087-.75L7.45 15q.275-.475.738-.738T9.2 14h2.3l1.45-5.025q.25-.875.925-1.425T15.4 7q1.2 0 1.963.913t.537 2.112L16.825 15.4q-.125.7-.687 1.15T14.85 17H8.625l-2.4 4.125q-.2.35-.6.463t-.75-.088m5.575.5q-.625 0-1.062-.437T8.95 20.5t.438-1.062T10.45 19h5.625q.45 0 .925.163t.975.512v-1.1q0-1.575.413-3.238t1.237-3.437l.5-1.05q.3-.65.2-1.312T19.75 8.4q-.2-.2-.3-.45t-.1-.525q0-.575.425-1t1-.425q.5 0 .913.263t.637.712q.325.65.488 1.325t.162 1.35q0 .35-.05.738t-.175.812l-2.4 9.325q-.2.65-.725 1.063t-1.2.412z"/></svg>