<svg xmlns="http://www.w3.org/2000/svg" viewBox="0 0 24 24" width="24" height="24"><path fill="currentColor" d="M13.425 7q0-.2.063-.375T13.7 6.3l2.6-2.6q.3-.3.7-.3t.7.3t.288.712t-.288.713L16.825 6H20q.425 0 .713.288T21 7t-.288.713T20 8h-3.175l.875.875q.3.3.3.713t-.3.712t-.7.3t-.7-.3l-2.6-2.6q-.15-.15-.212-.325T13.425 7M8 6q-.825 0-1.412-.587T6 4t.588-1.412T8 2t1.413.588T10 4t-.587 1.413T8 6m11.125 15.5q-.35.2-.75.088t-.6-.463L15.375 17H9.15q-.725 0-1.287-.45t-.688-1.15L6.1 10.025q-.225-1.2.538-2.113T8.6 7q.85 0 1.525.55t.925 1.425L12.5 14h2.3q.55 0 1.013.263t.737.737l2.95 5.15q.2.35.088.75t-.463.6m-13.55.5q-.675 0-1.2-.413t-.725-1.062L1.25 11.2q-.125-.425-.175-.812t-.05-.738q0-.675.163-1.35t.487-1.325q.225-.45.638-.712T3.225 6q.575 0 1 .425t.425 1q0 .275-.1.525t-.3.45q-.475.475-.575 1.138t.2 1.312l.5 1.05q.825 1.775 1.238 3.438t.412 3.237v1.1q.5-.35.975-.513T7.925 19h5.625q.625 0 1.063.438t.437 1.062t-.437 1.063T13.55 22z"/></svg>