<svg xmlns="http://www.w3.org/2000/svg" viewBox="0 0 24 24" width="24" height="24"><path fill="currentColor" d="M4.125 14.75H1.75q-.325 0-.537-.213T1 14t.213-.537t.537-.213h2.375l-.65-.65q-.225-.225-.225-.537t.225-.538T4 11.3t.525.225l1.95 1.95q.125.125.175.25T6.7 14t-.05.275t-.175.25l-1.95 1.95Q4.3 16.7 4 16.7t-.525-.225t-.225-.537t.225-.538zm4.5 2.25l-2.4 4.125q-.2.35-.6.463t-.75-.088t-.462-.612t.087-.763L7.45 15q.275-.475.738-.737T9.2 14h2.3l1.45-5.025q.25-.875.925-1.425T15.4 7q1.2 0 1.963.913t.537 2.112L16.825 15.4q-.125.7-.687 1.15T14.85 17zm1.825 5q-.625 0-1.062-.437T8.95 20.5t.438-1.062T10.45 19h5.625q.45 0 .925.163t.975.512v-1.1q0-1.575.413-3.238t1.237-3.437l.5-1.05q.3-.65.2-1.312T19.75 8.4q-.2-.2-.3-.45t-.1-.525q0-.575.425-1t1-.425q.5 0 .913.263t.637.712q.325.65.488 1.325t.162 1.35q0 .35-.05.738t-.175.812l-2.4 9.325q-.2.65-.725 1.063t-1.2.412zM16 6q-.825 0-1.412-.587T14 4t.588-1.412T16 2t1.413.588T18 4t-.587 1.413T16 6M7.9 7.375q-.325-.325-.5-.775t-.175-.95q0-.225.038-.425t.112-.375q.125-.325.45-.475t.625 0q.275.125.388.4t-.038.55q-.05.075-.063.15t-.012.175q0 .225.075.413t.275.387q.275.275.45.663t.225.812q.05.275.012.525t-.137.45q-.125.35-.438.525t-.637.025q-.275-.125-.388-.412t.013-.563q.025-.05.075-.325q0-.2-.075-.387T7.9 7.375m-3.15-.1q-.25-.325-.375-.725T4.25 5.7q0-.2.025-.387t.075-.338q.125-.35.4-.537t.6-.063q.3.125.438.4t.012.55q-.05.075-.05.15v.175q0 .25.063.475t.237.425q.25.325.375.725t.125.85q0 .2-.025.388t-.075.337q-.125.35-.4.538t-.6.062q-.3-.125-.437-.4T5 8.5q.05-.075.05-.15v-.175q0-.25-.062-.475t-.238-.425M2.525 8q-.275 0-.487-.188t-.263-.462L1.15 2.975q-.05-.425.163-.787T1.95 1.7q1.15-.325 2.488-.512T7 1t2.55.188t2.5.512q.425.125.638.488t.162.787l-.625 4.375q-.05.275-.262.463T11.475 8q-.35 0-.575-.25t-.175-.6l.6-4.075Q10.25 2.8 9.175 2.65T7 2.5t-2.175.15t-2.15.425l.6 4.075q.05.35-.175.6T2.525 8"/></svg>