<svg xmlns="http://www.w3.org/2000/svg" viewBox="0 0 24 24" width="24" height="24"><path fill="currentColor" d="M11 9h6q.425 0 .713-.288T18 8t-.288-.712T17 7h-6.025q-.425 0-.7.288T10 8t.288.713T11 9m0 3h3q.425 0 .713-.288T15 11t-.288-.712T14 10h-3.025q-.425 0-.7.288T10 11t.288.713T11 12m-5.55 8.975Q4.625 21.1 4 20.6t-.75-1.325L2.025 10.35q-.125-.8.388-1.45t1.312-.775H4V14q0 1.65 1.175 2.825T8 18h11q-.2.525-.612.888t-1.013.437zM8 16.1q-.825 0-1.412-.587T6 14.1V5q0-.825.588-1.412T8 3h12q.825 0 1.413.588T22 5v9.1q0 .825-.587 1.413T20 16.1z"/></svg>