<svg xmlns="http://www.w3.org/2000/svg" viewBox="0 0 24 24" width="24" height="24"><path fill="currentColor" d="M20 17q-.375 0-.687-.262T19 15.975V5h-2v2q0 .425-.288.713T16 8h-4.325q-.4 0-.763-.15t-.637-.425L7.55 4.7q-.15-.15-.225-.325T7.25 4q0-.4.288-.7t.737-.3h.9q.275-.875 1.075-1.437T12 1q1 0 1.788.563T14.85 3H19q.825 0 1.413.588T21 5v11q0 .5-.312.75T20 17M12.713 4.713Q13 4.425 13 4t-.288-.712T12 3t-.712.288T11 4t.288.713T12 5t.713-.288M16.15 19L5 7.85V19zM5 21q-.825 0-1.412-.587T3 19V5.85l-.925-.925q-.3-.3-.3-.712t.3-.713t.713-.3t.712.3l17 17q.3.3.3.7t-.3.7t-.712.3t-.713-.3l-.925-.9z"/></svg>