<svg xmlns="http://www.w3.org/2000/svg" viewBox="0 0 24 24"><path fill="currentColor" d="M18.5 22q-.15 0-.2-.15q-.4-1.525-1.513-2.637T14.15 17.7q-.15-.05-.15-.2q0-.175.15-.2q1.525-.4 2.638-1.513T18.3 13.15q.05-.15.2-.15t.2.15q.4 1.525 1.513 2.638T22.85 17.3q.15.025.15.2q0 .15-.15.2q-1.525.4-2.637 1.513T18.7 21.85q-.025.15-.2.15M4 20q-.825 0-1.412-.587T2 18V6q0-.825.588-1.412T4 4h16q.825 0 1.413.588T22 6v5.025q0 .425-.288.713t-.712.287t-.712-.288t-.288-.712V8H4v4h8.725q.575 0 .8.55t-.2 1.025q-.9 1.2-1.2 2.638T12.2 19.1q.1.35-.088.625t-.537.275z"/></svg>