<svg xmlns="http://www.w3.org/2000/svg" viewBox="0 0 24 24" width="24" height="24"><path fill="currentColor" d="M18.175 19H13q-.425 0-.712-.288T12 18t.288-.712T13 17h5.175l-.875-.875q-.275-.3-.288-.712t.288-.713t.7-.3t.7.3l2.6 2.6q.3.3.3.7t-.3.7l-2.6 2.6q-.3.3-.7.3t-.7-.3t-.288-.712t.288-.713zM4 13H3q-.425 0-.712-.288T2 12v-1q0-.425.288-.712T3 10h1q.425 0 .713.288T5 11v1q0 .425-.288.713T4 13m3.025-1.025Q6 10.95 6 9.5v-4q0-1.45 1.025-2.475T9.5 2t2.475 1.025T13 5.5v4q0 1.45-1.025 2.475T9.5 13t-2.475-1.025m9 0Q15 10.95 15 9.5v-4q0-1.45 1.025-2.475T18.5 2t2.475 1.025T22 5.5v4q0 1.45-1.025 2.475T18.5 13t-2.475-1.025m-5.462-1.412Q11 10.125 11 9.5v-4q0-.625-.437-1.062T9.5 4t-1.062.438T8 5.5v4q0 .625.438 1.063T9.5 11t1.063-.437m9 0Q20 10.125 20 9.5v-4q0-.625-.437-1.062T18.5 4t-1.062.438T17 5.5v4q0 .625.438 1.063T18.5 11t1.063-.437"/></svg>