<svg xmlns="http://www.w3.org/2000/svg" viewBox="0 0 24 24" width="24" height="24"><path fill="currentColor" d="M19.95 21q-3.125 0-6.175-1.362t-5.55-3.863t-3.862-5.55T3 4.05q0-.45.3-.75t.75-.3H8.1q.35 0 .625.238t.325.562l.65 3.5q.05.4-.025.675T9.4 8.45L6.975 10.9q.5.925 1.187 1.787t1.513 1.663q.775.775 1.625 1.438T13.1 17l2.35-2.35q.225-.225.588-.337t.712-.063l3.45.7q.35.1.575.363T21 15.9v4.05q0 .45-.3.75t-.75.3M12.5 8q-.2 0-.35-.15T12 7.5t.15-.35t.35-.15H14V6h-1.5q-.2 0-.35-.15T12 5.5v-2q0-.2.15-.35T12.5 3h2q.2 0 .35.15t.15.35t-.15.35t-.35.15H13v1h1.5q.2 0 .35.15t.15.35v2q0 .2-.15.35T14.5 8zm3.65-.15Q16 7.7 16 7.5v-4q0-.2.15-.35T16.5 3t.35.15t.15.35v4q0 .2-.15.35T16.5 8t-.35-.15m2 0Q18 7.7 18 7.5v-4q0-.2.15-.35T18.5 3h2q.2 0 .35.15t.15.35v2q0 .2-.15.35T20.5 6H19v1.5q0 .2-.15.35T18.5 8t-.35-.15M19 5h1V4h-1z"/></svg>