<svg xmlns="http://www.w3.org/2000/svg" viewBox="0 0 24 24" width="24" height="24"><path fill="currentColor" d="M5 22q-2.075 0-3.537-1.463T0 17t1.463-3.537T5 12t3.538 1.463T10 17t-1.463 3.538T5 22m2.125-2.875Q8 18.25 8 17t-.875-2.125T5 14t-2.125.875T2 17t.875 2.125T5 20t2.125-.875M13.2 8.1l-2.4 2.4l1.65 1.725q.275.275.413.625t.137.75V18q0 .425-.288.713T12 19t-.712-.288T11 18v-4l-3.2-2.8q-.3-.275-.45-.637T7.2 9.8t.163-.762T7.8 8.4l2.8-2.8q.3-.3.688-.45T12.1 5t.813.15t.687.45l1.9 1.9q.575.575 1.263.938t1.462.487q.425.075.663.4t.162.75t-.4.663t-.75.162q-1.125-.2-2.112-.7T14 8.9zm.888-3.187Q13.5 4.325 13.5 3.5t.588-1.412T15.5 1.5t1.413.588T17.5 3.5t-.587 1.413T15.5 5.5t-1.412-.587M19 22q-2.075 0-3.537-1.463T14 17t1.463-3.537T19 12t3.538 1.463T24 17t-1.463 3.538T19 22m2.125-2.875Q22 18.25 22 17t-.875-2.125T19 14t-2.125.875T16 17t.875 2.125T19 20t2.125-.875"/></svg>