<svg xmlns="http://www.w3.org/2000/svg" viewBox="0 0 24 24" width="24" height="24"><path fill="currentColor" d="M17 21q-1.25 0-2.125-.875T14 18t.875-2.125T17 15t2.125.875T20 18t-.875 2.125T17 21m-.537-7.212q-.213-.213-.213-.538v-.5q0-.325.213-.537T17 12t.538.213t.212.537v.5q0 .325-.213.538T17 14t-.537-.213m1.074 8.426q.213.212.213.537v.5q0 .325-.213.538T17 24t-.537-.213t-.213-.537v-.5q0-.325.213-.537T17 22t.538.213m2.087-7.6q0-.313.225-.538l.35-.35q.225-.225.525-.213t.525.238t.225.525t-.225.525l-.35.35q-.225.225-.525.225t-.525-.225t-.225-.538m-5.45 6.213q.225.225.225.525t-.225.525l-.375.375q-.225.225-.525.225t-.525-.225t-.225-.525t.225-.525l.375-.375q.225-.225.525-.225t.525.225m7.038-3.362q.212-.213.537-.213h.5q.325 0 .538.213T23 18t-.213.538t-.537.212h-.5q-.325 0-.537-.213T21 18t.213-.537m-8.426 1.074q-.212.213-.537.213h-.5q-.325 0-.537-.213T11 18t.213-.537t.537-.213h.5q.325 0 .538.213T13 18t-.213.538m7.063 2.287q.225-.225.525-.212t.525.212l.375.35q.225.225.225.525t-.225.525t-.537.225t-.538-.225l-.35-.35q-.2-.225-.213-.525t.213-.525m-6.212-5.45q-.313 0-.538-.225l-.35-.35q-.2-.225-.212-.525t.212-.525t.525-.213t.525.213l.375.35q.225.225.225.525t-.225.525t-.537.225M5 22q-.825 0-1.412-.587T3 20V6q0-.825.588-1.412T5 4h1V3q0-.425.288-.712T7 2t.713.288T8 3v1h8V3q0-.425.288-.712T17 2t.713.288T18 3v1h1q.825 0 1.413.588T21 6v3q0 .425-.288.713T20 10H5v10h3q.425 0 .713.288T9 21t-.288.713T8 22z"/></svg>