<svg xmlns="http://www.w3.org/2000/svg" viewBox="0 0 24 24" width="24" height="24"><path fill="currentColor" d="M13 21v1.2q0 .275-.238.425t-.487.025L7.95 20.475q-.175-.1-.138-.288T8.05 20H11v-1.2q0-.275.238-.425t.487-.025l4.325 2.175q.175.1.138.288T15.95 21zm-8.125-4.875Q4 15.25 4 14H3q-.425 0-.712-.288T2 13v-2q0-1.65 1.175-2.825T6 7h2q.825 0 1.413.588T10 9v3h3.5L17 7.65V5h-2q-.425 0-.712-.288T14 4t.288-.712T15 3h2q.825 0 1.413.588T19 5v2.65q0 .35-.112.663t-.313.587L15.1 13.25q-.275.35-.7.55t-.875.2H10q0 1.25-.875 2.125T7 17t-2.125-.875m2.838-1.412Q8 14.425 8 14H6q0 .425.288.713T7 15t.713-.288M9 6H6q-.425 0-.712-.288T5 5t.288-.712T6 4h3q.425 0 .713.288T10 5t-.288.713T9 6m7.875 10.125Q16 15.25 16 14t.875-2.125T19 11t2.125.875T22 14t-.875 2.125T19 17t-2.125-.875m2.838-1.412Q20 14.425 20 14t-.288-.712T19 13t-.712.288T18 14t.288.713T19 15t.713-.288"/></svg>