<svg xmlns="http://www.w3.org/2000/svg" viewBox="0 0 24 24" width="24" height="24"><path fill="currentColor" d="M1.05 20v-1.8q0-.825.425-1.55t1.175-1.1q1.275-.65 2.875-1.1T9.05 14t3.525.45t2.875 1.1q.75.375 1.175 1.1t.425 1.55V20q0 .425-.288.713T16.05 21h-14q-.425 0-.712-.288T1.05 20m5.175-8.175Q5.05 10.65 5.05 9H4.8q-.225 0-.362-.137T4.3 8.5t.138-.363T4.8 8h.25q0-1.125.55-2.025T7.05 4.55v.95q0 .225.138.363T7.55 6t.363-.137t.137-.363V4.15q.225-.075.475-.112T9.05 4t.525.038t.475.112V5.5q0 .225.138.363T10.55 6t.363-.137t.137-.363v-.95q.9.525 1.45 1.425T13.05 8h.25q.225 0 .363.138t.137.362t-.137.363T13.3 9h-.25q0 1.65-1.175 2.825T9.05 13t-2.825-1.175m4.238-1.412q.587-.588.587-1.413h-4q0 .825.588 1.413T9.05 11t1.413-.587m6.012 4.187l-.075-.35q-.15-.05-.287-.112t-.263-.188l-.3.1q-.175.05-.337 0t-.263-.225l-.1-.175q-.1-.15-.062-.325t.162-.3l.25-.225v-.6l-.25-.225q-.125-.125-.162-.3t.062-.325l.1-.175q.1-.175.263-.225t.337 0l.3.1q.1-.1.25-.175t.3-.125l.075-.35q.05-.175.175-.288t.3-.112h.2q.175 0 .3.113t.175.287l.075.35q.15.05.3.125t.25.175l.3-.1q.175-.05.338 0t.262.225l.1.175q.1.15.063.325t-.163.3l-.25.225v.6l.25.225q.125.125.163.3t-.063.325l-.1.175q-.1.175-.262.225t-.338 0l-.3-.1q-.125.125-.262.188t-.288.112l-.075.35q-.05.175-.175.288t-.3.112h-.2q-.175 0-.3-.112t-.175-.288m1.1-1.575q.225-.225.225-.525t-.225-.525t-.525-.225t-.525.225t-.225.525t.225.525t.525.225t.525-.225M18.75 9.45l-.1-.5q-.225-.075-.413-.187T17.9 8.5l-.525.175q-.225.075-.45-.012t-.35-.288l-.15-.25q-.125-.2-.088-.437t.238-.413L17 6.9q-.05-.125-.05-.2v-.4q0-.075.05-.2l-.425-.375q-.2-.175-.238-.413t.088-.437l.15-.25q.125-.2.35-.288t.45-.012l.525.175q.15-.15.338-.262t.412-.188l.1-.5q.05-.25.238-.4t.437-.15h.25q.25 0 .438.15t.237.4l.1.5q.225.075.413.188t.337.262l.525-.175q.225-.075.45.013t.35.287l.15.25q.125.2.088.438t-.238.412L22.1 6.1q.05.125.05.2v.4q0 .075-.05.2l.425.375q.2.175.238.413t-.088.437l-.15.25q-.125.2-.35.288t-.45.012L21.2 8.5q-.15.15-.337.262t-.413.188l-.1.5q-.05.25-.238.4t-.437.15h-.25q-.25 0-.437-.15t-.238-.4m1.688-2.062q.362-.363.362-.888t-.363-.888t-.887-.362t-.888.363t-.362.887t.363.888t.887.362t.888-.363"/></svg>