<svg xmlns="http://www.w3.org/2000/svg" viewBox="0 0 24 24" width="24" height="24"><path fill="currentColor" d="M5 22q-.425 0-.712-.288T4 21t.288-.712T5 20h14q.425 0 .713.288T20 21t-.288.713T19 22zm6.625-3.488q-.175-.062-.325-.212l-2.6-2.6q-.275-.275-.287-.687T8.7 14.3q.275-.275.688-.288t.712.263l.9.875v-6.3l-.9.875Q9.825 10 9.413 10T8.7 9.7q-.275-.275-.275-.7t.275-.7l2.6-2.6q.15-.15.325-.212T12 5.425t.375.063t.325.212l2.6 2.6q.275.275.287.688T15.3 9.7q-.275.275-.687.288t-.713-.263L13 8.85v6.3l.9-.875q.275-.275.688-.275t.712.3q.275.275.275.7t-.275.7l-2.6 2.6q-.15.15-.325.213t-.375.062t-.375-.062M5 4q-.425 0-.712-.288T4 3t.288-.712T5 2h14q.425 0 .713.288T20 3t-.288.713T19 4z"/></svg>