<svg xmlns="http://www.w3.org/2000/svg" viewBox="0 0 24 24" width="24" height="24"><path fill="currentColor" d="M6.55 14.55q1.775 0 2.425-1.05t.65-2.7q0-.425-.3-.65T8.15 9.7q-.65-.175-1.575-.212t-1.8.087q-.65.1-.962.325t-.313.65q0 .675.113 1.3T3.95 13q.4.875.937 1.213t1.663.337M18 20q-.325 0-.537-.213t-.213-.537v-4.5q0-.325.213-.537T18 14t.538.213t.212.537v4.5q0 .325-.213.538T18 20m-2.75-1.5q-.325 0-.537-.213t-.213-.537v-1.5q0-.325.213-.537t.537-.213t.538.213t.212.537v1.5q0 .325-.213.538t-.537.212m5.5 0q-.325 0-.537-.213T20 17.75v-1.5q0-.325.213-.537t.537-.213t.538.213t.212.537v1.5q0 .325-.213.538t-.537.212M6.55 16q-1.525 0-2.325-.413T2.75 14.05q-.375-.65-.638-1.5T1.625 11q-.275 0-.45-.175T1 10.375V9.15q0-.225.15-.387t.375-.213q1.4-.275 2.538-.413T6.25 8q1.525 0 2.763.263T10.95 9h2.125q.6-.45 1.9-.712t2.8-.263q1.05 0 2.175.125t2.525.4q.225.05.375.213t.15.387v1.225q0 .275-.175.45t-.45.175q-.125.45-.3 1t-.325.975q-.125.325-.4.475t-.6.05t-.488-.387t-.062-.613q.125-.45.213-.95t.087-1.025q0-.425-.312-.663T19.2 9.55q-.875-.125-1.787-.075T15.85 9.7q-.875.225-1.175.45t-.3.65q0 .7.1 1.288t.35 1.062q.125.275.038.575t-.363.425t-.575.038t-.425-.363q-.275-.525-.387-1.112t-.288-1.163q-.1-.3-.3-.437T12 10.975q-.3 0-.513.15t-.312.425q-.125.4-.213.8t-.212.8q-.425 1.5-1.525 2.175T6.55 16"/></svg>