<svg xmlns="http://www.w3.org/2000/svg" viewBox="0 0 24 24" width="24" height="24"><path fill="currentColor" d="m16.35 19.175l3.55-3.55q.3-.3.7-.288t.7.313q.275.3.275.7t-.275.7l-4.225 4.25q-.3.3-.7.3t-.7-.3l-2.15-2.15q-.275-.275-.275-.7t.275-.7t.7-.275t.7.275zm-4.25-2.85q-.65.65-.875 1.613t.325 1.912q.125.2.25.375t.3.35l.425.4q-1.575.1-3.025-.375t-2.65-1.475Q5.525 18 4.763 16.425T4 13q0-2.6 1.438-5T9.4 3.675q.8-.6 1.7-.125t.9 1.525q0 .9.575 1.563t1.45.662q.45 0 .85-.2t.675-.55q.2-.25.5-.3t.55.125q1.375.95 2.238 2.413t1.087 3.162q.05.35-.075.688t-.375.587L16.35 16.35l-.025-.025q-1.05-1.05-2.237-.925t-1.988.925"/></svg>