<svg xmlns="http://www.w3.org/2000/svg" viewBox="0 0 24 24" width="24" height="24"><path fill="currentColor" d="M3 20V4q0-.425.288-.712T4 3t.713.288T5 4v16q0 .425-.288.713T4 21t-.712-.288T3 20m16 0V4q0-.425.288-.712T20 3t.713.288T21 4v16q0 .425-.288.713T20 21t-.712-.288T19 20M11.288 8.713Q11 8.425 11 8t.288-.712T12 7t.713.288T13 8t-.288.713T12 9t-.712-.288m-4 4Q7 12.426 7 12t.288-.712T8 11t.713.288T9 12t-.288.713T8 13t-.712-.288m4 0Q11 12.426 11 12t.288-.712T12 11t.713.288T13 12t-.288.713T12 13t-.712-.288m4 0Q15 12.426 15 12t.288-.712T16 11t.713.288T17 12t-.288.713T16 13t-.712-.288m-4 4Q11 16.426 11 16t.288-.712T12 15t.713.288T13 16t-.288.713T12 17t-.712-.288m0-12Q11 4.425 11 4t.288-.712T12 3t.713.288T13 4t-.288.713T12 5t-.712-.288m0 16Q11 20.426 11 20t.288-.712T12 19t.713.288T13 20t-.288.713T12 21t-.712-.288"/></svg>