<svg xmlns="http://www.w3.org/2000/svg" viewBox="0 0 24 24" width="24" height="24"><path fill="currentColor" d="M2 21.363q0-.238.2-.438l3.775-3.5L6.5 13.5l2.575-5.35q.375-.8 1.188-1.05t1.612.175l3.375 1.75L19.8 8.9l-.225-.85q-.5-.1-.95-.438t-.925-.987q-.35-.5-.675-1.075t-.65-1.35q-.35-.825.063-1.65t1.287-1.05l1.625-.425q.875-.225 1.625.263t.875 1.387q.125.8.138 1.488t-.063 1.312q-.1.8-.325 1.325t-.6.85l.9 3.325q.075.3-.075.563t-.45.337t-.575-.075t-.35-.45l-.325-1.2l-4.675.725q-.3.05-.6 0t-.575-.175l-1.05-.5l-2.475 3.4l6.1 7.325q.2.225.15.463t-.2.387t-.387.188t-.463-.163l-6.9-5.7l-.925 2.075q-.125.275-.312.5t-.438.375L2.95 21.9q-.25.15-.475.1t-.35-.225T2 21.363M14.413 2.588Q15 3.174 15 4t-.587 1.413T13 6t-1.412-.587T11 4t.588-1.412T13 2t1.413.588M19.975 6.6q.2-.05.288-.237t.187-.763q.1-.55.088-1.187T20.4 2.925q-.05-.225-.237-.35T19.75 2.5l-1.625.45q-.225.05-.337.263t-.013.412q.35.825.675 1.4t.725 1q.325.35.463.463t.337.112"/></svg>