<svg xmlns="http://www.w3.org/2000/svg" viewBox="0 0 24 24" width="24" height="24"><path fill="currentColor" d="M6.713 12.713Q6.425 13 6 13H2q-.425 0-.712-.288T1 12t.288-.712T2 11h4q.425 0 .713.288T7 12t-.288.713M8.45 8.45q-.275.275-.7.275t-.7-.275l-.7-.7q-.275-.275-.275-.7t.275-.7t.7-.275t.7.275l.7.7q.275.275.275.7t-.275.7M11 6V2q0-.425.288-.712T12 1t.713.288T13 2v4q0 .425-.288.713T12 7t-.712-.288T11 6m4.55 2.45q-.275-.275-.275-.7t.275-.7l.7-.7q.275-.275.7-.275t.7.275t.275.7t-.275.7l-.7.7q-.275.275-.7.275t-.7-.275m1.738 2.838Q17.575 11 18 11h4q.425 0 .713.288T23 12t-.288.713T22 13h-4q-.425 0-.712-.288T17 12t.288-.712m-7.413 2.837Q9 13.25 9 12t.875-2.125T12 9t2.125.875T15 12t-.875 2.125T12 15t-2.125-.875m5.675 1.425q.275-.275.7-.275t.7.275l.7.7q.275.275.275.7t-.275.7t-.7.275t-.7-.275l-.7-.7q-.275-.275-.275-.7t.275-.7m-7.1 0q.275.275.275.7t-.275.7l-.7.7q-.275.275-.7.275t-.7-.275t-.275-.7t.275-.7l.7-.7q.275-.275.7-.275t.7.275m4.263 1.738Q13 17.575 13 18v4q0 .425-.288.713T12 23t-.712-.288T11 22v-4q0-.425.288-.712T12 17t.713.288"/></svg>