<svg xmlns="http://www.w3.org/2000/svg" viewBox="0 0 24 24"><path fill="currentColor" d="M18.5 10q-.15 0-.2-.15q-.4-1.525-1.513-2.637T14.15 5.7Q14 5.65 14 5.5t.15-.2q1.525-.375 2.638-1.5T18.3 1.15q.05-.15.2-.15t.2.15q.4 1.525 1.513 2.638T22.85 5.3q.15.025.15.2q0 .15-.15.2q-1.525.4-2.637 1.513T18.7 9.85q-.025.15-.2.15M9 13.8l-6.325 2.525q-.6.25-1.137-.112T1 15.2v-.55q0-.3.138-.575t.387-.45L9 8.4V4q0-.825.588-1.412T11 2t1.413.588T13 4v4.4l7.475 5.225q.25.175.388.45t.137.575v.55q0 .65-.537 1.013t-1.138.112L13 13.8v3.6l2.575 1.8q.2.15.313.363t.112.462v.6q0 .5-.413.813t-.912.162L11 20.5l-3.675 1.1q-.5.15-.913-.162T6 20.625v-.6q0-.25.113-.462t.312-.363L9 17.4z"/></svg>