<svg xmlns="http://www.w3.org/2000/svg" viewBox="0 0 24 24" width="24" height="24"><path fill="currentColor" d="M5 21q-.825 0-1.412-.587T3 19V8q0-.425.288-.712T4 7t.713.288T5 8v11h11q.425 0 .713.288T17 20t-.288.713T16 21zm6.288-4.288Q11 16.426 11 16t.288-.712T12 15t.713.288T13 16t-.288.713T12 17t-.712-.288m-4-12Q7 4.425 7 4t.288-.712T8 3t.713.288T9 4t-.288.713T8 5t-.712-.288m4 0Q11 4.426 11 4t.288-.712T12 3t.713.288T13 4t-.288.713T12 5t-.712-.288m4 0Q15 4.426 15 4t.288-.712T16 3t.713.288T17 4t-.288.713T16 5t-.712-.288m4 0Q19 4.426 19 4t.288-.712T20 3t.713.288T21 4t-.288.713T20 5t-.712-.288m-12 4Q7 8.426 7 8t.288-.712T8 7t.713.288T9 8t-.288.713T8 9t-.712-.288m0 4Q7 12.426 7 12t.288-.712T8 11t.713.288T9 12t-.288.713T8 13t-.712-.288m0 4Q7 16.426 7 16t.288-.712T8 15t.713.288T9 16t-.288.713T8 17t-.712-.288m8 0Q15 16.426 15 16t.288-.712T16 15t.713.288T17 16t-.288.713T16 17t-.712-.288m4-8Q19 8.425 19 8t.288-.712T20 7t.713.288T21 8t-.288.713T20 9t-.712-.288m0 4Q19 12.426 19 12t.288-.712T20 11t.713.288T21 12t-.288.713T20 13t-.712-.288m0 4Q19 16.426 19 16t.288-.712T20 15t.713.288T21 16t-.288.713T20 17t-.712-.288"/></svg>