<svg xmlns="http://www.w3.org/2000/svg" viewBox="0 0 24 24" width="24" height="24"><path fill="currentColor" d="M15.288 4.713Q15 4.425 15 4t.288-.712T16 3t.713.288T17 4t-.288.713T16 5t-.712-.288m4 0Q19 4.426 19 4t.288-.712T20 3t.713.288T21 4t-.288.713T20 5t-.712-.288m0 4Q19 8.426 19 8t.288-.712T20 7t.713.288T21 8t-.288.713T20 9t-.712-.288m0 4Q19 12.426 19 12t.288-.712T20 11t.713.288T21 12t-.288.713T20 13t-.712-.288m0 4Q19 16.426 19 16t.288-.712T20 15t.713.288T21 16t-.288.713T20 17t-.712-.288m-4 4Q15 20.426 15 20t.288-.712T16 19t.713.288T17 20t-.288.713T16 21t-.712-.288m4 0Q19 20.426 19 20t.288-.712T20 19t.713.288T21 20t-.288.713T20 21t-.712-.288M5 21q-.825 0-1.412-.587T3 19V5q0-.825.588-1.412T5 3h3q.425 0 .713.288T9 4t-.288.713T8 5H5v14h3q.425 0 .713.288T9 20t-.288.713T8 21zm6 1V2q0-.425.288-.712T12 1t.713.288T13 2v20q0 .425-.288.713T12 23t-.712-.288T11 22"/></svg>