<svg xmlns="http://www.w3.org/2000/svg" viewBox="0 0 24 24" width="24" height="24"><path fill="currentColor" d="M2.788 16.713Q2.5 16.425 2.5 16V8q0-.425.288-.712T3.5 7t.713.288T4.5 8v3h4V8q0-.425.288-.712T9.5 7t.713.288T10.5 8v8q0 .425-.288.713T9.5 17t-.712-.288T8.5 16v-3h-4v3q0 .425-.288.713T3.5 17t-.712-.288m15 0Q17.5 16.426 17.5 16v-2h-4q-.425 0-.712-.288T12.5 13V8q0-.425.288-.712T13.5 7t.713.288T14.5 8v4h3V8q0-.425.288-.712T18.5 7t.713.288T19.5 8v4h1q.425 0 .713.288T21.5 13t-.288.713T20.5 14h-1v2q0 .425-.288.713T18.5 17t-.712-.288"/></svg>