<svg xmlns="http://www.w3.org/2000/svg" viewBox="0 0 24 24" width="24" height="24"><path fill="currentColor" d="M16.288 4.288Q16.575 4 17 4h3q.825 0 1.413.588T22 6v3q0 .425-.288.713T21 10t-.712-.288T20 9V6h-3q-.425 0-.712-.288T16 5t.288-.712M3 10q-.425 0-.712-.288T2 9V6q0-.825.588-1.412T4 4h3q.425 0 .713.288T8 5t-.288.713T7 6H4v3q0 .425-.288.713T3 10m14 10q-.425 0-.712-.288T16 19t.288-.712T17 18h3v-3q0-.425.288-.712T21 14t.713.288T22 15v3q0 .825-.587 1.413T20 20zM4 20q-.825 0-1.412-.587T2 18v-3q0-.425.288-.712T3 14t.713.288T4 15v3h3q.425 0 .713.288T8 19t-.288.713T7 20zm8-3.5q.175 0 .2-.15q.4-1.525 1.513-2.637T16.35 12.2q.15-.05.15-.2q0-.175-.15-.2q-1.525-.4-2.637-1.512T12.2 7.65q-.05-.15-.2-.15t-.2.15q-.4 1.525-1.512 2.638T7.65 11.8q-.15.025-.15.2q0 .15.15.2q1.525.4 2.638 1.513T11.8 16.35q.05.15.2.15"/></svg>