<svg xmlns="http://www.w3.org/2000/svg" viewBox="0 0 24 24" width="24" height="24"><path fill="currentColor" d="M7.525 15.3q.2-.2.2-.475V12.95h.925l1.625 2.275q.1.125.238.2t.287.075q.4 0 .588-.363t-.063-.687l-1.275-1.675q.7-.275 1.063-.788t.362-1.262q0-1.125-.65-1.675t-2-.55H7.35q-.425 0-.712.288T6.35 9.5v5.325q0 .275.213.475t.487.2t.475-.2m.225-3.375V9.7h1.125q.65 0 .938.288t.287.812q0 .55-.337.838t-.913.287zm7.925 3.375q.2-.2.2-.475V9.75h1.5q.275 0 .45-.175t.175-.45t-.175-.45t-.45-.175h-4.35q-.275 0-.45.175t-.175.45t.175.45t.45.175H14.5v5.075q0 .275.213.475t.487.2t.475-.2M2 18V8q0-1.65 1.175-2.825T6 4h12q1.65 0 2.825 1.175T22 8v10q0 .825-.587 1.413T20 20H4q-.825 0-1.412-.587T2 18"/></svg>