<svg xmlns="http://www.w3.org/2000/svg" viewBox="0 0 24 24" width="24" height="24"><path fill="currentColor" d="M11.713 14.788q-.213-.213-.213-.538v-4.5q0-.325.213-.537T12.25 9t.538.213t.212.537v4.5q0 .325-.213.538T12.25 15t-.537-.213M6 15q-.45 0-.725-.312T5 14v-4q0-.375.275-.687T6 9h3.25q.325 0 .538.213T10 9.75t-.213.538t-.537.212H6.5v3h2v-.75q0-.325.213-.537T9.25 12t.538.213t.212.537V14q0 .375-.275.688T9 15zm8.713-.213q-.213-.212-.213-.537v-4.5q0-.325.213-.537T15.25 9h3q.325 0 .538.213T19 9.75t-.213.538t-.537.212H16v1h1.25q.325 0 .538.213t.212.537t-.213.538t-.537.212H16v1.25q0 .325-.213.538T15.25 15t-.537-.213"/></svg>