<svg xmlns="http://www.w3.org/2000/svg" viewBox="0 0 24 24" width="24" height="24"><path fill="currentColor" d="M19.5 19.925L18.125 21.3q-.3.275-.712.288T16.7 21.3t-.3-.712t.3-.713l1.4-1.375l-1.4-1.375q-.3-.3-.3-.712t.3-.713t.713-.3t.712.3l1.375 1.4l1.375-1.4q.3-.3.712-.3t.713.3t.3.713t-.3.712L20.925 18.5l1.375 1.375q.275.3.287.713t-.287.712t-.712.3t-.713-.3zM12 22q-2.075 0-3.9-.788t-3.175-2.137T2.788 15.9T2 12t.788-3.9t2.137-3.175T8.1 2.788T12 2q2.1 0 3.925.8T19.1 4.963t2.125 3.175t.775 3.837q0 .425-.312.725t-.738.3q-.4 0-.675-.288T20 12q0-.5-.062-1t-.188-1h-3.4q.075.5.113 1t.037 1q0 .425-.3.713t-.725.287t-.7-.288T14.5 12q0-.5-.037-1t-.113-1h-4.7q-.075.5-.112 1T9.5 12t.038 1t.112 1H13q.425 0 .713.288T14 15t-.288.713T13 16h-2.9q.3 1.075.775 2.063T12 19.95q.45 0 .888-.05t.887-.1q.425-.1.763.125t.437.65t-.125.75t-.65.425q-.575.125-1.1.187T12 22m-7.75-8h3.4q-.075-.5-.112-1T7.5 12t.038-1t.112-1h-3.4q-.125.5-.187 1T4 12t.063 1t.187 1m.85-6h2.95q.225-.925.563-1.812T9.4 4.45q-1.375.45-2.475 1.363T5.1 8m4.3 11.55q-.45-.85-.788-1.737T8.05 16H5.1q.725 1.275 1.825 2.188T9.4 19.55M10.1 8h3.8q-.3-1.075-.775-2.062T12 4.05q-.65.9-1.125 1.888T10.1 8m5.85 0h2.95q-.725-1.275-1.825-2.187T14.6 4.45q.45.85.788 1.738T15.95 8"/></svg>