<svg xmlns="http://www.w3.org/2000/svg" viewBox="0 0 24 24" width="24" height="24"><path fill="currentColor" d="M4.25 14h3.4q-.075-.5-.112-1T7.5 12t.038-1t.112-1h-3.4q-.125.5-.187 1T4 12t.063 1t.187 1m.85-6h2.95q.225-.925.563-1.812T9.4 4.45q-1.375.45-2.475 1.363T5.1 8m4.3 11.55q-.45-.85-.788-1.737T8.05 16H5.1q.725 1.275 1.825 2.188T9.4 19.55M10.1 8h3.8q-.3-1.075-.775-2.062T12 4.05q-.65.9-1.125 1.888T10.1 8m5.85 0h2.95q-.725-1.275-1.825-2.187T14.6 4.45q.45.85.788 1.738T15.95 8M12 22q-2.075 0-3.9-.788t-3.175-2.137T2.788 15.9T2 12t.788-3.9t2.137-3.175T8.1 2.788T12 2q3.275 0 5.813 1.875T21.4 8.65q.2.5-.137.925t-.888.425H9.65q-.075.5-.112 1T9.5 12t.038 1t.112 1H13q.425 0 .713.288T14 15t-.288.713T13 16h-2.9q.3 1.075.775 2.063T12 19.95q.45 0 .888-.05t.887-.1q.425-.1.75.125t.425.65t-.112.75t-.638.425q-.575.125-1.1.187T12 22m7.15 0q.425 0 .738-.313t.312-.737t-.312-.737t-.738-.313t-.737.313t-.313.737t.313.738t.737.312m-2.275-7.675q.275.15.563.088t.487-.338q.2-.3.538-.462t.687-.163q.525 0 .938.325t.412.825q0 .425-.262.775t-.588.675q-.475.425-.85.925t-.375 1.125q0 .3.213.5t.512.2t.513-.213t.262-.512q.075-.45.388-.775t.637-.65q.425-.425.738-.95T22 14.55q0-1.175-.825-1.862T19.15 12q-.75 0-1.412.363t-1.088 1.012q-.175.25-.1.538t.325.412"/></svg>