<svg xmlns="http://www.w3.org/2000/svg" viewBox="0 0 24 24" width="24" height="24"><path fill="currentColor" d="M11.288 21.713Q11 21.425 11 21v-7.15l-2-2V17q0 .425-.288.713T8 18t-.712-.288T7 17V9.85L2.075 4.925q-.3-.3-.3-.712t.3-.713t.713-.3t.712.3l17 17q.3.3.3.7t-.3.7t-.712.3t-.713-.3L13 15.85V21q0 .425-.288.713T12 22t-.712-.288m-8-8Q3 13.425 3 13v-2q0-.425.288-.712T4 10t.713.288T5 11v2q0 .425-.288.713T4 14t-.712-.288M12 8.75q-.375 0-.687-.262T11 7.725V3q0-.425.288-.712T12 2t.713.288T13 3v4.75q0 .5-.312.75T12 8.75m4 4q-.375 0-.687-.262T15 11.725V7q0-.425.288-.712T16 6t.713.288T17 7v4.75q0 .5-.312.75t-.688.25m3.288.963Q19 13.425 19 13v-2q0-.425.288-.712T20 10t.713.288T21 11v2q0 .425-.288.713T20 14t-.712-.288"/></svg>