<svg xmlns="http://www.w3.org/2000/svg" viewBox="0 0 24 24" width="24" height="24"><path fill="currentColor" d="m17.8 13l.9.9q.275.275.275.7t-.275.7t-.7.275t-.7-.275l-2.6-2.6q-.15-.15-.212-.325T14.425 12t.063-.375t.212-.325l2.6-2.6q.275-.275.7-.275t.7.275t.275.7t-.275.7l-.9.9H21q.425 0 .713.288T22 12t-.288.713T21 13zM13 19q0 .425-.288.713T12 20t-.712-.288T11 19V5q0-.425.288-.712T12 4t.713.288T13 5zm-6.8-6H3q-.425 0-.712-.288T2 12t.288-.712T3 11h3.2l-.9-.9q-.275-.275-.275-.7t.275-.7t.7-.275t.7.275l2.6 2.6q.15.15.213.325t.062.375t-.062.375t-.213.325l-2.6 2.6q-.275.275-.7.275t-.7-.275t-.275-.7t.275-.7z"/></svg>