<svg xmlns="http://www.w3.org/2000/svg" viewBox="0 0 24 24" width="24" height="24"><path fill="currentColor" d="M10.95 19.55q.5.3 1.05.288t1.05-.313l4.55-2.775q-1.25-.875-2.675-1.312T12 15t-2.937.438t-2.713 1.287zm3.525-7.575Q15.5 10.95 15.5 9.5t-1.025-2.475T12 6T9.525 7.025T8.5 9.5t1.025 2.475T12 13t2.475-1.025m-3.525 9.9l-7-4.3q-.45-.275-.7-.725T3 15.875v-7.75q0-.525.25-.975t.7-.725l7-4.3q.5-.3 1.05-.3t1.05.3l7 4.3q.45.275.7.725t.25.975v7.75q0 .525-.25.975t-.7.725l-7 4.3q-.5.3-1.05.3t-1.05-.3"/></svg>