<svg xmlns="http://www.w3.org/2000/svg" viewBox="0 0 24 24" width="24" height="24"><path fill="currentColor" d="M19.1 16.938q-.9 2.312-2.475 4.162q-.275.325-.7.363T15.2 21.2t-.275-.737t.3-.788q1.3-1.575 2.038-3.525T18 12t-.737-4.15t-2.038-3.525q-.275-.35-.3-.788T15.2 2.8t.725-.262t.7.362Q18.2 4.75 19.1 7.063T20 12t-.9 4.938m-3.675-1.55q-.575 1.587-1.625 2.887q-.275.35-.7.375t-.725-.275t-.3-.725t.275-.775q.8-1.025 1.225-2.262T14 12t-.425-2.613t-1.225-2.262q-.275-.35-.275-.775t.3-.725t.725-.275t.7.375q1.05 1.3 1.625 2.887T16 12t-.575 3.388m-3.713-1.526q-.287.888-.812 1.613q-.25.35-.663.35t-.712-.3q-.275-.275-.3-.7t.2-.775q.275-.45.425-.962T10 12t-.15-1.088t-.425-.962q-.225-.35-.2-.775t.3-.7q.3-.3.713-.3t.662.35q.525.725.813 1.612T12 12t-.288 1.863m-4.3-.45Q6.826 14 6 14v5q0 .425-.288.713T5 20t-.712-.288T4 19V5q0-.425.288-.712T5 4t.713.288T6 5v5q.825 0 1.413.588T8 12t-.587 1.413"/></svg>