<svg xmlns="http://www.w3.org/2000/svg" viewBox="0 0 24 24" width="24" height="24"><path fill="currentColor" d="M3.038 7.038Q5.075 5 8 5q.35 0 .663.038t.637.087q.425.075.538.5t-.213.775Q8.6 7.575 8.05 9t-.55 3t.55 3t1.575 2.6q.3.35.188.763t-.513.512q-.325.05-.638.088T8 19q-2.925 0-4.962-2.037T1 12t2.038-4.962m8.612 10.35q-.175-.063-.3-.188q-1.15-.95-1.75-2.325T9 12t.6-2.875T11.35 6.8q.125-.125.3-.187T12 6.55t.35.063t.3.187q1.15.95 1.75 2.325T15 12t-.6 2.875t-1.75 2.325q-.125.125-.3.188t-.35.062t-.35-.062m10.825-2.713q-.525 1.275-1.525 2.275q-1.125 1.125-2.637 1.625t-3.088.35q-.425-.05-.675-.35t-.2-.725t.363-.675t.737-.2q1.125.125 2.2-.263t1.875-1.187q.7-.7 1.088-1.613T21 12t-.387-1.912t-1.088-1.613q-.8-.8-1.875-1.187t-2.2-.263q-.425.05-.737-.2t-.363-.675t.2-.737t.675-.363q1.6-.175 3.1.35t2.625 1.65q1 1 1.525 2.275T23 12t-.525 2.675"/></svg>