<svg xmlns="http://www.w3.org/2000/svg" viewBox="0 0 24 24" width="24" height="24"><path fill="currentColor" d="M4 16q-.425 0-.712-.288T3 15v-.575q0-.2.075-.387T3.3 13.7L5 12V5q-.425 0-.712-.288T4 4t.288-.712T5 3h4.175q.575 0 .825.525T9.9 4.55q-.45.8-.675 1.663T9 8q0 2.2 1.225 3.975t3.25 2.55q.275.075.463.3t.187.5t-.175.475t-.45.2H10v5.85q0 .425-.288.713T9 22.85t-.712-.288T8 21.85V16zM19.538 4.462Q21 5.925 21 8t-1.463 3.538T16 13t-3.537-1.463T11 8t1.463-3.537T16 3t3.538 1.463m-2.475 3.1q.437-.438.437-1.063t-.437-1.062T16 5t-1.062.438T14.5 6.5t.438 1.063T16 8t1.063-.437m.125 3.2q.562-.238.987-.688q.125-.15.088-.337t-.238-.288q-.475-.225-.987-.337T16 9t-1.025.113t-1 .337q-.2.075-.238.275t.088.35q.425.45.988.688T16 11t1.188-.238"/></svg>