<svg xmlns="http://www.w3.org/2000/svg" viewBox="0 0 24 24" width="24" height="24"><path fill="currentColor" d="m11.65 22.65l-2.8-2.8q-.25-.25-.125-.55T9.2 19h5.6q.35 0 .475.3t-.125.55l-2.8 2.8q-.15.15-.35.15t-.35-.15M4 17q-.825 0-1.412-.587T2 15V5q0-.825.588-1.412T4 3h16q.825 0 1.413.588T22 5v10q0 .825-.587 1.413T20 17zm5-3h6q.425 0 .713-.288T16 13t-.288-.712T15 12H9q-.425 0-.712.288T8 13t.288.713T9 14M6.713 7.712Q7 7.426 7 7t-.288-.712T6 6t-.712.288T5 7t.288.713T6 8t.713-.288m3 0Q10 7.426 10 7t-.288-.712T9 6t-.712.288T8 7t.288.713T9 8t.713-.288m3 0Q13 7.426 13 7t-.288-.712T12 6t-.712.288T11 7t.288.713T12 8t.713-.288m3 0Q16 7.426 16 7t-.288-.712T15 6t-.712.288T14 7t.288.713T15 8t.713-.288m3 0Q19 7.426 19 7t-.288-.712T18 6t-.712.288T17 7t.288.713T18 8t.713-.288m-12 3Q7 10.426 7 10t-.288-.712T6 9t-.712.288T5 10t.288.713T6 11t.713-.288m3 0Q10 10.426 10 10t-.288-.712T9 9t-.712.288T8 10t.288.713T9 11t.713-.288m3 0Q13 10.426 13 10t-.288-.712T12 9t-.712.288T11 10t.288.713T12 11t.713-.288m3 0Q16 10.426 16 10t-.288-.712T15 9t-.712.288T14 10t.288.713T15 11t.713-.288m3 0Q19 10.426 19 10t-.288-.712T18 9t-.712.288T17 10t.288.713T18 11t.713-.288"/></svg>