<svg xmlns="http://www.w3.org/2000/svg" viewBox="0 0 24 24" width="24" height="24"><path fill="currentColor" d="M8 17q-.425 0-.712-.288T7 16t.288-.712T8 15h8q.425 0 .713.288T17 16t-.288.713T16 17zM3.288 8.713Q3 8.425 3 8t.288-.712T4 7t.713.288T5 8t-.288.713T4 9t-.712-.288m4 0Q7 8.426 7 8t.288-.712T8 7t.713.288T9 8t-.288.713T8 9t-.712-.288m4 0Q11 8.426 11 8t.288-.712T12 7t.713.288T13 8t-.288.713T12 9t-.712-.288m4 0Q15 8.426 15 8t.288-.712T16 7t.713.288T17 8t-.288.713T16 9t-.712-.288m4 0Q19 8.426 19 8t.288-.712T20 7t.713.288T21 8t-.288.713T20 9t-.712-.288m0 4Q19 12.426 19 12t.288-.712T20 11t.713.288T21 12t-.288.713T20 13t-.712-.288m-4 0Q15 12.426 15 12t.288-.712T16 11t.713.288T17 12t-.288.713T16 13t-.712-.288m-4 0Q11 12.426 11 12t.288-.712T12 11t.713.288T13 12t-.288.713T12 13t-.712-.288m-4 0Q7 12.426 7 12t.288-.712T8 11t.713.288T9 12t-.288.713T8 13t-.712-.288m-4 0Q3 12.426 3 12t.288-.712T4 11t.713.288T5 12t-.288.713T4 13t-.712-.288"/></svg>