<svg xmlns="http://www.w3.org/2000/svg" viewBox="0 0 24 24" width="24" height="24"><path fill="currentColor" d="M16.85 22q-.35 0-.6-.25t-.25-.6v-3.3q0-.35.25-.6t.6-.25H17v-1q0-.825.588-1.412T19 14t1.413.588T21 16v1h.15q.35 0 .6.25t.25.6v3.3q0 .35-.25.6t-.6.25zM18 17h2v-1q0-.425-.288-.712T19 15t-.712.288T18 16zM6.713 9.713Q7 9.425 7 9t-.288-.712T6 8t-.712.288T5 9t.288.713T6 10t.713-.288m0 3Q7 12.426 7 12t-.288-.712T6 11t-.712.288T5 12t.288.713T6 13t.713-.288m3-3Q10 9.426 10 9t-.288-.712T9 8t-.712.288T8 9t.288.713T9 10t.713-.288m0 3Q10 12.426 10 12t-.288-.712T9 11t-.712.288T8 12t.288.713T9 13t.713-.288m3-3Q13 9.426 13 9t-.288-.712T12 8t-.712.288T11 9t.288.713T12 10t.713-.288m0 3Q13 12.426 13 12t-.288-.712T12 11t-.712.288T11 12t.288.713T12 13t.713-.288m3-3Q16 9.426 16 9t-.288-.712T15 8t-.712.288T14 9t.288.713T15 10t.713-.288m0 3Q16 12.426 16 12t-.288-.712T15 11t-.712.288T14 12t.288.713T15 13t.713-.288m3-3Q19 9.426 19 9t-.288-.712T18 8t-.712.288T17 9t.288.713T18 10t.713-.288M4 19q-.825 0-1.412-.587T2 17V7q0-.825.588-1.412T4 5h16q.825 0 1.413.588T22 7v4.625q0 .45-.387.675t-.813.025q-.45-.175-.913-.25T18.95 12q-.1-.3-.35-.5t-.6-.2q-.425 0-.713.288T17 12.3v.125q-.575.275-1.088.663T15 14H9q-.425 0-.712.288T8 15t.288.713T9 16h5.1q-.05.25-.075.488T14 17v1q0 .425-.287.713T13 19z"/></svg>