<svg xmlns="http://www.w3.org/2000/svg" viewBox="0 0 24 24"><path fill="currentColor" d="m16.4 9l-.5 1.4q-.1.275-.325.438t-.5.162q-.475 0-.737-.387t-.113-.813l2.55-7.175q.1-.275.35-.45t.55-.175h.65q.3 0 .55.175t.35.45l2.55 7.175q.15.425-.112.813t-.738.387q-.275 0-.5-.162T20.1 10.4L19.6 9zm.45-1.35h2.3L18 4zM2 13q-.425 0-.712-.288T1 12t.288-.712T2 11h2q.425 0 .713.288T5 12t-.288.713T4 13zm9.288-8.287Q11 4.425 11 4V2q0-.425.288-.712T12 1t.713.288T13 2v2q0 .425-.288.713T12 5t-.712-.288m0 18Q11 22.426 11 22v-2q0-.425.288-.712T12 19t.713.288T13 20v2q0 .425-.288.713T12 23t-.712-.288M5.65 7.05L4.575 6q-.3-.275-.288-.7t.288-.725q.3-.3.725-.3t.7.3L7.05 5.65q.275.3.275.7t-.275.7t-.687.288t-.713-.288M18 19.425l-1.05-1.075q-.275-.3-.275-.712t.275-.688q.275-.3.688-.287t.712.287L19.425 18q.3.275.288.7t-.288.725q-.3.3-.725.3t-.7-.3m-13.425 0q-.3-.3-.3-.725t.3-.7l1.075-1.05q.3-.275.712-.275t.688.275q.3.275.288.688t-.288.712L6 19.425q-.275.3-.7.288t-.725-.288M12 17q-2.075 0-3.537-1.463T7 12q0-2.125 1.475-3.588T12.075 7q.375 0 .575.325t.075.7l-.8 2.3q-.35.975.237 1.825T13.8 13h1.7q.55 0 .838.425t.087.9q-.625 1.2-1.8 1.938T12 17"/></svg>