<svg xmlns="http://www.w3.org/2000/svg" viewBox="0 0 24 24" width="24" height="24"><path fill="currentColor" d="M5.975 17.2L4.3 21.375q-.2.45-.575.563T3 21.925t-.55-.475t0-.825l3.55-8.8V9H2.725q-.575 0-.862-.5t-.013-1L4.425 3q.275-.475.725-.737t1-.263h1.7q.55 0 1 .263T9.575 3l2.575 4.5q.275.5-.012 1t-.863.5H8v2.825l3.5 8.8q.2.475 0 .825t-.55.475t-.725.013t-.575-.563L7.975 17.2V21q0 .425-.287.713T6.975 22t-.712-.288T5.975 21zM17 18q-1.375 0-2.45-.825T13.125 15h-.475q-.575 0-1.012-.4t-.438-.975q0-.9.813-1.963t1.512-1.562q.125-1.025.8-1.787T16 7.225V3q0-.425.288-.712T17 2t.713.288T18 3v4.225q.975.325 1.65 1.088t.8 1.787q.7.5 1.525 1.6t.825 2q0 .575-.438.938T21.35 15h-.5q-.35 1.35-1.425 2.175T17 18m0-2q.525 0 .975-.262T18.7 15h-3.425q.275.475.725.738T17 16"/></svg>