<svg xmlns="http://www.w3.org/2000/svg" viewBox="0 0 24 24"><path fill="currentColor" d="M5.5 10q-.15 0-.2-.15q-.4-1.525-1.513-2.637T1.15 5.7Q1 5.65 1 5.5q0-.175.15-.2q1.525-.4 2.638-1.513T5.3 1.15Q5.35 1 5.5 1t.2.15q.4 1.525 1.513 2.638T9.85 5.3q.15.025.15.2q0 .15-.15.2q-1.525.4-2.637 1.513T5.7 9.85q-.025.15-.2.15m1.213 7.713Q7 17.425 7 17t-.288-.712T6 16t-.712.288T5 17t.288.713T6 18t.713-.288m12 0Q19 17.426 19 17t-.288-.712T18 16t-.712.288T17 17t.288.713T18 18t.713-.288M17 13h4.25L19 10h-2zM3.875 19.125Q3 18.25 3 17H2q-.425 0-.712-.288T1 16v-4.35q0-.425.4-.638t.775.063q.75.45 1.6.688T5.5 12q1.35 0 2.525-.525t2.05-1.4Q11.15 9 11.638 7.613t.312-2.863q-.05-.3.15-.525T12.575 4H16q.425 0 .713.287T17 5v3h2q.475 0 .9.213t.7.587l2 2.675q.2.275.3.575t.1.625V16q0 .425-.288.713T22 17h-1q0 1.25-.875 2.125T18 20t-2.125-.875T15 17H9q0 1.25-.875 2.125T6 20t-2.125-.875"/></svg>