<svg xmlns="http://www.w3.org/2000/svg" viewBox="0 0 24 24" width="24" height="24"><path fill="currentColor" d="M11.288 8.713Q11 8.425 11 8t.288-.712T12 7t.713.288T13 8t-.288.713T12 9t-.712-.288m-4 4Q7 12.426 7 12t.288-.712T8 11t.713.288T9 12t-.288.713T8 13t-.712-.288m4 0Q11 12.426 11 12t.288-.712T12 11t.713.288T13 12t-.288.713T12 13t-.712-.288m-8-8Q3 4.426 3 4t.288-.712T4 3t.713.288T5 4t-.288.713T4 5t-.712-.288m4 0Q7 4.426 7 4t.288-.712T8 3t.713.288T9 4t-.288.713T8 5t-.712-.288m-4 4Q3 8.426 3 8t.288-.712T4 7t.713.288T5 8t-.288.713T4 9t-.712-.288M5 21q-.825 0-1.412-.587T3 19v-7q0-.425.288-.712T4 11t.713.288T5 12v7h14V5h-7q-.425 0-.712-.288T11 4t.288-.712T12 3h7q.825 0 1.413.588T21 5v14q0 .825-.587 1.413T19 21z"/></svg>