<svg xmlns="http://www.w3.org/2000/svg" viewBox="0 0 24 24"><path fill="currentColor" d="M4 20q-.825 0-1.412-.587T2 18V6q0-.825.588-1.412T4 4h16q.825 0 1.413.588T22 6v6.125q0 .3-.262.45t-.538.025q-1.825-.85-3.812-.5t-3.463 1.825Q12.85 15 12.363 16.388t-.313 2.862q.05.3-.15.525t-.475.225zm14.5 3q-.15 0-.2-.15q-.4-1.525-1.513-2.637T14.15 18.7q-.15-.05-.15-.2q0-.175.15-.2q1.525-.4 2.638-1.513T18.3 14.15q.05-.15.2-.15t.2.15q.4 1.525 1.513 2.638T22.85 18.3q.15.025.15.2q0 .15-.15.2q-1.525.4-2.637 1.513T18.7 22.85q-.025.15-.2.15M12 11L5.3 6.8q-.425-.275-.862-.025T4 7.525q0 .225.1.413t.3.312l6.55 4.1q.5.3 1.05.3t1.05-.3l6.55-4.1q.2-.125.3-.312t.1-.413q0-.5-.437-.75T18.7 6.8z"/></svg>