<svg xmlns="http://www.w3.org/2000/svg" viewBox="0 0 24 24" width="24" height="24"><path fill="currentColor" d="M7.875 13.125Q7 12.25 7 11V5q0-1.25.875-2.125T10 2t2.125.875T13 5v6q0 1.25-.875 2.125T10 14t-2.125-.875M17 20q.2 0 .35-.15t.15-.35t-.15-.35T17 19t-.35.15t-.15.35t.15.35t.35.15m.35-2.15q.15-.15.15-.35v-3q0-.2-.15-.35T17 14t-.35.15t-.15.35v3q0 .2.15.35T17 18t.35-.15m-3.888 2.688Q12 19.075 12 17t1.463-3.537T17 12t3.538 1.463T22 17t-1.463 3.538T17 22t-3.537-1.463M9 20v-2.075q-2.3-.325-3.937-1.95t-1.988-3.95q-.05-.425.225-.725T4 11t.713.288T5.1 12q.375 1.875 1.813 2.925t3.312 1.05q.325 0 .55.2t.225.5V20q0 .425-.287.713T10 21t-.712-.288T9 20"/></svg>