<svg xmlns="http://www.w3.org/2000/svg" viewBox="0 0 24 24" width="24" height="24"><path fill="currentColor" d="M8 22q-.825 0-1.412-.587T6 20v-8q0-.825.588-1.412T8 10h8q.825 0 1.413.588T18 12v8q0 .825-.587 1.413T16 22zm8.288-14.288Q16 7.425 16 7t.288-.712T17 6t.713.288T18 7t-.288.713T17 8t-.712-.288m0-4Q16 3.426 16 3t.288-.712T17 2t.713.288T18 3t-.288.713T17 4t-.712-.288m-5 0Q11 3.426 11 3t.288-.712T12 2t.713.288T13 3t-.288.713T12 4t-.712-.288m-5 0Q6 3.426 6 3t.288-.712T7 2t.713.288T8 3t-.288.713T7 4t-.712-.288m0 4Q6 7.426 6 7t.288-.712T7 6t.713.288T8 7t-.288.713T7 8t-.712-.288"/></svg>