<svg xmlns="http://www.w3.org/2000/svg" viewBox="0 0 24 24" width="24" height="24"><path fill="currentColor" d="m20.575 15.4l.925-.975l-.925-.925l-.95.95zm-.1 2.2L17.4 14.55l2.125-2.125q.225-.225.5-.325t.55-.1q.3 0 .575.113t.5.337l.925.925q.225.225.325.5t.1.55t-.1.563t-.325.512zm.063 5.35q-.413 0-.713-.3l-2.2-2.2l-.25.25q-.15.15-.337.225T16.65 21H15q-.425 0-.712-.287T14 20v-1.65q0-.2.075-.387t.225-.338l.25-.225L1.325 4.175q-.3-.3-.3-.712t.3-.713t.713-.3t.712.3l18.5 18.5q.3.3.3.7t-.3.7t-.712.3M4 20q-.825 0-1.412-.587T2 18V6q0-.825.588-1.412T4 4l10.55 10.55l-1.975 1.975q-.275.275-.425.638t-.15.762V19q0 .425-.288.713T11 20zm11.975-6.875L6.85 4h2l1.6 3.25q.175.35.5.55t.7.2q.75 0 1.163-.638t.062-1.312L11.85 4h2.25l1.625 3.25q.175.35.5.55t.7.2q.75 0 1.15-.638t.05-1.312L17.1 4H20q.825 0 1.413.587T22 6v3.2q0 .425-.325.688t-.75.187q-.25-.025-.5-.025t-.5.05q-.5.075-.975.3t-.85.6z"/></svg>