<svg xmlns="http://www.w3.org/2000/svg" viewBox="0 0 24 24" width="24" height="24"><path fill="currentColor" d="M12.15 10q-1.775-1-2.8-2.8q-.1-.175-.137-.338T9.175 6.5t.038-.363t.137-.337q1-1.8 2.788-2.8T16 2t3.85 1t2.8 2.8q.1.175.138.338t.037.362t-.037.363t-.138.337q-1 1.8-2.787 2.8T16 11t-3.85-1m5.625-1.725Q18.5 7.55 18.5 6.5t-.725-1.775T16 4t-1.775.725T13.5 6.5t.725 1.775T16 9t1.775-.725m-2.838-.712Q14.5 7.125 14.5 6.5t.438-1.062T16 5t1.063.438T17.5 6.5t-.437 1.063T16 8t-1.062-.437M7.825 23q-.6 0-1.15-.225t-.975-.65L1.3 17.7q-.275-.275-.288-.687t.263-.713l.15-.15q.35-.35.85-.475t1 0l1.725.5V8q0-.425.288-.712T6 7t.713.288T7 8v7h1v-3q0-.425.288-.712T9 11t.713.288T10 12v3h1v-2q0-.425.288-.712T12 12t.713.288T13 13v2h1q0-.425.288-.712T15 14t.713.288T16 15v4q0 1.65-1.175 2.825T12 23z"/></svg>