<svg xmlns="http://www.w3.org/2000/svg" viewBox="0 0 24 24" width="24" height="24"><path fill="currentColor" d="M16.463 12.788q-.213-.213-.213-.538v-4.5q0-.325.213-.537T17 7t.538.213t.212.537v4.5q0 .325-.213.538T17 13t-.537-.213m-2.75-1.5q-.213-.212-.213-.537v-1.5q0-.325.213-.537t.537-.213t.538.213t.212.537v1.5q0 .325-.213.538t-.537.212t-.537-.213m5.5 0Q19 11.076 19 10.75v-1.5q0-.325.213-.537t.537-.213t.538.213t.212.537v1.5q0 .325-.213.538t-.537.212t-.537-.213M12 22q-.825 0-1.412-.587T10 20h4q0 .825-.587 1.413T12 22m-7-3q-.425 0-.712-.288T4 18t.288-.712T5 17h1v-7q0-2.075 1.25-3.687T10.5 4.2v-.7q0-.625.438-1.062T12 2t1.063.438T13.5 3.5v.7q.575.15 1.1.4t1 .6q-1.575.45-2.588 1.763T12 10q0 2.075 1.463 3.538T17 15q.275 0 .513-.025T18 14.9V17h1q.425 0 .713.288T20 18t-.288.713T19 19z"/></svg>