<svg xmlns="http://www.w3.org/2000/svg" viewBox="0 0 24 24" width="24" height="24"><path fill="currentColor" d="M3.2 22q-.35 0-.475-.3t.125-.55L4 20h12l1.15 1.15q.25.25.125.55t-.475.3zm10.263-11.462Q12 9.075 12 7t1.463-3.537T17 2t3.538 1.463T22 7t-1.463 3.538T17 12t-3.537-1.463M17.35 7.85q.15-.15.15-.35v-3q0-.2-.15-.35T17 4t-.35.15t-.15.35v3q0 .2.15.35T17 8t.35-.15M17 10q.2 0 .35-.15t.15-.35t-.15-.35T17 9t-.35.15t-.15.35t.15.35t.35.15M5 19l1-1h-.5q-1.45 0-2.475-1.025T2 14.5V8q0-3.05 2.4-5.025T10 1q.325 0 .638.012t.637.063q.45.05.6.513t-.2.812q-.65.775-1.075 1.688T10.05 6H4.425q-.225.475-.325.975T4 8v1h6.3q.325 1.075.963 1.988t1.537 1.587q.875.675 1.938 1.038t2.187.387q.475 0 .775.325t.25.75q-.2 1.275-1.187 2.1T14.5 18H14l1 1zm6.063-4.437q.437-.438.437-1.063t-.437-1.062T10 12t-1.062.438T8.5 13.5t.438 1.063T10 15t1.063-.437"/></svg>