<svg xmlns="http://www.w3.org/2000/svg" viewBox="0 0 24 24" width="24" height="24"><path fill="currentColor" d="M3 19q-.825 0-1.412-.587T1 17V7q0-.825.588-1.412T3 5h10q.825 0 1.413.588T15 7v10q0 .825-.587 1.413T13 19zm0-3.65q1.1-.65 2.35-1T8 14t2.65.35t2.35 1V7H3zm3.05-2.9q-.8-.8-.8-1.95t.8-1.95T8 7.75t1.95.8t.8 1.95t-.8 1.95t-1.95.8t-1.95-.8m11.238 6.263Q17 18.425 17 18V6q0-.425.288-.712T18 5t.713.288T19 6v12q0 .425-.288.713T18 19t-.712-.288m4 0Q21 18.426 21 18V6q0-.425.288-.712T22 5t.713.288T23 6v12q0 .425-.288.713T22 19t-.712-.288"/></svg>