<svg xmlns="http://www.w3.org/2000/svg" viewBox="0 0 24 24" width="24" height="24"><path fill="currentColor" d="M8.15 21.75L6.7 19.3l-2.75-.6q-.375-.075-.6-.387t-.175-.688L3.45 14.8l-1.875-2.15q-.25-.275-.25-.65t.25-.65L3.45 9.2l-.275-2.825q-.05-.375.175-.688t.6-.387l2.75-.6l1.45-2.45q.2-.325.55-.438t.7.038l2.6 1.1l2.6-1.1q.35-.15.7-.038t.55.438L17.3 4.7l2.75.6q.375.075.6.388t.175.687L20.55 9.2l1.875 2.15q.25.275.25.65t-.25.65L20.55 14.8l.275 2.825q.05.375-.175.688t-.6.387l-2.75.6l-1.45 2.45q-.2.325-.55.438t-.7-.038l-2.6-1.1l-2.6 1.1q-.35.15-.7.038t-.55-.438m4.563-5.038Q13 16.426 13 16t-.288-.712T12 15t-.712.288T11 16t.288.713T12 17t.713-.288m0-4Q13 12.425 13 12V8q0-.425-.288-.712T12 7t-.712.288T11 8v4q0 .425.288.713T12 13t.713-.288"/></svg>