<svg xmlns="http://www.w3.org/2000/svg" viewBox="0 0 24 24" width="24" height="24"><path fill="currentColor" d="m16.075 17.475l-3.25 3.25q-.275.275-.7.275t-.7-.275t-.275-.7t.275-.7l3.25-3.25l-3.25-3.25q-.275-.275-.275-.7t.275-.7t.7-.275t.7.275l3.25 3.25l3.25-3.25q.275-.275.7-.275t.7.275t.275.7t-.275.7l-3.25 3.25l3.25 3.25q.275.275.275.7t-.275.7t-.7.275t-.7-.275zM3.288 4.712Q3 4.426 3 4t.288-.712T4 3t.713.288T5 4t-.288.713T4 5t-.712-.288m4 0Q7 4.426 7 4t.288-.712T8 3t.713.288T9 4t-.288.713T8 5t-.712-.288m4 0Q11 4.426 11 4t.288-.712T12 3t.713.288T13 4t-.288.713T12 5t-.712-.288m4 0Q15 4.426 15 4t.288-.712T16 3t.713.288T17 4t-.288.713T16 5t-.712-.288m4 0Q19 4.426 19 4t.288-.712T20 3t.713.288T21 4t-.288.713T20 5t-.712-.288m-12 16Q7 20.426 7 20t.288-.712T8 19t.713.288T9 20t-.288.713T8 21t-.712-.288m-4-12Q3 8.425 3 8t.288-.712T4 7t.713.288T5 8t-.288.713T4 9t-.712-.288m0 4Q3 12.426 3 12t.288-.712T4 11t.713.288T5 12t-.288.713T4 13t-.712-.288m0 4Q3 16.426 3 16t.288-.712T4 15t.713.288T5 16t-.288.713T4 17t-.712-.288m0 4Q3 20.426 3 20t.288-.712T4 19t.713.288T5 20t-.288.713T4 21t-.712-.288m16-12Q19 8.425 19 8t.288-.712T20 7t.713.288T21 8t-.288.713T20 9t-.712-.288"/></svg>