<svg xmlns="http://www.w3.org/2000/svg" viewBox="0 0 24 24"><path fill="currentColor" d="M16.95 22.888q-.275-.113-.5-.338l-4-4q-.225-.225-.337-.5T12 17.5t.113-.562t.337-.513L16.1 12.8l-1.25-1.25q-.3-.3-.3-.7t.3-.7t.713-.3t.712.3l6.3 6.275q.225.225.338.5t.112.55t-.112.563t-.338.512l-4 4q-.225.225-.513.338T17.5 23t-.55-.112M14.2 17.5h6.6l-3.3-3.3zM12 5Q9.075 5 7.038 7.038T5 12q0 1.8.813 3.3T8 17.75V16q0-.425.288-.712T9 15t.713.288T10 16v4q0 .425-.288.713T9 21H5q-.425 0-.712-.288T4 20t.288-.712T5 19h1.35Q4.8 17.75 3.9 15.938T3 12q0-1.875.713-3.512t1.924-2.85t2.85-1.925T12 3q2.85 0 5.1 1.563t3.25 4.062q.15.4 0 .775t-.55.525t-.788 0t-.537-.55q-.775-1.95-2.513-3.162T12 5"/></svg>