<svg xmlns="http://www.w3.org/2000/svg" viewBox="0 0 24 24" width="24" height="24"><path fill="currentColor" d="M3.288 4.713Q3 4.425 3 4t.288-.712T4 3t.713.288T5 4t-.288.713T4 5t-.712-.288m4 0Q7 4.426 7 4t.288-.712T8 3t.713.288T9 4t-.288.713T8 5t-.712-.288m-4 4Q3 8.426 3 8t.288-.712T4 7t.713.288T5 8t-.288.713T4 9t-.712-.288m0 4Q3 12.426 3 12t.288-.712T4 11t.713.288T5 12t-.288.713T4 13t-.712-.288m0 4Q3 16.426 3 16t.288-.712T4 15t.713.288T5 16t-.288.713T4 17t-.712-.288m16 0Q19 16.426 19 16t.288-.712T20 15t.713.288T21 16t-.288.713T20 17t-.712-.288m-16 4Q3 20.426 3 20t.288-.712T4 19t.713.288T5 20t-.288.713T4 21t-.712-.288m4 0Q7 20.426 7 20t.288-.712T8 19t.713.288T9 20t-.288.713T8 21t-.712-.288m4 0Q11 20.426 11 20t.288-.712T12 19t.713.288T13 20t-.288.713T12 21t-.712-.288m4 0Q15 20.426 15 20t.288-.712T16 19t.713.288T17 20t-.288.713T16 21t-.712-.288m4 0Q19 20.426 19 20t.288-.712T20 19t.713.288T21 20t-.288.713T20 21t-.712-.288M19 12V8q0-1.25-.875-2.125T16 5h-4q-.425 0-.712-.288T11 4t.288-.712T12 3h4q2.075 0 3.538 1.463T21 8v4q0 .425-.288.713T20 13t-.712-.288T19 12"/></svg>