<svg xmlns="http://www.w3.org/2000/svg" viewBox="0 0 24 24"><path fill="currentColor" d="M14.463 21.538Q13 20.075 13 18t1.463-3.537T18 13t3.538 1.463T23 18t-1.463 3.538T18 23t-3.537-1.463M17.1 19.85q.15-.15.15-.35v-3q0-.2-.15-.35t-.35-.15t-.35.15t-.15.35v3q0 .2.15.35t.35.15t.35-.15m2.5 0q.15-.15.15-.35v-3q0-.2-.15-.35t-.35-.15t-.35.15t-.15.35v3q0 .2.15.35t.35.15t.35-.15M2 6q0-.825.588-1.412T4 4h16q.825 0 1.413.588T22 6v4.9q0 .45-.387.675t-.813.025q-.65-.275-1.35-.437T18 11q-.675 0-1.312.125t-1.238.35q-1.2-.55-2.05-1.537T12.2 7.65q-.05-.15-.2-.15t-.2.15q-.4 1.525-1.512 2.638T7.65 11.8q-.15.05-.15.2t.15.2q1.3.35 2.288 1.2t1.537 2.05q-.35.85-.45 1.775t.05 1.825q.05.375-.175.662t-.575.288H4q-.825 0-1.412-.587T2 18z"/></svg>