<svg xmlns="http://www.w3.org/2000/svg" viewBox="0 0 24 24"><path fill="currentColor" d="M14.425 9q-.35 0-.6-.2t-.35-.525l-1.425-5q-.125-.5.163-.887T13 2h6.575q.35 0 .6.2t.35.525l1.425 5q.125.5-.162.888T21 9zM7.5 7q-.825 0-1.412-.587T5.5 5t.588-1.412T7.5 3t1.413.588T9.5 5t-.587 1.413T7.5 7m-.95 14q-.825 0-1.513-.587T4.176 19l-1.95-9.8q-.1-.475.2-.837t.8-.363q.35 0 .625.225t.35.575L6.25 19H12q.425 0 .713.288T13 20t-.288.713T12 21zm9.05-3H8.65q-.725 0-1.263-.437T6.7 16.4l-1.1-5.35q-.25-1.2.575-2.125T8.2 8q.875 0 1.588.525T10.7 9.95L11.8 15h3.25q.525 0 .975.275t.725.725l3 5.125q.2.35.088.763t-.463.612t-.763.088t-.612-.463z"/></svg>