<svg xmlns="http://www.w3.org/2000/svg" viewBox="0 0 24 24" width="24" height="24"><path fill="currentColor" d="M17.9 8.188q-1.1-1.713-2.95-2.563q-.375-.175-.55-.537t-.05-.738q.15-.4.525-.575t.775 0q2.425 1.075 3.888 3.275T21 11.975T19.537 16.9t-3.887 3.275q-.4.175-.775 0t-.525-.575q-.125-.375.05-.737t.55-.538q1.85-.85 2.95-2.562t1.1-3.788t-1.1-3.787M7 15H4q-.425 0-.712-.288T3 14v-4q0-.425.288-.712T4 9h3l3.3-3.3q.475-.475 1.088-.213t.612.938v11.15q0 .675-.612.938T10.3 18.3zm9.5-3q0 1.025-.437 1.938t-1.213 1.537q-.275.2-.562.088T14 15.1V8.85q0-.35.288-.462t.562.087q.775.625 1.213 1.55T16.5 12M2 7q-.425 0-.712-.288T1 6V3q0-.825.588-1.412T3 1h3q.425 0 .713.288T7 2t-.288.713T6 3H3v3q0 .425-.288.713T2 7m16 16q-.425 0-.712-.288T17 22t.288-.712T18 21h3v-3q0-.425.288-.712T22 17t.713.288T23 18v3q0 .825-.587 1.413T21 23z"/></svg>