<svg xmlns="http://www.w3.org/2000/svg" viewBox="0 0 24 24" width="24" height="24"><path fill="currentColor" d="M6 22h1.6q.45 0 .675-.387T8.3 20.8q-.15-.425-.225-.862T8 19q0-1.675 1-2.988t2.575-1.787q.75-1.025 1.925-1.612t2.475-.588h.413q.212 0 .412.05q.45.075.813-.187t.362-.688V9.1q.025-.4-.125-.762t-.425-.663L12.475 2.6q-.3-.3-.662-.45T11.05 2q-.375 0-.75.15t-.65.45L4.575 7.675Q4.3 7.95 4.15 8.3T4 9.075V20q0 .875.563 1.438T6 22m5-12.975q-.625 0-1.037-.438T9.5 7.525q.05-.625.463-1.062T11 6.025t1.025.438t.475 1.062q-.075.625-.475 1.063T11 9.025M13 22q-1.275 0-2.137-.862T10 19q0-1.2.825-2.062t2.025-.913q.4-.9 1.238-1.463T15.925 14q1.175 0 2.138.663t1.262 1.837q1.125 0 1.9.813T22 19.25t-.712 1.938T19.5 22z"/></svg>