<svg xmlns="http://www.w3.org/2000/svg" viewBox="0 0 24 24" width="24" height="24"><path fill="currentColor" d="M4.213 13.863q.212.912.637 1.712q.2.375.1.8t-.425.65q-.35.25-.737.138t-.613-.488Q2.6 15.6 2.3 14.437T2 12t.3-2.463t.875-2.237q.225-.375.613-.475t.737.15q.325.225.425.65t-.1.8q-.425.8-.638 1.713T4 12t.213 1.863M7.75 16.25Q6 14.5 6 12t1.75-4.25T12 6t4.25 1.75T18 12t-1.75 4.25T12 18t-4.25-1.75m12.038-6.113q-.213-.912-.638-1.712q-.2-.375-.112-.8t.412-.65q.35-.25.75-.15t.625.475q.575 1.05.875 2.238T22 12t-.3 2.438t-.875 2.237q-.225.375-.625.488t-.75-.138q-.325-.225-.412-.65t.112-.8q.425-.8.638-1.712T20 12t-.213-1.862"/></svg>