<svg xmlns="http://www.w3.org/2000/svg" viewBox="0 0 24 24"><path fill="currentColor" d="M15 22q-.825 0-1.412-.587T13 20v-4q0-.825.588-1.412T15 14h6q.825 0 1.413.588T23 16v4q0 .825-.587 1.413T21 22zm-4.725 0q-.425 0-.75-.275t-.375-.7l-.3-2.225q-.325-.125-.613-.3t-.562-.375l-1.55.65q-.625.275-1.25.05t-.975-.8l-1.175-2.05q-.35-.575-.2-1.238t.675-1.062l1.325-1Q4.5 12.5 4.5 12.337v-.675q0-.162.025-.337l-1.325-1q-.525-.4-.675-1.063t.2-1.237L3.9 5.975q.35-.575.975-.8t1.25.05l1.55.65q.275-.2.575-.375t.6-.3l.2-1.65q.075-.675.575-1.113T10.8 2h2.4q.675 0 1.175.438t.575 1.112l.2 1.65q.325.125.613.3t.562.375l1.5-.65q.625-.275 1.263-.05t.987.8l1.175 2.05q.35.575.213 1.225t-.663 1.075L19.125 11.6q-.275.2-.562.3t-.638.1h-2.35q0-1.45-1.037-2.475T12.05 8.5q-1.475 0-2.488 1.013T8.55 12q0 1.2.688 2.1T11 15.35v5.8q0 .35-.2.6t-.525.25"/></svg>