<svg xmlns="http://www.w3.org/2000/svg" viewBox="0 0 24 24" width="24" height="24"><path fill="currentColor" d="M21.3 21.3q-.3.3-.712.3t-.713-.3l-2.35-2.375Q17.45 18.95 17 19q-.825 0-1.412-.587T15 17t.588-1.412T17 15t1.413.588T19 17q0 .075-.075.525L21.3 19.9q.3.3.3.7t-.3.7M4 11.1V6.375q0-.625.363-1.125t.937-.725l6-2.25q.35-.125.7-.125t.7.125l6 2.25q.575.225.938.725T20 6.375v1.7q0 .575-.45.888t-1 .187q-.375-.075-.763-.113T17 9q-3.35 0-5.675 2.325T9 17q0 .8.163 1.588t.462 1.512q.125.3-.112.513t-.488.062q-2.35-1.575-3.687-4.163T4 11.1m7 5.9q0-2.5 1.75-4.25T17 11t4.25 1.75T23 17q0 .425-.288.713T22 18t-.712-.288T21 17q0-1.65-1.175-2.825T17 13t-2.825 1.175T13 17t1.175 2.825T17 21q.425 0 .713.288T18 22t-.288.713T17 23q-2.5 0-4.25-1.75T11 17"/></svg>