<svg xmlns="http://www.w3.org/2000/svg" viewBox="0 0 24 24" width="24" height="24"><path fill="currentColor" d="M11.438 19.563Q11 19.125 11 18.5v-4.65L2.075 4.925q-.3-.3-.3-.712t.3-.713t.713-.3t.712.3l17 17q.3.3.3.7t-.3.7t-.712.3t-.713-.3L14 16.85v1.65q0 .625-.437 1.063T12.5 20t-1.062-.437m7.062-4.538q-.575-.025-1.037-.4t-.463-1.1V5.5q0-.625.438-1.062T18.5 4t1.063.438T20 5.5v8.025q0 .75-.462 1.138t-1.038.362m-10.937-.587Q8 14.875 8 15.5v3q0 .625-.437 1.063T6.5 20t-1.062-.437T5 18.5v-3q0-.625.438-1.062T6.5 14t1.063.438"/></svg>