<svg xmlns="http://www.w3.org/2000/svg" viewBox="0 0 24 24" width="24" height="24"><path fill="currentColor" d="m11.375 23l-8.625-.775q-.425-.05-.7-.363t-.225-.737t.363-.687t.737-.213l4.225.375l.475-1.7L1.8 17.8q-.425-.075-.65-.413T1 16.65q.075-.425.413-.65t.762-.15l5.975 1.125l.425-1.475l-6.75-1.825q-.4-.125-.6-.475t-.075-.75t.463-.612t.737-.088l6.75 1.825l.375-1.325L4.75 9.8q-.375-.2-.5-.587t.075-.763t.587-.5t.763.075l5.85 3.05l.075-1.75q.025-.425.213-.775t.537-.6q.275-.2.6-.312t.625-.063t.525.2t.35.425l2.3 5.3q.2.475.225.975t-.1 1L15.6 20.1q-.4 1.4-1.588 2.213T11.375 23m7-7.35q.125-.575.125-1.175t-.25-1.175l-2.425-5.625l.575-.35L14.375 2.4q-.15-.375 0-.763T14.9 1.1q.4-.175.775-.012t.55.537l2.525 6.1l1.15-1.3q.275-.3.65-.45t.8-.125q.35.05.675.188t.525.362t.3.5t0 .575L21.2 12.95q-.15.5-.45.913t-.725.687zM11.75 6.525l-2.1-3.05q-.25-.35-.175-.75T9.9 2.1q.35-.25.75-.175t.65.425l2.6 3.775q-.55-.125-1.1 0t-1.05.4m-1.575 2.15l-2.7-1.4l-.525-.625q-.275-.325-.238-.737t.388-.688q.325-.275.725-.225t.675.375l2 2.425q-.125.2-.2.425t-.125.45"/></svg>