<svg xmlns="http://www.w3.org/2000/svg" viewBox="0 0 24 24" width="24" height="24"><path fill="currentColor" d="m11 13.725l-3.3 1.9l-.5 2.75q-.075.425-.4.663t-.75.162t-.65-.412t-.15-.763l.2-1.075l-.75.425q-.35.2-.75.088T3.35 17t-.1-.763t.45-.612l.75-.425l-1.05-.375q-.4-.125-.575-.5T2.8 13.55q.125-.4.5-.563t.775-.037l2.625.95L10 12l-3.3-1.9l-2.625.95q-.4.125-.763-.038T2.8 10.45t.025-.787t.575-.513l1.05-.35l-.75-.425q-.35-.2-.45-.612T3.35 7t.6-.462t.75.087l.75.425l-.2-1.075q-.075-.425.15-.762t.65-.413t.75.163t.4.662l.5 2.75l3.3 1.9V6.45l-2.125-1.8q-.325-.275-.363-.675t.238-.725t.675-.362t.725.237l.85.725V3q0-.425.288-.712T12 2t.713.288T13 3v.85l.85-.725q.325-.275.725-.238t.675.363t.238.725t-.363.675L13 6.45v3.825l3.3-1.9l.5-2.75q.075-.425.4-.663t.75-.162t.65.413t.15.762l-.2 1.075l.75-.425q.35-.2.75-.087t.6.462t.1.763t-.45.612l-.75.425l1.05.375q.4.125.575.5t.025.775q-.125.4-.5.563t-.775.037L17.3 10.1L14 12l3.3 1.9l2.625-.95q.4-.125.763.038t.512.562t-.025.788t-.575.512l-1.05.35l.75.425q.35.2.45.613t-.1.762t-.6.463t-.75-.088l-.75-.425l.2 1.075q.075.425-.15.763t-.65.412t-.75-.162t-.4-.663l-.5-2.75l-3.3-1.9v3.825l2.125 1.8q.325.275.363.675t-.238.725t-.675.363t-.725-.238L13 20.15V21q0 .425-.288.713T12 22t-.712-.288T11 21v-.85l-.85.725q-.325.275-.725.238t-.675-.363t-.238-.725t.363-.675L11 17.55z"/></svg>