<svg xmlns="http://www.w3.org/2000/svg" viewBox="0 0 24 24" width="24" height="24"><path fill="currentColor" d="M11.288 9.288Q11 9.575 11 10v2q0 .425.288.713T12 13t.713-.288T13 12v-2q0-.425-.288-.712T12 9t-.712.288m-2.576 9.425Q8.425 19 8 19H6q-.425 0-.712-.288T5 18t.288-.712T6 17h2q.425 0 .713.288T9 18t-.288.713m10 0Q18.426 19 18 19h-2q-.425 0-.712-.288T15 18t.288-.712T16 17h2q.425 0 .713.288T19 18t-.288.713M7 13q.825 0 1.413-.587T9 11t-.587-1.412T7 9t-1.412.588T5 11t.588 1.413T7 13m10 0q.825 0 1.413-.587T19 11t-.587-1.412T17 9t-1.412.588T15 11t.588 1.413T17 13M4 16q-.825 0-1.412-.587T2 14V8q0-.825.588-1.412T4 6h16q.825 0 1.413.588T22 8v6q0 .825-.587 1.413T20 16z"/></svg>