<svg xmlns="http://www.w3.org/2000/svg" viewBox="0 0 24 24" width="24" height="24"><path fill="currentColor" d="M7 9q.425 0 .713.288T8 10v.5q0 .2-.15.35T7.5 11H7q-.2 0-.35-.15t-.15-.35h-2v1H7q.425 0 .713.288T8 12.5V14q0 .425-.288.713T7 15H4q-.425 0-.712-.288T3 14v-.5q0-.2.15-.35T3.5 13H4q.2 0 .35.15t.15.35h2v-1H4q-.425 0-.712-.288T3 11.5V10q0-.425.288-.712T4 9zm7 0q.425 0 .713.288T15 10v4q0 .425-.288.713T14 15h-.75v.75q0 .325-.213.538t-.537.212t-.537-.213t-.213-.537V15H11q-.425 0-.712-.288T10 14v-4q0-.425.288-.712T11 9zm-.5 1.5h-2v3h2zm4.788-1.287q.212.212.212.537v3.75h1.75q.325 0 .538.213t.212.537t-.213.538t-.537.212H18q-.425 0-.712-.288T17 14V9.75q0-.325.213-.537T17.75 9t.538.213"/></svg>