<svg xmlns="http://www.w3.org/2000/svg" viewBox="0 0 24 24" width="24" height="24"><path fill="currentColor" d="M2.588 13.413Q2 12.825 2 12t.588-1.412T4 10t1.413.588T6 12t-.587 1.413T4 14t-1.412-.587M4.95 17.6l2.95-2.95q.275-.275.7-.275t.7.275t.275.7t-.275.7L6.35 19q-.275.275-.7.275T4.95 19t-.275-.7t.275-.7m3-8.3L5 6.35q-.275-.275-.275-.7T5 4.95t.7-.275t.7.275L9.35 7.9q.275.275.275.7t-.275.7t-.7.275t-.7-.275m2.638 12.112Q10 20.826 10 20t.588-1.412T12 18t1.413.588T14 20t-.587 1.413T12 22t-1.412-.587m0-16Q10 4.825 10 4t.588-1.412T12 2t1.413.588T14 4t-.587 1.413T12 6t-1.412-.587M14.65 7.9l3-2.95q.275-.275.688-.288t.712.288q.275.275.275.7t-.275.7l-2.975 2.975q-.3.3-.712.3t-.713-.3q-.275-.3-.288-.712t.288-.713m3 11.1l-2.95-2.95q-.275-.275-.275-.7t.275-.7t.7-.275t.7.275l2.95 2.95q.275.275.275.7t-.275.7t-.7.275t-.7-.275m.938-5.587Q18 12.825 18 12t.588-1.412T20 10t1.413.588T22 12t-.587 1.413T20 14t-1.412-.587"/></svg>