<svg xmlns="http://www.w3.org/2000/svg" viewBox="0 0 24 24" width="24" height="24"><path fill="currentColor" d="M9 22H6q-.425 0-.712-.288T5 21t.288-.712T6 20h3q.425 0 .713.288T10 21t-.288.713T9 22m9 0h-3q-.425 0-.712-.288T14 21t.288-.712T15 20h3q.425 0 .713.288T19 21t-.288.713T18 22M5.4 19q-.95 0-1.55-.712t-.425-1.638l2.275-13q.125-.725.688-1.187T7.675 2h8.65q.725 0 1.288.463T18.3 3.65l2.3 13q.175.925-.425 1.638t-1.55.712zm6.6-3q1.65 0 2.825-1.175T16 12t-1.175-2.825T12 8T9.175 9.175T8 12t1.175 2.825T12 16m0-2q-.825 0-1.412-.587T10 12t.588-1.412T12 10t1.413.588T14 12t-.587 1.413T12 14m0-7q.425 0 .713-.288T13 6t-.288-.712T12 5t-.712.288T11 6t.288.713T12 7"/></svg>