<svg xmlns="http://www.w3.org/2000/svg" viewBox="0 0 24 24" width="24" height="24"><path fill="currentColor" d="M8.713 8.713Q9 8.425 9 8t-.288-.712T8 7t-.712.288T7 8t.288.713T8 9t.713-.288m0 4Q9 12.426 9 12t-.288-.712T8 11t-.712.288T7 12t.288.713T8 13t.713-.288m0 4Q9 16.426 9 16t-.288-.712T8 15t-.712.288T7 16t.288.713T8 17t.713-.288M5 21q-.825 0-1.412-.587T3 19V5q0-.825.588-1.412T5 3h10.175q.4 0 .763.15t.637.425l3.85 3.85q.275.275.425.638t.15.762V19q0 .825-.587 1.413T19 21zM15 5v3q0 .425.288.713T16 9h3z"/></svg>