<svg xmlns="http://www.w3.org/2000/svg" viewBox="0 0 24 24" width="24" height="24"><path fill="currentColor" d="M15.225 14.275Q14.5 13.55 14.5 12.5t.725-1.775T17 10t1.775.725t.725 1.775t-.725 1.775T17 15t-1.775-.725M13 20q-.425 0-.712-.288T12 19v-.4q0-.6.313-1.112t.887-.738q.9-.375 1.863-.562T17 16t1.938.188t1.862.562q.575.225.888.738T22 18.6v.4q0 .425-.288.713T21 20zm-5.825-9.175Q6 9.65 6 8t1.175-2.825T10 4t2.825 1.175T14 8t-1.175 2.825T10 12t-2.825-1.175M2 17.2q0-.85.425-1.562T3.6 14.55q1.5-.75 3.113-1.15T10 13q.875 0 1.75.15t1.75.35l-1.7 1.7q-.625.625-1.213 1.275T10 18v.975q0 .3.113.563t.362.462H4q-.825 0-1.412-.587T2 18z"/></svg>