<svg xmlns="http://www.w3.org/2000/svg" viewBox="0 0 24 24" width="24" height="24"><path fill="currentColor" d="M7.288 4.713Q7 4.425 7 4t.288-.712T8 3t.713.288T9 4t-.288.713T8 5t-.712-.288m8 0Q15 4.426 15 4t.288-.712T16 3t.713.288T17 4t-.288.713T16 5t-.712-.288m-12 4Q3 8.426 3 8t.288-.712T4 7t.713.288T5 8t-.288.713T4 9t-.712-.288m16 0Q19 8.426 19 8t.288-.712T20 7t.713.288T21 8t-.288.713T20 9t-.712-.288m-16 8Q3 16.426 3 16t.288-.712T4 15t.713.288T5 16t-.288.713T4 17t-.712-.288m16 0Q19 16.426 19 16t.288-.712T20 15t.713.288T21 16t-.288.713T20 17t-.712-.288m-12 4Q7 20.426 7 20t.288-.712T8 19t.713.288T9 20t-.288.713T8 21t-.712-.288m8 0Q15 20.426 15 20t.288-.712T16 19t.713.288T17 20t-.288.713T16 21t-.712-.288M9 17q-.825 0-1.412-.587T7 15V9q0-.825.588-1.412T9 7h6q.825 0 1.413.588T17 9v6q0 .825-.587 1.413T15 17z"/></svg>