<svg xmlns="http://www.w3.org/2000/svg" viewBox="0 0 24 24" width="24" height="24"><path fill="currentColor" d="M6 22q-.825 0-1.412-.587T4 20V4q0-.825.588-1.412T6 2h12q.825 0 1.413.588T20 4v16q0 .825-.587 1.413T18 22zm3-5h6q.425 0 .713-.288T16 16V8q0-.425-.288-.712T15 7H9q-.425 0-.712.288T8 8v8q0 .425.288.713T9 17m1-2v-4h4v4zm2-9.75q.325 0 .538-.213t.212-.537t-.213-.537T12 3.75t-.537.213t-.213.537t.213.538t.537.212m0 15q.325 0 .538-.213t.212-.537t-.213-.537T12 18.75t-.537.213t-.213.537t.213.538t.537.212"/></svg>