<svg xmlns="http://www.w3.org/2000/svg" viewBox="0 0 24 24" width="24" height="24"><path fill="currentColor" d="M19.288 20.713Q19 20.425 19 20t.288-.712T20 19t.713.288T21 20t-.288.713T20 21t-.712-.288m-4 0Q15 20.426 15 20t.288-.712T16 19t.713.288T17 20t-.288.713T16 21t-.712-.288m-4 0Q11 20.426 11 20t.288-.712T12 19t.713.288T13 20t-.288.713T12 21t-.712-.288m-4 0Q7 20.426 7 20t.288-.712T8 19t.713.288T9 20t-.288.713T8 21t-.712-.288m12-16Q19 4.425 19 4t.288-.712T20 3t.713.288T21 4t-.288.713T20 5t-.712-.288m-4 0Q15 4.426 15 4t.288-.712T16 3t.713.288T17 4t-.288.713T16 5t-.712-.288m-4 0Q11 4.426 11 4t.288-.712T12 3t.713.288T13 4t-.288.713T12 5t-.712-.288m-4 0Q7 4.426 7 4t.288-.712T8 3t.713.288T9 4t-.288.713T8 5t-.712-.288m-4 16Q3 20.426 3 20V4q0-.425.288-.712T4 3t.713.288T5 4v16q0 .425-.288.713T4 21t-.712-.288M13.825 13l.9.9q.275.275.275.688t-.3.712q-.275.275-.7.275t-.7-.275l-2.6-2.6q-.3-.3-.3-.7t.3-.7l2.6-2.6q.275-.275.7-.275t.7.275q.3.3.3.713t-.275.687l-.9.9H20q.425 0 .713.288T21 12t-.288.713T20 13z"/></svg>