<svg xmlns="http://www.w3.org/2000/svg" viewBox="0 0 24 24" width="24" height="24"><path fill="currentColor" d="M4 20q-.825 0-1.412-.587T2 18V6q0-.825.588-1.412T4 4l2 2H3.15l-1.8-1.8q-.3-.3-.3-.712t.3-.713t.713-.3t.712.3l18.4 18.4q.3.3.3.7t-.3.7t-.712.3t-.713-.3L17.15 20zm11.85-7H18q.425 0 .713-.288T19 12t-.288-.712T18 11h-4.15l-2-2H14q.425 0 .713-.288T15 8t-.288-.712T14 7H9.85l-1.3-1.3q-.475-.475-.213-1.088T9.276 4H20q.825 0 1.413.588T22 6v10.725q0 .675-.612.938T20.3 17.45zM5.288 16.713Q5.575 17 6 17h8.15l-2-2H6q-.425 0-.712.288T5 16t.288.713m0-4Q5.575 13 6 13h4.15l-2-2H6q-.425 0-.712.288T5 12t.288.713m0-5.425Q5.575 7 6 7H4.15l2 2H6q-.425 0-.712-.288T5 8t.288-.712"/></svg>