<svg xmlns="http://www.w3.org/2000/svg" viewBox="0 0 24 24" width="24" height="24"><path fill="currentColor" d="M4 20v.5q0 .625-.437 1.063T2.5 22t-1.062-.437T1 20.5v-6.9q0-.3.05-.587t.175-.563l1.9-4.525q.175-.425.55-.675T4.5 7h9q.45 0 .825.25t.55.675l1.9 4.525q.125.275.175.563t.05.587v6.9q0 .625-.437 1.063T15.5 22t-1.062-.437T14 20.5V20zm-.2-9h10.375l-.825-2h-8.7zm2.763 5.563Q7 16.125 7 15.5t-.437-1.062T5.5 14t-1.062.438T4 15.5t.438 1.063T5.5 17t1.063-.437m7 0Q14 16.125 14 15.5t-.437-1.062T12.5 14t-1.062.438T11 15.5t.438 1.063T12.5 17t1.063-.437M16.175 6h-9q-.5 0-.75-.312T6.175 5t.25-.687t.75-.313H16.5q.45 0 .825.25t.55.675l1.9 4.525q.125.275.175.563t.05.587V18q0 .425-.288.713T19 19t-.712-.288T18 18v-7.6zm3-3h-9q-.5 0-.75-.312T9.175 2t.25-.687t.75-.313H19.5q.45 0 .825.25t.55.675l1.9 4.525q.125.275.175.563T23 7.6V15q0 .425-.288.713T22 16t-.712-.288T21 15V7.4z"/></svg>