<svg xmlns="http://www.w3.org/2000/svg" viewBox="0 0 24 24" width="24" height="24"><path fill="currentColor" d="M11.975 19.4h2.675l-1.35-3.8zM16.75 10h2.5q.425 0 .713-.287T20.25 9v-.5q0-.325-.213-.537T19.5 7.75t-.537.213t-.213.537h-1.5v-3h1.5q0 .325.213.538t.537.212t.538-.213t.212-.537V5q0-.425-.288-.712T19.25 4h-2.5q-.425 0-.712.288T15.75 5v4q0 .425.288.713t.712.287m-8.725 5.9q.35.425.938.988t.937.912l-.575 1.525q-.425-.4-1.125-1.088T7 17l-3.225 3.225q-.225.225-.525.225t-.525-.225t-.225-.537t.225-.538L6 15.925q-.5-.575-.937-1.163t-.788-1.237Q4.1 13.2 4.2 12.938t.325-.388t.488-.075t.412.325q.325.575.713 1.138T7 15q.8-.9 1.4-1.9t.975-2.1H1.75q-.3 0-.525-.213T1 10.25q0-.3.225-.525T1.75 9.5h4.5v-.75q0-.325.213-.537T7 8t.538.213t.212.537v.75h4.7q.325 0 .538.213t.212.537t-.212.538t-.538.212H10.8q-.425 1.35-1.112 2.575T8.025 15.9m3.475 4.8l-.65 1.825q-.075.2-.262.338t-.413.137q-.375 0-.587-.312t-.088-.663l2.825-7.55q.075-.225.263-.35t.437-.125h.575q.25 0 .437.138t.263.362l2.825 7.525q.125.35-.088.663T16.45 23q-.225 0-.413-.137t-.262-.363l-.65-1.8zm10-7.7H16q-.425 0-.712-.288T15 12V9.5q0-.625-.437-1.062T13.5 8h-2.25V5.5h1.5q0 .325.213.538t.537.212t.538-.213t.212-.537V5q0-.425-.288-.712T13.25 4h-2.5q-.425 0-.712.288T9.75 5v3H9V6.5H8q-.425 0-.712-.288T7 5.5v-3q0-.625.425-1.062T8.5 1h13q.65 0 1.075.438T23 2.5v9q0 .625-.425 1.063T21.5 13"/></svg>