<svg xmlns="http://www.w3.org/2000/svg" viewBox="0 0 24 24"><path fill="currentColor" d="M3 21q-.825 0-1.412-.587T1 19V8q0-.425.288-.712T2 7t.713.288T3 8v11h15q.425 0 .713.288T19 20t-.288.713T18 21zM21.288 7.712Q21 7.425 21 7V5h-2q-.425 0-.712-.288T18 4t.288-.712T19 3h2q.825 0 1.413.588T23 5v2q0 .425-.288.713T22 8t-.712-.288m-16 0Q5 7.426 5 7V5q0-.825.588-1.412T7 3h2q.425 0 .713.288T10 4t-.288.713T9 5H7v2q0 .425-.288.713T6 8t-.712-.288M19 17q-.425 0-.712-.288T18 16t.288-.712T19 15h2v-2q0-.425.288-.712T22 12t.713.288T23 13v2q0 .825-.587 1.413T21 17zM7 17q-.825 0-1.412-.587T5 15v-2q0-.425.288-.712T6 12t.713.288T7 13v2h2q.425 0 .713.288T10 16t-.288.713T9 17zm5.775-3.5l4.8-3.075q.225-.15.225-.425t-.225-.425l-4.8-3.075q-.25-.175-.513-.025t-.262.45v6.15q0 .3.263.45t.512-.025"/></svg>