<svg xmlns="http://www.w3.org/2000/svg" viewBox="0 0 24 24"><path fill="currentColor" d="M20.288 9.713Q20 9.425 20 9V6h-3q-.425 0-.712-.288T16 5t.288-.712T17 4h3q.825 0 1.413.588T22 6v3q0 .425-.288.713T21 10t-.712-.288M3 10q-.425 0-.712-.288T2 9V6q0-.825.588-1.412T4 4h3q.425 0 .713.288T8 5t-.288.713T7 6H4v3q0 .425-.288.713T3 10m1 10q-.825 0-1.412-.587T2 18v-3q0-.425.288-.712T3 14t.713.288T4 15v3h3q.425 0 .713.288T8 19t-.288.713T7 20zm5.5-4.425v-7.15q0-.3.263-.45t.512.025l5.575 3.575q.225.15.225.425t-.225.425L10.275 16q-.25.175-.513.025t-.262-.45m6.5 8.4q-.425 0-.712-.288T15 22.976t.288-.712t.712-.288h6q.425 0 .713.288t.287.712t-.288.713t-.712.287zm2-6.825V14q0-.425.288-.712T19 13t.713.288T20 14v3.15l.9-.875q.275-.275.688-.275t.712.3q.275.275.275.7t-.275.7l-2.95 2.95q-.15.15-.35.15t-.35-.15L15.7 17.7q-.275-.275-.287-.687t.287-.713q.275-.275.688-.288t.712.263z"/></svg>