<svg xmlns="http://www.w3.org/2000/svg" viewBox="0 0 24 24" width="24" height="24"><path fill="currentColor" d="M15.188 14.688Q16.5 13.375 16.5 11.5t-1.312-3.187T12 7T8.813 8.313T7.5 11.5t1.313 3.188T12 16t3.188-1.312m-5.1-1.276Q9.3 12.625 9.3 11.5t.788-1.912T12 8.8t1.913.788t.787 1.912t-.787 1.913T12 14.2t-1.912-.787m-4.2 3.787q-2.763-1.8-4.363-4.75q-.125-.225-.187-.462t-.063-.488t.063-.488t.187-.462q1.6-2.95 4.363-4.75T12 4t6.113 1.8t4.362 4.75q.125.225.188.463t.062.487t-.062.488t-.188.462q-1.6 2.95-4.362 4.75T12 19t-6.113-1.8"/></svg>