<svg xmlns="http://www.w3.org/2000/svg" viewBox="0 0 24 24" width="24" height="24"><path fill="currentColor" d="M5.875 20.025q-.125.375-.262.75t-.288.725q-.15.375-.537.5t-.738-.075t-.5-.575t0-.75q.85-2.025 1.138-4.2t.287-4.4q0-2.2-.275-4.35T3.575 3.475q-.175-.4-.038-.788T4.05 2.1t.763-.062t.537.512q.15.35.275.725t.25.725H8q1.65.025 2.825 1.188T12 8.025v8q0 1.65-1.175 2.825T8 20.025zM17.825 13l.9.9q.275.275.275.688t-.3.712q-.275.275-.7.275t-.7-.275l-2.6-2.6q-.3-.3-.3-.7t.3-.7l2.6-2.6q.3-.3.7-.287t.7.312q.275.3.288.7t-.288.7l-.875.875H21q.425 0 .713.288T22 12t-.288.713T21 13z"/></svg>