<svg xmlns="http://www.w3.org/2000/svg" viewBox="0 0 24 24" width="24" height="24"><path fill="currentColor" d="M7 21h10q1.65 0 2.825-1.175T21 17V7q0-1.65-1.175-2.825T17 3H7Q5.35 3 4.175 4.175T3 7v10q0 1.65 1.175 2.825T7 21m5-11.5q-1.125 0-2.15.363T8 10.875q-.325.25-.725.25T6.6 10.85q-.3-.3-.312-.712t.287-.688Q7.65 8.5 9.088 8T12 7.5q1.45 0 2.913.525T17.45 9.5q.275.275.263.663t-.313.687q-.275.275-.675.288t-.7-.238q-.825-.675-1.85-1.037T12 9.5m0 4q-.275 0-.537.075t-.513.2q-.525.275-.937.15t-.638-.425t-.213-.65t.313-.55q.575-.375 1.225-.588t1.325-.212t1.312.2t1.213.575q.3.2.312.562t-.212.663t-.638.425t-.937-.15q-.25-.125-.525-.2T12 13.5m-.712 3.213Q11 16.425 11 16t.288-.712T12 15t.713.288T13 16t-.288.713T12 17t-.712-.288"/></svg>