<svg xmlns="http://www.w3.org/2000/svg" viewBox="0 0 24 24" width="24" height="24"><path fill="currentColor" d="M19 18h-1q-.425 0-.712-.288T17 17t.288-.712T18 16h1v-1q0-.425.288-.712T20 14t.713.288T21 15v1h1q.425 0 .713.288T23 17t-.288.713T22 18h-1v1q0 .425-.288.713T20 20t-.712-.288T19 19zm-4.55-6.425l-3.7-2.15q-.25-.15-.5.013t-.25.437v4.25q0 .275.25.438t.5.012l3.7-2.15q.25-.15.25-.425t-.25-.425M12 5l1 .012q1 .013 2.313.05t2.6.125t1.887.238q.65.175 1.125.65t.65 1.125q.25.875.325 2.05t.075 2.275q0 .325-.263.513t-.587.087q-1.25-.3-2.488.05t-2.162 1.275q-.95.925-1.287 2.188t-.063 2.537q.075.3-.1.55t-.475.25q-.55 0-1.012.013T12.75 19H12q-1.775 0-3.325-.05q-1.325-.025-2.613-.112T4.176 18.6q-.65-.175-1.125-.65t-.65-1.125q-.15-.6-.238-1.425t-.112-1.575Q2 12.925 2 12t.05-1.8q.025-.775.113-1.588T2.4 7.2q.175-.65.65-1.125t1.125-.65q.6-.15 1.888-.238t2.612-.137Q10.225 5 12 5"/></svg>